  0
SECTION
  2
HEADER
  9
$ANGBASE
  50
0.0
  9
$ANGDIR
  70
1
  9
$MEASUREMENT
  70
0
  0
ENDSEC
  0
SECTION
  2
TABLES
  0
TABLE
  2
LTYPE
  70
4
  0
LTYPE
  5
40F
  2
CONTINUOUS
  70
0
  3
Solid line
  72
65
  73
0
  40
0.0
  0
LTYPE
  5
410
  2
DASHDOT
 70
0
  3
Dash Dot ____ _ ____ _
 72
65
 73
4
 40
2.0
 49
1.25
 49
-0.25
 49
0.25
 49
-0.25
  0
LTYPE
  5
411
  2
DASHED
 70
0
  3
Dashed __ __ __ __ __
 72
65
 73
2
 40
0.75
 49
0.5
 49
-0.25
  0
LTYPE
  5
43B
  2
DOTTED
 70
0
  3
Dotted .  .  .  .
 72
65
 73
2
 40
0.2
 49
0.0
 49
-0.2
  0
ENDTAB
  0
TABLE
  2
STYLE
  70
4
  0
STYLE
  2
KICAD
  70
0
  40
0
  41
1
  42
1
  50
0
  71
0
  3
isocp.shx
  0
STYLE
  2
KICADB
  70
0
  40
0
  41
1
  42
1
  50
0
  71
0
  3
isocp.shx
  0
STYLE
  2
KICADI
  70
0
  40
0
  41
1
  42
1
  50
15
  71
0
  3
isocp.shx
  0
STYLE
  2
KICADBI
  70
0
  40
0
  41
1
  42
1
  50
15
  71
0
  3
isocp.shx
  0
ENDTAB
  0
TABLE
  2
LAYER
  70
1
  0
LAYER
  2
BLACK
  70
0
  62
7
  6
CONTINUOUS
  0
ENDTAB
  0
ENDSEC
  0
SECTION
  2
ENTITIES
0
LINE
8
BLACK
6
CONTINUOUS
10
5.42221
20
-3.7167
11
5.4229
21
-3.7186
0
LINE
8
BLACK
6
CONTINUOUS
10
5.4229
20
-3.7186
11
5.4229
21
-3.74672
0
LINE
8
BLACK
6
CONTINUOUS
10
5.4229
20
-3.74672
11
5.42275
21
-3.74759
0
LINE
8
BLACK
6
CONTINUOUS
10
5.42275
20
-3.74759
11
5.42275
21
-3.74765
0
LINE
8
BLACK
6
CONTINUOUS
10
5.42275
20
-3.74765
11
5.42087
21
-3.75328
0
LINE
8
BLACK
6
CONTINUOUS
10
5.42087
20
-3.75328
11
5.42039
21
-3.75418
0
LINE
8
BLACK
6
CONTINUOUS
10
5.42039
20
-3.75418
11
5.42024
21
-3.75427
0
LINE
8
BLACK
6
CONTINUOUS
10
5.42024
20
-3.75427
11
5.42016
21
-3.75443
0
LINE
8
BLACK
6
CONTINUOUS
10
5.42016
20
-3.75443
11
5.41641
21
-3.75818
0
LINE
8
BLACK
6
CONTINUOUS
10
5.41641
20
-3.75818
11
5.41557
21
-3.75877
0
LINE
8
BLACK
6
CONTINUOUS
10
5.41557
20
-3.75877
11
5.4154
21
-3.75878
0
LINE
8
BLACK
6
CONTINUOUS
10
5.4154
20
-3.75878
11
5.41526
21
-3.75889
0
LINE
8
BLACK
6
CONTINUOUS
10
5.41526
20
-3.75889
11
5.40963
21
-3.76077
0
LINE
8
BLACK
6
CONTINUOUS
10
5.40963
20
-3.76077
11
5.40876
21
-3.7609
0
LINE
8
BLACK
6
CONTINUOUS
10
5.40876
20
-3.7609
11
5.4087
21
-3.76092
0
LINE
8
BLACK
6
CONTINUOUS
10
5.4087
20
-3.76092
11
5.40495
21
-3.76092
0
LINE
8
BLACK
6
CONTINUOUS
10
5.40495
20
-3.76092
11
5.40394
21
-3.76074
0
LINE
8
BLACK
6
CONTINUOUS
10
5.40394
20
-3.76074
11
5.40239
21
-3.75944
0
LINE
8
BLACK
6
CONTINUOUS
10
5.40239
20
-3.75944
11
5.40204
21
-3.75745
0
LINE
8
BLACK
6
CONTINUOUS
10
5.40204
20
-3.75745
11
5.40305
21
-3.75571
0
LINE
8
BLACK
6
CONTINUOUS
10
5.40305
20
-3.75571
11
5.40495
21
-3.75501
0
LINE
8
BLACK
6
CONTINUOUS
10
5.40495
20
-3.75501
11
5.40822
21
-3.75501
0
LINE
8
BLACK
6
CONTINUOUS
10
5.40822
20
-3.75501
11
5.41273
21
-3.75351
0
LINE
8
BLACK
6
CONTINUOUS
10
5.41273
20
-3.75351
11
5.41549
21
-3.75075
0
LINE
8
BLACK
6
CONTINUOUS
10
5.41549
20
-3.75075
11
5.41699
21
-3.74624
0
LINE
8
BLACK
6
CONTINUOUS
10
5.41699
20
-3.74624
11
5.41699
21
-3.7186
0
LINE
8
BLACK
6
CONTINUOUS
10
5.41699
20
-3.7186
11
5.41717
21
-3.71759
0
LINE
8
BLACK
6
CONTINUOUS
10
5.41717
20
-3.71759
11
5.41847
21
-3.71604
0
LINE
8
BLACK
6
CONTINUOUS
10
5.41847
20
-3.71604
11
5.42046
21
-3.71569
0
LINE
8
BLACK
6
CONTINUOUS
10
5.42046
20
-3.71569
11
5.42221
21
-3.7167
0
LINE
8
BLACK
6
CONTINUOUS
10
5.44841
20
-3.71572
11
5.44858
21
-3.71569
0
LINE
8
BLACK
6
CONTINUOUS
10
5.44858
20
-3.71569
11
5.44932
21
-3.71612
0
LINE
8
BLACK
6
CONTINUOUS
10
5.44932
20
-3.71612
11
5.45011
21
-3.71646
0
LINE
8
BLACK
6
CONTINUOUS
10
5.45011
20
-3.71646
11
5.45018
21
-3.71661
0
LINE
8
BLACK
6
CONTINUOUS
10
5.45018
20
-3.71661
11
5.45033
21
-3.7167
0
LINE
8
BLACK
6
CONTINUOUS
10
5.45033
20
-3.7167
11
5.45062
21
-3.7175
0
LINE
8
BLACK
6
CONTINUOUS
10
5.45062
20
-3.7175
11
5.451
21
-3.71827
0
LINE
8
BLACK
6
CONTINUOUS
10
5.451
20
-3.71827
11
5.45096
21
-3.71844
0
LINE
8
BLACK
6
CONTINUOUS
10
5.45096
20
-3.71844
11
5.45102
21
-3.7186
0
LINE
8
BLACK
6
CONTINUOUS
10
5.45102
20
-3.7186
11
5.45102
21
-3.75501
0
LINE
8
BLACK
6
CONTINUOUS
10
5.45102
20
-3.75501
11
5.45932
21
-3.75501
0
LINE
8
BLACK
6
CONTINUOUS
10
5.45932
20
-3.75501
11
5.46033
21
-3.75519
0
LINE
8
BLACK
6
CONTINUOUS
10
5.46033
20
-3.75519
11
5.46187
21
-3.75649
0
LINE
8
BLACK
6
CONTINUOUS
10
5.46187
20
-3.75649
11
5.46223
21
-3.75848
0
LINE
8
BLACK
6
CONTINUOUS
10
5.46223
20
-3.75848
11
5.46122
21
-3.76023
0
LINE
8
BLACK
6
CONTINUOUS
10
5.46122
20
-3.76023
11
5.45932
21
-3.76092
0
LINE
8
BLACK
6
CONTINUOUS
10
5.45932
20
-3.76092
11
5.43682
21
-3.76092
0
LINE
8
BLACK
6
CONTINUOUS
10
5.43682
20
-3.76092
11
5.43581
21
-3.76074
0
LINE
8
BLACK
6
CONTINUOUS
10
5.43581
20
-3.76074
11
5.43426
21
-3.75944
0
LINE
8
BLACK
6
CONTINUOUS
10
5.43426
20
-3.75944
11
5.43391
21
-3.75745
0
LINE
8
BLACK
6
CONTINUOUS
10
5.43391
20
-3.75745
11
5.43492
21
-3.75571
0
LINE
8
BLACK
6
CONTINUOUS
10
5.43492
20
-3.75571
11
5.43682
21
-3.75501
0
LINE
8
BLACK
6
CONTINUOUS
10
5.43682
20
-3.75501
11
5.44512
21
-3.75501
0
LINE
8
BLACK
6
CONTINUOUS
10
5.44512
20
-3.75501
11
5.44512
21
-3.7276
0
LINE
8
BLACK
6
CONTINUOUS
10
5.44512
20
-3.7276
11
5.44266
21
-3.73006
0
LINE
8
BLACK
6
CONTINUOUS
10
5.44266
20
-3.73006
11
5.44193
21
-3.73057
0
LINE
8
BLACK
6
CONTINUOUS
10
5.44193
20
-3.73057
11
5.44189
21
-3.73061
0
LINE
8
BLACK
6
CONTINUOUS
10
5.44189
20
-3.73061
11
5.43814
21
-3.73249
0
LINE
8
BLACK
6
CONTINUOUS
10
5.43814
20
-3.73249
11
5.43716
21
-3.73278
0
LINE
8
BLACK
6
CONTINUOUS
10
5.43716
20
-3.73278
11
5.43519
21
-3.73231
0
LINE
8
BLACK
6
CONTINUOUS
10
5.43519
20
-3.73231
11
5.43399
21
-3.73069
0
LINE
8
BLACK
6
CONTINUOUS
10
5.43399
20
-3.73069
11
5.43411
21
-3.72867
0
LINE
8
BLACK
6
CONTINUOUS
10
5.43411
20
-3.72867
11
5.4355
21
-3.72721
0
LINE
8
BLACK
6
CONTINUOUS
10
5.4355
20
-3.72721
11
5.43882
21
-3.72554
0
LINE
8
BLACK
6
CONTINUOUS
10
5.43882
20
-3.72554
11
5.44202
21
-3.72234
0
LINE
8
BLACK
6
CONTINUOUS
10
5.44202
20
-3.72234
11
5.44561
21
-3.71696
0
LINE
8
BLACK
6
CONTINUOUS
10
5.44561
20
-3.71696
11
5.44632
21
-3.71622
0
LINE
8
BLACK
6
CONTINUOUS
10
5.44632
20
-3.71622
11
5.44648
21
-3.71617
0
LINE
8
BLACK
6
CONTINUOUS
10
5.44648
20
-3.71617
11
5.44659
21
-3.71604
0
LINE
8
BLACK
6
CONTINUOUS
10
5.44659
20
-3.71604
11
5.44744
21
-3.71589
0
LINE
8
BLACK
6
CONTINUOUS
10
5.44744
20
-3.71589
11
5.44826
21
-3.71565
0
LINE
8
BLACK
6
CONTINUOUS
10
5.44826
20
-3.71565
11
5.44841
21
-3.71572
0
LINE
8
BLACK
6
CONTINUOUS
10
5.17313
20
-3.68513
11
5.17244
21
-3.68346
0
LINE
8
BLACK
6
CONTINUOUS
10
5.17244
20
-3.68346
11
5.17244
21
-3.40315
0
LINE
8
BLACK
6
CONTINUOUS
10
5.17244
20
-3.40315
11
5.17313
21
-3.40148
0
LINE
8
BLACK
6
CONTINUOUS
10
5.17313
20
-3.40148
11
5.1748
21
-3.40079
0
LINE
8
BLACK
6
CONTINUOUS
10
5.1748
20
-3.40079
11
5.47874
21
-3.40079
0
LINE
8
BLACK
6
CONTINUOUS
10
5.47874
20
-3.40079
11
5.48041
21
-3.40148
0
LINE
8
BLACK
6
CONTINUOUS
10
5.48041
20
-3.40148
11
5.4811
21
-3.40315
0
LINE
8
BLACK
6
CONTINUOUS
10
5.4811
20
-3.40315
11
5.4811
21
-3.68346
0
LINE
8
BLACK
6
CONTINUOUS
10
5.4811
20
-3.68346
11
5.48041
21
-3.68513
0
LINE
8
BLACK
6
CONTINUOUS
10
5.48041
20
-3.68513
11
5.47874
21
-3.68583
0
LINE
8
BLACK
6
CONTINUOUS
10
5.47874
20
-3.68583
11
5.1748
21
-3.68583
0
LINE
8
BLACK
6
CONTINUOUS
10
5.1748
20
-3.68583
11
5.17313
21
-3.68513
0
LINE
8
BLACK
6
CONTINUOUS
10
5.17717
20
-3.40551
11
5.17717
21
-3.6811
0
LINE
8
BLACK
6
CONTINUOUS
10
5.17717
20
-3.6811
11
5.19055
21
-3.6811
0
LINE
8
BLACK
6
CONTINUOUS
10
5.19055
20
-3.6811
11
5.19055
21
-3.40551
0
LINE
8
BLACK
6
CONTINUOUS
10
5.19055
20
-3.40551
11
5.17717
21
-3.40551
0
LINE
8
BLACK
6
CONTINUOUS
10
5.19528
20
-3.40551
11
5.19528
21
-3.6811
0
LINE
8
BLACK
6
CONTINUOUS
10
5.19528
20
-3.6811
11
5.23386
21
-3.6811
0
LINE
8
BLACK
6
CONTINUOUS
10
5.23386
20
-3.6811
11
5.23386
21
-3.40551
0
LINE
8
BLACK
6
CONTINUOUS
10
5.23386
20
-3.40551
11
5.19528
21
-3.40551
0
LINE
8
BLACK
6
CONTINUOUS
10
5.23858
20
-3.40551
11
5.23858
21
-3.6811
0
LINE
8
BLACK
6
CONTINUOUS
10
5.23858
20
-3.6811
11
5.47638
21
-3.6811
0
LINE
8
BLACK
6
CONTINUOUS
10
5.47638
20
-3.6811
11
5.47638
21
-3.40551
0
LINE
8
BLACK
6
CONTINUOUS
10
5.47638
20
-3.40551
11
5.23858
21
-3.40551
0
LINE
8
BLACK
6
CONTINUOUS
10
5.3205
20
-3.52851
11
5.32071
21
-3.52879
0
LINE
8
BLACK
6
CONTINUOUS
10
5.32071
20
-3.52879
11
5.3283
21
-3.53283
0
LINE
8
BLACK
6
CONTINUOUS
10
5.3283
20
-3.53283
11
5.33668
21
-3.53589
0
LINE
8
BLACK
6
CONTINUOUS
10
5.33668
20
-3.53589
11
5.34541
21
-3.53774
0
LINE
8
BLACK
6
CONTINUOUS
10
5.34541
20
-3.53774
11
5.35431
21
-3.53837
0
LINE
8
BLACK
6
CONTINUOUS
10
5.35431
20
-3.53837
11
5.36321
21
-3.53775
0
LINE
8
BLACK
6
CONTINUOUS
10
5.36321
20
-3.53775
11
5.37194
21
-3.5359
0
LINE
8
BLACK
6
CONTINUOUS
10
5.37194
20
-3.5359
11
5.38033
21
-3.53285
0
LINE
8
BLACK
6
CONTINUOUS
10
5.38033
20
-3.53285
11
5.38792
21
-3.52881
0
LINE
8
BLACK
6
CONTINUOUS
10
5.38792
20
-3.52881
11
5.38813
21
-3.52853
0
LINE
8
BLACK
6
CONTINUOUS
10
5.38813
20
-3.52853
11
5.38991
21
-3.52823
0
LINE
8
BLACK
6
CONTINUOUS
10
5.38991
20
-3.52823
11
5.39138
21
-3.52928
0
LINE
8
BLACK
6
CONTINUOUS
10
5.39138
20
-3.52928
11
5.39168
21
-3.53106
0
LINE
8
BLACK
6
CONTINUOUS
10
5.39168
20
-3.53106
11
5.39063
21
-3.53254
0
LINE
8
BLACK
6
CONTINUOUS
10
5.39063
20
-3.53254
11
5.38219
21
-3.53702
0
LINE
8
BLACK
6
CONTINUOUS
10
5.38219
20
-3.53702
11
5.3732
21
-3.54029
0
LINE
8
BLACK
6
CONTINUOUS
10
5.3732
20
-3.54029
11
5.36385
21
-3.54227
0
LINE
8
BLACK
6
CONTINUOUS
10
5.36385
20
-3.54227
11
5.35431
21
-3.54294
0
LINE
8
BLACK
6
CONTINUOUS
10
5.35431
20
-3.54294
11
5.34477
21
-3.54227
0
LINE
8
BLACK
6
CONTINUOUS
10
5.34477
20
-3.54227
11
5.33542
21
-3.54028
0
LINE
8
BLACK
6
CONTINUOUS
10
5.33542
20
-3.54028
11
5.32644
21
-3.53701
0
LINE
8
BLACK
6
CONTINUOUS
10
5.32644
20
-3.53701
11
5.318
21
-3.53251
0
LINE
8
BLACK
6
CONTINUOUS
10
5.318
20
-3.53251
11
5.318
21
-3.53251
0
LINE
8
BLACK
6
CONTINUOUS
10
5.318
20
-3.53251
11
5.31695
21
-3.53104
0
LINE
8
BLACK
6
CONTINUOUS
10
5.31695
20
-3.53104
11
5.31725
21
-3.52926
0
LINE
8
BLACK
6
CONTINUOUS
10
5.31725
20
-3.52926
11
5.31872
21
-3.52821
0
LINE
8
BLACK
6
CONTINUOUS
10
5.31872
20
-3.52821
11
5.3205
21
-3.52851
0
LINE
8
BLACK
6
CONTINUOUS
10
5.29886
20
-3.43829
11
5.29993
21
-3.43974
0
LINE
8
BLACK
6
CONTINUOUS
10
5.29993
20
-3.43974
11
5.29966
21
-3.44153
0
LINE
8
BLACK
6
CONTINUOUS
10
5.29966
20
-3.44153
11
5.29948
21
-3.44167
0
LINE
8
BLACK
6
CONTINUOUS
10
5.29948
20
-3.44167
11
5.29625
21
-3.44779
0
LINE
8
BLACK
6
CONTINUOUS
10
5.29625
20
-3.44779
11
5.29364
21
-3.45443
0
LINE
8
BLACK
6
CONTINUOUS
10
5.29364
20
-3.45443
11
5.29179
21
-3.46132
0
LINE
8
BLACK
6
CONTINUOUS
10
5.29179
20
-3.46132
11
5.29072
21
-3.46837
0
LINE
8
BLACK
6
CONTINUOUS
10
5.29072
20
-3.46837
11
5.29049
21
-3.47427
0
LINE
8
BLACK
6
CONTINUOUS
10
5.29049
20
-3.47427
11
5.29055
21
-3.47441
0
LINE
8
BLACK
6
CONTINUOUS
10
5.29055
20
-3.47441
11
5.29048
21
-3.47458
0
LINE
8
BLACK
6
CONTINUOUS
10
5.29048
20
-3.47458
11
5.29047
21
-3.47481
0
LINE
8
BLACK
6
CONTINUOUS
10
5.29047
20
-3.47481
11
5.29051
21
-3.4754
0
LINE
8
BLACK
6
CONTINUOUS
10
5.29051
20
-3.4754
11
5.29055
21
-3.4755
0
LINE
8
BLACK
6
CONTINUOUS
10
5.29055
20
-3.4755
11
5.29052
21
-3.47558
0
LINE
8
BLACK
6
CONTINUOUS
10
5.29052
20
-3.47558
11
5.29085
21
-3.48153
0
LINE
8
BLACK
6
CONTINUOUS
10
5.29085
20
-3.48153
11
5.29204
21
-3.48856
0
LINE
8
BLACK
6
CONTINUOUS
10
5.29204
20
-3.48856
11
5.294
21
-3.49542
0
LINE
8
BLACK
6
CONTINUOUS
10
5.294
20
-3.49542
11
5.29672
21
-3.50201
0
LINE
8
BLACK
6
CONTINUOUS
10
5.29672
20
-3.50201
11
5.30005
21
-3.50807
0
LINE
8
BLACK
6
CONTINUOUS
10
5.30005
20
-3.50807
11
5.30024
21
-3.50821
0
LINE
8
BLACK
6
CONTINUOUS
10
5.30024
20
-3.50821
11
5.30054
21
-3.50999
0
LINE
8
BLACK
6
CONTINUOUS
10
5.30054
20
-3.50999
11
5.29949
21
-3.51146
0
LINE
8
BLACK
6
CONTINUOUS
10
5.29949
20
-3.51146
11
5.29771
21
-3.51176
0
LINE
8
BLACK
6
CONTINUOUS
10
5.29771
20
-3.51176
11
5.29624
21
-3.51071
0
LINE
8
BLACK
6
CONTINUOUS
10
5.29624
20
-3.51071
11
5.29624
21
-3.51071
0
LINE
8
BLACK
6
CONTINUOUS
10
5.29624
20
-3.51071
11
5.29255
21
-3.50401
0
LINE
8
BLACK
6
CONTINUOUS
10
5.29255
20
-3.50401
11
5.28964
21
-3.49694
0
LINE
8
BLACK
6
CONTINUOUS
10
5.28964
20
-3.49694
11
5.28753
21
-3.48959
0
LINE
8
BLACK
6
CONTINUOUS
10
5.28753
20
-3.48959
11
5.28625
21
-3.48205
0
LINE
8
BLACK
6
CONTINUOUS
10
5.28625
20
-3.48205
11
5.2859
21
-3.47576
0
LINE
8
BLACK
6
CONTINUOUS
10
5.2859
20
-3.47576
11
5.28582
21
-3.47558
0
LINE
8
BLACK
6
CONTINUOUS
10
5.28582
20
-3.47558
11
5.28585
21
-3.47485
0
LINE
8
BLACK
6
CONTINUOUS
10
5.28585
20
-3.47485
11
5.28583
21
-3.47441
0
LINE
8
BLACK
6
CONTINUOUS
10
5.28583
20
-3.47441
11
5.28583
21
-3.47441
0
LINE
8
BLACK
6
CONTINUOUS
10
5.28583
20
-3.47441
11
5.28587
21
-3.4743
0
LINE
8
BLACK
6
CONTINUOUS
10
5.28587
20
-3.4743
11
5.28612
21
-3.46793
0
LINE
8
BLACK
6
CONTINUOUS
10
5.28612
20
-3.46793
11
5.28727
21
-3.46037
0
LINE
8
BLACK
6
CONTINUOUS
10
5.28727
20
-3.46037
11
5.28925
21
-3.45298
0
LINE
8
BLACK
6
CONTINUOUS
10
5.28925
20
-3.45298
11
5.29204
21
-3.44586
0
LINE
8
BLACK
6
CONTINUOUS
10
5.29204
20
-3.44586
11
5.29561
21
-3.4391
0
LINE
8
BLACK
6
CONTINUOUS
10
5.29561
20
-3.4391
11
5.29561
21
-3.4391
0
LINE
8
BLACK
6
CONTINUOUS
10
5.29561
20
-3.4391
11
5.29707
21
-3.43802
0
LINE
8
BLACK
6
CONTINUOUS
10
5.29707
20
-3.43802
11
5.29886
21
-3.43829
0
LINE
8
BLACK
6
CONTINUOUS
10
5.41245
20
-3.43812
11
5.41687
21
-3.44643
0
LINE
8
BLACK
6
CONTINUOUS
10
5.41687
20
-3.44643
11
5.42012
21
-3.45526
0
LINE
8
BLACK
6
CONTINUOUS
10
5.42012
20
-3.45526
11
5.42212
21
-3.46446
0
LINE
8
BLACK
6
CONTINUOUS
10
5.42212
20
-3.46446
11
5.42285
21
-3.47384
0
LINE
8
BLACK
6
CONTINUOUS
10
5.42285
20
-3.47384
11
5.42228
21
-3.48323
0
LINE
8
BLACK
6
CONTINUOUS
10
5.42228
20
-3.48323
11
5.42043
21
-3.49246
0
LINE
8
BLACK
6
CONTINUOUS
10
5.42043
20
-3.49246
11
5.41733
21
-3.50134
0
LINE
8
BLACK
6
CONTINUOUS
10
5.41733
20
-3.50134
11
5.41305
21
-3.50972
0
LINE
8
BLACK
6
CONTINUOUS
10
5.41305
20
-3.50972
11
5.41159
21
-3.5108
0
LINE
8
BLACK
6
CONTINUOUS
10
5.41159
20
-3.5108
11
5.40981
21
-3.51053
0
LINE
8
BLACK
6
CONTINUOUS
10
5.40981
20
-3.51053
11
5.40873
21
-3.50907
0
LINE
8
BLACK
6
CONTINUOUS
10
5.40873
20
-3.50907
11
5.409
21
-3.50729
0
LINE
8
BLACK
6
CONTINUOUS
10
5.409
20
-3.50729
11
5.40927
21
-3.50709
0
LINE
8
BLACK
6
CONTINUOUS
10
5.40927
20
-3.50709
11
5.41313
21
-3.49954
0
LINE
8
BLACK
6
CONTINUOUS
10
5.41313
20
-3.49954
11
5.41601
21
-3.49125
0
LINE
8
BLACK
6
CONTINUOUS
10
5.41601
20
-3.49125
11
5.41774
21
-3.48264
0
LINE
8
BLACK
6
CONTINUOUS
10
5.41774
20
-3.48264
11
5.41827
21
-3.47388
0
LINE
8
BLACK
6
CONTINUOUS
10
5.41827
20
-3.47388
11
5.41759
21
-3.46512
0
LINE
8
BLACK
6
CONTINUOUS
10
5.41759
20
-3.46512
11
5.41573
21
-3.45654
0
LINE
8
BLACK
6
CONTINUOUS
10
5.41573
20
-3.45654
11
5.4127
21
-3.4483
0
LINE
8
BLACK
6
CONTINUOUS
10
5.4127
20
-3.4483
11
5.40872
21
-3.44082
0
LINE
8
BLACK
6
CONTINUOUS
10
5.40872
20
-3.44082
11
5.40844
21
-3.44063
0
LINE
8
BLACK
6
CONTINUOUS
10
5.40844
20
-3.44063
11
5.40815
21
-3.43884
0
LINE
8
BLACK
6
CONTINUOUS
10
5.40815
20
-3.43884
11
5.4092
21
-3.43737
0
LINE
8
BLACK
6
CONTINUOUS
10
5.4092
20
-3.43737
11
5.41098
21
-3.43707
0
LINE
8
BLACK
6
CONTINUOUS
10
5.41098
20
-3.43707
11
5.41245
21
-3.43812
0
LINE
8
BLACK
6
CONTINUOUS
10
5.36315
20
-3.40646
11
5.37238
21
-3.40831
0
LINE
8
BLACK
6
CONTINUOUS
10
5.37238
20
-3.40831
11
5.38126
21
-3.41141
0
LINE
8
BLACK
6
CONTINUOUS
10
5.38126
20
-3.41141
11
5.38964
21
-3.41569
0
LINE
8
BLACK
6
CONTINUOUS
10
5.38964
20
-3.41569
11
5.39072
21
-3.41715
0
LINE
8
BLACK
6
CONTINUOUS
10
5.39072
20
-3.41715
11
5.39045
21
-3.41893
0
LINE
8
BLACK
6
CONTINUOUS
10
5.39045
20
-3.41893
11
5.389
21
-3.42001
0
LINE
8
BLACK
6
CONTINUOUS
10
5.389
20
-3.42001
11
5.38721
21
-3.41974
0
LINE
8
BLACK
6
CONTINUOUS
10
5.38721
20
-3.41974
11
5.38701
21
-3.41947
0
LINE
8
BLACK
6
CONTINUOUS
10
5.38701
20
-3.41947
11
5.37947
21
-3.41561
0
LINE
8
BLACK
6
CONTINUOUS
10
5.37947
20
-3.41561
11
5.37117
21
-3.41273
0
LINE
8
BLACK
6
CONTINUOUS
10
5.37117
20
-3.41273
11
5.36256
21
-3.411
0
LINE
8
BLACK
6
CONTINUOUS
10
5.36256
20
-3.411
11
5.3538
21
-3.41047
0
LINE
8
BLACK
6
CONTINUOUS
10
5.3538
20
-3.41047
11
5.34504
21
-3.41115
0
LINE
8
BLACK
6
CONTINUOUS
10
5.34504
20
-3.41115
11
5.33646
21
-3.41301
0
LINE
8
BLACK
6
CONTINUOUS
10
5.33646
20
-3.41301
11
5.32822
21
-3.41604
0
LINE
8
BLACK
6
CONTINUOUS
10
5.32822
20
-3.41604
11
5.32074
21
-3.42002
0
LINE
8
BLACK
6
CONTINUOUS
10
5.32074
20
-3.42002
11
5.32055
21
-3.4203
0
LINE
8
BLACK
6
CONTINUOUS
10
5.32055
20
-3.4203
11
5.31876
21
-3.42059
0
LINE
8
BLACK
6
CONTINUOUS
10
5.31876
20
-3.42059
11
5.31729
21
-3.41954
0
LINE
8
BLACK
6
CONTINUOUS
10
5.31729
20
-3.41954
11
5.31699
21
-3.41776
0
LINE
8
BLACK
6
CONTINUOUS
10
5.31699
20
-3.41776
11
5.31804
21
-3.41629
0
LINE
8
BLACK
6
CONTINUOUS
10
5.31804
20
-3.41629
11
5.32635
21
-3.41187
0
LINE
8
BLACK
6
CONTINUOUS
10
5.32635
20
-3.41187
11
5.33518
21
-3.40862
0
LINE
8
BLACK
6
CONTINUOUS
10
5.33518
20
-3.40862
11
5.34438
21
-3.40662
0
LINE
8
BLACK
6
CONTINUOUS
10
5.34438
20
-3.40662
11
5.35376
21
-3.40589
0
LINE
8
BLACK
6
CONTINUOUS
10
5.35376
20
-3.40589
11
5.36315
21
-3.40646
0
LINE
8
BLACK
6
CONTINUOUS
10
5.28687
20
-3.60031
11
5.28937
21
-3.59047
0
LINE
8
BLACK
6
CONTINUOUS
10
5.28937
20
-3.59047
11
5.29329
21
-3.5811
0
LINE
8
BLACK
6
CONTINUOUS
10
5.29329
20
-3.5811
11
5.29856
21
-3.57242
0
LINE
8
BLACK
6
CONTINUOUS
10
5.29856
20
-3.57242
11
5.30505
21
-3.56462
0
LINE
8
BLACK
6
CONTINUOUS
10
5.30505
20
-3.56462
11
5.31263
21
-3.55786
0
LINE
8
BLACK
6
CONTINUOUS
10
5.31263
20
-3.55786
11
5.32112
21
-3.55229
0
LINE
8
BLACK
6
CONTINUOUS
10
5.32112
20
-3.55229
11
5.33034
21
-3.54804
0
LINE
8
BLACK
6
CONTINUOUS
10
5.33034
20
-3.54804
11
5.34009
21
-3.5452
0
LINE
8
BLACK
6
CONTINUOUS
10
5.34009
20
-3.5452
11
5.35015
21
-3.54383
0
LINE
8
BLACK
6
CONTINUOUS
10
5.35015
20
-3.54383
11
5.3603
21
-3.54396
0
LINE
8
BLACK
6
CONTINUOUS
10
5.3603
20
-3.54396
11
5.37032
21
-3.54559
0
LINE
8
BLACK
6
CONTINUOUS
10
5.37032
20
-3.54559
11
5.37999
21
-3.54869
0
LINE
8
BLACK
6
CONTINUOUS
10
5.37999
20
-3.54869
11
5.3891
21
-3.55318
0
LINE
8
BLACK
6
CONTINUOUS
10
5.3891
20
-3.55318
11
5.39744
21
-3.55897
0
LINE
8
BLACK
6
CONTINUOUS
10
5.39744
20
-3.55897
11
5.40484
21
-3.56592
0
LINE
8
BLACK
6
CONTINUOUS
10
5.40484
20
-3.56592
11
5.41112
21
-3.5739
0
LINE
8
BLACK
6
CONTINUOUS
10
5.41112
20
-3.5739
11
5.41616
21
-3.58271
0
LINE
8
BLACK
6
CONTINUOUS
10
5.41616
20
-3.58271
11
5.41984
21
-3.59218
0
LINE
8
BLACK
6
CONTINUOUS
10
5.41984
20
-3.59218
11
5.42208
21
-3.60208
0
LINE
8
BLACK
6
CONTINUOUS
10
5.42208
20
-3.60208
11
5.42283
21
-3.6122
0
LINE
8
BLACK
6
CONTINUOUS
10
5.42283
20
-3.6122
11
5.42274
21
-3.61579
0
LINE
8
BLACK
6
CONTINUOUS
10
5.42274
20
-3.61579
11
5.42146
21
-3.62586
0
LINE
8
BLACK
6
CONTINUOUS
10
5.42146
20
-3.62586
11
5.4187
21
-3.63563
0
LINE
8
BLACK
6
CONTINUOUS
10
5.4187
20
-3.63563
11
5.41453
21
-3.64489
0
LINE
8
BLACK
6
CONTINUOUS
10
5.41453
20
-3.64489
11
5.40904
21
-3.65343
0
LINE
8
BLACK
6
CONTINUOUS
10
5.40904
20
-3.65343
11
5.40235
21
-3.66107
0
LINE
8
BLACK
6
CONTINUOUS
10
5.40235
20
-3.66107
11
5.3946
21
-3.66763
0
LINE
8
BLACK
6
CONTINUOUS
10
5.3946
20
-3.66763
11
5.38596
21
-3.67297
0
LINE
8
BLACK
6
CONTINUOUS
10
5.38596
20
-3.67297
11
5.37663
21
-3.67698
0
LINE
8
BLACK
6
CONTINUOUS
10
5.37663
20
-3.67698
11
5.36681
21
-3.67956
0
LINE
8
BLACK
6
CONTINUOUS
10
5.36681
20
-3.67956
11
5.35672
21
-3.68067
0
LINE
8
BLACK
6
CONTINUOUS
10
5.35672
20
-3.68067
11
5.34658
21
-3.68027
0
LINE
8
BLACK
6
CONTINUOUS
10
5.34658
20
-3.68027
11
5.3366
21
-3.67837
0
LINE
8
BLACK
6
CONTINUOUS
10
5.3366
20
-3.67837
11
5.32701
21
-3.67503
0
LINE
8
BLACK
6
CONTINUOUS
10
5.32701
20
-3.67503
11
5.31803
21
-3.6703
0
LINE
8
BLACK
6
CONTINUOUS
10
5.31803
20
-3.6703
11
5.30984
21
-3.6643
0
LINE
8
BLACK
6
CONTINUOUS
10
5.30984
20
-3.6643
11
5.30263
21
-3.65715
0
LINE
8
BLACK
6
CONTINUOUS
10
5.30263
20
-3.65715
11
5.29656
21
-3.64901
0
LINE
8
BLACK
6
CONTINUOUS
10
5.29656
20
-3.64901
11
5.29175
21
-3.64007
0
LINE
8
BLACK
6
CONTINUOUS
10
5.29175
20
-3.64007
11
5.28832
21
-3.63051
0
LINE
8
BLACK
6
CONTINUOUS
10
5.28832
20
-3.63051
11
5.28634
21
-3.62055
0
LINE
8
BLACK
6
CONTINUOUS
10
5.28634
20
-3.62055
11
5.28594
21
-3.6122
0
LINE
8
BLACK
6
CONTINUOUS
10
5.28594
20
-3.6122
11
5.28585
21
-3.61041
0
LINE
8
BLACK
6
CONTINUOUS
10
5.28585
20
-3.61041
11
5.28687
21
-3.60031
0
LINE
8
BLACK
6
CONTINUOUS
10
5.29349
20
-3.63197
11
5.29733
21
-3.64125
0
LINE
8
BLACK
6
CONTINUOUS
10
5.29733
20
-3.64125
11
5.30257
21
-3.64981
0
LINE
8
BLACK
6
CONTINUOUS
10
5.30257
20
-3.64981
11
5.30909
21
-3.65744
0
LINE
8
BLACK
6
CONTINUOUS
10
5.30909
20
-3.65744
11
5.31673
21
-3.66396
0
LINE
8
BLACK
6
CONTINUOUS
10
5.31673
20
-3.66396
11
5.32529
21
-3.66921
0
LINE
8
BLACK
6
CONTINUOUS
10
5.32529
20
-3.66921
11
5.33456
21
-3.67305
0
LINE
8
BLACK
6
CONTINUOUS
10
5.33456
20
-3.67305
11
5.34432
21
-3.67539
0
LINE
8
BLACK
6
CONTINUOUS
10
5.34432
20
-3.67539
11
5.35433
21
-3.67618
0
LINE
8
BLACK
6
CONTINUOUS
10
5.35433
20
-3.67618
11
5.36434
21
-3.67539
0
LINE
8
BLACK
6
CONTINUOUS
10
5.36434
20
-3.67539
11
5.3741
21
-3.67305
0
LINE
8
BLACK
6
CONTINUOUS
10
5.3741
20
-3.67305
11
5.38338
21
-3.66921
0
LINE
8
BLACK
6
CONTINUOUS
10
5.38338
20
-3.66921
11
5.39194
21
-3.66396
0
LINE
8
BLACK
6
CONTINUOUS
10
5.39194
20
-3.66396
11
5.3934
21
-3.66271
0
LINE
8
BLACK
6
CONTINUOUS
10
5.3934
20
-3.66271
11
5.3897
21
-3.65899
0
LINE
8
BLACK
6
CONTINUOUS
10
5.3897
20
-3.65899
11
5.38902
21
-3.65731
0
LINE
8
BLACK
6
CONTINUOUS
10
5.38902
20
-3.65731
11
5.38971
21
-3.65565
0
LINE
8
BLACK
6
CONTINUOUS
10
5.38971
20
-3.65565
11
5.39139
21
-3.65496
0
LINE
8
BLACK
6
CONTINUOUS
10
5.39139
20
-3.65496
11
5.39305
21
-3.65566
0
LINE
8
BLACK
6
CONTINUOUS
10
5.39305
20
-3.65566
11
5.397
21
-3.65964
0
LINE
8
BLACK
6
CONTINUOUS
10
5.397
20
-3.65964
11
5.39957
21
-3.65744
0
LINE
8
BLACK
6
CONTINUOUS
10
5.39957
20
-3.65744
11
5.40175
21
-3.65489
0
LINE
8
BLACK
6
CONTINUOUS
10
5.40175
20
-3.65489
11
5.39916
21
-3.6523
0
LINE
8
BLACK
6
CONTINUOUS
10
5.39916
20
-3.6523
11
5.39846
21
-3.65063
0
LINE
8
BLACK
6
CONTINUOUS
10
5.39846
20
-3.65063
11
5.39916
21
-3.64896
0
LINE
8
BLACK
6
CONTINUOUS
10
5.39916
20
-3.64896
11
5.40083
21
-3.64827
0
LINE
8
BLACK
6
CONTINUOUS
10
5.40083
20
-3.64827
11
5.4025
21
-3.64896
0
LINE
8
BLACK
6
CONTINUOUS
10
5.4025
20
-3.64896
11
5.40483
21
-3.65129
0
LINE
8
BLACK
6
CONTINUOUS
10
5.40483
20
-3.65129
11
5.40609
21
-3.64981
0
LINE
8
BLACK
6
CONTINUOUS
10
5.40609
20
-3.64981
11
5.41133
21
-3.64125
0
LINE
8
BLACK
6
CONTINUOUS
10
5.41133
20
-3.64125
11
5.41518
21
-3.63197
0
LINE
8
BLACK
6
CONTINUOUS
10
5.41518
20
-3.63197
11
5.41752
21
-3.62221
0
LINE
8
BLACK
6
CONTINUOUS
10
5.41752
20
-3.62221
11
5.41831
21
-3.6122
0
LINE
8
BLACK
6
CONTINUOUS
10
5.41831
20
-3.6122
11
5.41752
21
-3.6022
0
LINE
8
BLACK
6
CONTINUOUS
10
5.41752
20
-3.6022
11
5.41518
21
-3.59243
0
LINE
8
BLACK
6
CONTINUOUS
10
5.41518
20
-3.59243
11
5.41133
21
-3.58316
0
LINE
8
BLACK
6
CONTINUOUS
10
5.41133
20
-3.58316
11
5.40609
21
-3.5746
0
LINE
8
BLACK
6
CONTINUOUS
10
5.40609
20
-3.5746
11
5.39957
21
-3.56697
0
LINE
8
BLACK
6
CONTINUOUS
10
5.39957
20
-3.56697
11
5.39194
21
-3.56045
0
LINE
8
BLACK
6
CONTINUOUS
10
5.39194
20
-3.56045
11
5.38338
21
-3.5552
0
LINE
8
BLACK
6
CONTINUOUS
10
5.38338
20
-3.5552
11
5.3741
21
-3.55136
0
LINE
8
BLACK
6
CONTINUOUS
10
5.3741
20
-3.55136
11
5.36434
21
-3.54902
0
LINE
8
BLACK
6
CONTINUOUS
10
5.36434
20
-3.54902
11
5.35433
21
-3.54823
0
LINE
8
BLACK
6
CONTINUOUS
10
5.35433
20
-3.54823
11
5.34432
21
-3.54902
0
LINE
8
BLACK
6
CONTINUOUS
10
5.34432
20
-3.54902
11
5.33456
21
-3.55136
0
LINE
8
BLACK
6
CONTINUOUS
10
5.33456
20
-3.55136
11
5.32529
21
-3.5552
0
LINE
8
BLACK
6
CONTINUOUS
10
5.32529
20
-3.5552
11
5.31673
21
-3.56045
0
LINE
8
BLACK
6
CONTINUOUS
10
5.31673
20
-3.56045
11
5.31524
21
-3.56171
0
LINE
8
BLACK
6
CONTINUOUS
10
5.31524
20
-3.56171
11
5.31896
21
-3.56546
0
LINE
8
BLACK
6
CONTINUOUS
10
5.31896
20
-3.56546
11
5.31965
21
-3.56714
0
LINE
8
BLACK
6
CONTINUOUS
10
5.31965
20
-3.56714
11
5.31895
21
-3.5688
0
LINE
8
BLACK
6
CONTINUOUS
10
5.31895
20
-3.5688
11
5.31727
21
-3.56949
0
LINE
8
BLACK
6
CONTINUOUS
10
5.31727
20
-3.56949
11
5.31561
21
-3.56879
0
LINE
8
BLACK
6
CONTINUOUS
10
5.31561
20
-3.56879
11
5.31164
21
-3.56479
0
LINE
8
BLACK
6
CONTINUOUS
10
5.31164
20
-3.56479
11
5.30909
21
-3.56697
0
LINE
8
BLACK
6
CONTINUOUS
10
5.30909
20
-3.56697
11
5.30691
21
-3.56952
0
LINE
8
BLACK
6
CONTINUOUS
10
5.30691
20
-3.56952
11
5.30951
21
-3.57216
0
LINE
8
BLACK
6
CONTINUOUS
10
5.30951
20
-3.57216
11
5.3102
21
-3.57383
0
LINE
8
BLACK
6
CONTINUOUS
10
5.3102
20
-3.57383
11
5.3095
21
-3.5755
0
LINE
8
BLACK
6
CONTINUOUS
10
5.3095
20
-3.5755
11
5.30782
21
-3.57618
0
LINE
8
BLACK
6
CONTINUOUS
10
5.30782
20
-3.57618
11
5.30616
21
-3.57548
0
LINE
8
BLACK
6
CONTINUOUS
10
5.30616
20
-3.57548
11
5.30383
21
-3.57313
0
LINE
8
BLACK
6
CONTINUOUS
10
5.30383
20
-3.57313
11
5.30257
21
-3.5746
0
LINE
8
BLACK
6
CONTINUOUS
10
5.30257
20
-3.5746
11
5.29733
21
-3.58316
0
LINE
8
BLACK
6
CONTINUOUS
10
5.29733
20
-3.58316
11
5.29349
21
-3.59243
0
LINE
8
BLACK
6
CONTINUOUS
10
5.29349
20
-3.59243
11
5.29114
21
-3.6022
0
LINE
8
BLACK
6
CONTINUOUS
10
5.29114
20
-3.6022
11
5.29035
21
-3.6122
0
LINE
8
BLACK
6
CONTINUOUS
10
5.29035
20
-3.6122
11
5.29114
21
-3.62221
0
LINE
8
BLACK
6
CONTINUOUS
10
5.29114
20
-3.62221
11
5.29349
21
-3.63197
0
LINE
8
BLACK
6
CONTINUOUS
10
5.55109
20
-3.68415
11
5.55039
21
-3.68248
0
LINE
8
BLACK
6
CONTINUOUS
10
5.55039
20
-3.68248
11
5.55039
21
-3.57677
0
LINE
8
BLACK
6
CONTINUOUS
10
5.55039
20
-3.57677
11
5.55109
21
-3.5751
0
LINE
8
BLACK
6
CONTINUOUS
10
5.55109
20
-3.5751
11
5.55276
21
-3.57441
0
LINE
8
BLACK
6
CONTINUOUS
10
5.55276
20
-3.57441
11
5.55443
21
-3.5751
0
LINE
8
BLACK
6
CONTINUOUS
10
5.55443
20
-3.5751
11
5.55512
21
-3.57677
0
LINE
8
BLACK
6
CONTINUOUS
10
5.55512
20
-3.57677
11
5.55512
21
-3.68012
0
LINE
8
BLACK
6
CONTINUOUS
10
5.55512
20
-3.68012
11
5.62598
21
-3.68012
0
LINE
8
BLACK
6
CONTINUOUS
10
5.62598
20
-3.68012
11
5.62598
21
-3.57677
0
LINE
8
BLACK
6
CONTINUOUS
10
5.62598
20
-3.57677
11
5.62668
21
-3.5751
0
LINE
8
BLACK
6
CONTINUOUS
10
5.62668
20
-3.5751
11
5.62835
21
-3.57441
0
LINE
8
BLACK
6
CONTINUOUS
10
5.62835
20
-3.57441
11
5.63002
21
-3.5751
0
LINE
8
BLACK
6
CONTINUOUS
10
5.63002
20
-3.5751
11
5.63071
21
-3.57677
0
LINE
8
BLACK
6
CONTINUOUS
10
5.63071
20
-3.57677
11
5.63071
21
-3.68248
0
LINE
8
BLACK
6
CONTINUOUS
10
5.63071
20
-3.68248
11
5.63002
21
-3.68415
0
LINE
8
BLACK
6
CONTINUOUS
10
5.63002
20
-3.68415
11
5.62835
21
-3.68484
0
LINE
8
BLACK
6
CONTINUOUS
10
5.62835
20
-3.68484
11
5.55276
21
-3.68484
0
LINE
8
BLACK
6
CONTINUOUS
10
5.55276
20
-3.68484
11
5.55109
21
-3.68415
0
LINE
8
BLACK
6
CONTINUOUS
10
5.67081
20
-3.61985
11
5.67094
21
-3.61984
0
LINE
8
BLACK
6
CONTINUOUS
10
5.67094
20
-3.61984
11
5.67844
21
-3.62171
0
LINE
8
BLACK
6
CONTINUOUS
10
5.67844
20
-3.62171
11
5.67891
21
-3.62192
0
LINE
8
BLACK
6
CONTINUOUS
10
5.67891
20
-3.62192
11
5.67905
21
-3.62194
0
LINE
8
BLACK
6
CONTINUOUS
10
5.67905
20
-3.62194
11
5.6828
21
-3.62381
0
LINE
8
BLACK
6
CONTINUOUS
10
5.6828
20
-3.62381
11
5.68351
21
-3.62434
0
LINE
8
BLACK
6
CONTINUOUS
10
5.68351
20
-3.62434
11
5.68357
21
-3.62437
0
LINE
8
BLACK
6
CONTINUOUS
10
5.68357
20
-3.62437
11
5.68731
21
-3.62811
0
LINE
8
BLACK
6
CONTINUOUS
10
5.68731
20
-3.62811
11
5.6879
21
-3.62895
0
LINE
8
BLACK
6
CONTINUOUS
10
5.6879
20
-3.62895
11
5.68792
21
-3.62913
0
LINE
8
BLACK
6
CONTINUOUS
10
5.68792
20
-3.62913
11
5.68803
21
-3.62927
0
LINE
8
BLACK
6
CONTINUOUS
10
5.68803
20
-3.62927
11
5.6899
21
-3.63489
0
LINE
8
BLACK
6
CONTINUOUS
10
5.6899
20
-3.63489
11
5.69003
21
-3.63577
0
LINE
8
BLACK
6
CONTINUOUS
10
5.69003
20
-3.63577
11
5.69005
21
-3.63583
0
LINE
8
BLACK
6
CONTINUOUS
10
5.69005
20
-3.63583
11
5.69005
21
-3.6452
0
LINE
8
BLACK
6
CONTINUOUS
10
5.69005
20
-3.6452
11
5.68999
21
-3.64558
0
LINE
8
BLACK
6
CONTINUOUS
10
5.68999
20
-3.64558
11
5.69001
21
-3.64571
0
LINE
8
BLACK
6
CONTINUOUS
10
5.69001
20
-3.64571
11
5.68994
21
-3.64583
0
LINE
8
BLACK
6
CONTINUOUS
10
5.68994
20
-3.64583
11
5.68988
21
-3.64621
0
LINE
8
BLACK
6
CONTINUOUS
10
5.68988
20
-3.64621
11
5.68938
21
-3.6468
0
LINE
8
BLACK
6
CONTINUOUS
10
5.68938
20
-3.6468
11
5.689
21
-3.64746
0
LINE
8
BLACK
6
CONTINUOUS
10
5.689
20
-3.64746
11
5.68875
21
-3.64755
0
LINE
8
BLACK
6
CONTINUOUS
10
5.68875
20
-3.64755
11
5.68858
21
-3.64776
0
LINE
8
BLACK
6
CONTINUOUS
10
5.68858
20
-3.64776
11
5.68782
21
-3.64789
0
LINE
8
BLACK
6
CONTINUOUS
10
5.68782
20
-3.64789
11
5.6871
21
-3.64815
0
LINE
8
BLACK
6
CONTINUOUS
10
5.6871
20
-3.64815
11
5.64773
21
-3.64815
0
LINE
8
BLACK
6
CONTINUOUS
10
5.64773
20
-3.64815
11
5.64735
21
-3.64809
0
LINE
8
BLACK
6
CONTINUOUS
10
5.64735
20
-3.64809
11
5.64722
21
-3.64811
0
LINE
8
BLACK
6
CONTINUOUS
10
5.64722
20
-3.64811
11
5.64711
21
-3.64804
0
LINE
8
BLACK
6
CONTINUOUS
10
5.64711
20
-3.64804
11
5.64672
21
-3.64798
0
LINE
8
BLACK
6
CONTINUOUS
10
5.64672
20
-3.64798
11
5.64613
21
-3.64748
0
LINE
8
BLACK
6
CONTINUOUS
10
5.64613
20
-3.64748
11
5.64547
21
-3.6471
0
LINE
8
BLACK
6
CONTINUOUS
10
5.64547
20
-3.6471
11
5.64538
21
-3.64685
0
LINE
8
BLACK
6
CONTINUOUS
10
5.64538
20
-3.64685
11
5.64517
21
-3.64668
0
LINE
8
BLACK
6
CONTINUOUS
10
5.64517
20
-3.64668
11
5.64504
21
-3.64592
0
LINE
8
BLACK
6
CONTINUOUS
10
5.64504
20
-3.64592
11
5.64478
21
-3.6452
0
LINE
8
BLACK
6
CONTINUOUS
10
5.64478
20
-3.6452
11
5.64478
21
-3.63583
0
LINE
8
BLACK
6
CONTINUOUS
10
5.64478
20
-3.63583
11
5.64493
21
-3.63496
0
LINE
8
BLACK
6
CONTINUOUS
10
5.64493
20
-3.63496
11
5.64493
21
-3.63489
0
LINE
8
BLACK
6
CONTINUOUS
10
5.64493
20
-3.63489
11
5.64681
21
-3.62927
0
LINE
8
BLACK
6
CONTINUOUS
10
5.64681
20
-3.62927
11
5.64729
21
-3.62837
0
LINE
8
BLACK
6
CONTINUOUS
10
5.64729
20
-3.62837
11
5.64744
21
-3.62827
0
LINE
8
BLACK
6
CONTINUOUS
10
5.64744
20
-3.62827
11
5.64752
21
-3.62811
0
LINE
8
BLACK
6
CONTINUOUS
10
5.64752
20
-3.62811
11
5.65127
21
-3.62437
0
LINE
8
BLACK
6
CONTINUOUS
10
5.65127
20
-3.62437
11
5.65199
21
-3.62386
0
LINE
8
BLACK
6
CONTINUOUS
10
5.65199
20
-3.62386
11
5.65204
21
-3.62381
0
LINE
8
BLACK
6
CONTINUOUS
10
5.65204
20
-3.62381
11
5.65578
21
-3.62194
0
LINE
8
BLACK
6
CONTINUOUS
10
5.65578
20
-3.62194
11
5.65627
21
-3.62179
0
LINE
8
BLACK
6
CONTINUOUS
10
5.65627
20
-3.62179
11
5.65639
21
-3.62171
0
LINE
8
BLACK
6
CONTINUOUS
10
5.65639
20
-3.62171
11
5.66389
21
-3.61984
0
LINE
8
BLACK
6
CONTINUOUS
10
5.66389
20
-3.61984
11
5.66448
21
-3.6198
0
LINE
8
BLACK
6
CONTINUOUS
10
5.66448
20
-3.6198
11
5.6646
21
-3.61975
0
LINE
8
BLACK
6
CONTINUOUS
10
5.6646
20
-3.61975
11
5.67023
21
-3.61975
0
LINE
8
BLACK
6
CONTINUOUS
10
5.67023
20
-3.61975
11
5.67081
21
-3.61985
0
LINE
8
BLACK
6
CONTINUOUS
10
5.66497
20
-3.62566
11
5.65814
21
-3.62736
0
LINE
8
BLACK
6
CONTINUOUS
10
5.65814
20
-3.62736
11
5.6551
21
-3.62888
0
LINE
8
BLACK
6
CONTINUOUS
10
5.6551
20
-3.62888
11
5.65219
21
-3.6318
0
LINE
8
BLACK
6
CONTINUOUS
10
5.65219
20
-3.6318
11
5.65068
21
-3.63631
0
LINE
8
BLACK
6
CONTINUOUS
10
5.65068
20
-3.63631
11
5.65068
21
-3.64225
0
LINE
8
BLACK
6
CONTINUOUS
10
5.65068
20
-3.64225
11
5.68415
21
-3.64225
0
LINE
8
BLACK
6
CONTINUOUS
10
5.68415
20
-3.64225
11
5.68415
21
-3.63631
0
LINE
8
BLACK
6
CONTINUOUS
10
5.68415
20
-3.63631
11
5.68265
21
-3.6318
0
LINE
8
BLACK
6
CONTINUOUS
10
5.68265
20
-3.6318
11
5.67973
21
-3.62888
0
LINE
8
BLACK
6
CONTINUOUS
10
5.67973
20
-3.62888
11
5.6767
21
-3.62736
0
LINE
8
BLACK
6
CONTINUOUS
10
5.6767
20
-3.62736
11
5.66987
21
-3.62566
0
LINE
8
BLACK
6
CONTINUOUS
10
5.66987
20
-3.62566
11
5.66497
21
-3.62566
0
LINE
8
BLACK
6
CONTINUOUS
10
5.68936
20
-3.58331
11
5.69005
21
-3.58521
0
LINE
8
BLACK
6
CONTINUOUS
10
5.69005
20
-3.58521
11
5.69005
21
-3.60771
0
LINE
8
BLACK
6
CONTINUOUS
10
5.69005
20
-3.60771
11
5.68988
21
-3.60872
0
LINE
8
BLACK
6
CONTINUOUS
10
5.68988
20
-3.60872
11
5.68858
21
-3.61026
0
LINE
8
BLACK
6
CONTINUOUS
10
5.68858
20
-3.61026
11
5.68659
21
-3.61061
0
LINE
8
BLACK
6
CONTINUOUS
10
5.68659
20
-3.61061
11
5.68484
21
-3.6096
0
LINE
8
BLACK
6
CONTINUOUS
10
5.68484
20
-3.6096
11
5.68415
21
-3.60771
0
LINE
8
BLACK
6
CONTINUOUS
10
5.68415
20
-3.60771
11
5.68415
21
-3.59941
0
LINE
8
BLACK
6
CONTINUOUS
10
5.68415
20
-3.59941
11
5.65673
21
-3.59941
0
LINE
8
BLACK
6
CONTINUOUS
10
5.65673
20
-3.59941
11
5.65919
21
-3.60187
0
LINE
8
BLACK
6
CONTINUOUS
10
5.65919
20
-3.60187
11
5.6597
21
-3.60259
0
LINE
8
BLACK
6
CONTINUOUS
10
5.6597
20
-3.60259
11
5.65975
21
-3.60264
0
LINE
8
BLACK
6
CONTINUOUS
10
5.65975
20
-3.60264
11
5.66162
21
-3.60638
0
LINE
8
BLACK
6
CONTINUOUS
10
5.66162
20
-3.60638
11
5.66191
21
-3.60737
0
LINE
8
BLACK
6
CONTINUOUS
10
5.66191
20
-3.60737
11
5.66144
21
-3.60933
0
LINE
8
BLACK
6
CONTINUOUS
10
5.66144
20
-3.60933
11
5.65982
21
-3.61054
0
LINE
8
BLACK
6
CONTINUOUS
10
5.65982
20
-3.61054
11
5.65781
21
-3.61041
0
LINE
8
BLACK
6
CONTINUOUS
10
5.65781
20
-3.61041
11
5.65634
21
-3.60903
0
LINE
8
BLACK
6
CONTINUOUS
10
5.65634
20
-3.60903
11
5.65468
21
-3.6057
0
LINE
8
BLACK
6
CONTINUOUS
10
5.65468
20
-3.6057
11
5.65147
21
-3.6025
0
LINE
8
BLACK
6
CONTINUOUS
10
5.65147
20
-3.6025
11
5.64609
21
-3.59891
0
LINE
8
BLACK
6
CONTINUOUS
10
5.64609
20
-3.59891
11
5.64535
21
-3.59821
0
LINE
8
BLACK
6
CONTINUOUS
10
5.64535
20
-3.59821
11
5.6453
21
-3.59804
0
LINE
8
BLACK
6
CONTINUOUS
10
5.6453
20
-3.59804
11
5.64517
21
-3.59793
0
LINE
8
BLACK
6
CONTINUOUS
10
5.64517
20
-3.59793
11
5.64503
21
-3.59709
0
LINE
8
BLACK
6
CONTINUOUS
10
5.64503
20
-3.59709
11
5.64478
21
-3.59627
0
LINE
8
BLACK
6
CONTINUOUS
10
5.64478
20
-3.59627
11
5.64485
21
-3.59611
0
LINE
8
BLACK
6
CONTINUOUS
10
5.64485
20
-3.59611
11
5.64482
21
-3.59594
0
LINE
8
BLACK
6
CONTINUOUS
10
5.64482
20
-3.59594
11
5.64525
21
-3.5952
0
LINE
8
BLACK
6
CONTINUOUS
10
5.64525
20
-3.5952
11
5.6456
21
-3.59442
0
LINE
8
BLACK
6
CONTINUOUS
10
5.6456
20
-3.59442
11
5.64575
21
-3.59434
0
LINE
8
BLACK
6
CONTINUOUS
10
5.64575
20
-3.59434
11
5.64583
21
-3.59419
0
LINE
8
BLACK
6
CONTINUOUS
10
5.64583
20
-3.59419
11
5.64664
21
-3.5939
0
LINE
8
BLACK
6
CONTINUOUS
10
5.64664
20
-3.5939
11
5.64741
21
-3.59352
0
LINE
8
BLACK
6
CONTINUOUS
10
5.64741
20
-3.59352
11
5.64757
21
-3.59356
0
LINE
8
BLACK
6
CONTINUOUS
10
5.64757
20
-3.59356
11
5.64773
21
-3.5935
0
LINE
8
BLACK
6
CONTINUOUS
10
5.64773
20
-3.5935
11
5.68415
21
-3.5935
0
LINE
8
BLACK
6
CONTINUOUS
10
5.68415
20
-3.5935
11
5.68415
21
-3.58521
0
LINE
8
BLACK
6
CONTINUOUS
10
5.68415
20
-3.58521
11
5.68433
21
-3.5842
0
LINE
8
BLACK
6
CONTINUOUS
10
5.68433
20
-3.5842
11
5.68563
21
-3.58265
0
LINE
8
BLACK
6
CONTINUOUS
10
5.68563
20
-3.58265
11
5.68761
21
-3.5823
0
LINE
8
BLACK
6
CONTINUOUS
10
5.68761
20
-3.5823
11
5.68936
21
-3.58331
0
LINE
8
BLACK
6
CONTINUOUS
10
5.66186
20
-3.46835
11
5.662
21
-3.46847
0
LINE
8
BLACK
6
CONTINUOUS
10
5.662
20
-3.46847
11
5.66218
21
-3.46849
0
LINE
8
BLACK
6
CONTINUOUS
10
5.66218
20
-3.46849
11
5.66592
21
-3.47036
0
LINE
8
BLACK
6
CONTINUOUS
10
5.66592
20
-3.47036
11
5.66663
21
-3.47089
0
LINE
8
BLACK
6
CONTINUOUS
10
5.66663
20
-3.47089
11
5.66669
21
-3.47092
0
LINE
8
BLACK
6
CONTINUOUS
10
5.66669
20
-3.47092
11
5.66857
21
-3.47279
0
LINE
8
BLACK
6
CONTINUOUS
10
5.66857
20
-3.47279
11
5.66907
21
-3.47351
0
LINE
8
BLACK
6
CONTINUOUS
10
5.66907
20
-3.47351
11
5.66912
21
-3.47356
0
LINE
8
BLACK
6
CONTINUOUS
10
5.66912
20
-3.47356
11
5.67099
21
-3.47731
0
LINE
8
BLACK
6
CONTINUOUS
10
5.67099
20
-3.47731
11
5.67129
21
-3.47829
0
LINE
8
BLACK
6
CONTINUOUS
10
5.67129
20
-3.47829
11
5.67125
21
-3.47846
0
LINE
8
BLACK
6
CONTINUOUS
10
5.67125
20
-3.47846
11
5.67129
21
-3.47859
0
LINE
8
BLACK
6
CONTINUOUS
10
5.67129
20
-3.47859
11
5.68541
21
-3.46871
0
LINE
8
BLACK
6
CONTINUOUS
10
5.68541
20
-3.46871
11
5.68634
21
-3.46828
0
LINE
8
BLACK
6
CONTINUOUS
10
5.68634
20
-3.46828
11
5.68835
21
-3.46845
0
LINE
8
BLACK
6
CONTINUOUS
10
5.68835
20
-3.46845
11
5.68978
21
-3.46988
0
LINE
8
BLACK
6
CONTINUOUS
10
5.68978
20
-3.46988
11
5.68995
21
-3.47189
0
LINE
8
BLACK
6
CONTINUOUS
10
5.68995
20
-3.47189
11
5.68879
21
-3.47355
0
LINE
8
BLACK
6
CONTINUOUS
10
5.68879
20
-3.47355
11
5.67131
21
-3.48579
0
LINE
8
BLACK
6
CONTINUOUS
10
5.67131
20
-3.48579
11
5.67131
21
-3.49067
0
LINE
8
BLACK
6
CONTINUOUS
10
5.67131
20
-3.49067
11
5.6871
21
-3.49067
0
LINE
8
BLACK
6
CONTINUOUS
10
5.6871
20
-3.49067
11
5.68811
21
-3.49085
0
LINE
8
BLACK
6
CONTINUOUS
10
5.68811
20
-3.49085
11
5.68966
21
-3.49215
0
LINE
8
BLACK
6
CONTINUOUS
10
5.68966
20
-3.49215
11
5.69001
21
-3.49414
0
LINE
8
BLACK
6
CONTINUOUS
10
5.69001
20
-3.49414
11
5.689
21
-3.49589
0
LINE
8
BLACK
6
CONTINUOUS
10
5.689
20
-3.49589
11
5.6871
21
-3.49658
0
LINE
8
BLACK
6
CONTINUOUS
10
5.6871
20
-3.49658
11
5.64773
21
-3.49658
0
LINE
8
BLACK
6
CONTINUOUS
10
5.64773
20
-3.49658
11
5.64735
21
-3.49651
0
LINE
8
BLACK
6
CONTINUOUS
10
5.64735
20
-3.49651
11
5.64722
21
-3.49653
0
LINE
8
BLACK
6
CONTINUOUS
10
5.64722
20
-3.49653
11
5.64711
21
-3.49647
0
LINE
8
BLACK
6
CONTINUOUS
10
5.64711
20
-3.49647
11
5.64672
21
-3.4964
0
LINE
8
BLACK
6
CONTINUOUS
10
5.64672
20
-3.4964
11
5.64613
21
-3.49591
0
LINE
8
BLACK
6
CONTINUOUS
10
5.64613
20
-3.49591
11
5.64547
21
-3.49552
0
LINE
8
BLACK
6
CONTINUOUS
10
5.64547
20
-3.49552
11
5.64538
21
-3.49527
0
LINE
8
BLACK
6
CONTINUOUS
10
5.64538
20
-3.49527
11
5.64517
21
-3.4951
0
LINE
8
BLACK
6
CONTINUOUS
10
5.64517
20
-3.4951
11
5.64504
21
-3.49435
0
LINE
8
BLACK
6
CONTINUOUS
10
5.64504
20
-3.49435
11
5.64478
21
-3.49363
0
LINE
8
BLACK
6
CONTINUOUS
10
5.64478
20
-3.49363
11
5.64478
21
-3.47863
0
LINE
8
BLACK
6
CONTINUOUS
10
5.64478
20
-3.47863
11
5.64496
21
-3.47762
0
LINE
8
BLACK
6
CONTINUOUS
10
5.64496
20
-3.47762
11
5.64507
21
-3.47748
0
LINE
8
BLACK
6
CONTINUOUS
10
5.64507
20
-3.47748
11
5.64509
21
-3.47731
0
LINE
8
BLACK
6
CONTINUOUS
10
5.64509
20
-3.47731
11
5.64697
21
-3.47356
0
LINE
8
BLACK
6
CONTINUOUS
10
5.64697
20
-3.47356
11
5.64749
21
-3.47285
0
LINE
8
BLACK
6
CONTINUOUS
10
5.64749
20
-3.47285
11
5.64752
21
-3.47279
0
LINE
8
BLACK
6
CONTINUOUS
10
5.64752
20
-3.47279
11
5.64939
21
-3.47092
0
LINE
8
BLACK
6
CONTINUOUS
10
5.64939
20
-3.47092
11
5.65012
21
-3.47041
0
LINE
8
BLACK
6
CONTINUOUS
10
5.65012
20
-3.47041
11
5.65016
21
-3.47036
0
LINE
8
BLACK
6
CONTINUOUS
10
5.65016
20
-3.47036
11
5.65391
21
-3.46849
0
LINE
8
BLACK
6
CONTINUOUS
10
5.65391
20
-3.46849
11
5.65489
21
-3.4682
0
LINE
8
BLACK
6
CONTINUOUS
10
5.65489
20
-3.4682
11
5.65506
21
-3.46824
0
LINE
8
BLACK
6
CONTINUOUS
10
5.65506
20
-3.46824
11
5.65523
21
-3.46818
0
LINE
8
BLACK
6
CONTINUOUS
10
5.65523
20
-3.46818
11
5.66085
21
-3.46818
0
LINE
8
BLACK
6
CONTINUOUS
10
5.66085
20
-3.46818
11
5.66186
21
-3.46835
0
LINE
8
BLACK
6
CONTINUOUS
10
5.65593
20
-3.47408
11
5.65323
21
-3.47543
0
LINE
8
BLACK
6
CONTINUOUS
10
5.65323
20
-3.47543
11
5.65203
21
-3.47663
0
LINE
8
BLACK
6
CONTINUOUS
10
5.65203
20
-3.47663
11
5.65068
21
-3.47932
0
LINE
8
BLACK
6
CONTINUOUS
10
5.65068
20
-3.47932
11
5.65068
21
-3.49067
0
LINE
8
BLACK
6
CONTINUOUS
10
5.65068
20
-3.49067
11
5.6654
21
-3.49067
0
LINE
8
BLACK
6
CONTINUOUS
10
5.6654
20
-3.49067
11
5.6654
21
-3.47932
0
LINE
8
BLACK
6
CONTINUOUS
10
5.6654
20
-3.47932
11
5.66405
21
-3.47663
0
LINE
8
BLACK
6
CONTINUOUS
10
5.66405
20
-3.47663
11
5.66286
21
-3.47543
0
LINE
8
BLACK
6
CONTINUOUS
10
5.66286
20
-3.47543
11
5.66016
21
-3.47408
0
LINE
8
BLACK
6
CONTINUOUS
10
5.66016
20
-3.47408
11
5.65593
21
-3.47408
0
LINE
8
BLACK
6
CONTINUOUS
10
5.56328
20
-3.45396
11
5.56398
21
-3.45563
0
LINE
8
BLACK
6
CONTINUOUS
10
5.56398
20
-3.45563
11
5.56398
21
-3.47351
0
LINE
8
BLACK
6
CONTINUOUS
10
5.56398
20
-3.47351
11
5.56328
21
-3.47518
0
LINE
8
BLACK
6
CONTINUOUS
10
5.56328
20
-3.47518
11
5.56161
21
-3.47587
0
LINE
8
BLACK
6
CONTINUOUS
10
5.56161
20
-3.47587
11
5.55994
21
-3.47518
0
LINE
8
BLACK
6
CONTINUOUS
10
5.55994
20
-3.47518
11
5.55925
21
-3.47351
0
LINE
8
BLACK
6
CONTINUOUS
10
5.55925
20
-3.47351
11
5.55925
21
-3.45563
0
LINE
8
BLACK
6
CONTINUOUS
10
5.55925
20
-3.45563
11
5.55994
21
-3.45396
0
LINE
8
BLACK
6
CONTINUOUS
10
5.55994
20
-3.45396
11
5.56161
21
-3.45327
0
LINE
8
BLACK
6
CONTINUOUS
10
5.56161
20
-3.45327
11
5.56328
21
-3.45396
0
LINE
8
BLACK
6
CONTINUOUS
10
5.62116
20
-3.45396
11
5.62185
21
-3.45563
0
LINE
8
BLACK
6
CONTINUOUS
10
5.62185
20
-3.45563
11
5.62185
21
-3.47351
0
LINE
8
BLACK
6
CONTINUOUS
10
5.62185
20
-3.47351
11
5.62116
21
-3.47518
0
LINE
8
BLACK
6
CONTINUOUS
10
5.62116
20
-3.47518
11
5.61949
21
-3.47587
0
LINE
8
BLACK
6
CONTINUOUS
10
5.61949
20
-3.47587
11
5.61782
21
-3.47518
0
LINE
8
BLACK
6
CONTINUOUS
10
5.61782
20
-3.47518
11
5.61713
21
-3.47351
0
LINE
8
BLACK
6
CONTINUOUS
10
5.61713
20
-3.47351
11
5.61713
21
-3.45563
0
LINE
8
BLACK
6
CONTINUOUS
10
5.61713
20
-3.45563
11
5.61782
21
-3.45396
0
LINE
8
BLACK
6
CONTINUOUS
10
5.61782
20
-3.45396
11
5.61949
21
-3.45327
0
LINE
8
BLACK
6
CONTINUOUS
10
5.61949
20
-3.45327
11
5.62116
21
-3.45396
0
LINE
8
BLACK
6
CONTINUOUS
10
5.68936
20
-3.43174
11
5.69005
21
-3.43363
0
LINE
8
BLACK
6
CONTINUOUS
10
5.69005
20
-3.43363
11
5.69005
21
-3.45613
0
LINE
8
BLACK
6
CONTINUOUS
10
5.69005
20
-3.45613
11
5.68988
21
-3.45714
0
LINE
8
BLACK
6
CONTINUOUS
10
5.68988
20
-3.45714
11
5.68858
21
-3.45869
0
LINE
8
BLACK
6
CONTINUOUS
10
5.68858
20
-3.45869
11
5.68659
21
-3.45904
0
LINE
8
BLACK
6
CONTINUOUS
10
5.68659
20
-3.45904
11
5.68484
21
-3.45803
0
LINE
8
BLACK
6
CONTINUOUS
10
5.68484
20
-3.45803
11
5.68415
21
-3.45613
0
LINE
8
BLACK
6
CONTINUOUS
10
5.68415
20
-3.45613
11
5.68415
21
-3.44783
0
LINE
8
BLACK
6
CONTINUOUS
10
5.68415
20
-3.44783
11
5.65673
21
-3.44783
0
LINE
8
BLACK
6
CONTINUOUS
10
5.65673
20
-3.44783
11
5.65919
21
-3.45029
0
LINE
8
BLACK
6
CONTINUOUS
10
5.65919
20
-3.45029
11
5.6597
21
-3.45102
0
LINE
8
BLACK
6
CONTINUOUS
10
5.6597
20
-3.45102
11
5.65975
21
-3.45106
0
LINE
8
BLACK
6
CONTINUOUS
10
5.65975
20
-3.45106
11
5.66162
21
-3.45481
0
LINE
8
BLACK
6
CONTINUOUS
10
5.66162
20
-3.45481
11
5.66191
21
-3.45579
0
LINE
8
BLACK
6
CONTINUOUS
10
5.66191
20
-3.45579
11
5.66144
21
-3.45776
0
LINE
8
BLACK
6
CONTINUOUS
10
5.66144
20
-3.45776
11
5.65982
21
-3.45896
0
LINE
8
BLACK
6
CONTINUOUS
10
5.65982
20
-3.45896
11
5.65781
21
-3.45884
0
LINE
8
BLACK
6
CONTINUOUS
10
5.65781
20
-3.45884
11
5.65634
21
-3.45745
0
LINE
8
BLACK
6
CONTINUOUS
10
5.65634
20
-3.45745
11
5.65468
21
-3.45413
0
LINE
8
BLACK
6
CONTINUOUS
10
5.65468
20
-3.45413
11
5.65147
21
-3.45093
0
LINE
8
BLACK
6
CONTINUOUS
10
5.65147
20
-3.45093
11
5.64609
21
-3.44734
0
LINE
8
BLACK
6
CONTINUOUS
10
5.64609
20
-3.44734
11
5.64535
21
-3.44663
0
LINE
8
BLACK
6
CONTINUOUS
10
5.64535
20
-3.44663
11
5.6453
21
-3.44647
0
LINE
8
BLACK
6
CONTINUOUS
10
5.6453
20
-3.44647
11
5.64517
21
-3.44636
0
LINE
8
BLACK
6
CONTINUOUS
10
5.64517
20
-3.44636
11
5.64503
21
-3.44551
0
LINE
8
BLACK
6
CONTINUOUS
10
5.64503
20
-3.44551
11
5.64478
21
-3.44469
0
LINE
8
BLACK
6
CONTINUOUS
10
5.64478
20
-3.44469
11
5.64485
21
-3.44454
0
LINE
8
BLACK
6
CONTINUOUS
10
5.64485
20
-3.44454
11
5.64482
21
-3.44437
0
LINE
8
BLACK
6
CONTINUOUS
10
5.64482
20
-3.44437
11
5.64525
21
-3.44363
0
LINE
8
BLACK
6
CONTINUOUS
10
5.64525
20
-3.44363
11
5.6456
21
-3.44284
0
LINE
8
BLACK
6
CONTINUOUS
10
5.6456
20
-3.44284
11
5.64575
21
-3.44277
0
LINE
8
BLACK
6
CONTINUOUS
10
5.64575
20
-3.44277
11
5.64583
21
-3.44262
0
LINE
8
BLACK
6
CONTINUOUS
10
5.64583
20
-3.44262
11
5.64664
21
-3.44233
0
LINE
8
BLACK
6
CONTINUOUS
10
5.64664
20
-3.44233
11
5.64741
21
-3.44195
0
LINE
8
BLACK
6
CONTINUOUS
10
5.64741
20
-3.44195
11
5.64757
21
-3.44199
0
LINE
8
BLACK
6
CONTINUOUS
10
5.64757
20
-3.44199
11
5.64773
21
-3.44193
0
LINE
8
BLACK
6
CONTINUOUS
10
5.64773
20
-3.44193
11
5.68415
21
-3.44193
0
LINE
8
BLACK
6
CONTINUOUS
10
5.68415
20
-3.44193
11
5.68415
21
-3.43363
0
LINE
8
BLACK
6
CONTINUOUS
10
5.68415
20
-3.43363
11
5.68433
21
-3.43262
0
LINE
8
BLACK
6
CONTINUOUS
10
5.68433
20
-3.43262
11
5.68563
21
-3.43108
0
LINE
8
BLACK
6
CONTINUOUS
10
5.68563
20
-3.43108
11
5.68761
21
-3.43073
0
LINE
8
BLACK
6
CONTINUOUS
10
5.68761
20
-3.43073
11
5.68936
21
-3.43174
0
LINE
8
BLACK
6
CONTINUOUS
10
5.19222
20
-3.39203
11
5.19291
21
-3.3937
0
LINE
8
BLACK
6
CONTINUOUS
10
5.19291
20
-3.3937
11
5.19222
21
-3.39537
0
LINE
8
BLACK
6
CONTINUOUS
10
5.19222
20
-3.39537
11
5.19055
21
-3.39606
0
LINE
8
BLACK
6
CONTINUOUS
10
5.19055
20
-3.39606
11
5.16772
21
-3.39606
0
LINE
8
BLACK
6
CONTINUOUS
10
5.16772
20
-3.39606
11
5.16772
21
-3.40945
0
LINE
8
BLACK
6
CONTINUOUS
10
5.16772
20
-3.40945
11
5.16702
21
-3.41112
0
LINE
8
BLACK
6
CONTINUOUS
10
5.16702
20
-3.41112
11
5.16535
21
-3.41181
0
LINE
8
BLACK
6
CONTINUOUS
10
5.16535
20
-3.41181
11
5.16368
21
-3.41112
0
LINE
8
BLACK
6
CONTINUOUS
10
5.16368
20
-3.41112
11
5.16299
21
-3.40945
0
LINE
8
BLACK
6
CONTINUOUS
10
5.16299
20
-3.40945
11
5.16299
21
-3.3937
0
LINE
8
BLACK
6
CONTINUOUS
10
5.16299
20
-3.3937
11
5.16368
21
-3.39203
0
LINE
8
BLACK
6
CONTINUOUS
10
5.16368
20
-3.39203
11
5.16535
21
-3.39134
0
LINE
8
BLACK
6
CONTINUOUS
10
5.16535
20
-3.39134
11
5.19055
21
-3.39134
0
LINE
8
BLACK
6
CONTINUOUS
10
5.19055
20
-3.39134
11
5.19222
21
-3.39203
0
CIRCLE
8
BLACK
10
5.35433
20
-3.47441
40
0.023622
0
CIRCLE
8
BLACK
10
5.35433
20
-3.6122
40
0.023622
0
CIRCLE
8
BLACK
10
5.82677
20
-3.26772
40
0.0433071
0
CIRCLE
8
BLACK
10
5.82677
20
-3.8189
40
0.0433071
0
CIRCLE
8
BLACK
10
5.27559
20
-3.26772
40
0.0433071
0
CIRCLE
8
BLACK
10
5.27559
20
-3.8189
40
0.0433071
  0
ENDSEC
  0
EOF
