  0
SECTION
  2
HEADER
  9
$ANGBASE
  50
0.0
  9
$ANGDIR
  70
1
  9
$MEASUREMENT
  70
0
  0
ENDSEC
  0
SECTION
  2
TABLES
  0
TABLE
  2
LTYPE
  70
4
  0
LTYPE
  5
40F
  2
CONTINUOUS
  70
0
  3
Solid line
  72
65
  73
0
  40
0.0
  0
LTYPE
  5
410
  2
DASHDOT
 70
0
  3
Dash Dot ____ _ ____ _
 72
65
 73
4
 40
2.0
 49
1.25
 49
-0.25
 49
0.25
 49
-0.25
  0
LTYPE
  5
411
  2
DASHED
 70
0
  3
Dashed __ __ __ __ __
 72
65
 73
2
 40
0.75
 49
0.5
 49
-0.25
  0
LTYPE
  5
43B
  2
DOTTED
 70
0
  3
Dotted .  .  .  .
 72
65
 73
2
 40
0.2
 49
0.0
 49
-0.2
  0
ENDTAB
  0
TABLE
  2
STYLE
  70
4
  0
STYLE
  2
KICAD
  70
0
  40
0
  41
1
  42
1
  50
0
  71
0
  3
isocp.shx
  0
STYLE
  2
KICADB
  70
0
  40
0
  41
1
  42
1
  50
0
  71
0
  3
isocp.shx
  0
STYLE
  2
KICADI
  70
0
  40
0
  41
1
  42
1
  50
15
  71
0
  3
isocp.shx
  0
STYLE
  2
KICADBI
  70
0
  40
0
  41
1
  42
1
  50
15
  71
0
  3
isocp.shx
  0
ENDTAB
  0
TABLE
  2
LAYER
  70
1
  0
LAYER
  2
BLACK
  70
0
  62
7
  6
CONTINUOUS
  0
ENDTAB
  0
ENDSEC
  0
SECTION
  2
ENTITIES
0
LINE
8
BLACK
6
CONTINUOUS
10
5.30285
20
-3.92055
11
5.30298
21
-3.92066
0
LINE
8
BLACK
6
CONTINUOUS
10
5.30298
20
-3.92066
11
5.30316
21
-3.92068
0
LINE
8
BLACK
6
CONTINUOUS
10
5.30316
20
-3.92068
11
5.30691
21
-3.92256
0
LINE
8
BLACK
6
CONTINUOUS
10
5.30691
20
-3.92256
11
5.30762
21
-3.92308
0
LINE
8
BLACK
6
CONTINUOUS
10
5.30762
20
-3.92308
11
5.30767
21
-3.92311
0
LINE
8
BLACK
6
CONTINUOUS
10
5.30767
20
-3.92311
11
5.30955
21
-3.92498
0
LINE
8
BLACK
6
CONTINUOUS
10
5.30955
20
-3.92498
11
5.31006
21
-3.92571
0
LINE
8
BLACK
6
CONTINUOUS
10
5.31006
20
-3.92571
11
5.3101
21
-3.92575
0
LINE
8
BLACK
6
CONTINUOUS
10
5.3101
20
-3.92575
11
5.31198
21
-3.9295
0
LINE
8
BLACK
6
CONTINUOUS
10
5.31198
20
-3.9295
11
5.31227
21
-3.93048
0
LINE
8
BLACK
6
CONTINUOUS
10
5.31227
20
-3.93048
11
5.31223
21
-3.93066
0
LINE
8
BLACK
6
CONTINUOUS
10
5.31223
20
-3.93066
11
5.31229
21
-3.93082
0
LINE
8
BLACK
6
CONTINUOUS
10
5.31229
20
-3.93082
11
5.31229
21
-3.93457
0
LINE
8
BLACK
6
CONTINUOUS
10
5.31229
20
-3.93457
11
5.31214
21
-3.93544
0
LINE
8
BLACK
6
CONTINUOUS
10
5.31214
20
-3.93544
11
5.31214
21
-3.9355
0
LINE
8
BLACK
6
CONTINUOUS
10
5.31214
20
-3.9355
11
5.31026
21
-3.94113
0
LINE
8
BLACK
6
CONTINUOUS
10
5.31026
20
-3.94113
11
5.30977
21
-3.94203
0
LINE
8
BLACK
6
CONTINUOUS
10
5.30977
20
-3.94203
11
5.30962
21
-3.94212
0
LINE
8
BLACK
6
CONTINUOUS
10
5.30962
20
-3.94212
11
5.30955
21
-3.94228
0
LINE
8
BLACK
6
CONTINUOUS
10
5.30955
20
-3.94228
11
5.29209
21
-3.95974
0
LINE
8
BLACK
6
CONTINUOUS
10
5.29209
20
-3.95974
11
5.30934
21
-3.95974
0
LINE
8
BLACK
6
CONTINUOUS
10
5.30934
20
-3.95974
11
5.31035
21
-3.95992
0
LINE
8
BLACK
6
CONTINUOUS
10
5.31035
20
-3.95992
11
5.31189
21
-3.96122
0
LINE
8
BLACK
6
CONTINUOUS
10
5.31189
20
-3.96122
11
5.31224
21
-3.9632
0
LINE
8
BLACK
6
CONTINUOUS
10
5.31224
20
-3.9632
11
5.31123
21
-3.96495
0
LINE
8
BLACK
6
CONTINUOUS
10
5.31123
20
-3.96495
11
5.30934
21
-3.96564
0
LINE
8
BLACK
6
CONTINUOUS
10
5.30934
20
-3.96564
11
5.28496
21
-3.96564
0
LINE
8
BLACK
6
CONTINUOUS
10
5.28496
20
-3.96564
11
5.28433
21
-3.96553
0
LINE
8
BLACK
6
CONTINUOUS
10
5.28433
20
-3.96553
11
5.2842
21
-3.96554
0
LINE
8
BLACK
6
CONTINUOUS
10
5.2842
20
-3.96554
11
5.28413
21
-3.9655
0
LINE
8
BLACK
6
CONTINUOUS
10
5.28413
20
-3.9655
11
5.28395
21
-3.96547
0
LINE
8
BLACK
6
CONTINUOUS
10
5.28395
20
-3.96547
11
5.28327
21
-3.9649
0
LINE
8
BLACK
6
CONTINUOUS
10
5.28327
20
-3.9649
11
5.28255
21
-3.96439
0
LINE
8
BLACK
6
CONTINUOUS
10
5.28255
20
-3.96439
11
5.28251
21
-3.96426
0
LINE
8
BLACK
6
CONTINUOUS
10
5.28251
20
-3.96426
11
5.28241
21
-3.96417
0
LINE
8
BLACK
6
CONTINUOUS
10
5.28241
20
-3.96417
11
5.28225
21
-3.96329
0
LINE
8
BLACK
6
CONTINUOUS
10
5.28225
20
-3.96329
11
5.28202
21
-3.96243
0
LINE
8
BLACK
6
CONTINUOUS
10
5.28202
20
-3.96243
11
5.28208
21
-3.96231
0
LINE
8
BLACK
6
CONTINUOUS
10
5.28208
20
-3.96231
11
5.28206
21
-3.96218
0
LINE
8
BLACK
6
CONTINUOUS
10
5.28206
20
-3.96218
11
5.2825
21
-3.96141
0
LINE
8
BLACK
6
CONTINUOUS
10
5.2825
20
-3.96141
11
5.28288
21
-3.9606
0
LINE
8
BLACK
6
CONTINUOUS
10
5.28288
20
-3.9606
11
5.30488
21
-3.9386
0
LINE
8
BLACK
6
CONTINUOUS
10
5.30488
20
-3.9386
11
5.30638
21
-3.93409
0
LINE
8
BLACK
6
CONTINUOUS
10
5.30638
20
-3.93409
11
5.30638
21
-3.93152
0
LINE
8
BLACK
6
CONTINUOUS
10
5.30638
20
-3.93152
11
5.30503
21
-3.92882
0
LINE
8
BLACK
6
CONTINUOUS
10
5.30503
20
-3.92882
11
5.30384
21
-3.92762
0
LINE
8
BLACK
6
CONTINUOUS
10
5.30384
20
-3.92762
11
5.30114
21
-3.92627
0
LINE
8
BLACK
6
CONTINUOUS
10
5.30114
20
-3.92627
11
5.29316
21
-3.92627
0
LINE
8
BLACK
6
CONTINUOUS
10
5.29316
20
-3.92627
11
5.29046
21
-3.92762
0
LINE
8
BLACK
6
CONTINUOUS
10
5.29046
20
-3.92762
11
5.28893
21
-3.92916
0
LINE
8
BLACK
6
CONTINUOUS
10
5.28893
20
-3.92916
11
5.28809
21
-3.92975
0
LINE
8
BLACK
6
CONTINUOUS
10
5.28809
20
-3.92975
11
5.28607
21
-3.92992
0
LINE
8
BLACK
6
CONTINUOUS
10
5.28607
20
-3.92992
11
5.28442
21
-3.92877
0
LINE
8
BLACK
6
CONTINUOUS
10
5.28442
20
-3.92877
11
5.2839
21
-3.92681
0
LINE
8
BLACK
6
CONTINUOUS
10
5.2839
20
-3.92681
11
5.28475
21
-3.92498
0
LINE
8
BLACK
6
CONTINUOUS
10
5.28475
20
-3.92498
11
5.28663
21
-3.92311
0
LINE
8
BLACK
6
CONTINUOUS
10
5.28663
20
-3.92311
11
5.28735
21
-3.9226
0
LINE
8
BLACK
6
CONTINUOUS
10
5.28735
20
-3.9226
11
5.28739
21
-3.92256
0
LINE
8
BLACK
6
CONTINUOUS
10
5.28739
20
-3.92256
11
5.29114
21
-3.92068
0
LINE
8
BLACK
6
CONTINUOUS
10
5.29114
20
-3.92068
11
5.29213
21
-3.92039
0
LINE
8
BLACK
6
CONTINUOUS
10
5.29213
20
-3.92039
11
5.2923
21
-3.92043
0
LINE
8
BLACK
6
CONTINUOUS
10
5.2923
20
-3.92043
11
5.29246
21
-3.92037
0
LINE
8
BLACK
6
CONTINUOUS
10
5.29246
20
-3.92037
11
5.30184
21
-3.92037
0
LINE
8
BLACK
6
CONTINUOUS
10
5.30184
20
-3.92037
11
5.30285
21
-3.92055
0
LINE
8
BLACK
6
CONTINUOUS
10
5.85403
20
-3.92055
11
5.85416
21
-3.92066
0
LINE
8
BLACK
6
CONTINUOUS
10
5.85416
20
-3.92066
11
5.85434
21
-3.92068
0
LINE
8
BLACK
6
CONTINUOUS
10
5.85434
20
-3.92068
11
5.85809
21
-3.92256
0
LINE
8
BLACK
6
CONTINUOUS
10
5.85809
20
-3.92256
11
5.8588
21
-3.92308
0
LINE
8
BLACK
6
CONTINUOUS
10
5.8588
20
-3.92308
11
5.85886
21
-3.92311
0
LINE
8
BLACK
6
CONTINUOUS
10
5.85886
20
-3.92311
11
5.86073
21
-3.92498
0
LINE
8
BLACK
6
CONTINUOUS
10
5.86073
20
-3.92498
11
5.86124
21
-3.92571
0
LINE
8
BLACK
6
CONTINUOUS
10
5.86124
20
-3.92571
11
5.86128
21
-3.92575
0
LINE
8
BLACK
6
CONTINUOUS
10
5.86128
20
-3.92575
11
5.86316
21
-3.9295
0
LINE
8
BLACK
6
CONTINUOUS
10
5.86316
20
-3.9295
11
5.86345
21
-3.93048
0
LINE
8
BLACK
6
CONTINUOUS
10
5.86345
20
-3.93048
11
5.86341
21
-3.93066
0
LINE
8
BLACK
6
CONTINUOUS
10
5.86341
20
-3.93066
11
5.86347
21
-3.93082
0
LINE
8
BLACK
6
CONTINUOUS
10
5.86347
20
-3.93082
11
5.86347
21
-3.93457
0
LINE
8
BLACK
6
CONTINUOUS
10
5.86347
20
-3.93457
11
5.86332
21
-3.93544
0
LINE
8
BLACK
6
CONTINUOUS
10
5.86332
20
-3.93544
11
5.86332
21
-3.9355
0
LINE
8
BLACK
6
CONTINUOUS
10
5.86332
20
-3.9355
11
5.86144
21
-3.94113
0
LINE
8
BLACK
6
CONTINUOUS
10
5.86144
20
-3.94113
11
5.86096
21
-3.94203
0
LINE
8
BLACK
6
CONTINUOUS
10
5.86096
20
-3.94203
11
5.86081
21
-3.94212
0
LINE
8
BLACK
6
CONTINUOUS
10
5.86081
20
-3.94212
11
5.86073
21
-3.94228
0
LINE
8
BLACK
6
CONTINUOUS
10
5.86073
20
-3.94228
11
5.84327
21
-3.95974
0
LINE
8
BLACK
6
CONTINUOUS
10
5.84327
20
-3.95974
11
5.86052
21
-3.95974
0
LINE
8
BLACK
6
CONTINUOUS
10
5.86052
20
-3.95974
11
5.86153
21
-3.95992
0
LINE
8
BLACK
6
CONTINUOUS
10
5.86153
20
-3.95992
11
5.86307
21
-3.96122
0
LINE
8
BLACK
6
CONTINUOUS
10
5.86307
20
-3.96122
11
5.86343
21
-3.9632
0
LINE
8
BLACK
6
CONTINUOUS
10
5.86343
20
-3.9632
11
5.86242
21
-3.96495
0
LINE
8
BLACK
6
CONTINUOUS
10
5.86242
20
-3.96495
11
5.86052
21
-3.96564
0
LINE
8
BLACK
6
CONTINUOUS
10
5.86052
20
-3.96564
11
5.83615
21
-3.96564
0
LINE
8
BLACK
6
CONTINUOUS
10
5.83615
20
-3.96564
11
5.83551
21
-3.96553
0
LINE
8
BLACK
6
CONTINUOUS
10
5.83551
20
-3.96553
11
5.83538
21
-3.96554
0
LINE
8
BLACK
6
CONTINUOUS
10
5.83538
20
-3.96554
11
5.83532
21
-3.9655
0
LINE
8
BLACK
6
CONTINUOUS
10
5.83532
20
-3.9655
11
5.83514
21
-3.96547
0
LINE
8
BLACK
6
CONTINUOUS
10
5.83514
20
-3.96547
11
5.83445
21
-3.9649
0
LINE
8
BLACK
6
CONTINUOUS
10
5.83445
20
-3.9649
11
5.83373
21
-3.96439
0
LINE
8
BLACK
6
CONTINUOUS
10
5.83373
20
-3.96439
11
5.83369
21
-3.96426
0
LINE
8
BLACK
6
CONTINUOUS
10
5.83369
20
-3.96426
11
5.83359
21
-3.96417
0
LINE
8
BLACK
6
CONTINUOUS
10
5.83359
20
-3.96417
11
5.83343
21
-3.96329
0
LINE
8
BLACK
6
CONTINUOUS
10
5.83343
20
-3.96329
11
5.8332
21
-3.96243
0
LINE
8
BLACK
6
CONTINUOUS
10
5.8332
20
-3.96243
11
5.83326
21
-3.96231
0
LINE
8
BLACK
6
CONTINUOUS
10
5.83326
20
-3.96231
11
5.83324
21
-3.96218
0
LINE
8
BLACK
6
CONTINUOUS
10
5.83324
20
-3.96218
11
5.83368
21
-3.96141
0
LINE
8
BLACK
6
CONTINUOUS
10
5.83368
20
-3.96141
11
5.83406
21
-3.9606
0
LINE
8
BLACK
6
CONTINUOUS
10
5.83406
20
-3.9606
11
5.85606
21
-3.9386
0
LINE
8
BLACK
6
CONTINUOUS
10
5.85606
20
-3.9386
11
5.85756
21
-3.93409
0
LINE
8
BLACK
6
CONTINUOUS
10
5.85756
20
-3.93409
11
5.85756
21
-3.93152
0
LINE
8
BLACK
6
CONTINUOUS
10
5.85756
20
-3.93152
11
5.85622
21
-3.92882
0
LINE
8
BLACK
6
CONTINUOUS
10
5.85622
20
-3.92882
11
5.85502
21
-3.92762
0
LINE
8
BLACK
6
CONTINUOUS
10
5.85502
20
-3.92762
11
5.85232
21
-3.92627
0
LINE
8
BLACK
6
CONTINUOUS
10
5.85232
20
-3.92627
11
5.84434
21
-3.92627
0
LINE
8
BLACK
6
CONTINUOUS
10
5.84434
20
-3.92627
11
5.84164
21
-3.92762
0
LINE
8
BLACK
6
CONTINUOUS
10
5.84164
20
-3.92762
11
5.84011
21
-3.92916
0
LINE
8
BLACK
6
CONTINUOUS
10
5.84011
20
-3.92916
11
5.83927
21
-3.92975
0
LINE
8
BLACK
6
CONTINUOUS
10
5.83927
20
-3.92975
11
5.83726
21
-3.92992
0
LINE
8
BLACK
6
CONTINUOUS
10
5.83726
20
-3.92992
11
5.8356
21
-3.92877
0
LINE
8
BLACK
6
CONTINUOUS
10
5.8356
20
-3.92877
11
5.83508
21
-3.92681
0
LINE
8
BLACK
6
CONTINUOUS
10
5.83508
20
-3.92681
11
5.83593
21
-3.92498
0
LINE
8
BLACK
6
CONTINUOUS
10
5.83593
20
-3.92498
11
5.83781
21
-3.92311
0
LINE
8
BLACK
6
CONTINUOUS
10
5.83781
20
-3.92311
11
5.83853
21
-3.9226
0
LINE
8
BLACK
6
CONTINUOUS
10
5.83853
20
-3.9226
11
5.83857
21
-3.92256
0
LINE
8
BLACK
6
CONTINUOUS
10
5.83857
20
-3.92256
11
5.84232
21
-3.92068
0
LINE
8
BLACK
6
CONTINUOUS
10
5.84232
20
-3.92068
11
5.84331
21
-3.92039
0
LINE
8
BLACK
6
CONTINUOUS
10
5.84331
20
-3.92039
11
5.84348
21
-3.92043
0
LINE
8
BLACK
6
CONTINUOUS
10
5.84348
20
-3.92043
11
5.84364
21
-3.92037
0
LINE
8
BLACK
6
CONTINUOUS
10
5.84364
20
-3.92037
11
5.85302
21
-3.92037
0
LINE
8
BLACK
6
CONTINUOUS
10
5.85302
20
-3.92037
11
5.85403
21
-3.92055
0
LINE
8
BLACK
6
CONTINUOUS
10
5.82127
20
-3.92048
11
5.82166
21
-3.92041
0
LINE
8
BLACK
6
CONTINUOUS
10
5.82166
20
-3.92041
11
5.82222
21
-3.92074
0
LINE
8
BLACK
6
CONTINUOUS
10
5.82222
20
-3.92074
11
5.82284
21
-3.9209
0
LINE
8
BLACK
6
CONTINUOUS
10
5.82284
20
-3.9209
11
5.82307
21
-3.92123
0
LINE
8
BLACK
6
CONTINUOUS
10
5.82307
20
-3.92123
11
5.82341
21
-3.92142
0
LINE
8
BLACK
6
CONTINUOUS
10
5.82341
20
-3.92142
11
5.82363
21
-3.92203
0
LINE
8
BLACK
6
CONTINUOUS
10
5.82363
20
-3.92203
11
5.824
21
-3.92256
0
LINE
8
BLACK
6
CONTINUOUS
10
5.824
20
-3.92256
11
5.82397
21
-3.92295
0
LINE
8
BLACK
6
CONTINUOUS
10
5.82397
20
-3.92295
11
5.8241
21
-3.92332
0
LINE
8
BLACK
6
CONTINUOUS
10
5.8241
20
-3.92332
11
5.8241
21
-3.96269
0
LINE
8
BLACK
6
CONTINUOUS
10
5.8241
20
-3.96269
11
5.82392
21
-3.9637
0
LINE
8
BLACK
6
CONTINUOUS
10
5.82392
20
-3.9637
11
5.82262
21
-3.96525
0
LINE
8
BLACK
6
CONTINUOUS
10
5.82262
20
-3.96525
11
5.82063
21
-3.9656
0
LINE
8
BLACK
6
CONTINUOUS
10
5.82063
20
-3.9656
11
5.81889
21
-3.96459
0
LINE
8
BLACK
6
CONTINUOUS
10
5.81889
20
-3.96459
11
5.81819
21
-3.96269
0
LINE
8
BLACK
6
CONTINUOUS
10
5.81819
20
-3.96269
11
5.81819
21
-3.93663
0
LINE
8
BLACK
6
CONTINUOUS
10
5.81819
20
-3.93663
11
5.8107
21
-3.95269
0
LINE
8
BLACK
6
CONTINUOUS
10
5.8107
20
-3.95269
11
5.81048
21
-3.95301
0
LINE
8
BLACK
6
CONTINUOUS
10
5.81048
20
-3.95301
11
5.81044
21
-3.95314
0
LINE
8
BLACK
6
CONTINUOUS
10
5.81044
20
-3.95314
11
5.81034
21
-3.95321
0
LINE
8
BLACK
6
CONTINUOUS
10
5.81034
20
-3.95321
11
5.81011
21
-3.95353
0
LINE
8
BLACK
6
CONTINUOUS
10
5.81011
20
-3.95353
11
5.80942
21
-3.95386
0
LINE
8
BLACK
6
CONTINUOUS
10
5.80942
20
-3.95386
11
5.80879
21
-3.9543
0
LINE
8
BLACK
6
CONTINUOUS
10
5.80879
20
-3.9543
11
5.80852
21
-3.95427
0
LINE
8
BLACK
6
CONTINUOUS
10
5.80852
20
-3.95427
11
5.80828
21
-3.95439
0
LINE
8
BLACK
6
CONTINUOUS
10
5.80828
20
-3.95439
11
5.80754
21
-3.95419
0
LINE
8
BLACK
6
CONTINUOUS
10
5.80754
20
-3.95419
11
5.80678
21
-3.95412
0
LINE
8
BLACK
6
CONTINUOUS
10
5.80678
20
-3.95412
11
5.80659
21
-3.95393
0
LINE
8
BLACK
6
CONTINUOUS
10
5.80659
20
-3.95393
11
5.80633
21
-3.95386
0
LINE
8
BLACK
6
CONTINUOUS
10
5.80633
20
-3.95386
11
5.80589
21
-3.95323
0
LINE
8
BLACK
6
CONTINUOUS
10
5.80589
20
-3.95323
11
5.80535
21
-3.95269
0
LINE
8
BLACK
6
CONTINUOUS
10
5.80535
20
-3.95269
11
5.79785
21
-3.93663
0
LINE
8
BLACK
6
CONTINUOUS
10
5.79785
20
-3.93663
11
5.79785
21
-3.96269
0
LINE
8
BLACK
6
CONTINUOUS
10
5.79785
20
-3.96269
11
5.79768
21
-3.9637
0
LINE
8
BLACK
6
CONTINUOUS
10
5.79768
20
-3.9637
11
5.79638
21
-3.96525
0
LINE
8
BLACK
6
CONTINUOUS
10
5.79638
20
-3.96525
11
5.79439
21
-3.9656
0
LINE
8
BLACK
6
CONTINUOUS
10
5.79439
20
-3.9656
11
5.79264
21
-3.96459
0
LINE
8
BLACK
6
CONTINUOUS
10
5.79264
20
-3.96459
11
5.79195
21
-3.96269
0
LINE
8
BLACK
6
CONTINUOUS
10
5.79195
20
-3.96269
11
5.79195
21
-3.92332
0
LINE
8
BLACK
6
CONTINUOUS
10
5.79195
20
-3.92332
11
5.79213
21
-3.92231
0
LINE
8
BLACK
6
CONTINUOUS
10
5.79213
20
-3.92231
11
5.79238
21
-3.92201
0
LINE
8
BLACK
6
CONTINUOUS
10
5.79238
20
-3.92201
11
5.79248
21
-3.92163
0
LINE
8
BLACK
6
CONTINUOUS
10
5.79248
20
-3.92163
11
5.79301
21
-3.92126
0
LINE
8
BLACK
6
CONTINUOUS
10
5.79301
20
-3.92126
11
5.79342
21
-3.92076
0
LINE
8
BLACK
6
CONTINUOUS
10
5.79342
20
-3.92076
11
5.79381
21
-3.9207
0
LINE
8
BLACK
6
CONTINUOUS
10
5.79381
20
-3.9207
11
5.79414
21
-3.92047
0
LINE
8
BLACK
6
CONTINUOUS
10
5.79414
20
-3.92047
11
5.79478
21
-3.92053
0
LINE
8
BLACK
6
CONTINUOUS
10
5.79478
20
-3.92053
11
5.79541
21
-3.92041
0
LINE
8
BLACK
6
CONTINUOUS
10
5.79541
20
-3.92041
11
5.79575
21
-3.92061
0
LINE
8
BLACK
6
CONTINUOUS
10
5.79575
20
-3.92061
11
5.79615
21
-3.92065
0
LINE
8
BLACK
6
CONTINUOUS
10
5.79615
20
-3.92065
11
5.7966
21
-3.9211
0
LINE
8
BLACK
6
CONTINUOUS
10
5.7966
20
-3.9211
11
5.79716
21
-3.92142
0
LINE
8
BLACK
6
CONTINUOUS
10
5.79716
20
-3.92142
11
5.7973
21
-3.92179
0
LINE
8
BLACK
6
CONTINUOUS
10
5.7973
20
-3.92179
11
5.79758
21
-3.92207
0
LINE
8
BLACK
6
CONTINUOUS
10
5.79758
20
-3.92207
11
5.80802
21
-3.94446
0
LINE
8
BLACK
6
CONTINUOUS
10
5.80802
20
-3.94446
11
5.81847
21
-3.92207
0
LINE
8
BLACK
6
CONTINUOUS
10
5.81847
20
-3.92207
11
5.81906
21
-3.92123
0
LINE
8
BLACK
6
CONTINUOUS
10
5.81906
20
-3.92123
11
5.81942
21
-3.92107
0
LINE
8
BLACK
6
CONTINUOUS
10
5.81942
20
-3.92107
11
5.81967
21
-3.92076
0
LINE
8
BLACK
6
CONTINUOUS
10
5.81967
20
-3.92076
11
5.82031
21
-3.92065
0
LINE
8
BLACK
6
CONTINUOUS
10
5.82031
20
-3.92065
11
5.82089
21
-3.92038
0
LINE
8
BLACK
6
CONTINUOUS
10
5.82089
20
-3.92038
11
5.82127
21
-3.92048
0
LINE
8
BLACK
6
CONTINUOUS
10
5.27009
20
-3.92048
11
5.27048
21
-3.92041
0
LINE
8
BLACK
6
CONTINUOUS
10
5.27048
20
-3.92041
11
5.27104
21
-3.92074
0
LINE
8
BLACK
6
CONTINUOUS
10
5.27104
20
-3.92074
11
5.27166
21
-3.9209
0
LINE
8
BLACK
6
CONTINUOUS
10
5.27166
20
-3.9209
11
5.27189
21
-3.92123
0
LINE
8
BLACK
6
CONTINUOUS
10
5.27189
20
-3.92123
11
5.27223
21
-3.92142
0
LINE
8
BLACK
6
CONTINUOUS
10
5.27223
20
-3.92142
11
5.27245
21
-3.92203
0
LINE
8
BLACK
6
CONTINUOUS
10
5.27245
20
-3.92203
11
5.27282
21
-3.92256
0
LINE
8
BLACK
6
CONTINUOUS
10
5.27282
20
-3.92256
11
5.27278
21
-3.92295
0
LINE
8
BLACK
6
CONTINUOUS
10
5.27278
20
-3.92295
11
5.27292
21
-3.92332
0
LINE
8
BLACK
6
CONTINUOUS
10
5.27292
20
-3.92332
11
5.27292
21
-3.96269
0
LINE
8
BLACK
6
CONTINUOUS
10
5.27292
20
-3.96269
11
5.27274
21
-3.9637
0
LINE
8
BLACK
6
CONTINUOUS
10
5.27274
20
-3.9637
11
5.27144
21
-3.96525
0
LINE
8
BLACK
6
CONTINUOUS
10
5.27144
20
-3.96525
11
5.26945
21
-3.9656
0
LINE
8
BLACK
6
CONTINUOUS
10
5.26945
20
-3.9656
11
5.2677
21
-3.96459
0
LINE
8
BLACK
6
CONTINUOUS
10
5.2677
20
-3.96459
11
5.26701
21
-3.96269
0
LINE
8
BLACK
6
CONTINUOUS
10
5.26701
20
-3.96269
11
5.26701
21
-3.93663
0
LINE
8
BLACK
6
CONTINUOUS
10
5.26701
20
-3.93663
11
5.25952
21
-3.95269
0
LINE
8
BLACK
6
CONTINUOUS
10
5.25952
20
-3.95269
11
5.2593
21
-3.95301
0
LINE
8
BLACK
6
CONTINUOUS
10
5.2593
20
-3.95301
11
5.25926
21
-3.95314
0
LINE
8
BLACK
6
CONTINUOUS
10
5.25926
20
-3.95314
11
5.25915
21
-3.95321
0
LINE
8
BLACK
6
CONTINUOUS
10
5.25915
20
-3.95321
11
5.25893
21
-3.95353
0
LINE
8
BLACK
6
CONTINUOUS
10
5.25893
20
-3.95353
11
5.25824
21
-3.95386
0
LINE
8
BLACK
6
CONTINUOUS
10
5.25824
20
-3.95386
11
5.25761
21
-3.9543
0
LINE
8
BLACK
6
CONTINUOUS
10
5.25761
20
-3.9543
11
5.25734
21
-3.95427
0
LINE
8
BLACK
6
CONTINUOUS
10
5.25734
20
-3.95427
11
5.2571
21
-3.95439
0
LINE
8
BLACK
6
CONTINUOUS
10
5.2571
20
-3.95439
11
5.25636
21
-3.95419
0
LINE
8
BLACK
6
CONTINUOUS
10
5.25636
20
-3.95419
11
5.2556
21
-3.95412
0
LINE
8
BLACK
6
CONTINUOUS
10
5.2556
20
-3.95412
11
5.25541
21
-3.95393
0
LINE
8
BLACK
6
CONTINUOUS
10
5.25541
20
-3.95393
11
5.25515
21
-3.95386
0
LINE
8
BLACK
6
CONTINUOUS
10
5.25515
20
-3.95386
11
5.25471
21
-3.95323
0
LINE
8
BLACK
6
CONTINUOUS
10
5.25471
20
-3.95323
11
5.25417
21
-3.95269
0
LINE
8
BLACK
6
CONTINUOUS
10
5.25417
20
-3.95269
11
5.24667
21
-3.93663
0
LINE
8
BLACK
6
CONTINUOUS
10
5.24667
20
-3.93663
11
5.24667
21
-3.96269
0
LINE
8
BLACK
6
CONTINUOUS
10
5.24667
20
-3.96269
11
5.24649
21
-3.9637
0
LINE
8
BLACK
6
CONTINUOUS
10
5.24649
20
-3.9637
11
5.2452
21
-3.96525
0
LINE
8
BLACK
6
CONTINUOUS
10
5.2452
20
-3.96525
11
5.24321
21
-3.9656
0
LINE
8
BLACK
6
CONTINUOUS
10
5.24321
20
-3.9656
11
5.24146
21
-3.96459
0
LINE
8
BLACK
6
CONTINUOUS
10
5.24146
20
-3.96459
11
5.24077
21
-3.96269
0
LINE
8
BLACK
6
CONTINUOUS
10
5.24077
20
-3.96269
11
5.24077
21
-3.92332
0
LINE
8
BLACK
6
CONTINUOUS
10
5.24077
20
-3.92332
11
5.24094
21
-3.92231
0
LINE
8
BLACK
6
CONTINUOUS
10
5.24094
20
-3.92231
11
5.2412
21
-3.92201
0
LINE
8
BLACK
6
CONTINUOUS
10
5.2412
20
-3.92201
11
5.2413
21
-3.92163
0
LINE
8
BLACK
6
CONTINUOUS
10
5.2413
20
-3.92163
11
5.24183
21
-3.92126
0
LINE
8
BLACK
6
CONTINUOUS
10
5.24183
20
-3.92126
11
5.24224
21
-3.92076
0
LINE
8
BLACK
6
CONTINUOUS
10
5.24224
20
-3.92076
11
5.24263
21
-3.9207
0
LINE
8
BLACK
6
CONTINUOUS
10
5.24263
20
-3.9207
11
5.24295
21
-3.92047
0
LINE
8
BLACK
6
CONTINUOUS
10
5.24295
20
-3.92047
11
5.2436
21
-3.92053
0
LINE
8
BLACK
6
CONTINUOUS
10
5.2436
20
-3.92053
11
5.24423
21
-3.92041
0
LINE
8
BLACK
6
CONTINUOUS
10
5.24423
20
-3.92041
11
5.24457
21
-3.92061
0
LINE
8
BLACK
6
CONTINUOUS
10
5.24457
20
-3.92061
11
5.24497
21
-3.92065
0
LINE
8
BLACK
6
CONTINUOUS
10
5.24497
20
-3.92065
11
5.24542
21
-3.9211
0
LINE
8
BLACK
6
CONTINUOUS
10
5.24542
20
-3.9211
11
5.24598
21
-3.92142
0
LINE
8
BLACK
6
CONTINUOUS
10
5.24598
20
-3.92142
11
5.24612
21
-3.92179
0
LINE
8
BLACK
6
CONTINUOUS
10
5.24612
20
-3.92179
11
5.2464
21
-3.92207
0
LINE
8
BLACK
6
CONTINUOUS
10
5.2464
20
-3.92207
11
5.25684
21
-3.94446
0
LINE
8
BLACK
6
CONTINUOUS
10
5.25684
20
-3.94446
11
5.26729
21
-3.92207
0
LINE
8
BLACK
6
CONTINUOUS
10
5.26729
20
-3.92207
11
5.26788
21
-3.92123
0
LINE
8
BLACK
6
CONTINUOUS
10
5.26788
20
-3.92123
11
5.26824
21
-3.92107
0
LINE
8
BLACK
6
CONTINUOUS
10
5.26824
20
-3.92107
11
5.26849
21
-3.92076
0
LINE
8
BLACK
6
CONTINUOUS
10
5.26849
20
-3.92076
11
5.26913
21
-3.92065
0
LINE
8
BLACK
6
CONTINUOUS
10
5.26913
20
-3.92065
11
5.26971
21
-3.92038
0
LINE
8
BLACK
6
CONTINUOUS
10
5.26971
20
-3.92038
11
5.27009
21
-3.92048
0
LINE
8
BLACK
6
CONTINUOUS
10
5.85215
20
-3.79456
11
5.85229
21
-3.79468
0
LINE
8
BLACK
6
CONTINUOUS
10
5.85229
20
-3.79468
11
5.85246
21
-3.7947
0
LINE
8
BLACK
6
CONTINUOUS
10
5.85246
20
-3.7947
11
5.85621
21
-3.79657
0
LINE
8
BLACK
6
CONTINUOUS
10
5.85621
20
-3.79657
11
5.85692
21
-3.7971
0
LINE
8
BLACK
6
CONTINUOUS
10
5.85692
20
-3.7971
11
5.85698
21
-3.79712
0
LINE
8
BLACK
6
CONTINUOUS
10
5.85698
20
-3.79712
11
5.85886
21
-3.799
0
LINE
8
BLACK
6
CONTINUOUS
10
5.85886
20
-3.799
11
5.85936
21
-3.79972
0
LINE
8
BLACK
6
CONTINUOUS
10
5.85936
20
-3.79972
11
5.85941
21
-3.79977
0
LINE
8
BLACK
6
CONTINUOUS
10
5.85941
20
-3.79977
11
5.86128
21
-3.80352
0
LINE
8
BLACK
6
CONTINUOUS
10
5.86128
20
-3.80352
11
5.86158
21
-3.8045
0
LINE
8
BLACK
6
CONTINUOUS
10
5.86158
20
-3.8045
11
5.86153
21
-3.80467
0
LINE
8
BLACK
6
CONTINUOUS
10
5.86153
20
-3.80467
11
5.8616
21
-3.80484
0
LINE
8
BLACK
6
CONTINUOUS
10
5.8616
20
-3.80484
11
5.8616
21
-3.80859
0
LINE
8
BLACK
6
CONTINUOUS
10
5.8616
20
-3.80859
11
5.86144
21
-3.80946
0
LINE
8
BLACK
6
CONTINUOUS
10
5.86144
20
-3.80946
11
5.86144
21
-3.80952
0
LINE
8
BLACK
6
CONTINUOUS
10
5.86144
20
-3.80952
11
5.85957
21
-3.81514
0
LINE
8
BLACK
6
CONTINUOUS
10
5.85957
20
-3.81514
11
5.85908
21
-3.81605
0
LINE
8
BLACK
6
CONTINUOUS
10
5.85908
20
-3.81605
11
5.85893
21
-3.81614
0
LINE
8
BLACK
6
CONTINUOUS
10
5.85893
20
-3.81614
11
5.85886
21
-3.8163
0
LINE
8
BLACK
6
CONTINUOUS
10
5.85886
20
-3.8163
11
5.8414
21
-3.83376
0
LINE
8
BLACK
6
CONTINUOUS
10
5.8414
20
-3.83376
11
5.85864
21
-3.83376
0
LINE
8
BLACK
6
CONTINUOUS
10
5.85864
20
-3.83376
11
5.85965
21
-3.83393
0
LINE
8
BLACK
6
CONTINUOUS
10
5.85965
20
-3.83393
11
5.8612
21
-3.83523
0
LINE
8
BLACK
6
CONTINUOUS
10
5.8612
20
-3.83523
11
5.86155
21
-3.83722
0
LINE
8
BLACK
6
CONTINUOUS
10
5.86155
20
-3.83722
11
5.86054
21
-3.83897
0
LINE
8
BLACK
6
CONTINUOUS
10
5.86054
20
-3.83897
11
5.85864
21
-3.83966
0
LINE
8
BLACK
6
CONTINUOUS
10
5.85864
20
-3.83966
11
5.83427
21
-3.83966
0
LINE
8
BLACK
6
CONTINUOUS
10
5.83427
20
-3.83966
11
5.83364
21
-3.83955
0
LINE
8
BLACK
6
CONTINUOUS
10
5.83364
20
-3.83955
11
5.83351
21
-3.83956
0
LINE
8
BLACK
6
CONTINUOUS
10
5.83351
20
-3.83956
11
5.83344
21
-3.83951
0
LINE
8
BLACK
6
CONTINUOUS
10
5.83344
20
-3.83951
11
5.83326
21
-3.83948
0
LINE
8
BLACK
6
CONTINUOUS
10
5.83326
20
-3.83948
11
5.83258
21
-3.83891
0
LINE
8
BLACK
6
CONTINUOUS
10
5.83258
20
-3.83891
11
5.83185
21
-3.8384
0
LINE
8
BLACK
6
CONTINUOUS
10
5.83185
20
-3.8384
11
5.83182
21
-3.83827
0
LINE
8
BLACK
6
CONTINUOUS
10
5.83182
20
-3.83827
11
5.83171
21
-3.83818
0
LINE
8
BLACK
6
CONTINUOUS
10
5.83171
20
-3.83818
11
5.83156
21
-3.83731
0
LINE
8
BLACK
6
CONTINUOUS
10
5.83156
20
-3.83731
11
5.83133
21
-3.83645
0
LINE
8
BLACK
6
CONTINUOUS
10
5.83133
20
-3.83645
11
5.83139
21
-3.83633
0
LINE
8
BLACK
6
CONTINUOUS
10
5.83139
20
-3.83633
11
5.83136
21
-3.8362
0
LINE
8
BLACK
6
CONTINUOUS
10
5.83136
20
-3.8362
11
5.83181
21
-3.83543
0
LINE
8
BLACK
6
CONTINUOUS
10
5.83181
20
-3.83543
11
5.83218
21
-3.83462
0
LINE
8
BLACK
6
CONTINUOUS
10
5.83218
20
-3.83462
11
5.85419
21
-3.81262
0
LINE
8
BLACK
6
CONTINUOUS
10
5.85419
20
-3.81262
11
5.85569
21
-3.80811
0
LINE
8
BLACK
6
CONTINUOUS
10
5.85569
20
-3.80811
11
5.85569
21
-3.80553
0
LINE
8
BLACK
6
CONTINUOUS
10
5.85569
20
-3.80553
11
5.85434
21
-3.80284
0
LINE
8
BLACK
6
CONTINUOUS
10
5.85434
20
-3.80284
11
5.85314
21
-3.80164
0
LINE
8
BLACK
6
CONTINUOUS
10
5.85314
20
-3.80164
11
5.85045
21
-3.80029
0
LINE
8
BLACK
6
CONTINUOUS
10
5.85045
20
-3.80029
11
5.84247
21
-3.80029
0
LINE
8
BLACK
6
CONTINUOUS
10
5.84247
20
-3.80029
11
5.83977
21
-3.80164
0
LINE
8
BLACK
6
CONTINUOUS
10
5.83977
20
-3.80164
11
5.83823
21
-3.80318
0
LINE
8
BLACK
6
CONTINUOUS
10
5.83823
20
-3.80318
11
5.83739
21
-3.80376
0
LINE
8
BLACK
6
CONTINUOUS
10
5.83739
20
-3.80376
11
5.83538
21
-3.80394
0
LINE
8
BLACK
6
CONTINUOUS
10
5.83538
20
-3.80394
11
5.83373
21
-3.80278
0
LINE
8
BLACK
6
CONTINUOUS
10
5.83373
20
-3.80278
11
5.8332
21
-3.80083
0
LINE
8
BLACK
6
CONTINUOUS
10
5.8332
20
-3.80083
11
5.83406
21
-3.799
0
LINE
8
BLACK
6
CONTINUOUS
10
5.83406
20
-3.799
11
5.83593
21
-3.79712
0
LINE
8
BLACK
6
CONTINUOUS
10
5.83593
20
-3.79712
11
5.83666
21
-3.79662
0
LINE
8
BLACK
6
CONTINUOUS
10
5.83666
20
-3.79662
11
5.8367
21
-3.79657
0
LINE
8
BLACK
6
CONTINUOUS
10
5.8367
20
-3.79657
11
5.84045
21
-3.7947
0
LINE
8
BLACK
6
CONTINUOUS
10
5.84045
20
-3.7947
11
5.84143
21
-3.7944
0
LINE
8
BLACK
6
CONTINUOUS
10
5.84143
20
-3.7944
11
5.8416
21
-3.79445
0
LINE
8
BLACK
6
CONTINUOUS
10
5.8416
20
-3.79445
11
5.84177
21
-3.79439
0
LINE
8
BLACK
6
CONTINUOUS
10
5.84177
20
-3.79439
11
5.85114
21
-3.79439
0
LINE
8
BLACK
6
CONTINUOUS
10
5.85114
20
-3.79439
11
5.85215
21
-3.79456
0
LINE
8
BLACK
6
CONTINUOUS
10
5.82153
20
-3.79544
11
5.82223
21
-3.79734
0
LINE
8
BLACK
6
CONTINUOUS
10
5.82223
20
-3.79734
11
5.82223
21
-3.83671
0
LINE
8
BLACK
6
CONTINUOUS
10
5.82223
20
-3.83671
11
5.82205
21
-3.83772
0
LINE
8
BLACK
6
CONTINUOUS
10
5.82205
20
-3.83772
11
5.82075
21
-3.83927
0
LINE
8
BLACK
6
CONTINUOUS
10
5.82075
20
-3.83927
11
5.81876
21
-3.83962
0
LINE
8
BLACK
6
CONTINUOUS
10
5.81876
20
-3.83962
11
5.81701
21
-3.83861
0
LINE
8
BLACK
6
CONTINUOUS
10
5.81701
20
-3.83861
11
5.81632
21
-3.83671
0
LINE
8
BLACK
6
CONTINUOUS
10
5.81632
20
-3.83671
11
5.81632
21
-3.81904
0
LINE
8
BLACK
6
CONTINUOUS
10
5.81632
20
-3.81904
11
5.79973
21
-3.81904
0
LINE
8
BLACK
6
CONTINUOUS
10
5.79973
20
-3.81904
11
5.79973
21
-3.83671
0
LINE
8
BLACK
6
CONTINUOUS
10
5.79973
20
-3.83671
11
5.79955
21
-3.83772
0
LINE
8
BLACK
6
CONTINUOUS
10
5.79955
20
-3.83772
11
5.79825
21
-3.83927
0
LINE
8
BLACK
6
CONTINUOUS
10
5.79825
20
-3.83927
11
5.79626
21
-3.83962
0
LINE
8
BLACK
6
CONTINUOUS
10
5.79626
20
-3.83962
11
5.79451
21
-3.83861
0
LINE
8
BLACK
6
CONTINUOUS
10
5.79451
20
-3.83861
11
5.79382
21
-3.83671
0
LINE
8
BLACK
6
CONTINUOUS
10
5.79382
20
-3.83671
11
5.79382
21
-3.79734
0
LINE
8
BLACK
6
CONTINUOUS
10
5.79382
20
-3.79734
11
5.794
21
-3.79633
0
LINE
8
BLACK
6
CONTINUOUS
10
5.794
20
-3.79633
11
5.7953
21
-3.79478
0
LINE
8
BLACK
6
CONTINUOUS
10
5.7953
20
-3.79478
11
5.79729
21
-3.79443
0
LINE
8
BLACK
6
CONTINUOUS
10
5.79729
20
-3.79443
11
5.79904
21
-3.79544
0
LINE
8
BLACK
6
CONTINUOUS
10
5.79904
20
-3.79544
11
5.79973
21
-3.79734
0
LINE
8
BLACK
6
CONTINUOUS
10
5.79973
20
-3.79734
11
5.79973
21
-3.81313
0
LINE
8
BLACK
6
CONTINUOUS
10
5.79973
20
-3.81313
11
5.81632
21
-3.81313
0
LINE
8
BLACK
6
CONTINUOUS
10
5.81632
20
-3.81313
11
5.81632
21
-3.79734
0
LINE
8
BLACK
6
CONTINUOUS
10
5.81632
20
-3.79734
11
5.8165
21
-3.79633
0
LINE
8
BLACK
6
CONTINUOUS
10
5.8165
20
-3.79633
11
5.8178
21
-3.79478
0
LINE
8
BLACK
6
CONTINUOUS
10
5.8178
20
-3.79478
11
5.81979
21
-3.79443
0
LINE
8
BLACK
6
CONTINUOUS
10
5.81979
20
-3.79443
11
5.82153
21
-3.79544
0
LINE
8
BLACK
6
CONTINUOUS
10
5.27035
20
-3.79544
11
5.27104
21
-3.79734
0
LINE
8
BLACK
6
CONTINUOUS
10
5.27104
20
-3.79734
11
5.27104
21
-3.83671
0
LINE
8
BLACK
6
CONTINUOUS
10
5.27104
20
-3.83671
11
5.27087
21
-3.83772
0
LINE
8
BLACK
6
CONTINUOUS
10
5.27087
20
-3.83772
11
5.26957
21
-3.83927
0
LINE
8
BLACK
6
CONTINUOUS
10
5.26957
20
-3.83927
11
5.26758
21
-3.83962
0
LINE
8
BLACK
6
CONTINUOUS
10
5.26758
20
-3.83962
11
5.26583
21
-3.83861
0
LINE
8
BLACK
6
CONTINUOUS
10
5.26583
20
-3.83861
11
5.26514
21
-3.83671
0
LINE
8
BLACK
6
CONTINUOUS
10
5.26514
20
-3.83671
11
5.26514
21
-3.81904
0
LINE
8
BLACK
6
CONTINUOUS
10
5.26514
20
-3.81904
11
5.24855
21
-3.81904
0
LINE
8
BLACK
6
CONTINUOUS
10
5.24855
20
-3.81904
11
5.24855
21
-3.83671
0
LINE
8
BLACK
6
CONTINUOUS
10
5.24855
20
-3.83671
11
5.24837
21
-3.83772
0
LINE
8
BLACK
6
CONTINUOUS
10
5.24837
20
-3.83772
11
5.24707
21
-3.83927
0
LINE
8
BLACK
6
CONTINUOUS
10
5.24707
20
-3.83927
11
5.24508
21
-3.83962
0
LINE
8
BLACK
6
CONTINUOUS
10
5.24508
20
-3.83962
11
5.24333
21
-3.83861
0
LINE
8
BLACK
6
CONTINUOUS
10
5.24333
20
-3.83861
11
5.24264
21
-3.83671
0
LINE
8
BLACK
6
CONTINUOUS
10
5.24264
20
-3.83671
11
5.24264
21
-3.79734
0
LINE
8
BLACK
6
CONTINUOUS
10
5.24264
20
-3.79734
11
5.24282
21
-3.79633
0
LINE
8
BLACK
6
CONTINUOUS
10
5.24282
20
-3.79633
11
5.24412
21
-3.79478
0
LINE
8
BLACK
6
CONTINUOUS
10
5.24412
20
-3.79478
11
5.24611
21
-3.79443
0
LINE
8
BLACK
6
CONTINUOUS
10
5.24611
20
-3.79443
11
5.24786
21
-3.79544
0
LINE
8
BLACK
6
CONTINUOUS
10
5.24786
20
-3.79544
11
5.24855
21
-3.79734
0
LINE
8
BLACK
6
CONTINUOUS
10
5.24855
20
-3.79734
11
5.24855
21
-3.81313
0
LINE
8
BLACK
6
CONTINUOUS
10
5.24855
20
-3.81313
11
5.26514
21
-3.81313
0
LINE
8
BLACK
6
CONTINUOUS
10
5.26514
20
-3.81313
11
5.26514
21
-3.79734
0
LINE
8
BLACK
6
CONTINUOUS
10
5.26514
20
-3.79734
11
5.26532
21
-3.79633
0
LINE
8
BLACK
6
CONTINUOUS
10
5.26532
20
-3.79633
11
5.26662
21
-3.79478
0
LINE
8
BLACK
6
CONTINUOUS
10
5.26662
20
-3.79478
11
5.2686
21
-3.79443
0
LINE
8
BLACK
6
CONTINUOUS
10
5.2686
20
-3.79443
11
5.27035
21
-3.79544
0
LINE
8
BLACK
6
CONTINUOUS
10
5.29574
20
-3.79287
11
5.29708
21
-3.79438
0
LINE
8
BLACK
6
CONTINUOUS
10
5.29708
20
-3.79438
11
5.29714
21
-3.7964
0
LINE
8
BLACK
6
CONTINUOUS
10
5.29714
20
-3.7964
11
5.28906
21
-3.82063
0
LINE
8
BLACK
6
CONTINUOUS
10
5.28906
20
-3.82063
11
5.30076
21
-3.82063
0
LINE
8
BLACK
6
CONTINUOUS
10
5.30076
20
-3.82063
11
5.30076
21
-3.81046
0
LINE
8
BLACK
6
CONTINUOUS
10
5.30076
20
-3.81046
11
5.30094
21
-3.80945
0
LINE
8
BLACK
6
CONTINUOUS
10
5.30094
20
-3.80945
11
5.30224
21
-3.8079
0
LINE
8
BLACK
6
CONTINUOUS
10
5.30224
20
-3.8079
11
5.30422
21
-3.80755
0
LINE
8
BLACK
6
CONTINUOUS
10
5.30422
20
-3.80755
11
5.30597
21
-3.80856
0
LINE
8
BLACK
6
CONTINUOUS
10
5.30597
20
-3.80856
11
5.30666
21
-3.81046
0
LINE
8
BLACK
6
CONTINUOUS
10
5.30666
20
-3.81046
11
5.30666
21
-3.82063
0
LINE
8
BLACK
6
CONTINUOUS
10
5.30666
20
-3.82063
11
5.30934
21
-3.82063
0
LINE
8
BLACK
6
CONTINUOUS
10
5.30934
20
-3.82063
11
5.31035
21
-3.82081
0
LINE
8
BLACK
6
CONTINUOUS
10
5.31035
20
-3.82081
11
5.31189
21
-3.82211
0
LINE
8
BLACK
6
CONTINUOUS
10
5.31189
20
-3.82211
11
5.31224
21
-3.8241
0
LINE
8
BLACK
6
CONTINUOUS
10
5.31224
20
-3.8241
11
5.31123
21
-3.82585
0
LINE
8
BLACK
6
CONTINUOUS
10
5.31123
20
-3.82585
11
5.30934
21
-3.82654
0
LINE
8
BLACK
6
CONTINUOUS
10
5.30934
20
-3.82654
11
5.30666
21
-3.82654
0
LINE
8
BLACK
6
CONTINUOUS
10
5.30666
20
-3.82654
11
5.30666
21
-3.83671
0
LINE
8
BLACK
6
CONTINUOUS
10
5.30666
20
-3.83671
11
5.30649
21
-3.83772
0
LINE
8
BLACK
6
CONTINUOUS
10
5.30649
20
-3.83772
11
5.30519
21
-3.83927
0
LINE
8
BLACK
6
CONTINUOUS
10
5.30519
20
-3.83927
11
5.3032
21
-3.83962
0
LINE
8
BLACK
6
CONTINUOUS
10
5.3032
20
-3.83962
11
5.30145
21
-3.83861
0
LINE
8
BLACK
6
CONTINUOUS
10
5.30145
20
-3.83861
11
5.30076
21
-3.83671
0
LINE
8
BLACK
6
CONTINUOUS
10
5.30076
20
-3.83671
11
5.30076
21
-3.82654
0
LINE
8
BLACK
6
CONTINUOUS
10
5.30076
20
-3.82654
11
5.28496
21
-3.82654
0
LINE
8
BLACK
6
CONTINUOUS
10
5.28496
20
-3.82654
11
5.28395
21
-3.82636
0
LINE
8
BLACK
6
CONTINUOUS
10
5.28395
20
-3.82636
11
5.28378
21
-3.82621
0
LINE
8
BLACK
6
CONTINUOUS
10
5.28378
20
-3.82621
11
5.28356
21
-3.82618
0
LINE
8
BLACK
6
CONTINUOUS
10
5.28356
20
-3.82618
11
5.28302
21
-3.82558
0
LINE
8
BLACK
6
CONTINUOUS
10
5.28302
20
-3.82558
11
5.28241
21
-3.82506
0
LINE
8
BLACK
6
CONTINUOUS
10
5.28241
20
-3.82506
11
5.28237
21
-3.82484
0
LINE
8
BLACK
6
CONTINUOUS
10
5.28237
20
-3.82484
11
5.28222
21
-3.82467
0
LINE
8
BLACK
6
CONTINUOUS
10
5.28222
20
-3.82467
11
5.2822
21
-3.82386
0
LINE
8
BLACK
6
CONTINUOUS
10
5.2822
20
-3.82386
11
5.28206
21
-3.82307
0
LINE
8
BLACK
6
CONTINUOUS
10
5.28206
20
-3.82307
11
5.28217
21
-3.82288
0
LINE
8
BLACK
6
CONTINUOUS
10
5.28217
20
-3.82288
11
5.28216
21
-3.82265
0
LINE
8
BLACK
6
CONTINUOUS
10
5.28216
20
-3.82265
11
5.29154
21
-3.79453
0
LINE
8
BLACK
6
CONTINUOUS
10
5.29154
20
-3.79453
11
5.29203
21
-3.79363
0
LINE
8
BLACK
6
CONTINUOUS
10
5.29203
20
-3.79363
11
5.29375
21
-3.79257
0
LINE
8
BLACK
6
CONTINUOUS
10
5.29375
20
-3.79257
11
5.29574
21
-3.79287
0
LINE
8
BLACK
6
CONTINUOUS
10
5.47835
20
-3.40551
11
5.47835
21
-3.6811
0
LINE
8
BLACK
6
CONTINUOUS
10
5.47835
20
-3.6811
11
5.47777
21
-3.68249
0
LINE
8
BLACK
6
CONTINUOUS
10
5.47777
20
-3.68249
11
5.47638
21
-3.68307
0
LINE
8
BLACK
6
CONTINUOUS
10
5.47638
20
-3.68307
11
5.17717
21
-3.68307
0
LINE
8
BLACK
6
CONTINUOUS
10
5.17717
20
-3.68307
11
5.17577
21
-3.68249
0
LINE
8
BLACK
6
CONTINUOUS
10
5.17577
20
-3.68249
11
5.1752
21
-3.6811
0
LINE
8
BLACK
6
CONTINUOUS
10
5.1752
20
-3.6811
11
5.1752
21
-3.42126
0
LINE
8
BLACK
6
CONTINUOUS
10
5.1752
20
-3.42126
11
5.17577
21
-3.41987
0
LINE
8
BLACK
6
CONTINUOUS
10
5.17577
20
-3.41987
11
5.19152
21
-3.40412
0
LINE
8
BLACK
6
CONTINUOUS
10
5.19152
20
-3.40412
11
5.19193
21
-3.40395
0
LINE
8
BLACK
6
CONTINUOUS
10
5.19193
20
-3.40395
11
5.19291
21
-3.40354
0
LINE
8
BLACK
6
CONTINUOUS
10
5.19291
20
-3.40354
11
5.24077
21
-3.40354
0
LINE
8
BLACK
6
CONTINUOUS
10
5.24077
20
-3.40354
11
5.24077
21
-3.37214
0
LINE
8
BLACK
6
CONTINUOUS
10
5.24077
20
-3.37214
11
5.24094
21
-3.37113
0
LINE
8
BLACK
6
CONTINUOUS
10
5.24094
20
-3.37113
11
5.2412
21
-3.37083
0
LINE
8
BLACK
6
CONTINUOUS
10
5.2412
20
-3.37083
11
5.2413
21
-3.37045
0
LINE
8
BLACK
6
CONTINUOUS
10
5.2413
20
-3.37045
11
5.24183
21
-3.37008
0
LINE
8
BLACK
6
CONTINUOUS
10
5.24183
20
-3.37008
11
5.24224
21
-3.36958
0
LINE
8
BLACK
6
CONTINUOUS
10
5.24224
20
-3.36958
11
5.24263
21
-3.36952
0
LINE
8
BLACK
6
CONTINUOUS
10
5.24263
20
-3.36952
11
5.24295
21
-3.36929
0
LINE
8
BLACK
6
CONTINUOUS
10
5.24295
20
-3.36929
11
5.2436
21
-3.36935
0
LINE
8
BLACK
6
CONTINUOUS
10
5.2436
20
-3.36935
11
5.24423
21
-3.36923
0
LINE
8
BLACK
6
CONTINUOUS
10
5.24423
20
-3.36923
11
5.24457
21
-3.36943
0
LINE
8
BLACK
6
CONTINUOUS
10
5.24457
20
-3.36943
11
5.24497
21
-3.36946
0
LINE
8
BLACK
6
CONTINUOUS
10
5.24497
20
-3.36946
11
5.24542
21
-3.36992
0
LINE
8
BLACK
6
CONTINUOUS
10
5.24542
20
-3.36992
11
5.24598
21
-3.37024
0
LINE
8
BLACK
6
CONTINUOUS
10
5.24598
20
-3.37024
11
5.24612
21
-3.37061
0
LINE
8
BLACK
6
CONTINUOUS
10
5.24612
20
-3.37061
11
5.2464
21
-3.37089
0
LINE
8
BLACK
6
CONTINUOUS
10
5.2464
20
-3.37089
11
5.25684
21
-3.39328
0
LINE
8
BLACK
6
CONTINUOUS
10
5.25684
20
-3.39328
11
5.26729
21
-3.37089
0
LINE
8
BLACK
6
CONTINUOUS
10
5.26729
20
-3.37089
11
5.26788
21
-3.37005
0
LINE
8
BLACK
6
CONTINUOUS
10
5.26788
20
-3.37005
11
5.26824
21
-3.36989
0
LINE
8
BLACK
6
CONTINUOUS
10
5.26824
20
-3.36989
11
5.26849
21
-3.36958
0
LINE
8
BLACK
6
CONTINUOUS
10
5.26849
20
-3.36958
11
5.26913
21
-3.36947
0
LINE
8
BLACK
6
CONTINUOUS
10
5.26913
20
-3.36947
11
5.26971
21
-3.3692
0
LINE
8
BLACK
6
CONTINUOUS
10
5.26971
20
-3.3692
11
5.27009
21
-3.3693
0
LINE
8
BLACK
6
CONTINUOUS
10
5.27009
20
-3.3693
11
5.27048
21
-3.36923
0
LINE
8
BLACK
6
CONTINUOUS
10
5.27048
20
-3.36923
11
5.27104
21
-3.36956
0
LINE
8
BLACK
6
CONTINUOUS
10
5.27104
20
-3.36956
11
5.27166
21
-3.36972
0
LINE
8
BLACK
6
CONTINUOUS
10
5.27166
20
-3.36972
11
5.27189
21
-3.37005
0
LINE
8
BLACK
6
CONTINUOUS
10
5.27189
20
-3.37005
11
5.27223
21
-3.37024
0
LINE
8
BLACK
6
CONTINUOUS
10
5.27223
20
-3.37024
11
5.27245
21
-3.37085
0
LINE
8
BLACK
6
CONTINUOUS
10
5.27245
20
-3.37085
11
5.27282
21
-3.37138
0
LINE
8
BLACK
6
CONTINUOUS
10
5.27282
20
-3.37138
11
5.27278
21
-3.37177
0
LINE
8
BLACK
6
CONTINUOUS
10
5.27278
20
-3.37177
11
5.27292
21
-3.37214
0
LINE
8
BLACK
6
CONTINUOUS
10
5.27292
20
-3.37214
11
5.27292
21
-3.40354
0
LINE
8
BLACK
6
CONTINUOUS
10
5.27292
20
-3.40354
11
5.28876
21
-3.40354
0
LINE
8
BLACK
6
CONTINUOUS
10
5.28876
20
-3.40354
11
5.30488
21
-3.38742
0
LINE
8
BLACK
6
CONTINUOUS
10
5.30488
20
-3.38742
11
5.30638
21
-3.38291
0
LINE
8
BLACK
6
CONTINUOUS
10
5.30638
20
-3.38291
11
5.30638
21
-3.38034
0
LINE
8
BLACK
6
CONTINUOUS
10
5.30638
20
-3.38034
11
5.30503
21
-3.37764
0
LINE
8
BLACK
6
CONTINUOUS
10
5.30503
20
-3.37764
11
5.30384
21
-3.37644
0
LINE
8
BLACK
6
CONTINUOUS
10
5.30384
20
-3.37644
11
5.30114
21
-3.37509
0
LINE
8
BLACK
6
CONTINUOUS
10
5.30114
20
-3.37509
11
5.29316
21
-3.37509
0
LINE
8
BLACK
6
CONTINUOUS
10
5.29316
20
-3.37509
11
5.29046
21
-3.37644
0
LINE
8
BLACK
6
CONTINUOUS
10
5.29046
20
-3.37644
11
5.28893
21
-3.37798
0
LINE
8
BLACK
6
CONTINUOUS
10
5.28893
20
-3.37798
11
5.28809
21
-3.37857
0
LINE
8
BLACK
6
CONTINUOUS
10
5.28809
20
-3.37857
11
5.28607
21
-3.37874
0
LINE
8
BLACK
6
CONTINUOUS
10
5.28607
20
-3.37874
11
5.28442
21
-3.37758
0
LINE
8
BLACK
6
CONTINUOUS
10
5.28442
20
-3.37758
11
5.2839
21
-3.37563
0
LINE
8
BLACK
6
CONTINUOUS
10
5.2839
20
-3.37563
11
5.28475
21
-3.3738
0
LINE
8
BLACK
6
CONTINUOUS
10
5.28475
20
-3.3738
11
5.28663
21
-3.37193
0
LINE
8
BLACK
6
CONTINUOUS
10
5.28663
20
-3.37193
11
5.28735
21
-3.37142
0
LINE
8
BLACK
6
CONTINUOUS
10
5.28735
20
-3.37142
11
5.28739
21
-3.37137
0
LINE
8
BLACK
6
CONTINUOUS
10
5.28739
20
-3.37137
11
5.29114
21
-3.3695
0
LINE
8
BLACK
6
CONTINUOUS
10
5.29114
20
-3.3695
11
5.29213
21
-3.36921
0
LINE
8
BLACK
6
CONTINUOUS
10
5.29213
20
-3.36921
11
5.2923
21
-3.36925
0
LINE
8
BLACK
6
CONTINUOUS
10
5.2923
20
-3.36925
11
5.29246
21
-3.36919
0
LINE
8
BLACK
6
CONTINUOUS
10
5.29246
20
-3.36919
11
5.30184
21
-3.36919
0
LINE
8
BLACK
6
CONTINUOUS
10
5.30184
20
-3.36919
11
5.30285
21
-3.36937
0
LINE
8
BLACK
6
CONTINUOUS
10
5.30285
20
-3.36937
11
5.30298
21
-3.36948
0
LINE
8
BLACK
6
CONTINUOUS
10
5.30298
20
-3.36948
11
5.30316
21
-3.3695
0
LINE
8
BLACK
6
CONTINUOUS
10
5.30316
20
-3.3695
11
5.30691
21
-3.37137
0
LINE
8
BLACK
6
CONTINUOUS
10
5.30691
20
-3.37137
11
5.30762
21
-3.3719
0
LINE
8
BLACK
6
CONTINUOUS
10
5.30762
20
-3.3719
11
5.30767
21
-3.37193
0
LINE
8
BLACK
6
CONTINUOUS
10
5.30767
20
-3.37193
11
5.30955
21
-3.3738
0
LINE
8
BLACK
6
CONTINUOUS
10
5.30955
20
-3.3738
11
5.31006
21
-3.37453
0
LINE
8
BLACK
6
CONTINUOUS
10
5.31006
20
-3.37453
11
5.3101
21
-3.37457
0
LINE
8
BLACK
6
CONTINUOUS
10
5.3101
20
-3.37457
11
5.31198
21
-3.37832
0
LINE
8
BLACK
6
CONTINUOUS
10
5.31198
20
-3.37832
11
5.31227
21
-3.3793
0
LINE
8
BLACK
6
CONTINUOUS
10
5.31227
20
-3.3793
11
5.31223
21
-3.37947
0
LINE
8
BLACK
6
CONTINUOUS
10
5.31223
20
-3.37947
11
5.31229
21
-3.37964
0
LINE
8
BLACK
6
CONTINUOUS
10
5.31229
20
-3.37964
11
5.31229
21
-3.38339
0
LINE
8
BLACK
6
CONTINUOUS
10
5.31229
20
-3.38339
11
5.31214
21
-3.38426
0
LINE
8
BLACK
6
CONTINUOUS
10
5.31214
20
-3.38426
11
5.31214
21
-3.38432
0
LINE
8
BLACK
6
CONTINUOUS
10
5.31214
20
-3.38432
11
5.31026
21
-3.38995
0
LINE
8
BLACK
6
CONTINUOUS
10
5.31026
20
-3.38995
11
5.30977
21
-3.39085
0
LINE
8
BLACK
6
CONTINUOUS
10
5.30977
20
-3.39085
11
5.30962
21
-3.39094
0
LINE
8
BLACK
6
CONTINUOUS
10
5.30962
20
-3.39094
11
5.30955
21
-3.3911
0
LINE
8
BLACK
6
CONTINUOUS
10
5.30955
20
-3.3911
11
5.29711
21
-3.40354
0
LINE
8
BLACK
6
CONTINUOUS
10
5.29711
20
-3.40354
11
5.47638
21
-3.40354
0
LINE
8
BLACK
6
CONTINUOUS
10
5.47638
20
-3.40354
11
5.47777
21
-3.40412
0
LINE
8
BLACK
6
CONTINUOUS
10
5.47777
20
-3.40412
11
5.47835
21
-3.40551
0
LINE
8
BLACK
6
CONTINUOUS
10
5.17913
20
-3.42208
11
5.17913
21
-3.67913
0
LINE
8
BLACK
6
CONTINUOUS
10
5.17913
20
-3.67913
11
5.19094
21
-3.67913
0
LINE
8
BLACK
6
CONTINUOUS
10
5.19094
20
-3.67913
11
5.19094
21
-3.41026
0
LINE
8
BLACK
6
CONTINUOUS
10
5.19094
20
-3.41026
11
5.17913
21
-3.42208
0
LINE
8
BLACK
6
CONTINUOUS
10
5.19488
20
-3.40748
11
5.19488
21
-3.67913
0
LINE
8
BLACK
6
CONTINUOUS
10
5.19488
20
-3.67913
11
5.23425
21
-3.67913
0
LINE
8
BLACK
6
CONTINUOUS
10
5.23425
20
-3.67913
11
5.23425
21
-3.40748
0
LINE
8
BLACK
6
CONTINUOUS
10
5.23425
20
-3.40748
11
5.19488
21
-3.40748
0
LINE
8
BLACK
6
CONTINUOUS
10
5.29317
20
-3.40748
11
5.29209
21
-3.40856
0
LINE
8
BLACK
6
CONTINUOUS
10
5.29209
20
-3.40856
11
5.30934
21
-3.40856
0
LINE
8
BLACK
6
CONTINUOUS
10
5.30934
20
-3.40856
11
5.31035
21
-3.40874
0
LINE
8
BLACK
6
CONTINUOUS
10
5.31035
20
-3.40874
11
5.31189
21
-3.41003
0
LINE
8
BLACK
6
CONTINUOUS
10
5.31189
20
-3.41003
11
5.31224
21
-3.41202
0
LINE
8
BLACK
6
CONTINUOUS
10
5.31224
20
-3.41202
11
5.31123
21
-3.41377
0
LINE
8
BLACK
6
CONTINUOUS
10
5.31123
20
-3.41377
11
5.30934
21
-3.41446
0
LINE
8
BLACK
6
CONTINUOUS
10
5.30934
20
-3.41446
11
5.28496
21
-3.41446
0
LINE
8
BLACK
6
CONTINUOUS
10
5.28496
20
-3.41446
11
5.28433
21
-3.41435
0
LINE
8
BLACK
6
CONTINUOUS
10
5.28433
20
-3.41435
11
5.2842
21
-3.41436
0
LINE
8
BLACK
6
CONTINUOUS
10
5.2842
20
-3.41436
11
5.28413
21
-3.41432
0
LINE
8
BLACK
6
CONTINUOUS
10
5.28413
20
-3.41432
11
5.28395
21
-3.41429
0
LINE
8
BLACK
6
CONTINUOUS
10
5.28395
20
-3.41429
11
5.28327
21
-3.41371
0
LINE
8
BLACK
6
CONTINUOUS
10
5.28327
20
-3.41371
11
5.28255
21
-3.4132
0
LINE
8
BLACK
6
CONTINUOUS
10
5.28255
20
-3.4132
11
5.28251
21
-3.41307
0
LINE
8
BLACK
6
CONTINUOUS
10
5.28251
20
-3.41307
11
5.28241
21
-3.41299
0
LINE
8
BLACK
6
CONTINUOUS
10
5.28241
20
-3.41299
11
5.28225
21
-3.41211
0
LINE
8
BLACK
6
CONTINUOUS
10
5.28225
20
-3.41211
11
5.28202
21
-3.41125
0
LINE
8
BLACK
6
CONTINUOUS
10
5.28202
20
-3.41125
11
5.28208
21
-3.41113
0
LINE
8
BLACK
6
CONTINUOUS
10
5.28208
20
-3.41113
11
5.28206
21
-3.411
0
LINE
8
BLACK
6
CONTINUOUS
10
5.28206
20
-3.411
11
5.2825
21
-3.41023
0
LINE
8
BLACK
6
CONTINUOUS
10
5.2825
20
-3.41023
11
5.28288
21
-3.40942
0
LINE
8
BLACK
6
CONTINUOUS
10
5.28288
20
-3.40942
11
5.28482
21
-3.40748
0
LINE
8
BLACK
6
CONTINUOUS
10
5.28482
20
-3.40748
11
5.27292
21
-3.40748
0
LINE
8
BLACK
6
CONTINUOUS
10
5.27292
20
-3.40748
11
5.27292
21
-3.41151
0
LINE
8
BLACK
6
CONTINUOUS
10
5.27292
20
-3.41151
11
5.27274
21
-3.41252
0
LINE
8
BLACK
6
CONTINUOUS
10
5.27274
20
-3.41252
11
5.27144
21
-3.41407
0
LINE
8
BLACK
6
CONTINUOUS
10
5.27144
20
-3.41407
11
5.26945
21
-3.41442
0
LINE
8
BLACK
6
CONTINUOUS
10
5.26945
20
-3.41442
11
5.2677
21
-3.41341
0
LINE
8
BLACK
6
CONTINUOUS
10
5.2677
20
-3.41341
11
5.26701
21
-3.41151
0
LINE
8
BLACK
6
CONTINUOUS
10
5.26701
20
-3.41151
11
5.26701
21
-3.40748
0
LINE
8
BLACK
6
CONTINUOUS
10
5.26701
20
-3.40748
11
5.24667
21
-3.40748
0
LINE
8
BLACK
6
CONTINUOUS
10
5.24667
20
-3.40748
11
5.24667
21
-3.41151
0
LINE
8
BLACK
6
CONTINUOUS
10
5.24667
20
-3.41151
11
5.24649
21
-3.41252
0
LINE
8
BLACK
6
CONTINUOUS
10
5.24649
20
-3.41252
11
5.2452
21
-3.41407
0
LINE
8
BLACK
6
CONTINUOUS
10
5.2452
20
-3.41407
11
5.24321
21
-3.41442
0
LINE
8
BLACK
6
CONTINUOUS
10
5.24321
20
-3.41442
11
5.24146
21
-3.41341
0
LINE
8
BLACK
6
CONTINUOUS
10
5.24146
20
-3.41341
11
5.24077
21
-3.41151
0
LINE
8
BLACK
6
CONTINUOUS
10
5.24077
20
-3.41151
11
5.24077
21
-3.40748
0
LINE
8
BLACK
6
CONTINUOUS
10
5.24077
20
-3.40748
11
5.23819
21
-3.40748
0
LINE
8
BLACK
6
CONTINUOUS
10
5.23819
20
-3.40748
11
5.23819
21
-3.52539
0
LINE
8
BLACK
6
CONTINUOUS
10
5.23819
20
-3.52539
11
5.23828
21
-3.52536
0
LINE
8
BLACK
6
CONTINUOUS
10
5.23828
20
-3.52536
11
5.2747
21
-3.52536
0
LINE
8
BLACK
6
CONTINUOUS
10
5.2747
20
-3.52536
11
5.2747
21
-3.51706
0
LINE
8
BLACK
6
CONTINUOUS
10
5.2747
20
-3.51706
11
5.27488
21
-3.51605
0
LINE
8
BLACK
6
CONTINUOUS
10
5.27488
20
-3.51605
11
5.27618
21
-3.5145
0
LINE
8
BLACK
6
CONTINUOUS
10
5.27618
20
-3.5145
11
5.27817
21
-3.51415
0
LINE
8
BLACK
6
CONTINUOUS
10
5.27817
20
-3.51415
11
5.27991
21
-3.51516
0
LINE
8
BLACK
6
CONTINUOUS
10
5.27991
20
-3.51516
11
5.28061
21
-3.51706
0
LINE
8
BLACK
6
CONTINUOUS
10
5.28061
20
-3.51706
11
5.28061
21
-3.53956
0
LINE
8
BLACK
6
CONTINUOUS
10
5.28061
20
-3.53956
11
5.28043
21
-3.54057
0
LINE
8
BLACK
6
CONTINUOUS
10
5.28043
20
-3.54057
11
5.27913
21
-3.54211
0
LINE
8
BLACK
6
CONTINUOUS
10
5.27913
20
-3.54211
11
5.27714
21
-3.54247
0
LINE
8
BLACK
6
CONTINUOUS
10
5.27714
20
-3.54247
11
5.27539
21
-3.54146
0
LINE
8
BLACK
6
CONTINUOUS
10
5.27539
20
-3.54146
11
5.2747
21
-3.53956
0
LINE
8
BLACK
6
CONTINUOUS
10
5.2747
20
-3.53956
11
5.2747
21
-3.53126
0
LINE
8
BLACK
6
CONTINUOUS
10
5.2747
20
-3.53126
11
5.24729
21
-3.53126
0
LINE
8
BLACK
6
CONTINUOUS
10
5.24729
20
-3.53126
11
5.24974
21
-3.53372
0
LINE
8
BLACK
6
CONTINUOUS
10
5.24974
20
-3.53372
11
5.25025
21
-3.53444
0
LINE
8
BLACK
6
CONTINUOUS
10
5.25025
20
-3.53444
11
5.2503
21
-3.53449
0
LINE
8
BLACK
6
CONTINUOUS
10
5.2503
20
-3.53449
11
5.25217
21
-3.53824
0
LINE
8
BLACK
6
CONTINUOUS
10
5.25217
20
-3.53824
11
5.25246
21
-3.53922
0
LINE
8
BLACK
6
CONTINUOUS
10
5.25246
20
-3.53922
11
5.252
21
-3.54118
0
LINE
8
BLACK
6
CONTINUOUS
10
5.252
20
-3.54118
11
5.25037
21
-3.54239
0
LINE
8
BLACK
6
CONTINUOUS
10
5.25037
20
-3.54239
11
5.24836
21
-3.54227
0
LINE
8
BLACK
6
CONTINUOUS
10
5.24836
20
-3.54227
11
5.24689
21
-3.54088
0
LINE
8
BLACK
6
CONTINUOUS
10
5.24689
20
-3.54088
11
5.24523
21
-3.53756
0
LINE
8
BLACK
6
CONTINUOUS
10
5.24523
20
-3.53756
11
5.24203
21
-3.53435
0
LINE
8
BLACK
6
CONTINUOUS
10
5.24203
20
-3.53435
11
5.23819
21
-3.5318
0
LINE
8
BLACK
6
CONTINUOUS
10
5.23819
20
-3.5318
11
5.23819
21
-3.55351
0
LINE
8
BLACK
6
CONTINUOUS
10
5.23819
20
-3.55351
11
5.23828
21
-3.55348
0
LINE
8
BLACK
6
CONTINUOUS
10
5.23828
20
-3.55348
11
5.2664
21
-3.55348
0
LINE
8
BLACK
6
CONTINUOUS
10
5.2664
20
-3.55348
11
5.26727
21
-3.55363
0
LINE
8
BLACK
6
CONTINUOUS
10
5.26727
20
-3.55363
11
5.26734
21
-3.55363
0
LINE
8
BLACK
6
CONTINUOUS
10
5.26734
20
-3.55363
11
5.27296
21
-3.5555
0
LINE
8
BLACK
6
CONTINUOUS
10
5.27296
20
-3.5555
11
5.27386
21
-3.55599
0
LINE
8
BLACK
6
CONTINUOUS
10
5.27386
20
-3.55599
11
5.27396
21
-3.55614
0
LINE
8
BLACK
6
CONTINUOUS
10
5.27396
20
-3.55614
11
5.27412
21
-3.55622
0
LINE
8
BLACK
6
CONTINUOUS
10
5.27412
20
-3.55622
11
5.27787
21
-3.55997
0
LINE
8
BLACK
6
CONTINUOUS
10
5.27787
20
-3.55997
11
5.27845
21
-3.56081
0
LINE
8
BLACK
6
CONTINUOUS
10
5.27845
20
-3.56081
11
5.27847
21
-3.56098
0
LINE
8
BLACK
6
CONTINUOUS
10
5.27847
20
-3.56098
11
5.27858
21
-3.56112
0
LINE
8
BLACK
6
CONTINUOUS
10
5.27858
20
-3.56112
11
5.28045
21
-3.56675
0
LINE
8
BLACK
6
CONTINUOUS
10
5.28045
20
-3.56675
11
5.28058
21
-3.56762
0
LINE
8
BLACK
6
CONTINUOUS
10
5.28058
20
-3.56762
11
5.28061
21
-3.56768
0
LINE
8
BLACK
6
CONTINUOUS
10
5.28061
20
-3.56768
11
5.28061
21
-3.57143
0
LINE
8
BLACK
6
CONTINUOUS
10
5.28061
20
-3.57143
11
5.28043
21
-3.57244
0
LINE
8
BLACK
6
CONTINUOUS
10
5.28043
20
-3.57244
11
5.27913
21
-3.57399
0
LINE
8
BLACK
6
CONTINUOUS
10
5.27913
20
-3.57399
11
5.27714
21
-3.57434
0
LINE
8
BLACK
6
CONTINUOUS
10
5.27714
20
-3.57434
11
5.27539
21
-3.57333
0
LINE
8
BLACK
6
CONTINUOUS
10
5.27539
20
-3.57333
11
5.2747
21
-3.57143
0
LINE
8
BLACK
6
CONTINUOUS
10
5.2747
20
-3.57143
11
5.2747
21
-3.56816
0
LINE
8
BLACK
6
CONTINUOUS
10
5.2747
20
-3.56816
11
5.2732
21
-3.56365
0
LINE
8
BLACK
6
CONTINUOUS
10
5.2732
20
-3.56365
11
5.27043
21
-3.56089
0
LINE
8
BLACK
6
CONTINUOUS
10
5.27043
20
-3.56089
11
5.26593
21
-3.55938
0
LINE
8
BLACK
6
CONTINUOUS
10
5.26593
20
-3.55938
11
5.23828
21
-3.55938
0
LINE
8
BLACK
6
CONTINUOUS
10
5.23828
20
-3.55938
11
5.23819
21
-3.55937
0
LINE
8
BLACK
6
CONTINUOUS
10
5.23819
20
-3.55937
11
5.23819
21
-3.67913
0
LINE
8
BLACK
6
CONTINUOUS
10
5.23819
20
-3.67913
11
5.47441
21
-3.67913
0
LINE
8
BLACK
6
CONTINUOUS
10
5.47441
20
-3.67913
11
5.47441
21
-3.40748
0
LINE
8
BLACK
6
CONTINUOUS
10
5.47441
20
-3.40748
11
5.29317
21
-3.40748
0
LINE
8
BLACK
6
CONTINUOUS
10
5.25952
20
-3.40151
11
5.2593
21
-3.40183
0
LINE
8
BLACK
6
CONTINUOUS
10
5.2593
20
-3.40183
11
5.25926
21
-3.40196
0
LINE
8
BLACK
6
CONTINUOUS
10
5.25926
20
-3.40196
11
5.25915
21
-3.40203
0
LINE
8
BLACK
6
CONTINUOUS
10
5.25915
20
-3.40203
11
5.25893
21
-3.40235
0
LINE
8
BLACK
6
CONTINUOUS
10
5.25893
20
-3.40235
11
5.25824
21
-3.40267
0
LINE
8
BLACK
6
CONTINUOUS
10
5.25824
20
-3.40267
11
5.25761
21
-3.40311
0
LINE
8
BLACK
6
CONTINUOUS
10
5.25761
20
-3.40311
11
5.25734
21
-3.40309
0
LINE
8
BLACK
6
CONTINUOUS
10
5.25734
20
-3.40309
11
5.2571
21
-3.4032
0
LINE
8
BLACK
6
CONTINUOUS
10
5.2571
20
-3.4032
11
5.25636
21
-3.40301
0
LINE
8
BLACK
6
CONTINUOUS
10
5.25636
20
-3.40301
11
5.2556
21
-3.40294
0
LINE
8
BLACK
6
CONTINUOUS
10
5.2556
20
-3.40294
11
5.25541
21
-3.40275
0
LINE
8
BLACK
6
CONTINUOUS
10
5.25541
20
-3.40275
11
5.25515
21
-3.40268
0
LINE
8
BLACK
6
CONTINUOUS
10
5.25515
20
-3.40268
11
5.25471
21
-3.40205
0
LINE
8
BLACK
6
CONTINUOUS
10
5.25471
20
-3.40205
11
5.25417
21
-3.40151
0
LINE
8
BLACK
6
CONTINUOUS
10
5.25417
20
-3.40151
11
5.24667
21
-3.38545
0
LINE
8
BLACK
6
CONTINUOUS
10
5.24667
20
-3.38545
11
5.24667
21
-3.40354
0
LINE
8
BLACK
6
CONTINUOUS
10
5.24667
20
-3.40354
11
5.26701
21
-3.40354
0
LINE
8
BLACK
6
CONTINUOUS
10
5.26701
20
-3.40354
11
5.26701
21
-3.38545
0
LINE
8
BLACK
6
CONTINUOUS
10
5.26701
20
-3.38545
11
5.25952
21
-3.40151
0
LINE
8
BLACK
6
CONTINUOUS
10
5.29629
20
-3.59335
11
5.29996
21
-3.5845
0
LINE
8
BLACK
6
CONTINUOUS
10
5.29996
20
-3.5845
11
5.30496
21
-3.57634
0
LINE
8
BLACK
6
CONTINUOUS
10
5.30496
20
-3.57634
11
5.31118
21
-3.56905
0
LINE
8
BLACK
6
CONTINUOUS
10
5.31118
20
-3.56905
11
5.31846
21
-3.56284
0
LINE
8
BLACK
6
CONTINUOUS
10
5.31846
20
-3.56284
11
5.32663
21
-3.55783
0
LINE
8
BLACK
6
CONTINUOUS
10
5.32663
20
-3.55783
11
5.33547
21
-3.55417
0
LINE
8
BLACK
6
CONTINUOUS
10
5.33547
20
-3.55417
11
5.34478
21
-3.55193
0
LINE
8
BLACK
6
CONTINUOUS
10
5.34478
20
-3.55193
11
5.35433
21
-3.55118
0
LINE
8
BLACK
6
CONTINUOUS
10
5.35433
20
-3.55118
11
5.36388
21
-3.55193
0
LINE
8
BLACK
6
CONTINUOUS
10
5.36388
20
-3.55193
11
5.37319
21
-3.55417
0
LINE
8
BLACK
6
CONTINUOUS
10
5.37319
20
-3.55417
11
5.38203
21
-3.55783
0
LINE
8
BLACK
6
CONTINUOUS
10
5.38203
20
-3.55783
11
5.3902
21
-3.56284
0
LINE
8
BLACK
6
CONTINUOUS
10
5.3902
20
-3.56284
11
5.39748
21
-3.56905
0
LINE
8
BLACK
6
CONTINUOUS
10
5.39748
20
-3.56905
11
5.4037
21
-3.57634
0
LINE
8
BLACK
6
CONTINUOUS
10
5.4037
20
-3.57634
11
5.4087
21
-3.5845
0
LINE
8
BLACK
6
CONTINUOUS
10
5.4087
20
-3.5845
11
5.41237
21
-3.59335
0
LINE
8
BLACK
6
CONTINUOUS
10
5.41237
20
-3.59335
11
5.4146
21
-3.60266
0
LINE
8
BLACK
6
CONTINUOUS
10
5.4146
20
-3.60266
11
5.41535
21
-3.6122
0
LINE
8
BLACK
6
CONTINUOUS
10
5.41535
20
-3.6122
11
5.4146
21
-3.62175
0
LINE
8
BLACK
6
CONTINUOUS
10
5.4146
20
-3.62175
11
5.41237
21
-3.63106
0
LINE
8
BLACK
6
CONTINUOUS
10
5.41237
20
-3.63106
11
5.4087
21
-3.63991
0
LINE
8
BLACK
6
CONTINUOUS
10
5.4087
20
-3.63991
11
5.4037
21
-3.64807
0
LINE
8
BLACK
6
CONTINUOUS
10
5.4037
20
-3.64807
11
5.39748
21
-3.65535
0
LINE
8
BLACK
6
CONTINUOUS
10
5.39748
20
-3.65535
11
5.3902
21
-3.66157
0
LINE
8
BLACK
6
CONTINUOUS
10
5.3902
20
-3.66157
11
5.38203
21
-3.66658
0
LINE
8
BLACK
6
CONTINUOUS
10
5.38203
20
-3.66658
11
5.37319
21
-3.67024
0
LINE
8
BLACK
6
CONTINUOUS
10
5.37319
20
-3.67024
11
5.36388
21
-3.67248
0
LINE
8
BLACK
6
CONTINUOUS
10
5.36388
20
-3.67248
11
5.35433
21
-3.67323
0
LINE
8
BLACK
6
CONTINUOUS
10
5.35433
20
-3.67323
11
5.34478
21
-3.67248
0
LINE
8
BLACK
6
CONTINUOUS
10
5.34478
20
-3.67248
11
5.33547
21
-3.67024
0
LINE
8
BLACK
6
CONTINUOUS
10
5.33547
20
-3.67024
11
5.32663
21
-3.66658
0
LINE
8
BLACK
6
CONTINUOUS
10
5.32663
20
-3.66658
11
5.31846
21
-3.66157
0
LINE
8
BLACK
6
CONTINUOUS
10
5.31846
20
-3.66157
11
5.31118
21
-3.65535
0
LINE
8
BLACK
6
CONTINUOUS
10
5.31118
20
-3.65535
11
5.30496
21
-3.64807
0
LINE
8
BLACK
6
CONTINUOUS
10
5.30496
20
-3.64807
11
5.29996
21
-3.63991
0
LINE
8
BLACK
6
CONTINUOUS
10
5.29996
20
-3.63991
11
5.29629
21
-3.63106
0
LINE
8
BLACK
6
CONTINUOUS
10
5.29629
20
-3.63106
11
5.29406
21
-3.62175
0
LINE
8
BLACK
6
CONTINUOUS
10
5.29406
20
-3.62175
11
5.29331
21
-3.6122
0
LINE
8
BLACK
6
CONTINUOUS
10
5.29331
20
-3.6122
11
5.29342
21
-3.61081
0
LINE
8
BLACK
6
CONTINUOUS
10
5.29342
20
-3.61081
11
5.29406
21
-3.60266
0
LINE
8
BLACK
6
CONTINUOUS
10
5.29406
20
-3.60266
11
5.29629
21
-3.59335
0
LINE
8
BLACK
6
CONTINUOUS
10
5.29967
20
-3.62933
11
5.3032
21
-3.63803
0
LINE
8
BLACK
6
CONTINUOUS
10
5.3032
20
-3.63803
11
5.30811
21
-3.64604
0
LINE
8
BLACK
6
CONTINUOUS
10
5.30811
20
-3.64604
11
5.31425
21
-3.65313
0
LINE
8
BLACK
6
CONTINUOUS
10
5.31425
20
-3.65313
11
5.32147
21
-3.65913
0
LINE
8
BLACK
6
CONTINUOUS
10
5.32147
20
-3.65913
11
5.32958
21
-3.66386
0
LINE
8
BLACK
6
CONTINUOUS
10
5.32958
20
-3.66386
11
5.33835
21
-3.66721
0
LINE
8
BLACK
6
CONTINUOUS
10
5.33835
20
-3.66721
11
5.34755
21
-3.66908
0
LINE
8
BLACK
6
CONTINUOUS
10
5.34755
20
-3.66908
11
5.35693
21
-3.66943
0
LINE
8
BLACK
6
CONTINUOUS
10
5.35693
20
-3.66943
11
5.36624
21
-3.66824
0
LINE
8
BLACK
6
CONTINUOUS
10
5.36624
20
-3.66824
11
5.37523
21
-3.66554
0
LINE
8
BLACK
6
CONTINUOUS
10
5.37523
20
-3.66554
11
5.38366
21
-3.66141
0
LINE
8
BLACK
6
CONTINUOUS
10
5.38366
20
-3.66141
11
5.38943
21
-3.65729
0
LINE
8
BLACK
6
CONTINUOUS
10
5.38943
20
-3.65729
11
5.30918
21
-3.57708
0
LINE
8
BLACK
6
CONTINUOUS
10
5.30918
20
-3.57708
11
5.30452
21
-3.58391
0
LINE
8
BLACK
6
CONTINUOUS
10
5.30452
20
-3.58391
11
5.30057
21
-3.59243
0
LINE
8
BLACK
6
CONTINUOUS
10
5.30057
20
-3.59243
11
5.29806
21
-3.60147
0
LINE
8
BLACK
6
CONTINUOUS
10
5.29806
20
-3.60147
11
5.29707
21
-3.61081
0
LINE
8
BLACK
6
CONTINUOUS
10
5.29707
20
-3.61081
11
5.29761
21
-3.62018
0
LINE
8
BLACK
6
CONTINUOUS
10
5.29761
20
-3.62018
11
5.29967
21
-3.62933
0
LINE
8
BLACK
6
CONTINUOUS
10
5.31177
20
-3.57411
11
5.39248
21
-3.65478
0
LINE
8
BLACK
6
CONTINUOUS
10
5.39248
20
-3.65478
11
5.39691
21
-3.65037
0
LINE
8
BLACK
6
CONTINUOUS
10
5.39691
20
-3.65037
11
5.31609
21
-3.56959
0
LINE
8
BLACK
6
CONTINUOUS
10
5.31609
20
-3.56959
11
5.31177
21
-3.57411
0
LINE
8
BLACK
6
CONTINUOUS
10
5.34106
20
-3.55648
11
5.33213
21
-3.5594
0
LINE
8
BLACK
6
CONTINUOUS
10
5.33213
20
-3.5594
11
5.32381
21
-3.56373
0
LINE
8
BLACK
6
CONTINUOUS
10
5.32381
20
-3.56373
11
5.31924
21
-3.56716
0
LINE
8
BLACK
6
CONTINUOUS
10
5.31924
20
-3.56716
11
5.39941
21
-3.6473
0
LINE
8
BLACK
6
CONTINUOUS
10
5.39941
20
-3.6473
11
5.40343
21
-3.64171
0
LINE
8
BLACK
6
CONTINUOUS
10
5.40343
20
-3.64171
11
5.40759
21
-3.63329
0
LINE
8
BLACK
6
CONTINUOUS
10
5.40759
20
-3.63329
11
5.41032
21
-3.62431
0
LINE
8
BLACK
6
CONTINUOUS
10
5.41032
20
-3.62431
11
5.41154
21
-3.615
0
LINE
8
BLACK
6
CONTINUOUS
10
5.41154
20
-3.615
11
5.41161
21
-3.6122
0
LINE
8
BLACK
6
CONTINUOUS
10
5.41161
20
-3.6122
11
5.41084
21
-3.60285
0
LINE
8
BLACK
6
CONTINUOUS
10
5.41084
20
-3.60285
11
5.40856
21
-3.59374
0
LINE
8
BLACK
6
CONTINUOUS
10
5.40856
20
-3.59374
11
5.40481
21
-3.58514
0
LINE
8
BLACK
6
CONTINUOUS
10
5.40481
20
-3.58514
11
5.39971
21
-3.57725
0
LINE
8
BLACK
6
CONTINUOUS
10
5.39971
20
-3.57725
11
5.3934
21
-3.57031
0
LINE
8
BLACK
6
CONTINUOUS
10
5.3934
20
-3.57031
11
5.38603
21
-3.56449
0
LINE
8
BLACK
6
CONTINUOUS
10
5.38603
20
-3.56449
11
5.37781
21
-3.55996
0
LINE
8
BLACK
6
CONTINUOUS
10
5.37781
20
-3.55996
11
5.36896
21
-3.55682
0
LINE
8
BLACK
6
CONTINUOUS
10
5.36896
20
-3.55682
11
5.35972
21
-3.55518
0
LINE
8
BLACK
6
CONTINUOUS
10
5.35972
20
-3.55518
11
5.35033
21
-3.55506
0
LINE
8
BLACK
6
CONTINUOUS
10
5.35033
20
-3.55506
11
5.34106
21
-3.55648
0
LINE
8
BLACK
6
CONTINUOUS
10
5.29629
20
-3.45555
11
5.29996
21
-3.44671
0
LINE
8
BLACK
6
CONTINUOUS
10
5.29996
20
-3.44671
11
5.30496
21
-3.43854
0
LINE
8
BLACK
6
CONTINUOUS
10
5.30496
20
-3.43854
11
5.31118
21
-3.43126
0
LINE
8
BLACK
6
CONTINUOUS
10
5.31118
20
-3.43126
11
5.31846
21
-3.42504
0
LINE
8
BLACK
6
CONTINUOUS
10
5.31846
20
-3.42504
11
5.32663
21
-3.42004
0
LINE
8
BLACK
6
CONTINUOUS
10
5.32663
20
-3.42004
11
5.33547
21
-3.41637
0
LINE
8
BLACK
6
CONTINUOUS
10
5.33547
20
-3.41637
11
5.34478
21
-3.41414
0
LINE
8
BLACK
6
CONTINUOUS
10
5.34478
20
-3.41414
11
5.35433
21
-3.41339
0
LINE
8
BLACK
6
CONTINUOUS
10
5.35433
20
-3.41339
11
5.36388
21
-3.41414
0
LINE
8
BLACK
6
CONTINUOUS
10
5.36388
20
-3.41414
11
5.37319
21
-3.41637
0
LINE
8
BLACK
6
CONTINUOUS
10
5.37319
20
-3.41637
11
5.38203
21
-3.42004
0
LINE
8
BLACK
6
CONTINUOUS
10
5.38203
20
-3.42004
11
5.3902
21
-3.42504
0
LINE
8
BLACK
6
CONTINUOUS
10
5.3902
20
-3.42504
11
5.39748
21
-3.43126
0
LINE
8
BLACK
6
CONTINUOUS
10
5.39748
20
-3.43126
11
5.4037
21
-3.43854
0
LINE
8
BLACK
6
CONTINUOUS
10
5.4037
20
-3.43854
11
5.4087
21
-3.44671
0
LINE
8
BLACK
6
CONTINUOUS
10
5.4087
20
-3.44671
11
5.41237
21
-3.45555
0
LINE
8
BLACK
6
CONTINUOUS
10
5.41237
20
-3.45555
11
5.4146
21
-3.46486
0
LINE
8
BLACK
6
CONTINUOUS
10
5.4146
20
-3.46486
11
5.41535
21
-3.47441
0
LINE
8
BLACK
6
CONTINUOUS
10
5.41535
20
-3.47441
11
5.4146
21
-3.48396
0
LINE
8
BLACK
6
CONTINUOUS
10
5.4146
20
-3.48396
11
5.41237
21
-3.49327
0
LINE
8
BLACK
6
CONTINUOUS
10
5.41237
20
-3.49327
11
5.4087
21
-3.50211
0
LINE
8
BLACK
6
CONTINUOUS
10
5.4087
20
-3.50211
11
5.4037
21
-3.51028
0
LINE
8
BLACK
6
CONTINUOUS
10
5.4037
20
-3.51028
11
5.39748
21
-3.51756
0
LINE
8
BLACK
6
CONTINUOUS
10
5.39748
20
-3.51756
11
5.3902
21
-3.52378
0
LINE
8
BLACK
6
CONTINUOUS
10
5.3902
20
-3.52378
11
5.38203
21
-3.52878
0
LINE
8
BLACK
6
CONTINUOUS
10
5.38203
20
-3.52878
11
5.37319
21
-3.53245
0
LINE
8
BLACK
6
CONTINUOUS
10
5.37319
20
-3.53245
11
5.36388
21
-3.53468
0
LINE
8
BLACK
6
CONTINUOUS
10
5.36388
20
-3.53468
11
5.35433
21
-3.53543
0
LINE
8
BLACK
6
CONTINUOUS
10
5.35433
20
-3.53543
11
5.34478
21
-3.53468
0
LINE
8
BLACK
6
CONTINUOUS
10
5.34478
20
-3.53468
11
5.33547
21
-3.53245
0
LINE
8
BLACK
6
CONTINUOUS
10
5.33547
20
-3.53245
11
5.32663
21
-3.52878
0
LINE
8
BLACK
6
CONTINUOUS
10
5.32663
20
-3.52878
11
5.31846
21
-3.52378
0
LINE
8
BLACK
6
CONTINUOUS
10
5.31846
20
-3.52378
11
5.31118
21
-3.51756
0
LINE
8
BLACK
6
CONTINUOUS
10
5.31118
20
-3.51756
11
5.30496
21
-3.51028
0
LINE
8
BLACK
6
CONTINUOUS
10
5.30496
20
-3.51028
11
5.29996
21
-3.50211
0
LINE
8
BLACK
6
CONTINUOUS
10
5.29996
20
-3.50211
11
5.29629
21
-3.49327
0
LINE
8
BLACK
6
CONTINUOUS
10
5.29629
20
-3.49327
11
5.29406
21
-3.48396
0
LINE
8
BLACK
6
CONTINUOUS
10
5.29406
20
-3.48396
11
5.29331
21
-3.47441
0
LINE
8
BLACK
6
CONTINUOUS
10
5.29331
20
-3.47441
11
5.29342
21
-3.47301
0
LINE
8
BLACK
6
CONTINUOUS
10
5.29342
20
-3.47301
11
5.29406
21
-3.46486
0
LINE
8
BLACK
6
CONTINUOUS
10
5.29406
20
-3.46486
11
5.29629
21
-3.45555
0
LINE
8
BLACK
6
CONTINUOUS
10
5.29967
20
-3.49154
11
5.3032
21
-3.50024
0
LINE
8
BLACK
6
CONTINUOUS
10
5.3032
20
-3.50024
11
5.30811
21
-3.50824
0
LINE
8
BLACK
6
CONTINUOUS
10
5.30811
20
-3.50824
11
5.31425
21
-3.51534
0
LINE
8
BLACK
6
CONTINUOUS
10
5.31425
20
-3.51534
11
5.32147
21
-3.52133
0
LINE
8
BLACK
6
CONTINUOUS
10
5.32147
20
-3.52133
11
5.32958
21
-3.52607
0
LINE
8
BLACK
6
CONTINUOUS
10
5.32958
20
-3.52607
11
5.33835
21
-3.52942
0
LINE
8
BLACK
6
CONTINUOUS
10
5.33835
20
-3.52942
11
5.34755
21
-3.53129
0
LINE
8
BLACK
6
CONTINUOUS
10
5.34755
20
-3.53129
11
5.35693
21
-3.53163
0
LINE
8
BLACK
6
CONTINUOUS
10
5.35693
20
-3.53163
11
5.36624
21
-3.53044
0
LINE
8
BLACK
6
CONTINUOUS
10
5.36624
20
-3.53044
11
5.37523
21
-3.52774
0
LINE
8
BLACK
6
CONTINUOUS
10
5.37523
20
-3.52774
11
5.38366
21
-3.52361
0
LINE
8
BLACK
6
CONTINUOUS
10
5.38366
20
-3.52361
11
5.38943
21
-3.5195
0
LINE
8
BLACK
6
CONTINUOUS
10
5.38943
20
-3.5195
11
5.3092
21
-3.43926
0
LINE
8
BLACK
6
CONTINUOUS
10
5.3092
20
-3.43926
11
5.30452
21
-3.44612
0
LINE
8
BLACK
6
CONTINUOUS
10
5.30452
20
-3.44612
11
5.30057
21
-3.45463
0
LINE
8
BLACK
6
CONTINUOUS
10
5.30057
20
-3.45463
11
5.29806
21
-3.46368
0
LINE
8
BLACK
6
CONTINUOUS
10
5.29806
20
-3.46368
11
5.29707
21
-3.47301
0
LINE
8
BLACK
6
CONTINUOUS
10
5.29707
20
-3.47301
11
5.29761
21
-3.48238
0
LINE
8
BLACK
6
CONTINUOUS
10
5.29761
20
-3.48238
11
5.29967
21
-3.49154
0
LINE
8
BLACK
6
CONTINUOUS
10
5.31179
20
-3.43629
11
5.39248
21
-3.51698
0
LINE
8
BLACK
6
CONTINUOUS
10
5.39248
20
-3.51698
11
5.39691
21
-3.51257
0
LINE
8
BLACK
6
CONTINUOUS
10
5.39691
20
-3.51257
11
5.31611
21
-3.43177
0
LINE
8
BLACK
6
CONTINUOUS
10
5.31611
20
-3.43177
11
5.31179
21
-3.43629
0
LINE
8
BLACK
6
CONTINUOUS
10
5.34106
20
-3.41869
11
5.33213
21
-3.4216
0
LINE
8
BLACK
6
CONTINUOUS
10
5.33213
20
-3.4216
11
5.32381
21
-3.42594
0
LINE
8
BLACK
6
CONTINUOUS
10
5.32381
20
-3.42594
11
5.31926
21
-3.42935
0
LINE
8
BLACK
6
CONTINUOUS
10
5.31926
20
-3.42935
11
5.39941
21
-3.5095
0
LINE
8
BLACK
6
CONTINUOUS
10
5.39941
20
-3.5095
11
5.40343
21
-3.50391
0
LINE
8
BLACK
6
CONTINUOUS
10
5.40343
20
-3.50391
11
5.40759
21
-3.4955
0
LINE
8
BLACK
6
CONTINUOUS
10
5.40759
20
-3.4955
11
5.41032
21
-3.48651
0
LINE
8
BLACK
6
CONTINUOUS
10
5.41032
20
-3.48651
11
5.41154
21
-3.47721
0
LINE
8
BLACK
6
CONTINUOUS
10
5.41154
20
-3.47721
11
5.41161
21
-3.47441
0
LINE
8
BLACK
6
CONTINUOUS
10
5.41161
20
-3.47441
11
5.41084
21
-3.46505
0
LINE
8
BLACK
6
CONTINUOUS
10
5.41084
20
-3.46505
11
5.40856
21
-3.45595
0
LINE
8
BLACK
6
CONTINUOUS
10
5.40856
20
-3.45595
11
5.40481
21
-3.44734
0
LINE
8
BLACK
6
CONTINUOUS
10
5.40481
20
-3.44734
11
5.39971
21
-3.43946
0
LINE
8
BLACK
6
CONTINUOUS
10
5.39971
20
-3.43946
11
5.3934
21
-3.43252
0
LINE
8
BLACK
6
CONTINUOUS
10
5.3934
20
-3.43252
11
5.38603
21
-3.4267
0
LINE
8
BLACK
6
CONTINUOUS
10
5.38603
20
-3.4267
11
5.37781
21
-3.42216
0
LINE
8
BLACK
6
CONTINUOUS
10
5.37781
20
-3.42216
11
5.36896
21
-3.41903
0
LINE
8
BLACK
6
CONTINUOUS
10
5.36896
20
-3.41903
11
5.35972
21
-3.41738
0
LINE
8
BLACK
6
CONTINUOUS
10
5.35972
20
-3.41738
11
5.35033
21
-3.41727
0
LINE
8
BLACK
6
CONTINUOUS
10
5.35033
20
-3.41727
11
5.34106
21
-3.41869
0
LINE
8
BLACK
6
CONTINUOUS
10
5.64809
20
-3.63868
11
5.64822
21
-3.63879
0
LINE
8
BLACK
6
CONTINUOUS
10
5.64822
20
-3.63879
11
5.6484
21
-3.63881
0
LINE
8
BLACK
6
CONTINUOUS
10
5.6484
20
-3.63881
11
5.65215
21
-3.64068
0
LINE
8
BLACK
6
CONTINUOUS
10
5.65215
20
-3.64068
11
5.65285
21
-3.64121
0
LINE
8
BLACK
6
CONTINUOUS
10
5.65285
20
-3.64121
11
5.65291
21
-3.64124
0
LINE
8
BLACK
6
CONTINUOUS
10
5.65291
20
-3.64124
11
5.65479
21
-3.64311
0
LINE
8
BLACK
6
CONTINUOUS
10
5.65479
20
-3.64311
11
5.65529
21
-3.64384
0
LINE
8
BLACK
6
CONTINUOUS
10
5.65529
20
-3.64384
11
5.65534
21
-3.64388
0
LINE
8
BLACK
6
CONTINUOUS
10
5.65534
20
-3.64388
11
5.65722
21
-3.64763
0
LINE
8
BLACK
6
CONTINUOUS
10
5.65722
20
-3.64763
11
5.65751
21
-3.64861
0
LINE
8
BLACK
6
CONTINUOUS
10
5.65751
20
-3.64861
11
5.65747
21
-3.64878
0
LINE
8
BLACK
6
CONTINUOUS
10
5.65747
20
-3.64878
11
5.65751
21
-3.64891
0
LINE
8
BLACK
6
CONTINUOUS
10
5.65751
20
-3.64891
11
5.67163
21
-3.63903
0
LINE
8
BLACK
6
CONTINUOUS
10
5.67163
20
-3.63903
11
5.67256
21
-3.6386
0
LINE
8
BLACK
6
CONTINUOUS
10
5.67256
20
-3.6386
11
5.67457
21
-3.63878
0
LINE
8
BLACK
6
CONTINUOUS
10
5.67457
20
-3.63878
11
5.676
21
-3.6402
0
LINE
8
BLACK
6
CONTINUOUS
10
5.676
20
-3.6402
11
5.67617
21
-3.64222
0
LINE
8
BLACK
6
CONTINUOUS
10
5.67617
20
-3.64222
11
5.67502
21
-3.64387
0
LINE
8
BLACK
6
CONTINUOUS
10
5.67502
20
-3.64387
11
5.65753
21
-3.65611
0
LINE
8
BLACK
6
CONTINUOUS
10
5.65753
20
-3.65611
11
5.65753
21
-3.661
0
LINE
8
BLACK
6
CONTINUOUS
10
5.65753
20
-3.661
11
5.67332
21
-3.661
0
LINE
8
BLACK
6
CONTINUOUS
10
5.67332
20
-3.661
11
5.67433
21
-3.66117
0
LINE
8
BLACK
6
CONTINUOUS
10
5.67433
20
-3.66117
11
5.67588
21
-3.66247
0
LINE
8
BLACK
6
CONTINUOUS
10
5.67588
20
-3.66247
11
5.67623
21
-3.66446
0
LINE
8
BLACK
6
CONTINUOUS
10
5.67623
20
-3.66446
11
5.67522
21
-3.66621
0
LINE
8
BLACK
6
CONTINUOUS
10
5.67522
20
-3.66621
11
5.67332
21
-3.6669
0
LINE
8
BLACK
6
CONTINUOUS
10
5.67332
20
-3.6669
11
5.63395
21
-3.6669
0
LINE
8
BLACK
6
CONTINUOUS
10
5.63395
20
-3.6669
11
5.63357
21
-3.66683
0
LINE
8
BLACK
6
CONTINUOUS
10
5.63357
20
-3.66683
11
5.63344
21
-3.66686
0
LINE
8
BLACK
6
CONTINUOUS
10
5.63344
20
-3.66686
11
5.63333
21
-3.66679
0
LINE
8
BLACK
6
CONTINUOUS
10
5.63333
20
-3.66679
11
5.63294
21
-3.66672
0
LINE
8
BLACK
6
CONTINUOUS
10
5.63294
20
-3.66672
11
5.63235
21
-3.66623
0
LINE
8
BLACK
6
CONTINUOUS
10
5.63235
20
-3.66623
11
5.63169
21
-3.66585
0
LINE
8
BLACK
6
CONTINUOUS
10
5.63169
20
-3.66585
11
5.6316
21
-3.6656
0
LINE
8
BLACK
6
CONTINUOUS
10
5.6316
20
-3.6656
11
5.63139
21
-3.66542
0
LINE
8
BLACK
6
CONTINUOUS
10
5.63139
20
-3.66542
11
5.63126
21
-3.66467
0
LINE
8
BLACK
6
CONTINUOUS
10
5.63126
20
-3.66467
11
5.631
21
-3.66395
0
LINE
8
BLACK
6
CONTINUOUS
10
5.631
20
-3.66395
11
5.631
21
-3.64895
0
LINE
8
BLACK
6
CONTINUOUS
10
5.631
20
-3.64895
11
5.63118
21
-3.64794
0
LINE
8
BLACK
6
CONTINUOUS
10
5.63118
20
-3.64794
11
5.63129
21
-3.6478
0
LINE
8
BLACK
6
CONTINUOUS
10
5.63129
20
-3.6478
11
5.63131
21
-3.64763
0
LINE
8
BLACK
6
CONTINUOUS
10
5.63131
20
-3.64763
11
5.63319
21
-3.64388
0
LINE
8
BLACK
6
CONTINUOUS
10
5.63319
20
-3.64388
11
5.63371
21
-3.64317
0
LINE
8
BLACK
6
CONTINUOUS
10
5.63371
20
-3.64317
11
5.63374
21
-3.64311
0
LINE
8
BLACK
6
CONTINUOUS
10
5.63374
20
-3.64311
11
5.63561
21
-3.64124
0
LINE
8
BLACK
6
CONTINUOUS
10
5.63561
20
-3.64124
11
5.63634
21
-3.64073
0
LINE
8
BLACK
6
CONTINUOUS
10
5.63634
20
-3.64073
11
5.63638
21
-3.64068
0
LINE
8
BLACK
6
CONTINUOUS
10
5.63638
20
-3.64068
11
5.64013
21
-3.63881
0
LINE
8
BLACK
6
CONTINUOUS
10
5.64013
20
-3.63881
11
5.64111
21
-3.63852
0
LINE
8
BLACK
6
CONTINUOUS
10
5.64111
20
-3.63852
11
5.64129
21
-3.63856
0
LINE
8
BLACK
6
CONTINUOUS
10
5.64129
20
-3.63856
11
5.64145
21
-3.6385
0
LINE
8
BLACK
6
CONTINUOUS
10
5.64145
20
-3.6385
11
5.64708
21
-3.6385
0
LINE
8
BLACK
6
CONTINUOUS
10
5.64708
20
-3.6385
11
5.64809
21
-3.63868
0
LINE
8
BLACK
6
CONTINUOUS
10
5.64215
20
-3.6444
11
5.63945
21
-3.64575
0
LINE
8
BLACK
6
CONTINUOUS
10
5.63945
20
-3.64575
11
5.63825
21
-3.64695
0
LINE
8
BLACK
6
CONTINUOUS
10
5.63825
20
-3.64695
11
5.6369
21
-3.64965
0
LINE
8
BLACK
6
CONTINUOUS
10
5.6369
20
-3.64965
11
5.6369
21
-3.661
0
LINE
8
BLACK
6
CONTINUOUS
10
5.6369
20
-3.661
11
5.65162
21
-3.661
0
LINE
8
BLACK
6
CONTINUOUS
10
5.65162
20
-3.661
11
5.65162
21
-3.64965
0
LINE
8
BLACK
6
CONTINUOUS
10
5.65162
20
-3.64965
11
5.65027
21
-3.64695
0
LINE
8
BLACK
6
CONTINUOUS
10
5.65027
20
-3.64695
11
5.64908
21
-3.64575
0
LINE
8
BLACK
6
CONTINUOUS
10
5.64908
20
-3.64575
11
5.64638
21
-3.6444
0
LINE
8
BLACK
6
CONTINUOUS
10
5.64638
20
-3.6444
11
5.64215
21
-3.6444
0
LINE
8
BLACK
6
CONTINUOUS
10
5.57735
20
-3.6569
11
5.56554
21
-3.64509
0
LINE
8
BLACK
6
CONTINUOUS
10
5.56554
20
-3.64509
11
5.56496
21
-3.6437
0
LINE
8
BLACK
6
CONTINUOUS
10
5.56496
20
-3.6437
11
5.56496
21
-3.57677
0
LINE
8
BLACK
6
CONTINUOUS
10
5.56496
20
-3.57677
11
5.56554
21
-3.57538
0
LINE
8
BLACK
6
CONTINUOUS
10
5.56554
20
-3.57538
11
5.56693
21
-3.5748
0
LINE
8
BLACK
6
CONTINUOUS
10
5.56693
20
-3.5748
11
5.61417
21
-3.5748
0
LINE
8
BLACK
6
CONTINUOUS
10
5.61417
20
-3.5748
11
5.61557
21
-3.57538
0
LINE
8
BLACK
6
CONTINUOUS
10
5.61557
20
-3.57538
11
5.61614
21
-3.57677
0
LINE
8
BLACK
6
CONTINUOUS
10
5.61614
20
-3.57677
11
5.61614
21
-3.65551
0
LINE
8
BLACK
6
CONTINUOUS
10
5.61614
20
-3.65551
11
5.61557
21
-3.6569
0
LINE
8
BLACK
6
CONTINUOUS
10
5.61557
20
-3.6569
11
5.61417
21
-3.65748
0
LINE
8
BLACK
6
CONTINUOUS
10
5.61417
20
-3.65748
11
5.57874
21
-3.65748
0
LINE
8
BLACK
6
CONTINUOUS
10
5.57874
20
-3.65748
11
5.57735
21
-3.6569
0
LINE
8
BLACK
6
CONTINUOUS
10
5.5689
20
-3.57874
11
5.5689
21
-3.64289
0
LINE
8
BLACK
6
CONTINUOUS
10
5.5689
20
-3.64289
11
5.57956
21
-3.65354
0
LINE
8
BLACK
6
CONTINUOUS
10
5.57956
20
-3.65354
11
5.6122
21
-3.65354
0
LINE
8
BLACK
6
CONTINUOUS
10
5.6122
20
-3.65354
11
5.6122
21
-3.57874
0
LINE
8
BLACK
6
CONTINUOUS
10
5.6122
20
-3.57874
11
5.5689
21
-3.57874
0
LINE
8
BLACK
6
CONTINUOUS
10
5.57866
20
-3.63178
11
5.5782
21
-3.63067
0
LINE
8
BLACK
6
CONTINUOUS
10
5.5782
20
-3.63067
11
5.5782
21
-3.62598
0
LINE
8
BLACK
6
CONTINUOUS
10
5.5782
20
-3.62598
11
5.5783
21
-3.62574
0
LINE
8
BLACK
6
CONTINUOUS
10
5.5783
20
-3.62574
11
5.57828
21
-3.62549
0
LINE
8
BLACK
6
CONTINUOUS
10
5.57828
20
-3.62549
11
5.57921
21
-3.62267
0
LINE
8
BLACK
6
CONTINUOUS
10
5.57921
20
-3.62267
11
5.57945
21
-3.6224
0
LINE
8
BLACK
6
CONTINUOUS
10
5.57945
20
-3.6224
11
5.5796
21
-3.62206
0
LINE
8
BLACK
6
CONTINUOUS
10
5.5796
20
-3.62206
11
5.58147
21
-3.62018
0
LINE
8
BLACK
6
CONTINUOUS
10
5.58147
20
-3.62018
11
5.58171
21
-3.62008
0
LINE
8
BLACK
6
CONTINUOUS
10
5.58171
20
-3.62008
11
5.58188
21
-3.61989
0
LINE
8
BLACK
6
CONTINUOUS
10
5.58188
20
-3.61989
11
5.58375
21
-3.61895
0
LINE
8
BLACK
6
CONTINUOUS
10
5.58375
20
-3.61895
11
5.58393
21
-3.61894
0
LINE
8
BLACK
6
CONTINUOUS
10
5.58393
20
-3.61894
11
5.58408
21
-3.61883
0
LINE
8
BLACK
6
CONTINUOUS
10
5.58408
20
-3.61883
11
5.58783
21
-3.61789
0
LINE
8
BLACK
6
CONTINUOUS
10
5.58783
20
-3.61789
11
5.58802
21
-3.61792
0
LINE
8
BLACK
6
CONTINUOUS
10
5.58802
20
-3.61792
11
5.58821
21
-3.61785
0
LINE
8
BLACK
6
CONTINUOUS
10
5.58821
20
-3.61785
11
5.59102
21
-3.61785
0
LINE
8
BLACK
6
CONTINUOUS
10
5.59102
20
-3.61785
11
5.5912
21
-3.61792
0
LINE
8
BLACK
6
CONTINUOUS
10
5.5912
20
-3.61792
11
5.5914
21
-3.61789
0
LINE
8
BLACK
6
CONTINUOUS
10
5.5914
20
-3.61789
11
5.59515
21
-3.61883
0
LINE
8
BLACK
6
CONTINUOUS
10
5.59515
20
-3.61883
11
5.5953
21
-3.61894
0
LINE
8
BLACK
6
CONTINUOUS
10
5.5953
20
-3.61894
11
5.59547
21
-3.61895
0
LINE
8
BLACK
6
CONTINUOUS
10
5.59547
20
-3.61895
11
5.59735
21
-3.61989
0
LINE
8
BLACK
6
CONTINUOUS
10
5.59735
20
-3.61989
11
5.59752
21
-3.62008
0
LINE
8
BLACK
6
CONTINUOUS
10
5.59752
20
-3.62008
11
5.59776
21
-3.62018
0
LINE
8
BLACK
6
CONTINUOUS
10
5.59776
20
-3.62018
11
5.59963
21
-3.62206
0
LINE
8
BLACK
6
CONTINUOUS
10
5.59963
20
-3.62206
11
5.59977
21
-3.6224
0
LINE
8
BLACK
6
CONTINUOUS
10
5.59977
20
-3.6224
11
5.60001
21
-3.62267
0
LINE
8
BLACK
6
CONTINUOUS
10
5.60001
20
-3.62267
11
5.60095
21
-3.62549
0
LINE
8
BLACK
6
CONTINUOUS
10
5.60095
20
-3.62549
11
5.60093
21
-3.62574
0
LINE
8
BLACK
6
CONTINUOUS
10
5.60093
20
-3.62574
11
5.60103
21
-3.62598
0
LINE
8
BLACK
6
CONTINUOUS
10
5.60103
20
-3.62598
11
5.60103
21
-3.63067
0
LINE
8
BLACK
6
CONTINUOUS
10
5.60103
20
-3.63067
11
5.60057
21
-3.63178
0
LINE
8
BLACK
6
CONTINUOUS
10
5.60057
20
-3.63178
11
5.59946
21
-3.63225
0
LINE
8
BLACK
6
CONTINUOUS
10
5.59946
20
-3.63225
11
5.57977
21
-3.63225
0
LINE
8
BLACK
6
CONTINUOUS
10
5.57977
20
-3.63225
11
5.57866
21
-3.63178
0
LINE
8
BLACK
6
CONTINUOUS
10
5.5884
20
-3.621
11
5.58501
21
-3.62185
0
LINE
8
BLACK
6
CONTINUOUS
10
5.58501
20
-3.62185
11
5.58352
21
-3.62259
0
LINE
8
BLACK
6
CONTINUOUS
10
5.58352
20
-3.62259
11
5.58209
21
-3.62402
0
LINE
8
BLACK
6
CONTINUOUS
10
5.58209
20
-3.62402
11
5.58135
21
-3.62624
0
LINE
8
BLACK
6
CONTINUOUS
10
5.58135
20
-3.62624
11
5.58135
21
-3.6291
0
LINE
8
BLACK
6
CONTINUOUS
10
5.58135
20
-3.6291
11
5.59788
21
-3.6291
0
LINE
8
BLACK
6
CONTINUOUS
10
5.59788
20
-3.6291
11
5.59788
21
-3.62624
0
LINE
8
BLACK
6
CONTINUOUS
10
5.59788
20
-3.62624
11
5.59714
21
-3.62402
0
LINE
8
BLACK
6
CONTINUOUS
10
5.59714
20
-3.62402
11
5.59571
21
-3.62259
0
LINE
8
BLACK
6
CONTINUOUS
10
5.59571
20
-3.62259
11
5.59422
21
-3.62185
0
LINE
8
BLACK
6
CONTINUOUS
10
5.59422
20
-3.62185
11
5.59083
21
-3.621
0
LINE
8
BLACK
6
CONTINUOUS
10
5.59083
20
-3.621
11
5.5884
21
-3.621
0
LINE
8
BLACK
6
CONTINUOUS
10
5.60057
20
-3.59956
11
5.60103
21
-3.60067
0
LINE
8
BLACK
6
CONTINUOUS
10
5.60103
20
-3.60067
11
5.60103
21
-3.61192
0
LINE
8
BLACK
6
CONTINUOUS
10
5.60103
20
-3.61192
11
5.60057
21
-3.61304
0
LINE
8
BLACK
6
CONTINUOUS
10
5.60057
20
-3.61304
11
5.59946
21
-3.6135
0
LINE
8
BLACK
6
CONTINUOUS
10
5.59946
20
-3.6135
11
5.59834
21
-3.61304
0
LINE
8
BLACK
6
CONTINUOUS
10
5.59834
20
-3.61304
11
5.59788
21
-3.61192
0
LINE
8
BLACK
6
CONTINUOUS
10
5.59788
20
-3.61192
11
5.59788
21
-3.60787
0
LINE
8
BLACK
6
CONTINUOUS
10
5.59788
20
-3.60787
11
5.58451
21
-3.60787
0
LINE
8
BLACK
6
CONTINUOUS
10
5.58451
20
-3.60787
11
5.58557
21
-3.60894
0
LINE
8
BLACK
6
CONTINUOUS
10
5.58557
20
-3.60894
11
5.58567
21
-3.60917
0
LINE
8
BLACK
6
CONTINUOUS
10
5.58567
20
-3.60917
11
5.58587
21
-3.60934
0
LINE
8
BLACK
6
CONTINUOUS
10
5.58587
20
-3.60934
11
5.5868
21
-3.61122
0
LINE
8
BLACK
6
CONTINUOUS
10
5.5868
20
-3.61122
11
5.58689
21
-3.61242
0
LINE
8
BLACK
6
CONTINUOUS
10
5.58689
20
-3.61242
11
5.5861
21
-3.61333
0
LINE
8
BLACK
6
CONTINUOUS
10
5.5861
20
-3.61333
11
5.5849
21
-3.61342
0
LINE
8
BLACK
6
CONTINUOUS
10
5.5849
20
-3.61342
11
5.58399
21
-3.61263
0
LINE
8
BLACK
6
CONTINUOUS
10
5.58399
20
-3.61263
11
5.58316
21
-3.61098
0
LINE
8
BLACK
6
CONTINUOUS
10
5.58316
20
-3.61098
11
5.58158
21
-3.6094
0
LINE
8
BLACK
6
CONTINUOUS
10
5.58158
20
-3.6094
11
5.5789
21
-3.60761
0
LINE
8
BLACK
6
CONTINUOUS
10
5.5789
20
-3.60761
11
5.57881
21
-3.60747
0
LINE
8
BLACK
6
CONTINUOUS
10
5.57881
20
-3.60747
11
5.57866
21
-3.60741
0
LINE
8
BLACK
6
CONTINUOUS
10
5.57866
20
-3.60741
11
5.57848
21
-3.60699
0
LINE
8
BLACK
6
CONTINUOUS
10
5.57848
20
-3.60699
11
5.57823
21
-3.60661
0
LINE
8
BLACK
6
CONTINUOUS
10
5.57823
20
-3.60661
11
5.57826
21
-3.60645
0
LINE
8
BLACK
6
CONTINUOUS
10
5.57826
20
-3.60645
11
5.5782
21
-3.6063
0
LINE
8
BLACK
6
CONTINUOUS
10
5.5782
20
-3.6063
11
5.57837
21
-3.60588
0
LINE
8
BLACK
6
CONTINUOUS
10
5.57837
20
-3.60588
11
5.57846
21
-3.60543
0
LINE
8
BLACK
6
CONTINUOUS
10
5.57846
20
-3.60543
11
5.5786
21
-3.60534
0
LINE
8
BLACK
6
CONTINUOUS
10
5.5786
20
-3.60534
11
5.57866
21
-3.60519
0
LINE
8
BLACK
6
CONTINUOUS
10
5.57866
20
-3.60519
11
5.57908
21
-3.60501
0
LINE
8
BLACK
6
CONTINUOUS
10
5.57908
20
-3.60501
11
5.57946
21
-3.60475
0
LINE
8
BLACK
6
CONTINUOUS
10
5.57946
20
-3.60475
11
5.57962
21
-3.60479
0
LINE
8
BLACK
6
CONTINUOUS
10
5.57962
20
-3.60479
11
5.57977
21
-3.60472
0
LINE
8
BLACK
6
CONTINUOUS
10
5.57977
20
-3.60472
11
5.59788
21
-3.60472
0
LINE
8
BLACK
6
CONTINUOUS
10
5.59788
20
-3.60472
11
5.59788
21
-3.60067
0
LINE
8
BLACK
6
CONTINUOUS
10
5.59788
20
-3.60067
11
5.59834
21
-3.59956
0
LINE
8
BLACK
6
CONTINUOUS
10
5.59834
20
-3.59956
11
5.59946
21
-3.5991
0
LINE
8
BLACK
6
CONTINUOUS
10
5.59946
20
-3.5991
11
5.60057
21
-3.59956
0
LINE
8
BLACK
6
CONTINUOUS
10
5.67558
20
-3.60393
11
5.67627
21
-3.60583
0
LINE
8
BLACK
6
CONTINUOUS
10
5.67627
20
-3.60583
11
5.67627
21
-3.62458
0
LINE
8
BLACK
6
CONTINUOUS
10
5.67627
20
-3.62458
11
5.67621
21
-3.62496
0
LINE
8
BLACK
6
CONTINUOUS
10
5.67621
20
-3.62496
11
5.67623
21
-3.62509
0
LINE
8
BLACK
6
CONTINUOUS
10
5.67623
20
-3.62509
11
5.67616
21
-3.6252
0
LINE
8
BLACK
6
CONTINUOUS
10
5.67616
20
-3.6252
11
5.6761
21
-3.62559
0
LINE
8
BLACK
6
CONTINUOUS
10
5.6761
20
-3.62559
11
5.6756
21
-3.62618
0
LINE
8
BLACK
6
CONTINUOUS
10
5.6756
20
-3.62618
11
5.67522
21
-3.62684
0
LINE
8
BLACK
6
CONTINUOUS
10
5.67522
20
-3.62684
11
5.67497
21
-3.62693
0
LINE
8
BLACK
6
CONTINUOUS
10
5.67497
20
-3.62693
11
5.6748
21
-3.62714
0
LINE
8
BLACK
6
CONTINUOUS
10
5.6748
20
-3.62714
11
5.67404
21
-3.62727
0
LINE
8
BLACK
6
CONTINUOUS
10
5.67404
20
-3.62727
11
5.67332
21
-3.62753
0
LINE
8
BLACK
6
CONTINUOUS
10
5.67332
20
-3.62753
11
5.63395
21
-3.62753
0
LINE
8
BLACK
6
CONTINUOUS
10
5.63395
20
-3.62753
11
5.63357
21
-3.62746
0
LINE
8
BLACK
6
CONTINUOUS
10
5.63357
20
-3.62746
11
5.63344
21
-3.62749
0
LINE
8
BLACK
6
CONTINUOUS
10
5.63344
20
-3.62749
11
5.63333
21
-3.62742
0
LINE
8
BLACK
6
CONTINUOUS
10
5.63333
20
-3.62742
11
5.63294
21
-3.62735
0
LINE
8
BLACK
6
CONTINUOUS
10
5.63294
20
-3.62735
11
5.63235
21
-3.62686
0
LINE
8
BLACK
6
CONTINUOUS
10
5.63235
20
-3.62686
11
5.63169
21
-3.62648
0
LINE
8
BLACK
6
CONTINUOUS
10
5.63169
20
-3.62648
11
5.6316
21
-3.62623
0
LINE
8
BLACK
6
CONTINUOUS
10
5.6316
20
-3.62623
11
5.63139
21
-3.62605
0
LINE
8
BLACK
6
CONTINUOUS
10
5.63139
20
-3.62605
11
5.63126
21
-3.6253
0
LINE
8
BLACK
6
CONTINUOUS
10
5.63126
20
-3.6253
11
5.631
21
-3.62458
0
LINE
8
BLACK
6
CONTINUOUS
10
5.631
20
-3.62458
11
5.631
21
-3.60583
0
LINE
8
BLACK
6
CONTINUOUS
10
5.631
20
-3.60583
11
5.63118
21
-3.60482
0
LINE
8
BLACK
6
CONTINUOUS
10
5.63118
20
-3.60482
11
5.63248
21
-3.60327
0
LINE
8
BLACK
6
CONTINUOUS
10
5.63248
20
-3.60327
11
5.63446
21
-3.60292
0
LINE
8
BLACK
6
CONTINUOUS
10
5.63446
20
-3.60292
11
5.63621
21
-3.60393
0
LINE
8
BLACK
6
CONTINUOUS
10
5.63621
20
-3.60393
11
5.6369
21
-3.60583
0
LINE
8
BLACK
6
CONTINUOUS
10
5.6369
20
-3.60583
11
5.6369
21
-3.62163
0
LINE
8
BLACK
6
CONTINUOUS
10
5.6369
20
-3.62163
11
5.64975
21
-3.62163
0
LINE
8
BLACK
6
CONTINUOUS
10
5.64975
20
-3.62163
11
5.64975
21
-3.61145
0
LINE
8
BLACK
6
CONTINUOUS
10
5.64975
20
-3.61145
11
5.64992
21
-3.61044
0
LINE
8
BLACK
6
CONTINUOUS
10
5.64992
20
-3.61044
11
5.65122
21
-3.6089
0
LINE
8
BLACK
6
CONTINUOUS
10
5.65122
20
-3.6089
11
5.65321
21
-3.60855
0
LINE
8
BLACK
6
CONTINUOUS
10
5.65321
20
-3.60855
11
5.65496
21
-3.60956
0
LINE
8
BLACK
6
CONTINUOUS
10
5.65496
20
-3.60956
11
5.65565
21
-3.61145
0
LINE
8
BLACK
6
CONTINUOUS
10
5.65565
20
-3.61145
11
5.65565
21
-3.62163
0
LINE
8
BLACK
6
CONTINUOUS
10
5.65565
20
-3.62163
11
5.67037
21
-3.62163
0
LINE
8
BLACK
6
CONTINUOUS
10
5.67037
20
-3.62163
11
5.67037
21
-3.60583
0
LINE
8
BLACK
6
CONTINUOUS
10
5.67037
20
-3.60583
11
5.67055
21
-3.60482
0
LINE
8
BLACK
6
CONTINUOUS
10
5.67055
20
-3.60482
11
5.67185
21
-3.60327
0
LINE
8
BLACK
6
CONTINUOUS
10
5.67185
20
-3.60327
11
5.67383
21
-3.60292
0
LINE
8
BLACK
6
CONTINUOUS
10
5.67383
20
-3.60292
11
5.67558
21
-3.60393
0
LINE
8
BLACK
6
CONTINUOUS
10
5.15425
20
-3.60521
11
5.1558
21
-3.60651
0
LINE
8
BLACK
6
CONTINUOUS
10
5.1558
20
-3.60651
11
5.15615
21
-3.6085
0
LINE
8
BLACK
6
CONTINUOUS
10
5.15615
20
-3.6085
11
5.15514
21
-3.61025
0
LINE
8
BLACK
6
CONTINUOUS
10
5.15514
20
-3.61025
11
5.15324
21
-3.61094
0
LINE
8
BLACK
6
CONTINUOUS
10
5.15324
20
-3.61094
11
5.11387
21
-3.61094
0
LINE
8
BLACK
6
CONTINUOUS
10
5.11387
20
-3.61094
11
5.11286
21
-3.61076
0
LINE
8
BLACK
6
CONTINUOUS
10
5.11286
20
-3.61076
11
5.11132
21
-3.60946
0
LINE
8
BLACK
6
CONTINUOUS
10
5.11132
20
-3.60946
11
5.11097
21
-3.60747
0
LINE
8
BLACK
6
CONTINUOUS
10
5.11097
20
-3.60747
11
5.11198
21
-3.60572
0
LINE
8
BLACK
6
CONTINUOUS
10
5.11198
20
-3.60572
11
5.11387
21
-3.60503
0
LINE
8
BLACK
6
CONTINUOUS
10
5.11387
20
-3.60503
11
5.15324
21
-3.60503
0
LINE
8
BLACK
6
CONTINUOUS
10
5.15324
20
-3.60503
11
5.15425
21
-3.60521
0
LINE
8
BLACK
6
CONTINUOUS
10
5.15425
20
-3.56959
11
5.1558
21
-3.57089
0
LINE
8
BLACK
6
CONTINUOUS
10
5.1558
20
-3.57089
11
5.15615
21
-3.57288
0
LINE
8
BLACK
6
CONTINUOUS
10
5.15615
20
-3.57288
11
5.15514
21
-3.57463
0
LINE
8
BLACK
6
CONTINUOUS
10
5.15514
20
-3.57463
11
5.15324
21
-3.57532
0
LINE
8
BLACK
6
CONTINUOUS
10
5.15324
20
-3.57532
11
5.13332
21
-3.57532
0
LINE
8
BLACK
6
CONTINUOUS
10
5.13332
20
-3.57532
11
5.13107
21
-3.57644
0
LINE
8
BLACK
6
CONTINUOUS
10
5.13107
20
-3.57644
11
5.12995
21
-3.57869
0
LINE
8
BLACK
6
CONTINUOUS
10
5.12995
20
-3.57869
11
5.12995
21
-3.58292
0
LINE
8
BLACK
6
CONTINUOUS
10
5.12995
20
-3.58292
11
5.1313
21
-3.58561
0
LINE
8
BLACK
6
CONTINUOUS
10
5.1313
20
-3.58561
11
5.13197
21
-3.58629
0
LINE
8
BLACK
6
CONTINUOUS
10
5.13197
20
-3.58629
11
5.15324
21
-3.58629
0
LINE
8
BLACK
6
CONTINUOUS
10
5.15324
20
-3.58629
11
5.15425
21
-3.58646
0
LINE
8
BLACK
6
CONTINUOUS
10
5.15425
20
-3.58646
11
5.1558
21
-3.58776
0
LINE
8
BLACK
6
CONTINUOUS
10
5.1558
20
-3.58776
11
5.15615
21
-3.58975
0
LINE
8
BLACK
6
CONTINUOUS
10
5.15615
20
-3.58975
11
5.15514
21
-3.5915
0
LINE
8
BLACK
6
CONTINUOUS
10
5.15514
20
-3.5915
11
5.15324
21
-3.59219
0
LINE
8
BLACK
6
CONTINUOUS
10
5.15324
20
-3.59219
11
5.127
21
-3.59219
0
LINE
8
BLACK
6
CONTINUOUS
10
5.127
20
-3.59219
11
5.12599
21
-3.59201
0
LINE
8
BLACK
6
CONTINUOUS
10
5.12599
20
-3.59201
11
5.12444
21
-3.59072
0
LINE
8
BLACK
6
CONTINUOUS
10
5.12444
20
-3.59072
11
5.12409
21
-3.58873
0
LINE
8
BLACK
6
CONTINUOUS
10
5.12409
20
-3.58873
11
5.1251
21
-3.58698
0
LINE
8
BLACK
6
CONTINUOUS
10
5.1251
20
-3.58698
11
5.12533
21
-3.58689
0
LINE
8
BLACK
6
CONTINUOUS
10
5.12533
20
-3.58689
11
5.12436
21
-3.58494
0
LINE
8
BLACK
6
CONTINUOUS
10
5.12436
20
-3.58494
11
5.12406
21
-3.58395
0
LINE
8
BLACK
6
CONTINUOUS
10
5.12406
20
-3.58395
11
5.1241
21
-3.58378
0
LINE
8
BLACK
6
CONTINUOUS
10
5.1241
20
-3.58378
11
5.12404
21
-3.58361
0
LINE
8
BLACK
6
CONTINUOUS
10
5.12404
20
-3.58361
11
5.12404
21
-3.57799
0
LINE
8
BLACK
6
CONTINUOUS
10
5.12404
20
-3.57799
11
5.12422
21
-3.57698
0
LINE
8
BLACK
6
CONTINUOUS
10
5.12422
20
-3.57698
11
5.12434
21
-3.57685
0
LINE
8
BLACK
6
CONTINUOUS
10
5.12434
20
-3.57685
11
5.12436
21
-3.57667
0
LINE
8
BLACK
6
CONTINUOUS
10
5.12436
20
-3.57667
11
5.12623
21
-3.57292
0
LINE
8
BLACK
6
CONTINUOUS
10
5.12623
20
-3.57292
11
5.12684
21
-3.5721
0
LINE
8
BLACK
6
CONTINUOUS
10
5.12684
20
-3.5721
11
5.12725
21
-3.57192
0
LINE
8
BLACK
6
CONTINUOUS
10
5.12725
20
-3.57192
11
5.12755
21
-3.5716
0
LINE
8
BLACK
6
CONTINUOUS
10
5.12755
20
-3.5716
11
5.1313
21
-3.56972
0
LINE
8
BLACK
6
CONTINUOUS
10
5.1313
20
-3.56972
11
5.13228
21
-3.56943
0
LINE
8
BLACK
6
CONTINUOUS
10
5.13228
20
-3.56943
11
5.13246
21
-3.56947
0
LINE
8
BLACK
6
CONTINUOUS
10
5.13246
20
-3.56947
11
5.13262
21
-3.56941
0
LINE
8
BLACK
6
CONTINUOUS
10
5.13262
20
-3.56941
11
5.15324
21
-3.56941
0
LINE
8
BLACK
6
CONTINUOUS
10
5.15324
20
-3.56941
11
5.15425
21
-3.56959
0
LINE
8
BLACK
6
CONTINUOUS
10
5.65703
20
-3.56361
11
5.65717
21
-3.5636
0
LINE
8
BLACK
6
CONTINUOUS
10
5.65717
20
-3.5636
11
5.66466
21
-3.56547
0
LINE
8
BLACK
6
CONTINUOUS
10
5.66466
20
-3.56547
11
5.66513
21
-3.56568
0
LINE
8
BLACK
6
CONTINUOUS
10
5.66513
20
-3.56568
11
5.66527
21
-3.56569
0
LINE
8
BLACK
6
CONTINUOUS
10
5.66527
20
-3.56569
11
5.66902
21
-3.56757
0
LINE
8
BLACK
6
CONTINUOUS
10
5.66902
20
-3.56757
11
5.66973
21
-3.56809
0
LINE
8
BLACK
6
CONTINUOUS
10
5.66973
20
-3.56809
11
5.66979
21
-3.56812
0
LINE
8
BLACK
6
CONTINUOUS
10
5.66979
20
-3.56812
11
5.67354
21
-3.57187
0
LINE
8
BLACK
6
CONTINUOUS
10
5.67354
20
-3.57187
11
5.67412
21
-3.57271
0
LINE
8
BLACK
6
CONTINUOUS
10
5.67412
20
-3.57271
11
5.67414
21
-3.57289
0
LINE
8
BLACK
6
CONTINUOUS
10
5.67414
20
-3.57289
11
5.67425
21
-3.57303
0
LINE
8
BLACK
6
CONTINUOUS
10
5.67425
20
-3.57303
11
5.67612
21
-3.57865
0
LINE
8
BLACK
6
CONTINUOUS
10
5.67612
20
-3.57865
11
5.67625
21
-3.57952
0
LINE
8
BLACK
6
CONTINUOUS
10
5.67625
20
-3.57952
11
5.67627
21
-3.57958
0
LINE
8
BLACK
6
CONTINUOUS
10
5.67627
20
-3.57958
11
5.67627
21
-3.58896
0
LINE
8
BLACK
6
CONTINUOUS
10
5.67627
20
-3.58896
11
5.67621
21
-3.58934
0
LINE
8
BLACK
6
CONTINUOUS
10
5.67621
20
-3.58934
11
5.67623
21
-3.58947
0
LINE
8
BLACK
6
CONTINUOUS
10
5.67623
20
-3.58947
11
5.67616
21
-3.58958
0
LINE
8
BLACK
6
CONTINUOUS
10
5.67616
20
-3.58958
11
5.6761
21
-3.58997
0
LINE
8
BLACK
6
CONTINUOUS
10
5.6761
20
-3.58997
11
5.6756
21
-3.59056
0
LINE
8
BLACK
6
CONTINUOUS
10
5.6756
20
-3.59056
11
5.67522
21
-3.59122
0
LINE
8
BLACK
6
CONTINUOUS
10
5.67522
20
-3.59122
11
5.67497
21
-3.59131
0
LINE
8
BLACK
6
CONTINUOUS
10
5.67497
20
-3.59131
11
5.6748
21
-3.59151
0
LINE
8
BLACK
6
CONTINUOUS
10
5.6748
20
-3.59151
11
5.67404
21
-3.59165
0
LINE
8
BLACK
6
CONTINUOUS
10
5.67404
20
-3.59165
11
5.67332
21
-3.59191
0
LINE
8
BLACK
6
CONTINUOUS
10
5.67332
20
-3.59191
11
5.63395
21
-3.59191
0
LINE
8
BLACK
6
CONTINUOUS
10
5.63395
20
-3.59191
11
5.63357
21
-3.59184
0
LINE
8
BLACK
6
CONTINUOUS
10
5.63357
20
-3.59184
11
5.63344
21
-3.59187
0
LINE
8
BLACK
6
CONTINUOUS
10
5.63344
20
-3.59187
11
5.63333
21
-3.5918
0
LINE
8
BLACK
6
CONTINUOUS
10
5.63333
20
-3.5918
11
5.63294
21
-3.59173
0
LINE
8
BLACK
6
CONTINUOUS
10
5.63294
20
-3.59173
11
5.63235
21
-3.59124
0
LINE
8
BLACK
6
CONTINUOUS
10
5.63235
20
-3.59124
11
5.63169
21
-3.59086
0
LINE
8
BLACK
6
CONTINUOUS
10
5.63169
20
-3.59086
11
5.6316
21
-3.59061
0
LINE
8
BLACK
6
CONTINUOUS
10
5.6316
20
-3.59061
11
5.63139
21
-3.59043
0
LINE
8
BLACK
6
CONTINUOUS
10
5.63139
20
-3.59043
11
5.63126
21
-3.58968
0
LINE
8
BLACK
6
CONTINUOUS
10
5.63126
20
-3.58968
11
5.631
21
-3.58896
0
LINE
8
BLACK
6
CONTINUOUS
10
5.631
20
-3.58896
11
5.631
21
-3.57958
0
LINE
8
BLACK
6
CONTINUOUS
10
5.631
20
-3.57958
11
5.63115
21
-3.57871
0
LINE
8
BLACK
6
CONTINUOUS
10
5.63115
20
-3.57871
11
5.63115
21
-3.57865
0
LINE
8
BLACK
6
CONTINUOUS
10
5.63115
20
-3.57865
11
5.63303
21
-3.57303
0
LINE
8
BLACK
6
CONTINUOUS
10
5.63303
20
-3.57303
11
5.63351
21
-3.57212
0
LINE
8
BLACK
6
CONTINUOUS
10
5.63351
20
-3.57212
11
5.63366
21
-3.57203
0
LINE
8
BLACK
6
CONTINUOUS
10
5.63366
20
-3.57203
11
5.63374
21
-3.57187
0
LINE
8
BLACK
6
CONTINUOUS
10
5.63374
20
-3.57187
11
5.63749
21
-3.56812
0
LINE
8
BLACK
6
CONTINUOUS
10
5.63749
20
-3.56812
11
5.63821
21
-3.56762
0
LINE
8
BLACK
6
CONTINUOUS
10
5.63821
20
-3.56762
11
5.63826
21
-3.56757
0
LINE
8
BLACK
6
CONTINUOUS
10
5.63826
20
-3.56757
11
5.64201
21
-3.56569
0
LINE
8
BLACK
6
CONTINUOUS
10
5.64201
20
-3.56569
11
5.64249
21
-3.56555
0
LINE
8
BLACK
6
CONTINUOUS
10
5.64249
20
-3.56555
11
5.64261
21
-3.56547
0
LINE
8
BLACK
6
CONTINUOUS
10
5.64261
20
-3.56547
11
5.65011
21
-3.5636
0
LINE
8
BLACK
6
CONTINUOUS
10
5.65011
20
-3.5636
11
5.6507
21
-3.56355
0
LINE
8
BLACK
6
CONTINUOUS
10
5.6507
20
-3.56355
11
5.65082
21
-3.56351
0
LINE
8
BLACK
6
CONTINUOUS
10
5.65082
20
-3.56351
11
5.65645
21
-3.56351
0
LINE
8
BLACK
6
CONTINUOUS
10
5.65645
20
-3.56351
11
5.65703
21
-3.56361
0
LINE
8
BLACK
6
CONTINUOUS
10
5.65119
20
-3.56941
11
5.64436
21
-3.57112
0
LINE
8
BLACK
6
CONTINUOUS
10
5.64436
20
-3.57112
11
5.64133
21
-3.57264
0
LINE
8
BLACK
6
CONTINUOUS
10
5.64133
20
-3.57264
11
5.63841
21
-3.57555
0
LINE
8
BLACK
6
CONTINUOUS
10
5.63841
20
-3.57555
11
5.6369
21
-3.58006
0
LINE
8
BLACK
6
CONTINUOUS
10
5.6369
20
-3.58006
11
5.6369
21
-3.586
0
LINE
8
BLACK
6
CONTINUOUS
10
5.6369
20
-3.586
11
5.67037
21
-3.586
0
LINE
8
BLACK
6
CONTINUOUS
10
5.67037
20
-3.586
11
5.67037
21
-3.58006
0
LINE
8
BLACK
6
CONTINUOUS
10
5.67037
20
-3.58006
11
5.66887
21
-3.57555
0
LINE
8
BLACK
6
CONTINUOUS
10
5.66887
20
-3.57555
11
5.66595
21
-3.57264
0
LINE
8
BLACK
6
CONTINUOUS
10
5.66595
20
-3.57264
11
5.66292
21
-3.57112
0
LINE
8
BLACK
6
CONTINUOUS
10
5.66292
20
-3.57112
11
5.65609
21
-3.56941
0
LINE
8
BLACK
6
CONTINUOUS
10
5.65609
20
-3.56941
11
5.65119
21
-3.56941
0
LINE
8
BLACK
6
CONTINUOUS
10
5.14675
20
-3.5321
11
5.14689
21
-3.53221
0
LINE
8
BLACK
6
CONTINUOUS
10
5.14689
20
-3.53221
11
5.14706
21
-3.53223
0
LINE
8
BLACK
6
CONTINUOUS
10
5.14706
20
-3.53223
11
5.15081
21
-3.5341
0
LINE
8
BLACK
6
CONTINUOUS
10
5.15081
20
-3.5341
11
5.15152
21
-3.53463
0
LINE
8
BLACK
6
CONTINUOUS
10
5.15152
20
-3.53463
11
5.15158
21
-3.53466
0
LINE
8
BLACK
6
CONTINUOUS
10
5.15158
20
-3.53466
11
5.15346
21
-3.53653
0
LINE
8
BLACK
6
CONTINUOUS
10
5.15346
20
-3.53653
11
5.15396
21
-3.53726
0
LINE
8
BLACK
6
CONTINUOUS
10
5.15396
20
-3.53726
11
5.15401
21
-3.5373
0
LINE
8
BLACK
6
CONTINUOUS
10
5.15401
20
-3.5373
11
5.15588
21
-3.54105
0
LINE
8
BLACK
6
CONTINUOUS
10
5.15588
20
-3.54105
11
5.15618
21
-3.54203
0
LINE
8
BLACK
6
CONTINUOUS
10
5.15618
20
-3.54203
11
5.15614
21
-3.5422
0
LINE
8
BLACK
6
CONTINUOUS
10
5.15614
20
-3.5422
11
5.1562
21
-3.54237
0
LINE
8
BLACK
6
CONTINUOUS
10
5.1562
20
-3.54237
11
5.1562
21
-3.54987
0
LINE
8
BLACK
6
CONTINUOUS
10
5.1562
20
-3.54987
11
5.15606
21
-3.55067
0
LINE
8
BLACK
6
CONTINUOUS
10
5.15606
20
-3.55067
11
5.16637
21
-3.55067
0
LINE
8
BLACK
6
CONTINUOUS
10
5.16637
20
-3.55067
11
5.16738
21
-3.55084
0
LINE
8
BLACK
6
CONTINUOUS
10
5.16738
20
-3.55084
11
5.16892
21
-3.55214
0
LINE
8
BLACK
6
CONTINUOUS
10
5.16892
20
-3.55214
11
5.16927
21
-3.55413
0
LINE
8
BLACK
6
CONTINUOUS
10
5.16927
20
-3.55413
11
5.16826
21
-3.55588
0
LINE
8
BLACK
6
CONTINUOUS
10
5.16826
20
-3.55588
11
5.16637
21
-3.55657
0
LINE
8
BLACK
6
CONTINUOUS
10
5.16637
20
-3.55657
11
5.127
21
-3.55657
0
LINE
8
BLACK
6
CONTINUOUS
10
5.127
20
-3.55657
11
5.12599
21
-3.55639
0
LINE
8
BLACK
6
CONTINUOUS
10
5.12599
20
-3.55639
11
5.12444
21
-3.55509
0
LINE
8
BLACK
6
CONTINUOUS
10
5.12444
20
-3.55509
11
5.12409
21
-3.55311
0
LINE
8
BLACK
6
CONTINUOUS
10
5.12409
20
-3.55311
11
5.12475
21
-3.55197
0
LINE
8
BLACK
6
CONTINUOUS
10
5.12475
20
-3.55197
11
5.12436
21
-3.55119
0
LINE
8
BLACK
6
CONTINUOUS
10
5.12436
20
-3.55119
11
5.12406
21
-3.55021
0
LINE
8
BLACK
6
CONTINUOUS
10
5.12406
20
-3.55021
11
5.1241
21
-3.55003
0
LINE
8
BLACK
6
CONTINUOUS
10
5.1241
20
-3.55003
11
5.12404
21
-3.54987
0
LINE
8
BLACK
6
CONTINUOUS
10
5.12404
20
-3.54987
11
5.12404
21
-3.54237
0
LINE
8
BLACK
6
CONTINUOUS
10
5.12404
20
-3.54237
11
5.12422
21
-3.54136
0
LINE
8
BLACK
6
CONTINUOUS
10
5.12422
20
-3.54136
11
5.12434
21
-3.54122
0
LINE
8
BLACK
6
CONTINUOUS
10
5.12434
20
-3.54122
11
5.12436
21
-3.54105
0
LINE
8
BLACK
6
CONTINUOUS
10
5.12436
20
-3.54105
11
5.12623
21
-3.5373
0
LINE
8
BLACK
6
CONTINUOUS
10
5.12623
20
-3.5373
11
5.12676
21
-3.53659
0
LINE
8
BLACK
6
CONTINUOUS
10
5.12676
20
-3.53659
11
5.12678
21
-3.53653
0
LINE
8
BLACK
6
CONTINUOUS
10
5.12678
20
-3.53653
11
5.12866
21
-3.53466
0
LINE
8
BLACK
6
CONTINUOUS
10
5.12866
20
-3.53466
11
5.12938
21
-3.53415
0
LINE
8
BLACK
6
CONTINUOUS
10
5.12938
20
-3.53415
11
5.12943
21
-3.5341
0
LINE
8
BLACK
6
CONTINUOUS
10
5.12943
20
-3.5341
11
5.13318
21
-3.53223
0
LINE
8
BLACK
6
CONTINUOUS
10
5.13318
20
-3.53223
11
5.13416
21
-3.53194
0
LINE
8
BLACK
6
CONTINUOUS
10
5.13416
20
-3.53194
11
5.13433
21
-3.53198
0
LINE
8
BLACK
6
CONTINUOUS
10
5.13433
20
-3.53198
11
5.1345
21
-3.53192
0
LINE
8
BLACK
6
CONTINUOUS
10
5.1345
20
-3.53192
11
5.14574
21
-3.53192
0
LINE
8
BLACK
6
CONTINUOUS
10
5.14574
20
-3.53192
11
5.14675
21
-3.5321
0
LINE
8
BLACK
6
CONTINUOUS
10
5.13519
20
-3.53782
11
5.1325
21
-3.53917
0
LINE
8
BLACK
6
CONTINUOUS
10
5.1325
20
-3.53917
11
5.1313
21
-3.54037
0
LINE
8
BLACK
6
CONTINUOUS
10
5.1313
20
-3.54037
11
5.12995
21
-3.54307
0
LINE
8
BLACK
6
CONTINUOUS
10
5.12995
20
-3.54307
11
5.12995
21
-3.54917
0
LINE
8
BLACK
6
CONTINUOUS
10
5.12995
20
-3.54917
11
5.1307
21
-3.55067
0
LINE
8
BLACK
6
CONTINUOUS
10
5.1307
20
-3.55067
11
5.14954
21
-3.55067
0
LINE
8
BLACK
6
CONTINUOUS
10
5.14954
20
-3.55067
11
5.15029
21
-3.54917
0
LINE
8
BLACK
6
CONTINUOUS
10
5.15029
20
-3.54917
11
5.15029
21
-3.54307
0
LINE
8
BLACK
6
CONTINUOUS
10
5.15029
20
-3.54307
11
5.14894
21
-3.54037
0
LINE
8
BLACK
6
CONTINUOUS
10
5.14894
20
-3.54037
11
5.14774
21
-3.53917
0
LINE
8
BLACK
6
CONTINUOUS
10
5.14774
20
-3.53917
11
5.14505
21
-3.53782
0
LINE
8
BLACK
6
CONTINUOUS
10
5.14505
20
-3.53782
11
5.13519
21
-3.53782
0
LINE
8
BLACK
6
CONTINUOUS
10
5.54566
20
-3.5086
11
5.54635
21
-3.5105
0
LINE
8
BLACK
6
CONTINUOUS
10
5.54635
20
-3.5105
11
5.54635
21
-3.533
0
LINE
8
BLACK
6
CONTINUOUS
10
5.54635
20
-3.533
11
5.54618
21
-3.53401
0
LINE
8
BLACK
6
CONTINUOUS
10
5.54618
20
-3.53401
11
5.54488
21
-3.53555
0
LINE
8
BLACK
6
CONTINUOUS
10
5.54488
20
-3.53555
11
5.54289
21
-3.5359
0
LINE
8
BLACK
6
CONTINUOUS
10
5.54289
20
-3.5359
11
5.54114
21
-3.53489
0
LINE
8
BLACK
6
CONTINUOUS
10
5.54114
20
-3.53489
11
5.54045
21
-3.533
0
LINE
8
BLACK
6
CONTINUOUS
10
5.54045
20
-3.533
11
5.54045
21
-3.5247
0
LINE
8
BLACK
6
CONTINUOUS
10
5.54045
20
-3.5247
11
5.51303
21
-3.5247
0
LINE
8
BLACK
6
CONTINUOUS
10
5.51303
20
-3.5247
11
5.51549
21
-3.52716
0
LINE
8
BLACK
6
CONTINUOUS
10
5.51549
20
-3.52716
11
5.516
21
-3.52788
0
LINE
8
BLACK
6
CONTINUOUS
10
5.516
20
-3.52788
11
5.51605
21
-3.52793
0
LINE
8
BLACK
6
CONTINUOUS
10
5.51605
20
-3.52793
11
5.51792
21
-3.53168
0
LINE
8
BLACK
6
CONTINUOUS
10
5.51792
20
-3.53168
11
5.51821
21
-3.53266
0
LINE
8
BLACK
6
CONTINUOUS
10
5.51821
20
-3.53266
11
5.51774
21
-3.53462
0
LINE
8
BLACK
6
CONTINUOUS
10
5.51774
20
-3.53462
11
5.51612
21
-3.53583
0
LINE
8
BLACK
6
CONTINUOUS
10
5.51612
20
-3.53583
11
5.5141
21
-3.53571
0
LINE
8
BLACK
6
CONTINUOUS
10
5.5141
20
-3.53571
11
5.51264
21
-3.53432
0
LINE
8
BLACK
6
CONTINUOUS
10
5.51264
20
-3.53432
11
5.51098
21
-3.531
0
LINE
8
BLACK
6
CONTINUOUS
10
5.51098
20
-3.531
11
5.50777
21
-3.52779
0
LINE
8
BLACK
6
CONTINUOUS
10
5.50777
20
-3.52779
11
5.50239
21
-3.5242
0
LINE
8
BLACK
6
CONTINUOUS
10
5.50239
20
-3.5242
11
5.50165
21
-3.5235
0
LINE
8
BLACK
6
CONTINUOUS
10
5.50165
20
-3.5235
11
5.5016
21
-3.52333
0
LINE
8
BLACK
6
CONTINUOUS
10
5.5016
20
-3.52333
11
5.50147
21
-3.52322
0
LINE
8
BLACK
6
CONTINUOUS
10
5.50147
20
-3.52322
11
5.50132
21
-3.52238
0
LINE
8
BLACK
6
CONTINUOUS
10
5.50132
20
-3.52238
11
5.50108
21
-3.52156
0
LINE
8
BLACK
6
CONTINUOUS
10
5.50108
20
-3.52156
11
5.50115
21
-3.5214
0
LINE
8
BLACK
6
CONTINUOUS
10
5.50115
20
-3.5214
11
5.50112
21
-3.52123
0
LINE
8
BLACK
6
CONTINUOUS
10
5.50112
20
-3.52123
11
5.50155
21
-3.52049
0
LINE
8
BLACK
6
CONTINUOUS
10
5.50155
20
-3.52049
11
5.5019
21
-3.51971
0
LINE
8
BLACK
6
CONTINUOUS
10
5.5019
20
-3.51971
11
5.50205
21
-3.51963
0
LINE
8
BLACK
6
CONTINUOUS
10
5.50205
20
-3.51963
11
5.50213
21
-3.51949
0
LINE
8
BLACK
6
CONTINUOUS
10
5.50213
20
-3.51949
11
5.50294
21
-3.51919
0
LINE
8
BLACK
6
CONTINUOUS
10
5.50294
20
-3.51919
11
5.50371
21
-3.51881
0
LINE
8
BLACK
6
CONTINUOUS
10
5.50371
20
-3.51881
11
5.50387
21
-3.51885
0
LINE
8
BLACK
6
CONTINUOUS
10
5.50387
20
-3.51885
11
5.50403
21
-3.51879
0
LINE
8
BLACK
6
CONTINUOUS
10
5.50403
20
-3.51879
11
5.54045
21
-3.51879
0
LINE
8
BLACK
6
CONTINUOUS
10
5.54045
20
-3.51879
11
5.54045
21
-3.5105
0
LINE
8
BLACK
6
CONTINUOUS
10
5.54045
20
-3.5105
11
5.54063
21
-3.50949
0
LINE
8
BLACK
6
CONTINUOUS
10
5.54063
20
-3.50949
11
5.54192
21
-3.50794
0
LINE
8
BLACK
6
CONTINUOUS
10
5.54192
20
-3.50794
11
5.54391
21
-3.50759
0
LINE
8
BLACK
6
CONTINUOUS
10
5.54391
20
-3.50759
11
5.54566
21
-3.5086
0
LINE
8
BLACK
6
CONTINUOUS
10
5.15425
20
-3.49835
11
5.1558
21
-3.49965
0
LINE
8
BLACK
6
CONTINUOUS
10
5.1558
20
-3.49965
11
5.15615
21
-3.50164
0
LINE
8
BLACK
6
CONTINUOUS
10
5.15615
20
-3.50164
11
5.15514
21
-3.50339
0
LINE
8
BLACK
6
CONTINUOUS
10
5.15514
20
-3.50339
11
5.15491
21
-3.50347
0
LINE
8
BLACK
6
CONTINUOUS
10
5.15491
20
-3.50347
11
5.15588
21
-3.50543
0
LINE
8
BLACK
6
CONTINUOUS
10
5.15588
20
-3.50543
11
5.15618
21
-3.50641
0
LINE
8
BLACK
6
CONTINUOUS
10
5.15618
20
-3.50641
11
5.15614
21
-3.50658
0
LINE
8
BLACK
6
CONTINUOUS
10
5.15614
20
-3.50658
11
5.1562
21
-3.50675
0
LINE
8
BLACK
6
CONTINUOUS
10
5.1562
20
-3.50675
11
5.1562
21
-3.51237
0
LINE
8
BLACK
6
CONTINUOUS
10
5.1562
20
-3.51237
11
5.15602
21
-3.51338
0
LINE
8
BLACK
6
CONTINUOUS
10
5.15602
20
-3.51338
11
5.1559
21
-3.51352
0
LINE
8
BLACK
6
CONTINUOUS
10
5.1559
20
-3.51352
11
5.15588
21
-3.51369
0
LINE
8
BLACK
6
CONTINUOUS
10
5.15588
20
-3.51369
11
5.15401
21
-3.51744
0
LINE
8
BLACK
6
CONTINUOUS
10
5.15401
20
-3.51744
11
5.1534
21
-3.51827
0
LINE
8
BLACK
6
CONTINUOUS
10
5.1534
20
-3.51827
11
5.15299
21
-3.51844
0
LINE
8
BLACK
6
CONTINUOUS
10
5.15299
20
-3.51844
11
5.15269
21
-3.51876
0
LINE
8
BLACK
6
CONTINUOUS
10
5.15269
20
-3.51876
11
5.14894
21
-3.52064
0
LINE
8
BLACK
6
CONTINUOUS
10
5.14894
20
-3.52064
11
5.14796
21
-3.52093
0
LINE
8
BLACK
6
CONTINUOUS
10
5.14796
20
-3.52093
11
5.14778
21
-3.52089
0
LINE
8
BLACK
6
CONTINUOUS
10
5.14778
20
-3.52089
11
5.14762
21
-3.52095
0
LINE
8
BLACK
6
CONTINUOUS
10
5.14762
20
-3.52095
11
5.127
21
-3.52095
0
LINE
8
BLACK
6
CONTINUOUS
10
5.127
20
-3.52095
11
5.12599
21
-3.52077
0
LINE
8
BLACK
6
CONTINUOUS
10
5.12599
20
-3.52077
11
5.12444
21
-3.51947
0
LINE
8
BLACK
6
CONTINUOUS
10
5.12444
20
-3.51947
11
5.12409
21
-3.51748
0
LINE
8
BLACK
6
CONTINUOUS
10
5.12409
20
-3.51748
11
5.1251
21
-3.51574
0
LINE
8
BLACK
6
CONTINUOUS
10
5.1251
20
-3.51574
11
5.127
21
-3.51504
0
LINE
8
BLACK
6
CONTINUOUS
10
5.127
20
-3.51504
11
5.14692
21
-3.51504
0
LINE
8
BLACK
6
CONTINUOUS
10
5.14692
20
-3.51504
11
5.14917
21
-3.51392
0
LINE
8
BLACK
6
CONTINUOUS
10
5.14917
20
-3.51392
11
5.15029
21
-3.51168
0
LINE
8
BLACK
6
CONTINUOUS
10
5.15029
20
-3.51168
11
5.15029
21
-3.50745
0
LINE
8
BLACK
6
CONTINUOUS
10
5.15029
20
-3.50745
11
5.14894
21
-3.50475
0
LINE
8
BLACK
6
CONTINUOUS
10
5.14894
20
-3.50475
11
5.14827
21
-3.50408
0
LINE
8
BLACK
6
CONTINUOUS
10
5.14827
20
-3.50408
11
5.127
21
-3.50408
0
LINE
8
BLACK
6
CONTINUOUS
10
5.127
20
-3.50408
11
5.12599
21
-3.5039
0
LINE
8
BLACK
6
CONTINUOUS
10
5.12599
20
-3.5039
11
5.12444
21
-3.5026
0
LINE
8
BLACK
6
CONTINUOUS
10
5.12444
20
-3.5026
11
5.12409
21
-3.50061
0
LINE
8
BLACK
6
CONTINUOUS
10
5.12409
20
-3.50061
11
5.1251
21
-3.49886
0
LINE
8
BLACK
6
CONTINUOUS
10
5.1251
20
-3.49886
11
5.127
21
-3.49817
0
LINE
8
BLACK
6
CONTINUOUS
10
5.127
20
-3.49817
11
5.15324
21
-3.49817
0
LINE
8
BLACK
6
CONTINUOUS
10
5.15324
20
-3.49817
11
5.15425
21
-3.49835
0
LINE
8
BLACK
6
CONTINUOUS
10
5.56455
20
-3.50533
11
5.56398
21
-3.50394
0
LINE
8
BLACK
6
CONTINUOUS
10
5.56398
20
-3.50394
11
5.56398
21
-3.4252
0
LINE
8
BLACK
6
CONTINUOUS
10
5.56398
20
-3.4252
11
5.56455
21
-3.4238
0
LINE
8
BLACK
6
CONTINUOUS
10
5.56455
20
-3.4238
11
5.56594
21
-3.42323
0
LINE
8
BLACK
6
CONTINUOUS
10
5.56594
20
-3.42323
11
5.61516
21
-3.42323
0
LINE
8
BLACK
6
CONTINUOUS
10
5.61516
20
-3.42323
11
5.61655
21
-3.4238
0
LINE
8
BLACK
6
CONTINUOUS
10
5.61655
20
-3.4238
11
5.61713
21
-3.4252
0
LINE
8
BLACK
6
CONTINUOUS
10
5.61713
20
-3.4252
11
5.61713
21
-3.50394
0
LINE
8
BLACK
6
CONTINUOUS
10
5.61713
20
-3.50394
11
5.61655
21
-3.50533
0
LINE
8
BLACK
6
CONTINUOUS
10
5.61655
20
-3.50533
11
5.61516
21
-3.50591
0
LINE
8
BLACK
6
CONTINUOUS
10
5.61516
20
-3.50591
11
5.56594
21
-3.50591
0
LINE
8
BLACK
6
CONTINUOUS
10
5.56594
20
-3.50591
11
5.56455
21
-3.50533
0
LINE
8
BLACK
6
CONTINUOUS
10
5.56791
20
-3.42717
11
5.56791
21
-3.50197
0
LINE
8
BLACK
6
CONTINUOUS
10
5.56791
20
-3.50197
11
5.61319
21
-3.50197
0
LINE
8
BLACK
6
CONTINUOUS
10
5.61319
20
-3.50197
11
5.61319
21
-3.42717
0
LINE
8
BLACK
6
CONTINUOUS
10
5.61319
20
-3.42717
11
5.56791
21
-3.42717
0
LINE
8
BLACK
6
CONTINUOUS
10
5.57866
20
-3.48021
11
5.5782
21
-3.4791
0
LINE
8
BLACK
6
CONTINUOUS
10
5.5782
20
-3.4791
11
5.5782
21
-3.4716
0
LINE
8
BLACK
6
CONTINUOUS
10
5.5782
20
-3.4716
11
5.57834
21
-3.47126
0
LINE
8
BLACK
6
CONTINUOUS
10
5.57834
20
-3.47126
11
5.57836
21
-3.47089
0
LINE
8
BLACK
6
CONTINUOUS
10
5.57836
20
-3.47089
11
5.5793
21
-3.46902
0
LINE
8
BLACK
6
CONTINUOUS
10
5.5793
20
-3.46902
11
5.5795
21
-3.46885
0
LINE
8
BLACK
6
CONTINUOUS
10
5.5795
20
-3.46885
11
5.5796
21
-3.46861
0
LINE
8
BLACK
6
CONTINUOUS
10
5.5796
20
-3.46861
11
5.58053
21
-3.46767
0
LINE
8
BLACK
6
CONTINUOUS
10
5.58053
20
-3.46767
11
5.58077
21
-3.46757
0
LINE
8
BLACK
6
CONTINUOUS
10
5.58077
20
-3.46757
11
5.58094
21
-3.46738
0
LINE
8
BLACK
6
CONTINUOUS
10
5.58094
20
-3.46738
11
5.58282
21
-3.46644
0
LINE
8
BLACK
6
CONTINUOUS
10
5.58282
20
-3.46644
11
5.58318
21
-3.46641
0
LINE
8
BLACK
6
CONTINUOUS
10
5.58318
20
-3.46641
11
5.58352
21
-3.46627
0
LINE
8
BLACK
6
CONTINUOUS
10
5.58352
20
-3.46627
11
5.58633
21
-3.46627
0
LINE
8
BLACK
6
CONTINUOUS
10
5.58633
20
-3.46627
11
5.58667
21
-3.46641
0
LINE
8
BLACK
6
CONTINUOUS
10
5.58667
20
-3.46641
11
5.58704
21
-3.46644
0
LINE
8
BLACK
6
CONTINUOUS
10
5.58704
20
-3.46644
11
5.58891
21
-3.46738
0
LINE
8
BLACK
6
CONTINUOUS
10
5.58891
20
-3.46738
11
5.58908
21
-3.46757
0
LINE
8
BLACK
6
CONTINUOUS
10
5.58908
20
-3.46757
11
5.58932
21
-3.46767
0
LINE
8
BLACK
6
CONTINUOUS
10
5.58932
20
-3.46767
11
5.59026
21
-3.46861
0
LINE
8
BLACK
6
CONTINUOUS
10
5.59026
20
-3.46861
11
5.59036
21
-3.46885
0
LINE
8
BLACK
6
CONTINUOUS
10
5.59036
20
-3.46885
11
5.59055
21
-3.46902
0
LINE
8
BLACK
6
CONTINUOUS
10
5.59055
20
-3.46902
11
5.59149
21
-3.47089
0
LINE
8
BLACK
6
CONTINUOUS
10
5.59149
20
-3.47089
11
5.59152
21
-3.47126
0
LINE
8
BLACK
6
CONTINUOUS
10
5.59152
20
-3.47126
11
5.59159
21
-3.47143
0
LINE
8
BLACK
6
CONTINUOUS
10
5.59159
20
-3.47143
11
5.59855
21
-3.46656
0
LINE
8
BLACK
6
CONTINUOUS
10
5.59855
20
-3.46656
11
5.59973
21
-3.4663
0
LINE
8
BLACK
6
CONTINUOUS
10
5.59973
20
-3.4663
11
5.60075
21
-3.46694
0
LINE
8
BLACK
6
CONTINUOUS
10
5.60075
20
-3.46694
11
5.60101
21
-3.46812
0
LINE
8
BLACK
6
CONTINUOUS
10
5.60101
20
-3.46812
11
5.60036
21
-3.46914
0
LINE
8
BLACK
6
CONTINUOUS
10
5.60036
20
-3.46914
11
5.59166
21
-3.47523
0
LINE
8
BLACK
6
CONTINUOUS
10
5.59166
20
-3.47523
11
5.59166
21
-3.47752
0
LINE
8
BLACK
6
CONTINUOUS
10
5.59166
20
-3.47752
11
5.59946
21
-3.47752
0
LINE
8
BLACK
6
CONTINUOUS
10
5.59946
20
-3.47752
11
5.60057
21
-3.47798
0
LINE
8
BLACK
6
CONTINUOUS
10
5.60057
20
-3.47798
11
5.60103
21
-3.4791
0
LINE
8
BLACK
6
CONTINUOUS
10
5.60103
20
-3.4791
11
5.60057
21
-3.48021
0
LINE
8
BLACK
6
CONTINUOUS
10
5.60057
20
-3.48021
11
5.59946
21
-3.48067
0
LINE
8
BLACK
6
CONTINUOUS
10
5.59946
20
-3.48067
11
5.57977
21
-3.48067
0
LINE
8
BLACK
6
CONTINUOUS
10
5.57977
20
-3.48067
11
5.57866
21
-3.48021
0
LINE
8
BLACK
6
CONTINUOUS
10
5.58389
20
-3.46942
11
5.58258
21
-3.47008
0
LINE
8
BLACK
6
CONTINUOUS
10
5.58258
20
-3.47008
11
5.582
21
-3.47066
0
LINE
8
BLACK
6
CONTINUOUS
10
5.582
20
-3.47066
11
5.58135
21
-3.47197
0
LINE
8
BLACK
6
CONTINUOUS
10
5.58135
20
-3.47197
11
5.58135
21
-3.47752
0
LINE
8
BLACK
6
CONTINUOUS
10
5.58135
20
-3.47752
11
5.58851
21
-3.47752
0
LINE
8
BLACK
6
CONTINUOUS
10
5.58851
20
-3.47752
11
5.58851
21
-3.47197
0
LINE
8
BLACK
6
CONTINUOUS
10
5.58851
20
-3.47197
11
5.58785
21
-3.47066
0
LINE
8
BLACK
6
CONTINUOUS
10
5.58785
20
-3.47066
11
5.58727
21
-3.47008
0
LINE
8
BLACK
6
CONTINUOUS
10
5.58727
20
-3.47008
11
5.58596
21
-3.46942
0
LINE
8
BLACK
6
CONTINUOUS
10
5.58596
20
-3.46942
11
5.58389
21
-3.46942
0
LINE
8
BLACK
6
CONTINUOUS
10
5.60057
20
-3.44799
11
5.60103
21
-3.4491
0
LINE
8
BLACK
6
CONTINUOUS
10
5.60103
20
-3.4491
11
5.60103
21
-3.46035
0
LINE
8
BLACK
6
CONTINUOUS
10
5.60103
20
-3.46035
11
5.60057
21
-3.46146
0
LINE
8
BLACK
6
CONTINUOUS
10
5.60057
20
-3.46146
11
5.59946
21
-3.46192
0
LINE
8
BLACK
6
CONTINUOUS
10
5.59946
20
-3.46192
11
5.59834
21
-3.46146
0
LINE
8
BLACK
6
CONTINUOUS
10
5.59834
20
-3.46146
11
5.59788
21
-3.46035
0
LINE
8
BLACK
6
CONTINUOUS
10
5.59788
20
-3.46035
11
5.59788
21
-3.4563
0
LINE
8
BLACK
6
CONTINUOUS
10
5.59788
20
-3.4563
11
5.58451
21
-3.4563
0
LINE
8
BLACK
6
CONTINUOUS
10
5.58451
20
-3.4563
11
5.58557
21
-3.45736
0
LINE
8
BLACK
6
CONTINUOUS
10
5.58557
20
-3.45736
11
5.58567
21
-3.4576
0
LINE
8
BLACK
6
CONTINUOUS
10
5.58567
20
-3.4576
11
5.58587
21
-3.45777
0
LINE
8
BLACK
6
CONTINUOUS
10
5.58587
20
-3.45777
11
5.5868
21
-3.45964
0
LINE
8
BLACK
6
CONTINUOUS
10
5.5868
20
-3.45964
11
5.58689
21
-3.46085
0
LINE
8
BLACK
6
CONTINUOUS
10
5.58689
20
-3.46085
11
5.5861
21
-3.46176
0
LINE
8
BLACK
6
CONTINUOUS
10
5.5861
20
-3.46176
11
5.5849
21
-3.46184
0
LINE
8
BLACK
6
CONTINUOUS
10
5.5849
20
-3.46184
11
5.58399
21
-3.46105
0
LINE
8
BLACK
6
CONTINUOUS
10
5.58399
20
-3.46105
11
5.58316
21
-3.45941
0
LINE
8
BLACK
6
CONTINUOUS
10
5.58316
20
-3.45941
11
5.58158
21
-3.45782
0
LINE
8
BLACK
6
CONTINUOUS
10
5.58158
20
-3.45782
11
5.5789
21
-3.45603
0
LINE
8
BLACK
6
CONTINUOUS
10
5.5789
20
-3.45603
11
5.57881
21
-3.4559
0
LINE
8
BLACK
6
CONTINUOUS
10
5.57881
20
-3.4559
11
5.57866
21
-3.45584
0
LINE
8
BLACK
6
CONTINUOUS
10
5.57866
20
-3.45584
11
5.57848
21
-3.45541
0
LINE
8
BLACK
6
CONTINUOUS
10
5.57848
20
-3.45541
11
5.57823
21
-3.45503
0
LINE
8
BLACK
6
CONTINUOUS
10
5.57823
20
-3.45503
11
5.57826
21
-3.45487
0
LINE
8
BLACK
6
CONTINUOUS
10
5.57826
20
-3.45487
11
5.5782
21
-3.45472
0
LINE
8
BLACK
6
CONTINUOUS
10
5.5782
20
-3.45472
11
5.57837
21
-3.4543
0
LINE
8
BLACK
6
CONTINUOUS
10
5.57837
20
-3.4543
11
5.57846
21
-3.45385
0
LINE
8
BLACK
6
CONTINUOUS
10
5.57846
20
-3.45385
11
5.5786
21
-3.45376
0
LINE
8
BLACK
6
CONTINUOUS
10
5.5786
20
-3.45376
11
5.57866
21
-3.45361
0
LINE
8
BLACK
6
CONTINUOUS
10
5.57866
20
-3.45361
11
5.57908
21
-3.45344
0
LINE
8
BLACK
6
CONTINUOUS
10
5.57908
20
-3.45344
11
5.57946
21
-3.45318
0
LINE
8
BLACK
6
CONTINUOUS
10
5.57946
20
-3.45318
11
5.57962
21
-3.45321
0
LINE
8
BLACK
6
CONTINUOUS
10
5.57962
20
-3.45321
11
5.57977
21
-3.45315
0
LINE
8
BLACK
6
CONTINUOUS
10
5.57977
20
-3.45315
11
5.59788
21
-3.45315
0
LINE
8
BLACK
6
CONTINUOUS
10
5.59788
20
-3.45315
11
5.59788
21
-3.4491
0
LINE
8
BLACK
6
CONTINUOUS
10
5.59788
20
-3.4491
11
5.59834
21
-3.44799
0
LINE
8
BLACK
6
CONTINUOUS
10
5.59834
20
-3.44799
11
5.59946
21
-3.44753
0
LINE
8
BLACK
6
CONTINUOUS
10
5.59946
20
-3.44753
11
5.60057
21
-3.44799
0
LINE
8
BLACK
6
CONTINUOUS
10
5.51615
20
-3.4702
11
5.51621
21
-3.4702
0
LINE
8
BLACK
6
CONTINUOUS
10
5.51621
20
-3.4702
11
5.52184
21
-3.47208
0
LINE
8
BLACK
6
CONTINUOUS
10
5.52184
20
-3.47208
11
5.52274
21
-3.47257
0
LINE
8
BLACK
6
CONTINUOUS
10
5.52274
20
-3.47257
11
5.52283
21
-3.47272
0
LINE
8
BLACK
6
CONTINUOUS
10
5.52283
20
-3.47272
11
5.52299
21
-3.47279
0
LINE
8
BLACK
6
CONTINUOUS
10
5.52299
20
-3.47279
11
5.54045
21
-3.49025
0
LINE
8
BLACK
6
CONTINUOUS
10
5.54045
20
-3.49025
11
5.54045
21
-3.473
0
LINE
8
BLACK
6
CONTINUOUS
10
5.54045
20
-3.473
11
5.54063
21
-3.47199
0
LINE
8
BLACK
6
CONTINUOUS
10
5.54063
20
-3.47199
11
5.54192
21
-3.47045
0
LINE
8
BLACK
6
CONTINUOUS
10
5.54192
20
-3.47045
11
5.54391
21
-3.4701
0
LINE
8
BLACK
6
CONTINUOUS
10
5.54391
20
-3.4701
11
5.54566
21
-3.47111
0
LINE
8
BLACK
6
CONTINUOUS
10
5.54566
20
-3.47111
11
5.54635
21
-3.473
0
LINE
8
BLACK
6
CONTINUOUS
10
5.54635
20
-3.473
11
5.54635
21
-3.49738
0
LINE
8
BLACK
6
CONTINUOUS
10
5.54635
20
-3.49738
11
5.54624
21
-3.49801
0
LINE
8
BLACK
6
CONTINUOUS
10
5.54624
20
-3.49801
11
5.54625
21
-3.49814
0
LINE
8
BLACK
6
CONTINUOUS
10
5.54625
20
-3.49814
11
5.54621
21
-3.4982
0
LINE
8
BLACK
6
CONTINUOUS
10
5.54621
20
-3.4982
11
5.54618
21
-3.49839
0
LINE
8
BLACK
6
CONTINUOUS
10
5.54618
20
-3.49839
11
5.5456
21
-3.49907
0
LINE
8
BLACK
6
CONTINUOUS
10
5.5456
20
-3.49907
11
5.54509
21
-3.49979
0
LINE
8
BLACK
6
CONTINUOUS
10
5.54509
20
-3.49979
11
5.54496
21
-3.49983
0
LINE
8
BLACK
6
CONTINUOUS
10
5.54496
20
-3.49983
11
5.54488
21
-3.49993
0
LINE
8
BLACK
6
CONTINUOUS
10
5.54488
20
-3.49993
11
5.544
21
-3.50009
0
LINE
8
BLACK
6
CONTINUOUS
10
5.544
20
-3.50009
11
5.54314
21
-3.50032
0
LINE
8
BLACK
6
CONTINUOUS
10
5.54314
20
-3.50032
11
5.54302
21
-3.50026
0
LINE
8
BLACK
6
CONTINUOUS
10
5.54302
20
-3.50026
11
5.54289
21
-3.50028
0
LINE
8
BLACK
6
CONTINUOUS
10
5.54289
20
-3.50028
11
5.54212
21
-3.49984
0
LINE
8
BLACK
6
CONTINUOUS
10
5.54212
20
-3.49984
11
5.54131
21
-3.49946
0
LINE
8
BLACK
6
CONTINUOUS
10
5.54131
20
-3.49946
11
5.51931
21
-3.47746
0
LINE
8
BLACK
6
CONTINUOUS
10
5.51931
20
-3.47746
11
5.5148
21
-3.47596
0
LINE
8
BLACK
6
CONTINUOUS
10
5.5148
20
-3.47596
11
5.51223
21
-3.47596
0
LINE
8
BLACK
6
CONTINUOUS
10
5.51223
20
-3.47596
11
5.50953
21
-3.4773
0
LINE
8
BLACK
6
CONTINUOUS
10
5.50953
20
-3.4773
11
5.50833
21
-3.4785
0
LINE
8
BLACK
6
CONTINUOUS
10
5.50833
20
-3.4785
11
5.50698
21
-3.4812
0
LINE
8
BLACK
6
CONTINUOUS
10
5.50698
20
-3.4812
11
5.50698
21
-3.48918
0
LINE
8
BLACK
6
CONTINUOUS
10
5.50698
20
-3.48918
11
5.50833
21
-3.49188
0
LINE
8
BLACK
6
CONTINUOUS
10
5.50833
20
-3.49188
11
5.50987
21
-3.49341
0
LINE
8
BLACK
6
CONTINUOUS
10
5.50987
20
-3.49341
11
5.51046
21
-3.49425
0
LINE
8
BLACK
6
CONTINUOUS
10
5.51046
20
-3.49425
11
5.51063
21
-3.49626
0
LINE
8
BLACK
6
CONTINUOUS
10
5.51063
20
-3.49626
11
5.50947
21
-3.49792
0
LINE
8
BLACK
6
CONTINUOUS
10
5.50947
20
-3.49792
11
5.50752
21
-3.49844
0
LINE
8
BLACK
6
CONTINUOUS
10
5.50752
20
-3.49844
11
5.50569
21
-3.49759
0
LINE
8
BLACK
6
CONTINUOUS
10
5.50569
20
-3.49759
11
5.50382
21
-3.49571
0
LINE
8
BLACK
6
CONTINUOUS
10
5.50382
20
-3.49571
11
5.50331
21
-3.49499
0
LINE
8
BLACK
6
CONTINUOUS
10
5.50331
20
-3.49499
11
5.50326
21
-3.49495
0
LINE
8
BLACK
6
CONTINUOUS
10
5.50326
20
-3.49495
11
5.50139
21
-3.4912
0
LINE
8
BLACK
6
CONTINUOUS
10
5.50139
20
-3.4912
11
5.5011
21
-3.49021
0
LINE
8
BLACK
6
CONTINUOUS
10
5.5011
20
-3.49021
11
5.50114
21
-3.49004
0
LINE
8
BLACK
6
CONTINUOUS
10
5.50114
20
-3.49004
11
5.50108
21
-3.48988
0
LINE
8
BLACK
6
CONTINUOUS
10
5.50108
20
-3.48988
11
5.50108
21
-3.4805
0
LINE
8
BLACK
6
CONTINUOUS
10
5.50108
20
-3.4805
11
5.50126
21
-3.47949
0
LINE
8
BLACK
6
CONTINUOUS
10
5.50126
20
-3.47949
11
5.50137
21
-3.47936
0
LINE
8
BLACK
6
CONTINUOUS
10
5.50137
20
-3.47936
11
5.50139
21
-3.47918
0
LINE
8
BLACK
6
CONTINUOUS
10
5.50139
20
-3.47918
11
5.50326
21
-3.47543
0
LINE
8
BLACK
6
CONTINUOUS
10
5.50326
20
-3.47543
11
5.50379
21
-3.47472
0
LINE
8
BLACK
6
CONTINUOUS
10
5.50379
20
-3.47472
11
5.50382
21
-3.47466
0
LINE
8
BLACK
6
CONTINUOUS
10
5.50382
20
-3.47466
11
5.50569
21
-3.47279
0
LINE
8
BLACK
6
CONTINUOUS
10
5.50569
20
-3.47279
11
5.50642
21
-3.47228
0
LINE
8
BLACK
6
CONTINUOUS
10
5.50642
20
-3.47228
11
5.50646
21
-3.47224
0
LINE
8
BLACK
6
CONTINUOUS
10
5.50646
20
-3.47224
11
5.51021
21
-3.47036
0
LINE
8
BLACK
6
CONTINUOUS
10
5.51021
20
-3.47036
11
5.51119
21
-3.47007
0
LINE
8
BLACK
6
CONTINUOUS
10
5.51119
20
-3.47007
11
5.51136
21
-3.47011
0
LINE
8
BLACK
6
CONTINUOUS
10
5.51136
20
-3.47011
11
5.51153
21
-3.47005
0
LINE
8
BLACK
6
CONTINUOUS
10
5.51153
20
-3.47005
11
5.51528
21
-3.47005
0
LINE
8
BLACK
6
CONTINUOUS
10
5.51528
20
-3.47005
11
5.51615
21
-3.4702
0
LINE
8
BLACK
6
CONTINUOUS
10
5.15551
20
-3.47111
11
5.1562
21
-3.473
0
LINE
8
BLACK
6
CONTINUOUS
10
5.1562
20
-3.473
11
5.1562
21
-3.47675
0
LINE
8
BLACK
6
CONTINUOUS
10
5.1562
20
-3.47675
11
5.15602
21
-3.47776
0
LINE
8
BLACK
6
CONTINUOUS
10
5.15602
20
-3.47776
11
5.1559
21
-3.4779
0
LINE
8
BLACK
6
CONTINUOUS
10
5.1559
20
-3.4779
11
5.15588
21
-3.47807
0
LINE
8
BLACK
6
CONTINUOUS
10
5.15588
20
-3.47807
11
5.15401
21
-3.48182
0
LINE
8
BLACK
6
CONTINUOUS
10
5.15401
20
-3.48182
11
5.1534
21
-3.48265
0
LINE
8
BLACK
6
CONTINUOUS
10
5.1534
20
-3.48265
11
5.15299
21
-3.48282
0
LINE
8
BLACK
6
CONTINUOUS
10
5.15299
20
-3.48282
11
5.15269
21
-3.48314
0
LINE
8
BLACK
6
CONTINUOUS
10
5.15269
20
-3.48314
11
5.14894
21
-3.48502
0
LINE
8
BLACK
6
CONTINUOUS
10
5.14894
20
-3.48502
11
5.14796
21
-3.48531
0
LINE
8
BLACK
6
CONTINUOUS
10
5.14796
20
-3.48531
11
5.14778
21
-3.48527
0
LINE
8
BLACK
6
CONTINUOUS
10
5.14778
20
-3.48527
11
5.14762
21
-3.48533
0
LINE
8
BLACK
6
CONTINUOUS
10
5.14762
20
-3.48533
11
5.12995
21
-3.48533
0
LINE
8
BLACK
6
CONTINUOUS
10
5.12995
20
-3.48533
11
5.12995
21
-3.488
0
LINE
8
BLACK
6
CONTINUOUS
10
5.12995
20
-3.488
11
5.12977
21
-3.48901
0
LINE
8
BLACK
6
CONTINUOUS
10
5.12977
20
-3.48901
11
5.12847
21
-3.49056
0
LINE
8
BLACK
6
CONTINUOUS
10
5.12847
20
-3.49056
11
5.12648
21
-3.49091
0
LINE
8
BLACK
6
CONTINUOUS
10
5.12648
20
-3.49091
11
5.12473
21
-3.4899
0
LINE
8
BLACK
6
CONTINUOUS
10
5.12473
20
-3.4899
11
5.12404
21
-3.488
0
LINE
8
BLACK
6
CONTINUOUS
10
5.12404
20
-3.488
11
5.12404
21
-3.48533
0
LINE
8
BLACK
6
CONTINUOUS
10
5.12404
20
-3.48533
11
5.11387
21
-3.48533
0
LINE
8
BLACK
6
CONTINUOUS
10
5.11387
20
-3.48533
11
5.11286
21
-3.48515
0
LINE
8
BLACK
6
CONTINUOUS
10
5.11286
20
-3.48515
11
5.11132
21
-3.48385
0
LINE
8
BLACK
6
CONTINUOUS
10
5.11132
20
-3.48385
11
5.11097
21
-3.48186
0
LINE
8
BLACK
6
CONTINUOUS
10
5.11097
20
-3.48186
11
5.11198
21
-3.48012
0
LINE
8
BLACK
6
CONTINUOUS
10
5.11198
20
-3.48012
11
5.11387
21
-3.47942
0
LINE
8
BLACK
6
CONTINUOUS
10
5.11387
20
-3.47942
11
5.12404
21
-3.47942
0
LINE
8
BLACK
6
CONTINUOUS
10
5.12404
20
-3.47942
11
5.12404
21
-3.473
0
LINE
8
BLACK
6
CONTINUOUS
10
5.12404
20
-3.473
11
5.12422
21
-3.47199
0
LINE
8
BLACK
6
CONTINUOUS
10
5.12422
20
-3.47199
11
5.12552
21
-3.47045
0
LINE
8
BLACK
6
CONTINUOUS
10
5.12552
20
-3.47045
11
5.12751
21
-3.4701
0
LINE
8
BLACK
6
CONTINUOUS
10
5.12751
20
-3.4701
11
5.12926
21
-3.47111
0
LINE
8
BLACK
6
CONTINUOUS
10
5.12926
20
-3.47111
11
5.12995
21
-3.473
0
LINE
8
BLACK
6
CONTINUOUS
10
5.12995
20
-3.473
11
5.12995
21
-3.47942
0
LINE
8
BLACK
6
CONTINUOUS
10
5.12995
20
-3.47942
11
5.14692
21
-3.47942
0
LINE
8
BLACK
6
CONTINUOUS
10
5.14692
20
-3.47942
11
5.14917
21
-3.4783
0
LINE
8
BLACK
6
CONTINUOUS
10
5.14917
20
-3.4783
11
5.15029
21
-3.47606
0
LINE
8
BLACK
6
CONTINUOUS
10
5.15029
20
-3.47606
11
5.15029
21
-3.473
0
LINE
8
BLACK
6
CONTINUOUS
10
5.15029
20
-3.473
11
5.15047
21
-3.47199
0
LINE
8
BLACK
6
CONTINUOUS
10
5.15047
20
-3.47199
11
5.15177
21
-3.47045
0
LINE
8
BLACK
6
CONTINUOUS
10
5.15177
20
-3.47045
11
5.15376
21
-3.4701
0
LINE
8
BLACK
6
CONTINUOUS
10
5.15376
20
-3.4701
11
5.15551
21
-3.47111
0
LINE
8
BLACK
6
CONTINUOUS
10
5.52898
20
-3.43266
11
5.52912
21
-3.43264
0
LINE
8
BLACK
6
CONTINUOUS
10
5.52912
20
-3.43264
11
5.53662
21
-3.43452
0
LINE
8
BLACK
6
CONTINUOUS
10
5.53662
20
-3.43452
11
5.53708
21
-3.43473
0
LINE
8
BLACK
6
CONTINUOUS
10
5.53708
20
-3.43473
11
5.53722
21
-3.43474
0
LINE
8
BLACK
6
CONTINUOUS
10
5.53722
20
-3.43474
11
5.54097
21
-3.43662
0
LINE
8
BLACK
6
CONTINUOUS
10
5.54097
20
-3.43662
11
5.54168
21
-3.43714
0
LINE
8
BLACK
6
CONTINUOUS
10
5.54168
20
-3.43714
11
5.54174
21
-3.43717
0
LINE
8
BLACK
6
CONTINUOUS
10
5.54174
20
-3.43717
11
5.54361
21
-3.43904
0
LINE
8
BLACK
6
CONTINUOUS
10
5.54361
20
-3.43904
11
5.54412
21
-3.43977
0
LINE
8
BLACK
6
CONTINUOUS
10
5.54412
20
-3.43977
11
5.54417
21
-3.43981
0
LINE
8
BLACK
6
CONTINUOUS
10
5.54417
20
-3.43981
11
5.54604
21
-3.44356
0
LINE
8
BLACK
6
CONTINUOUS
10
5.54604
20
-3.44356
11
5.54633
21
-3.44454
0
LINE
8
BLACK
6
CONTINUOUS
10
5.54633
20
-3.44454
11
5.54629
21
-3.44472
0
LINE
8
BLACK
6
CONTINUOUS
10
5.54629
20
-3.44472
11
5.54635
21
-3.44488
0
LINE
8
BLACK
6
CONTINUOUS
10
5.54635
20
-3.44488
11
5.54635
21
-3.44863
0
LINE
8
BLACK
6
CONTINUOUS
10
5.54635
20
-3.44863
11
5.54618
21
-3.44964
0
LINE
8
BLACK
6
CONTINUOUS
10
5.54618
20
-3.44964
11
5.54606
21
-3.44978
0
LINE
8
BLACK
6
CONTINUOUS
10
5.54606
20
-3.44978
11
5.54604
21
-3.44995
0
LINE
8
BLACK
6
CONTINUOUS
10
5.54604
20
-3.44995
11
5.54417
21
-3.4537
0
LINE
8
BLACK
6
CONTINUOUS
10
5.54417
20
-3.4537
11
5.54364
21
-3.45441
0
LINE
8
BLACK
6
CONTINUOUS
10
5.54364
20
-3.45441
11
5.54361
21
-3.45447
0
LINE
8
BLACK
6
CONTINUOUS
10
5.54361
20
-3.45447
11
5.54174
21
-3.45634
0
LINE
8
BLACK
6
CONTINUOUS
10
5.54174
20
-3.45634
11
5.54102
21
-3.45685
0
LINE
8
BLACK
6
CONTINUOUS
10
5.54102
20
-3.45685
11
5.54097
21
-3.4569
0
LINE
8
BLACK
6
CONTINUOUS
10
5.54097
20
-3.4569
11
5.53722
21
-3.45877
0
LINE
8
BLACK
6
CONTINUOUS
10
5.53722
20
-3.45877
11
5.53673
21
-3.45892
0
LINE
8
BLACK
6
CONTINUOUS
10
5.53673
20
-3.45892
11
5.53662
21
-3.459
0
LINE
8
BLACK
6
CONTINUOUS
10
5.53662
20
-3.459
11
5.52912
21
-3.46087
0
LINE
8
BLACK
6
CONTINUOUS
10
5.52912
20
-3.46087
11
5.52853
21
-3.46091
0
LINE
8
BLACK
6
CONTINUOUS
10
5.52853
20
-3.46091
11
5.5284
21
-3.46096
0
LINE
8
BLACK
6
CONTINUOUS
10
5.5284
20
-3.46096
11
5.51903
21
-3.46096
0
LINE
8
BLACK
6
CONTINUOUS
10
5.51903
20
-3.46096
11
5.51845
21
-3.46086
0
LINE
8
BLACK
6
CONTINUOUS
10
5.51845
20
-3.46086
11
5.51831
21
-3.46087
0
LINE
8
BLACK
6
CONTINUOUS
10
5.51831
20
-3.46087
11
5.51081
21
-3.459
0
LINE
8
BLACK
6
CONTINUOUS
10
5.51081
20
-3.459
11
5.51035
21
-3.45879
0
LINE
8
BLACK
6
CONTINUOUS
10
5.51035
20
-3.45879
11
5.51021
21
-3.45877
0
LINE
8
BLACK
6
CONTINUOUS
10
5.51021
20
-3.45877
11
5.50646
21
-3.4569
0
LINE
8
BLACK
6
CONTINUOUS
10
5.50646
20
-3.4569
11
5.50575
21
-3.45637
0
LINE
8
BLACK
6
CONTINUOUS
10
5.50575
20
-3.45637
11
5.50569
21
-3.45634
0
LINE
8
BLACK
6
CONTINUOUS
10
5.50569
20
-3.45634
11
5.50382
21
-3.45447
0
LINE
8
BLACK
6
CONTINUOUS
10
5.50382
20
-3.45447
11
5.50331
21
-3.45375
0
LINE
8
BLACK
6
CONTINUOUS
10
5.50331
20
-3.45375
11
5.50326
21
-3.4537
0
LINE
8
BLACK
6
CONTINUOUS
10
5.50326
20
-3.4537
11
5.50139
21
-3.44995
0
LINE
8
BLACK
6
CONTINUOUS
10
5.50139
20
-3.44995
11
5.5011
21
-3.44897
0
LINE
8
BLACK
6
CONTINUOUS
10
5.5011
20
-3.44897
11
5.50114
21
-3.4488
0
LINE
8
BLACK
6
CONTINUOUS
10
5.50114
20
-3.4488
11
5.50108
21
-3.44863
0
LINE
8
BLACK
6
CONTINUOUS
10
5.50108
20
-3.44863
11
5.50108
21
-3.44488
0
LINE
8
BLACK
6
CONTINUOUS
10
5.50108
20
-3.44488
11
5.50126
21
-3.44387
0
LINE
8
BLACK
6
CONTINUOUS
10
5.50126
20
-3.44387
11
5.50137
21
-3.44374
0
LINE
8
BLACK
6
CONTINUOUS
10
5.50137
20
-3.44374
11
5.50139
21
-3.44356
0
LINE
8
BLACK
6
CONTINUOUS
10
5.50139
20
-3.44356
11
5.50326
21
-3.43981
0
LINE
8
BLACK
6
CONTINUOUS
10
5.50326
20
-3.43981
11
5.50379
21
-3.4391
0
LINE
8
BLACK
6
CONTINUOUS
10
5.50379
20
-3.4391
11
5.50382
21
-3.43904
0
LINE
8
BLACK
6
CONTINUOUS
10
5.50382
20
-3.43904
11
5.50569
21
-3.43717
0
LINE
8
BLACK
6
CONTINUOUS
10
5.50569
20
-3.43717
11
5.50642
21
-3.43666
0
LINE
8
BLACK
6
CONTINUOUS
10
5.50642
20
-3.43666
11
5.50646
21
-3.43662
0
LINE
8
BLACK
6
CONTINUOUS
10
5.50646
20
-3.43662
11
5.51021
21
-3.43474
0
LINE
8
BLACK
6
CONTINUOUS
10
5.51021
20
-3.43474
11
5.5107
21
-3.4346
0
LINE
8
BLACK
6
CONTINUOUS
10
5.5107
20
-3.4346
11
5.51081
21
-3.43452
0
LINE
8
BLACK
6
CONTINUOUS
10
5.51081
20
-3.43452
11
5.51831
21
-3.43264
0
LINE
8
BLACK
6
CONTINUOUS
10
5.51831
20
-3.43264
11
5.5189
21
-3.4326
0
LINE
8
BLACK
6
CONTINUOUS
10
5.5189
20
-3.4326
11
5.51903
21
-3.43256
0
LINE
8
BLACK
6
CONTINUOUS
10
5.51903
20
-3.43256
11
5.5284
21
-3.43256
0
LINE
8
BLACK
6
CONTINUOUS
10
5.5284
20
-3.43256
11
5.52898
21
-3.43266
0
LINE
8
BLACK
6
CONTINUOUS
10
5.51939
20
-3.43846
11
5.51256
21
-3.44017
0
LINE
8
BLACK
6
CONTINUOUS
10
5.51256
20
-3.44017
11
5.50953
21
-3.44168
0
LINE
8
BLACK
6
CONTINUOUS
10
5.50953
20
-3.44168
11
5.50833
21
-3.44288
0
LINE
8
BLACK
6
CONTINUOUS
10
5.50833
20
-3.44288
11
5.50698
21
-3.44558
0
LINE
8
BLACK
6
CONTINUOUS
10
5.50698
20
-3.44558
11
5.50698
21
-3.44793
0
LINE
8
BLACK
6
CONTINUOUS
10
5.50698
20
-3.44793
11
5.50833
21
-3.45063
0
LINE
8
BLACK
6
CONTINUOUS
10
5.50833
20
-3.45063
11
5.50953
21
-3.45183
0
LINE
8
BLACK
6
CONTINUOUS
10
5.50953
20
-3.45183
11
5.51256
21
-3.45334
0
LINE
8
BLACK
6
CONTINUOUS
10
5.51256
20
-3.45334
11
5.51939
21
-3.45505
0
LINE
8
BLACK
6
CONTINUOUS
10
5.51939
20
-3.45505
11
5.52804
21
-3.45505
0
LINE
8
BLACK
6
CONTINUOUS
10
5.52804
20
-3.45505
11
5.53487
21
-3.45334
0
LINE
8
BLACK
6
CONTINUOUS
10
5.53487
20
-3.45334
11
5.5379
21
-3.45183
0
LINE
8
BLACK
6
CONTINUOUS
10
5.5379
20
-3.45183
11
5.5391
21
-3.45063
0
LINE
8
BLACK
6
CONTINUOUS
10
5.5391
20
-3.45063
11
5.54045
21
-3.44793
0
LINE
8
BLACK
6
CONTINUOUS
10
5.54045
20
-3.44793
11
5.54045
21
-3.44558
0
LINE
8
BLACK
6
CONTINUOUS
10
5.54045
20
-3.44558
11
5.5391
21
-3.44288
0
LINE
8
BLACK
6
CONTINUOUS
10
5.5391
20
-3.44288
11
5.5379
21
-3.44168
0
LINE
8
BLACK
6
CONTINUOUS
10
5.5379
20
-3.44168
11
5.53487
21
-3.44017
0
LINE
8
BLACK
6
CONTINUOUS
10
5.53487
20
-3.44017
11
5.52804
21
-3.43846
0
LINE
8
BLACK
6
CONTINUOUS
10
5.52804
20
-3.43846
11
5.51939
21
-3.43846
0
LINE
8
BLACK
6
CONTINUOUS
10
5.51816
20
-3.39336
11
5.5183
21
-3.39348
0
LINE
8
BLACK
6
CONTINUOUS
10
5.5183
20
-3.39348
11
5.51847
21
-3.3935
0
LINE
8
BLACK
6
CONTINUOUS
10
5.51847
20
-3.3935
11
5.52222
21
-3.39537
0
LINE
8
BLACK
6
CONTINUOUS
10
5.52222
20
-3.39537
11
5.52293
21
-3.3959
0
LINE
8
BLACK
6
CONTINUOUS
10
5.52293
20
-3.3959
11
5.52299
21
-3.39592
0
LINE
8
BLACK
6
CONTINUOUS
10
5.52299
20
-3.39592
11
5.52487
21
-3.3978
0
LINE
8
BLACK
6
CONTINUOUS
10
5.52487
20
-3.3978
11
5.52537
21
-3.39852
0
LINE
8
BLACK
6
CONTINUOUS
10
5.52537
20
-3.39852
11
5.52542
21
-3.39857
0
LINE
8
BLACK
6
CONTINUOUS
10
5.52542
20
-3.39857
11
5.52729
21
-3.40232
0
LINE
8
BLACK
6
CONTINUOUS
10
5.52729
20
-3.40232
11
5.52759
21
-3.4033
0
LINE
8
BLACK
6
CONTINUOUS
10
5.52759
20
-3.4033
11
5.52755
21
-3.40347
0
LINE
8
BLACK
6
CONTINUOUS
10
5.52755
20
-3.40347
11
5.52759
21
-3.4036
0
LINE
8
BLACK
6
CONTINUOUS
10
5.52759
20
-3.4036
11
5.54171
21
-3.39372
0
LINE
8
BLACK
6
CONTINUOUS
10
5.54171
20
-3.39372
11
5.54264
21
-3.39329
0
LINE
8
BLACK
6
CONTINUOUS
10
5.54264
20
-3.39329
11
5.54465
21
-3.39346
0
LINE
8
BLACK
6
CONTINUOUS
10
5.54465
20
-3.39346
11
5.54608
21
-3.39489
0
LINE
8
BLACK
6
CONTINUOUS
10
5.54608
20
-3.39489
11
5.54625
21
-3.3969
0
LINE
8
BLACK
6
CONTINUOUS
10
5.54625
20
-3.3969
11
5.54509
21
-3.39856
0
LINE
8
BLACK
6
CONTINUOUS
10
5.54509
20
-3.39856
11
5.52761
21
-3.4108
0
LINE
8
BLACK
6
CONTINUOUS
10
5.52761
20
-3.4108
11
5.52761
21
-3.41568
0
LINE
8
BLACK
6
CONTINUOUS
10
5.52761
20
-3.41568
11
5.5434
21
-3.41568
0
LINE
8
BLACK
6
CONTINUOUS
10
5.5434
20
-3.41568
11
5.54441
21
-3.41586
0
LINE
8
BLACK
6
CONTINUOUS
10
5.54441
20
-3.41586
11
5.54596
21
-3.41716
0
LINE
8
BLACK
6
CONTINUOUS
10
5.54596
20
-3.41716
11
5.54631
21
-3.41915
0
LINE
8
BLACK
6
CONTINUOUS
10
5.54631
20
-3.41915
11
5.5453
21
-3.4209
0
LINE
8
BLACK
6
CONTINUOUS
10
5.5453
20
-3.4209
11
5.5434
21
-3.42159
0
LINE
8
BLACK
6
CONTINUOUS
10
5.5434
20
-3.42159
11
5.50403
21
-3.42159
0
LINE
8
BLACK
6
CONTINUOUS
10
5.50403
20
-3.42159
11
5.50365
21
-3.42152
0
LINE
8
BLACK
6
CONTINUOUS
10
5.50365
20
-3.42152
11
5.50352
21
-3.42154
0
LINE
8
BLACK
6
CONTINUOUS
10
5.50352
20
-3.42154
11
5.5034
21
-3.42148
0
LINE
8
BLACK
6
CONTINUOUS
10
5.5034
20
-3.42148
11
5.50302
21
-3.42141
0
LINE
8
BLACK
6
CONTINUOUS
10
5.50302
20
-3.42141
11
5.50243
21
-3.42092
0
LINE
8
BLACK
6
CONTINUOUS
10
5.50243
20
-3.42092
11
5.50177
21
-3.42053
0
LINE
8
BLACK
6
CONTINUOUS
10
5.50177
20
-3.42053
11
5.50168
21
-3.42028
0
LINE
8
BLACK
6
CONTINUOUS
10
5.50168
20
-3.42028
11
5.50147
21
-3.42011
0
LINE
8
BLACK
6
CONTINUOUS
10
5.50147
20
-3.42011
11
5.50134
21
-3.41936
0
LINE
8
BLACK
6
CONTINUOUS
10
5.50134
20
-3.41936
11
5.50108
21
-3.41864
0
LINE
8
BLACK
6
CONTINUOUS
10
5.50108
20
-3.41864
11
5.50108
21
-3.40364
0
LINE
8
BLACK
6
CONTINUOUS
10
5.50108
20
-3.40364
11
5.50126
21
-3.40263
0
LINE
8
BLACK
6
CONTINUOUS
10
5.50126
20
-3.40263
11
5.50137
21
-3.40249
0
LINE
8
BLACK
6
CONTINUOUS
10
5.50137
20
-3.40249
11
5.50139
21
-3.40232
0
LINE
8
BLACK
6
CONTINUOUS
10
5.50139
20
-3.40232
11
5.50326
21
-3.39857
0
LINE
8
BLACK
6
CONTINUOUS
10
5.50326
20
-3.39857
11
5.50379
21
-3.39786
0
LINE
8
BLACK
6
CONTINUOUS
10
5.50379
20
-3.39786
11
5.50382
21
-3.3978
0
LINE
8
BLACK
6
CONTINUOUS
10
5.50382
20
-3.3978
11
5.50569
21
-3.39592
0
LINE
8
BLACK
6
CONTINUOUS
10
5.50569
20
-3.39592
11
5.50642
21
-3.39542
0
LINE
8
BLACK
6
CONTINUOUS
10
5.50642
20
-3.39542
11
5.50646
21
-3.39537
0
LINE
8
BLACK
6
CONTINUOUS
10
5.50646
20
-3.39537
11
5.51021
21
-3.3935
0
LINE
8
BLACK
6
CONTINUOUS
10
5.51021
20
-3.3935
11
5.51119
21
-3.3932
0
LINE
8
BLACK
6
CONTINUOUS
10
5.51119
20
-3.3932
11
5.51136
21
-3.39325
0
LINE
8
BLACK
6
CONTINUOUS
10
5.51136
20
-3.39325
11
5.51153
21
-3.39319
0
LINE
8
BLACK
6
CONTINUOUS
10
5.51153
20
-3.39319
11
5.51715
21
-3.39319
0
LINE
8
BLACK
6
CONTINUOUS
10
5.51715
20
-3.39319
11
5.51816
21
-3.39336
0
LINE
8
BLACK
6
CONTINUOUS
10
5.51223
20
-3.39909
11
5.50953
21
-3.40044
0
LINE
8
BLACK
6
CONTINUOUS
10
5.50953
20
-3.40044
11
5.50833
21
-3.40164
0
LINE
8
BLACK
6
CONTINUOUS
10
5.50833
20
-3.40164
11
5.50698
21
-3.40433
0
LINE
8
BLACK
6
CONTINUOUS
10
5.50698
20
-3.40433
11
5.50698
21
-3.41568
0
LINE
8
BLACK
6
CONTINUOUS
10
5.50698
20
-3.41568
11
5.5217
21
-3.41568
0
LINE
8
BLACK
6
CONTINUOUS
10
5.5217
20
-3.41568
11
5.5217
21
-3.40433
0
LINE
8
BLACK
6
CONTINUOUS
10
5.5217
20
-3.40433
11
5.52035
21
-3.40164
0
LINE
8
BLACK
6
CONTINUOUS
10
5.52035
20
-3.40164
11
5.51915
21
-3.40044
0
LINE
8
BLACK
6
CONTINUOUS
10
5.51915
20
-3.40044
11
5.51646
21
-3.39909
0
LINE
8
BLACK
6
CONTINUOUS
10
5.51646
20
-3.39909
11
5.51223
21
-3.39909
0
LINE
8
BLACK
6
CONTINUOUS
10
5.85403
20
-3.36937
11
5.85416
21
-3.36948
0
LINE
8
BLACK
6
CONTINUOUS
10
5.85416
20
-3.36948
11
5.85434
21
-3.3695
0
LINE
8
BLACK
6
CONTINUOUS
10
5.85434
20
-3.3695
11
5.85809
21
-3.37137
0
LINE
8
BLACK
6
CONTINUOUS
10
5.85809
20
-3.37137
11
5.8588
21
-3.3719
0
LINE
8
BLACK
6
CONTINUOUS
10
5.8588
20
-3.3719
11
5.85886
21
-3.37193
0
LINE
8
BLACK
6
CONTINUOUS
10
5.85886
20
-3.37193
11
5.86073
21
-3.3738
0
LINE
8
BLACK
6
CONTINUOUS
10
5.86073
20
-3.3738
11
5.86124
21
-3.37453
0
LINE
8
BLACK
6
CONTINUOUS
10
5.86124
20
-3.37453
11
5.86128
21
-3.37457
0
LINE
8
BLACK
6
CONTINUOUS
10
5.86128
20
-3.37457
11
5.86316
21
-3.37832
0
LINE
8
BLACK
6
CONTINUOUS
10
5.86316
20
-3.37832
11
5.86345
21
-3.3793
0
LINE
8
BLACK
6
CONTINUOUS
10
5.86345
20
-3.3793
11
5.86341
21
-3.37947
0
LINE
8
BLACK
6
CONTINUOUS
10
5.86341
20
-3.37947
11
5.86347
21
-3.37964
0
LINE
8
BLACK
6
CONTINUOUS
10
5.86347
20
-3.37964
11
5.86347
21
-3.38339
0
LINE
8
BLACK
6
CONTINUOUS
10
5.86347
20
-3.38339
11
5.86332
21
-3.38426
0
LINE
8
BLACK
6
CONTINUOUS
10
5.86332
20
-3.38426
11
5.86332
21
-3.38432
0
LINE
8
BLACK
6
CONTINUOUS
10
5.86332
20
-3.38432
11
5.86144
21
-3.38995
0
LINE
8
BLACK
6
CONTINUOUS
10
5.86144
20
-3.38995
11
5.86096
21
-3.39085
0
LINE
8
BLACK
6
CONTINUOUS
10
5.86096
20
-3.39085
11
5.86081
21
-3.39094
0
LINE
8
BLACK
6
CONTINUOUS
10
5.86081
20
-3.39094
11
5.86073
21
-3.3911
0
LINE
8
BLACK
6
CONTINUOUS
10
5.86073
20
-3.3911
11
5.84327
21
-3.40856
0
LINE
8
BLACK
6
CONTINUOUS
10
5.84327
20
-3.40856
11
5.86052
21
-3.40856
0
LINE
8
BLACK
6
CONTINUOUS
10
5.86052
20
-3.40856
11
5.86153
21
-3.40874
0
LINE
8
BLACK
6
CONTINUOUS
10
5.86153
20
-3.40874
11
5.86307
21
-3.41003
0
LINE
8
BLACK
6
CONTINUOUS
10
5.86307
20
-3.41003
11
5.86343
21
-3.41202
0
LINE
8
BLACK
6
CONTINUOUS
10
5.86343
20
-3.41202
11
5.86242
21
-3.41377
0
LINE
8
BLACK
6
CONTINUOUS
10
5.86242
20
-3.41377
11
5.86052
21
-3.41446
0
LINE
8
BLACK
6
CONTINUOUS
10
5.86052
20
-3.41446
11
5.83615
21
-3.41446
0
LINE
8
BLACK
6
CONTINUOUS
10
5.83615
20
-3.41446
11
5.83551
21
-3.41435
0
LINE
8
BLACK
6
CONTINUOUS
10
5.83551
20
-3.41435
11
5.83538
21
-3.41436
0
LINE
8
BLACK
6
CONTINUOUS
10
5.83538
20
-3.41436
11
5.83532
21
-3.41432
0
LINE
8
BLACK
6
CONTINUOUS
10
5.83532
20
-3.41432
11
5.83514
21
-3.41429
0
LINE
8
BLACK
6
CONTINUOUS
10
5.83514
20
-3.41429
11
5.83445
21
-3.41371
0
LINE
8
BLACK
6
CONTINUOUS
10
5.83445
20
-3.41371
11
5.83373
21
-3.4132
0
LINE
8
BLACK
6
CONTINUOUS
10
5.83373
20
-3.4132
11
5.83369
21
-3.41307
0
LINE
8
BLACK
6
CONTINUOUS
10
5.83369
20
-3.41307
11
5.83359
21
-3.41299
0
LINE
8
BLACK
6
CONTINUOUS
10
5.83359
20
-3.41299
11
5.83343
21
-3.41211
0
LINE
8
BLACK
6
CONTINUOUS
10
5.83343
20
-3.41211
11
5.8332
21
-3.41125
0
LINE
8
BLACK
6
CONTINUOUS
10
5.8332
20
-3.41125
11
5.83326
21
-3.41113
0
LINE
8
BLACK
6
CONTINUOUS
10
5.83326
20
-3.41113
11
5.83324
21
-3.411
0
LINE
8
BLACK
6
CONTINUOUS
10
5.83324
20
-3.411
11
5.83368
21
-3.41023
0
LINE
8
BLACK
6
CONTINUOUS
10
5.83368
20
-3.41023
11
5.83406
21
-3.40942
0
LINE
8
BLACK
6
CONTINUOUS
10
5.83406
20
-3.40942
11
5.85606
21
-3.38742
0
LINE
8
BLACK
6
CONTINUOUS
10
5.85606
20
-3.38742
11
5.85756
21
-3.38291
0
LINE
8
BLACK
6
CONTINUOUS
10
5.85756
20
-3.38291
11
5.85756
21
-3.38034
0
LINE
8
BLACK
6
CONTINUOUS
10
5.85756
20
-3.38034
11
5.85622
21
-3.37764
0
LINE
8
BLACK
6
CONTINUOUS
10
5.85622
20
-3.37764
11
5.85502
21
-3.37644
0
LINE
8
BLACK
6
CONTINUOUS
10
5.85502
20
-3.37644
11
5.85232
21
-3.37509
0
LINE
8
BLACK
6
CONTINUOUS
10
5.85232
20
-3.37509
11
5.84434
21
-3.37509
0
LINE
8
BLACK
6
CONTINUOUS
10
5.84434
20
-3.37509
11
5.84164
21
-3.37644
0
LINE
8
BLACK
6
CONTINUOUS
10
5.84164
20
-3.37644
11
5.84011
21
-3.37798
0
LINE
8
BLACK
6
CONTINUOUS
10
5.84011
20
-3.37798
11
5.83927
21
-3.37857
0
LINE
8
BLACK
6
CONTINUOUS
10
5.83927
20
-3.37857
11
5.83726
21
-3.37874
0
LINE
8
BLACK
6
CONTINUOUS
10
5.83726
20
-3.37874
11
5.8356
21
-3.37758
0
LINE
8
BLACK
6
CONTINUOUS
10
5.8356
20
-3.37758
11
5.83508
21
-3.37563
0
LINE
8
BLACK
6
CONTINUOUS
10
5.83508
20
-3.37563
11
5.83593
21
-3.3738
0
LINE
8
BLACK
6
CONTINUOUS
10
5.83593
20
-3.3738
11
5.83781
21
-3.37193
0
LINE
8
BLACK
6
CONTINUOUS
10
5.83781
20
-3.37193
11
5.83853
21
-3.37142
0
LINE
8
BLACK
6
CONTINUOUS
10
5.83853
20
-3.37142
11
5.83857
21
-3.37137
0
LINE
8
BLACK
6
CONTINUOUS
10
5.83857
20
-3.37137
11
5.84232
21
-3.3695
0
LINE
8
BLACK
6
CONTINUOUS
10
5.84232
20
-3.3695
11
5.84331
21
-3.36921
0
LINE
8
BLACK
6
CONTINUOUS
10
5.84331
20
-3.36921
11
5.84348
21
-3.36925
0
LINE
8
BLACK
6
CONTINUOUS
10
5.84348
20
-3.36925
11
5.84364
21
-3.36919
0
LINE
8
BLACK
6
CONTINUOUS
10
5.84364
20
-3.36919
11
5.85302
21
-3.36919
0
LINE
8
BLACK
6
CONTINUOUS
10
5.85302
20
-3.36919
11
5.85403
21
-3.36937
0
LINE
8
BLACK
6
CONTINUOUS
10
5.82127
20
-3.3693
11
5.82166
21
-3.36923
0
LINE
8
BLACK
6
CONTINUOUS
10
5.82166
20
-3.36923
11
5.82222
21
-3.36956
0
LINE
8
BLACK
6
CONTINUOUS
10
5.82222
20
-3.36956
11
5.82284
21
-3.36972
0
LINE
8
BLACK
6
CONTINUOUS
10
5.82284
20
-3.36972
11
5.82307
21
-3.37005
0
LINE
8
BLACK
6
CONTINUOUS
10
5.82307
20
-3.37005
11
5.82341
21
-3.37024
0
LINE
8
BLACK
6
CONTINUOUS
10
5.82341
20
-3.37024
11
5.82363
21
-3.37085
0
LINE
8
BLACK
6
CONTINUOUS
10
5.82363
20
-3.37085
11
5.824
21
-3.37138
0
LINE
8
BLACK
6
CONTINUOUS
10
5.824
20
-3.37138
11
5.82397
21
-3.37177
0
LINE
8
BLACK
6
CONTINUOUS
10
5.82397
20
-3.37177
11
5.8241
21
-3.37214
0
LINE
8
BLACK
6
CONTINUOUS
10
5.8241
20
-3.37214
11
5.8241
21
-3.41151
0
LINE
8
BLACK
6
CONTINUOUS
10
5.8241
20
-3.41151
11
5.82392
21
-3.41252
0
LINE
8
BLACK
6
CONTINUOUS
10
5.82392
20
-3.41252
11
5.82262
21
-3.41407
0
LINE
8
BLACK
6
CONTINUOUS
10
5.82262
20
-3.41407
11
5.82063
21
-3.41442
0
LINE
8
BLACK
6
CONTINUOUS
10
5.82063
20
-3.41442
11
5.81889
21
-3.41341
0
LINE
8
BLACK
6
CONTINUOUS
10
5.81889
20
-3.41341
11
5.81819
21
-3.41151
0
LINE
8
BLACK
6
CONTINUOUS
10
5.81819
20
-3.41151
11
5.81819
21
-3.38545
0
LINE
8
BLACK
6
CONTINUOUS
10
5.81819
20
-3.38545
11
5.8107
21
-3.40151
0
LINE
8
BLACK
6
CONTINUOUS
10
5.8107
20
-3.40151
11
5.81048
21
-3.40183
0
LINE
8
BLACK
6
CONTINUOUS
10
5.81048
20
-3.40183
11
5.81044
21
-3.40196
0
LINE
8
BLACK
6
CONTINUOUS
10
5.81044
20
-3.40196
11
5.81034
21
-3.40203
0
LINE
8
BLACK
6
CONTINUOUS
10
5.81034
20
-3.40203
11
5.81011
21
-3.40235
0
LINE
8
BLACK
6
CONTINUOUS
10
5.81011
20
-3.40235
11
5.80942
21
-3.40267
0
LINE
8
BLACK
6
CONTINUOUS
10
5.80942
20
-3.40267
11
5.80879
21
-3.40311
0
LINE
8
BLACK
6
CONTINUOUS
10
5.80879
20
-3.40311
11
5.80852
21
-3.40309
0
LINE
8
BLACK
6
CONTINUOUS
10
5.80852
20
-3.40309
11
5.80828
21
-3.4032
0
LINE
8
BLACK
6
CONTINUOUS
10
5.80828
20
-3.4032
11
5.80754
21
-3.40301
0
LINE
8
BLACK
6
CONTINUOUS
10
5.80754
20
-3.40301
11
5.80678
21
-3.40294
0
LINE
8
BLACK
6
CONTINUOUS
10
5.80678
20
-3.40294
11
5.80659
21
-3.40275
0
LINE
8
BLACK
6
CONTINUOUS
10
5.80659
20
-3.40275
11
5.80633
21
-3.40268
0
LINE
8
BLACK
6
CONTINUOUS
10
5.80633
20
-3.40268
11
5.80589
21
-3.40205
0
LINE
8
BLACK
6
CONTINUOUS
10
5.80589
20
-3.40205
11
5.80535
21
-3.40151
0
LINE
8
BLACK
6
CONTINUOUS
10
5.80535
20
-3.40151
11
5.79785
21
-3.38545
0
LINE
8
BLACK
6
CONTINUOUS
10
5.79785
20
-3.38545
11
5.79785
21
-3.41151
0
LINE
8
BLACK
6
CONTINUOUS
10
5.79785
20
-3.41151
11
5.79768
21
-3.41252
0
LINE
8
BLACK
6
CONTINUOUS
10
5.79768
20
-3.41252
11
5.79638
21
-3.41407
0
LINE
8
BLACK
6
CONTINUOUS
10
5.79638
20
-3.41407
11
5.79439
21
-3.41442
0
LINE
8
BLACK
6
CONTINUOUS
10
5.79439
20
-3.41442
11
5.79264
21
-3.41341
0
LINE
8
BLACK
6
CONTINUOUS
10
5.79264
20
-3.41341
11
5.79195
21
-3.41151
0
LINE
8
BLACK
6
CONTINUOUS
10
5.79195
20
-3.41151
11
5.79195
21
-3.37214
0
LINE
8
BLACK
6
CONTINUOUS
10
5.79195
20
-3.37214
11
5.79213
21
-3.37113
0
LINE
8
BLACK
6
CONTINUOUS
10
5.79213
20
-3.37113
11
5.79238
21
-3.37083
0
LINE
8
BLACK
6
CONTINUOUS
10
5.79238
20
-3.37083
11
5.79248
21
-3.37045
0
LINE
8
BLACK
6
CONTINUOUS
10
5.79248
20
-3.37045
11
5.79301
21
-3.37008
0
LINE
8
BLACK
6
CONTINUOUS
10
5.79301
20
-3.37008
11
5.79342
21
-3.36958
0
LINE
8
BLACK
6
CONTINUOUS
10
5.79342
20
-3.36958
11
5.79381
21
-3.36952
0
LINE
8
BLACK
6
CONTINUOUS
10
5.79381
20
-3.36952
11
5.79414
21
-3.36929
0
LINE
8
BLACK
6
CONTINUOUS
10
5.79414
20
-3.36929
11
5.79478
21
-3.36935
0
LINE
8
BLACK
6
CONTINUOUS
10
5.79478
20
-3.36935
11
5.79541
21
-3.36923
0
LINE
8
BLACK
6
CONTINUOUS
10
5.79541
20
-3.36923
11
5.79575
21
-3.36943
0
LINE
8
BLACK
6
CONTINUOUS
10
5.79575
20
-3.36943
11
5.79615
21
-3.36946
0
LINE
8
BLACK
6
CONTINUOUS
10
5.79615
20
-3.36946
11
5.7966
21
-3.36992
0
LINE
8
BLACK
6
CONTINUOUS
10
5.7966
20
-3.36992
11
5.79716
21
-3.37024
0
LINE
8
BLACK
6
CONTINUOUS
10
5.79716
20
-3.37024
11
5.7973
21
-3.37061
0
LINE
8
BLACK
6
CONTINUOUS
10
5.7973
20
-3.37061
11
5.79758
21
-3.37089
0
LINE
8
BLACK
6
CONTINUOUS
10
5.79758
20
-3.37089
11
5.80802
21
-3.39328
0
LINE
8
BLACK
6
CONTINUOUS
10
5.80802
20
-3.39328
11
5.81847
21
-3.37089
0
LINE
8
BLACK
6
CONTINUOUS
10
5.81847
20
-3.37089
11
5.81906
21
-3.37005
0
LINE
8
BLACK
6
CONTINUOUS
10
5.81906
20
-3.37005
11
5.81942
21
-3.36989
0
LINE
8
BLACK
6
CONTINUOUS
10
5.81942
20
-3.36989
11
5.81967
21
-3.36958
0
LINE
8
BLACK
6
CONTINUOUS
10
5.81967
20
-3.36958
11
5.82031
21
-3.36947
0
LINE
8
BLACK
6
CONTINUOUS
10
5.82031
20
-3.36947
11
5.82089
21
-3.3692
0
LINE
8
BLACK
6
CONTINUOUS
10
5.82089
20
-3.3692
11
5.82127
21
-3.3693
0
LINE
8
BLACK
6
CONTINUOUS
10
5.84774
20
-3.24328
11
5.84791
21
-3.24325
0
LINE
8
BLACK
6
CONTINUOUS
10
5.84791
20
-3.24325
11
5.84865
21
-3.24368
0
LINE
8
BLACK
6
CONTINUOUS
10
5.84865
20
-3.24368
11
5.84943
21
-3.24402
0
LINE
8
BLACK
6
CONTINUOUS
10
5.84943
20
-3.24402
11
5.84951
21
-3.24417
0
LINE
8
BLACK
6
CONTINUOUS
10
5.84951
20
-3.24417
11
5.84966
21
-3.24426
0
LINE
8
BLACK
6
CONTINUOUS
10
5.84966
20
-3.24426
11
5.84995
21
-3.24506
0
LINE
8
BLACK
6
CONTINUOUS
10
5.84995
20
-3.24506
11
5.85033
21
-3.24583
0
LINE
8
BLACK
6
CONTINUOUS
10
5.85033
20
-3.24583
11
5.85029
21
-3.246
0
LINE
8
BLACK
6
CONTINUOUS
10
5.85029
20
-3.246
11
5.85035
21
-3.24616
0
LINE
8
BLACK
6
CONTINUOUS
10
5.85035
20
-3.24616
11
5.85035
21
-3.28257
0
LINE
8
BLACK
6
CONTINUOUS
10
5.85035
20
-3.28257
11
5.85864
21
-3.28257
0
LINE
8
BLACK
6
CONTINUOUS
10
5.85864
20
-3.28257
11
5.85965
21
-3.28275
0
LINE
8
BLACK
6
CONTINUOUS
10
5.85965
20
-3.28275
11
5.8612
21
-3.28405
0
LINE
8
BLACK
6
CONTINUOUS
10
5.8612
20
-3.28405
11
5.86155
21
-3.28604
0
LINE
8
BLACK
6
CONTINUOUS
10
5.86155
20
-3.28604
11
5.86054
21
-3.28779
0
LINE
8
BLACK
6
CONTINUOUS
10
5.86054
20
-3.28779
11
5.85864
21
-3.28848
0
LINE
8
BLACK
6
CONTINUOUS
10
5.85864
20
-3.28848
11
5.83615
21
-3.28848
0
LINE
8
BLACK
6
CONTINUOUS
10
5.83615
20
-3.28848
11
5.83514
21
-3.2883
0
LINE
8
BLACK
6
CONTINUOUS
10
5.83514
20
-3.2883
11
5.83359
21
-3.287
0
LINE
8
BLACK
6
CONTINUOUS
10
5.83359
20
-3.287
11
5.83324
21
-3.28501
0
LINE
8
BLACK
6
CONTINUOUS
10
5.83324
20
-3.28501
11
5.83425
21
-3.28326
0
LINE
8
BLACK
6
CONTINUOUS
10
5.83425
20
-3.28326
11
5.83615
21
-3.28257
0
LINE
8
BLACK
6
CONTINUOUS
10
5.83615
20
-3.28257
11
5.84444
21
-3.28257
0
LINE
8
BLACK
6
CONTINUOUS
10
5.84444
20
-3.28257
11
5.84444
21
-3.25516
0
LINE
8
BLACK
6
CONTINUOUS
10
5.84444
20
-3.25516
11
5.84198
21
-3.25762
0
LINE
8
BLACK
6
CONTINUOUS
10
5.84198
20
-3.25762
11
5.84126
21
-3.25812
0
LINE
8
BLACK
6
CONTINUOUS
10
5.84126
20
-3.25812
11
5.84122
21
-3.25817
0
LINE
8
BLACK
6
CONTINUOUS
10
5.84122
20
-3.25817
11
5.83747
21
-3.26005
0
LINE
8
BLACK
6
CONTINUOUS
10
5.83747
20
-3.26005
11
5.83648
21
-3.26034
0
LINE
8
BLACK
6
CONTINUOUS
10
5.83648
20
-3.26034
11
5.83452
21
-3.25987
0
LINE
8
BLACK
6
CONTINUOUS
10
5.83452
20
-3.25987
11
5.83332
21
-3.25825
0
LINE
8
BLACK
6
CONTINUOUS
10
5.83332
20
-3.25825
11
5.83344
21
-3.25623
0
LINE
8
BLACK
6
CONTINUOUS
10
5.83344
20
-3.25623
11
5.83482
21
-3.25476
0
LINE
8
BLACK
6
CONTINUOUS
10
5.83482
20
-3.25476
11
5.83815
21
-3.2531
0
LINE
8
BLACK
6
CONTINUOUS
10
5.83815
20
-3.2531
11
5.84135
21
-3.2499
0
LINE
8
BLACK
6
CONTINUOUS
10
5.84135
20
-3.2499
11
5.84494
21
-3.24452
0
LINE
8
BLACK
6
CONTINUOUS
10
5.84494
20
-3.24452
11
5.84565
21
-3.24378
0
LINE
8
BLACK
6
CONTINUOUS
10
5.84565
20
-3.24378
11
5.84581
21
-3.24373
0
LINE
8
BLACK
6
CONTINUOUS
10
5.84581
20
-3.24373
11
5.84592
21
-3.2436
0
LINE
8
BLACK
6
CONTINUOUS
10
5.84592
20
-3.2436
11
5.84676
21
-3.24345
0
LINE
8
BLACK
6
CONTINUOUS
10
5.84676
20
-3.24345
11
5.84758
21
-3.24321
0
LINE
8
BLACK
6
CONTINUOUS
10
5.84758
20
-3.24321
11
5.84774
21
-3.24328
0
LINE
8
BLACK
6
CONTINUOUS
10
5.3079
20
-3.24328
11
5.30803
21
-3.24326
0
LINE
8
BLACK
6
CONTINUOUS
10
5.30803
20
-3.24326
11
5.30814
21
-3.24332
0
LINE
8
BLACK
6
CONTINUOUS
10
5.30814
20
-3.24332
11
5.30847
21
-3.24338
0
LINE
8
BLACK
6
CONTINUOUS
10
5.30847
20
-3.24338
11
5.30908
21
-3.24389
0
LINE
8
BLACK
6
CONTINUOUS
10
5.30908
20
-3.24389
11
5.30976
21
-3.24431
0
LINE
8
BLACK
6
CONTINUOUS
10
5.30976
20
-3.24431
11
5.30984
21
-3.24453
0
LINE
8
BLACK
6
CONTINUOUS
10
5.30984
20
-3.24453
11
5.31002
21
-3.24468
0
LINE
8
BLACK
6
CONTINUOUS
10
5.31002
20
-3.24468
11
5.31016
21
-3.24546
0
LINE
8
BLACK
6
CONTINUOUS
10
5.31016
20
-3.24546
11
5.31041
21
-3.24622
0
LINE
8
BLACK
6
CONTINUOUS
10
5.31041
20
-3.24622
11
5.31033
21
-3.24644
0
LINE
8
BLACK
6
CONTINUOUS
10
5.31033
20
-3.24644
11
5.31037
21
-3.24667
0
LINE
8
BLACK
6
CONTINUOUS
10
5.31037
20
-3.24667
11
5.30997
21
-3.24736
0
LINE
8
BLACK
6
CONTINUOUS
10
5.30997
20
-3.24736
11
5.30968
21
-3.2481
0
LINE
8
BLACK
6
CONTINUOUS
10
5.30968
20
-3.2481
11
5.30073
21
-3.25834
0
LINE
8
BLACK
6
CONTINUOUS
10
5.30073
20
-3.25834
11
5.30097
21
-3.25838
0
LINE
8
BLACK
6
CONTINUOUS
10
5.30097
20
-3.25838
11
5.30111
21
-3.25849
0
LINE
8
BLACK
6
CONTINUOUS
10
5.30111
20
-3.25849
11
5.30128
21
-3.25851
0
LINE
8
BLACK
6
CONTINUOUS
10
5.30128
20
-3.25851
11
5.30503
21
-3.26039
0
LINE
8
BLACK
6
CONTINUOUS
10
5.30503
20
-3.26039
11
5.30574
21
-3.26091
0
LINE
8
BLACK
6
CONTINUOUS
10
5.30574
20
-3.26091
11
5.3058
21
-3.26094
0
LINE
8
BLACK
6
CONTINUOUS
10
5.3058
20
-3.26094
11
5.30767
21
-3.26282
0
LINE
8
BLACK
6
CONTINUOUS
10
5.30767
20
-3.26282
11
5.30818
21
-3.26354
0
LINE
8
BLACK
6
CONTINUOUS
10
5.30818
20
-3.26354
11
5.30823
21
-3.26358
0
LINE
8
BLACK
6
CONTINUOUS
10
5.30823
20
-3.26358
11
5.3101
21
-3.26733
0
LINE
8
BLACK
6
CONTINUOUS
10
5.3101
20
-3.26733
11
5.31039
21
-3.26832
0
LINE
8
BLACK
6
CONTINUOUS
10
5.31039
20
-3.26832
11
5.31035
21
-3.26849
0
LINE
8
BLACK
6
CONTINUOUS
10
5.31035
20
-3.26849
11
5.31041
21
-3.26865
0
LINE
8
BLACK
6
CONTINUOUS
10
5.31041
20
-3.26865
11
5.31041
21
-3.27803
0
LINE
8
BLACK
6
CONTINUOUS
10
5.31041
20
-3.27803
11
5.31024
21
-3.27904
0
LINE
8
BLACK
6
CONTINUOUS
10
5.31024
20
-3.27904
11
5.31012
21
-3.27917
0
LINE
8
BLACK
6
CONTINUOUS
10
5.31012
20
-3.27917
11
5.3101
21
-3.27935
0
LINE
8
BLACK
6
CONTINUOUS
10
5.3101
20
-3.27935
11
5.30823
21
-3.2831
0
LINE
8
BLACK
6
CONTINUOUS
10
5.30823
20
-3.2831
11
5.3077
21
-3.28381
0
LINE
8
BLACK
6
CONTINUOUS
10
5.3077
20
-3.28381
11
5.30767
21
-3.28387
0
LINE
8
BLACK
6
CONTINUOUS
10
5.30767
20
-3.28387
11
5.3058
21
-3.28574
0
LINE
8
BLACK
6
CONTINUOUS
10
5.3058
20
-3.28574
11
5.30508
21
-3.28625
0
LINE
8
BLACK
6
CONTINUOUS
10
5.30508
20
-3.28625
11
5.30503
21
-3.28629
0
LINE
8
BLACK
6
CONTINUOUS
10
5.30503
20
-3.28629
11
5.30128
21
-3.28817
0
LINE
8
BLACK
6
CONTINUOUS
10
5.30128
20
-3.28817
11
5.3003
21
-3.28846
0
LINE
8
BLACK
6
CONTINUOUS
10
5.3003
20
-3.28846
11
5.30013
21
-3.28842
0
LINE
8
BLACK
6
CONTINUOUS
10
5.30013
20
-3.28842
11
5.29996
21
-3.28848
0
LINE
8
BLACK
6
CONTINUOUS
10
5.29996
20
-3.28848
11
5.28871
21
-3.28848
0
LINE
8
BLACK
6
CONTINUOUS
10
5.28871
20
-3.28848
11
5.2877
21
-3.2883
0
LINE
8
BLACK
6
CONTINUOUS
10
5.2877
20
-3.2883
11
5.28757
21
-3.28819
0
LINE
8
BLACK
6
CONTINUOUS
10
5.28757
20
-3.28819
11
5.28739
21
-3.28817
0
LINE
8
BLACK
6
CONTINUOUS
10
5.28739
20
-3.28817
11
5.28364
21
-3.28629
0
LINE
8
BLACK
6
CONTINUOUS
10
5.28364
20
-3.28629
11
5.28293
21
-3.28577
0
LINE
8
BLACK
6
CONTINUOUS
10
5.28293
20
-3.28577
11
5.28288
21
-3.28574
0
LINE
8
BLACK
6
CONTINUOUS
10
5.28288
20
-3.28574
11
5.281
21
-3.28387
0
LINE
8
BLACK
6
CONTINUOUS
10
5.281
20
-3.28387
11
5.28041
21
-3.28303
0
LINE
8
BLACK
6
CONTINUOUS
10
5.28041
20
-3.28303
11
5.28024
21
-3.28101
0
LINE
8
BLACK
6
CONTINUOUS
10
5.28024
20
-3.28101
11
5.2814
21
-3.27936
0
LINE
8
BLACK
6
CONTINUOUS
10
5.2814
20
-3.27936
11
5.28335
21
-3.27884
0
LINE
8
BLACK
6
CONTINUOUS
10
5.28335
20
-3.27884
11
5.28518
21
-3.27969
0
LINE
8
BLACK
6
CONTINUOUS
10
5.28518
20
-3.27969
11
5.28671
21
-3.28123
0
LINE
8
BLACK
6
CONTINUOUS
10
5.28671
20
-3.28123
11
5.28941
21
-3.28257
0
LINE
8
BLACK
6
CONTINUOUS
10
5.28941
20
-3.28257
11
5.29927
21
-3.28257
0
LINE
8
BLACK
6
CONTINUOUS
10
5.29927
20
-3.28257
11
5.30196
21
-3.28123
0
LINE
8
BLACK
6
CONTINUOUS
10
5.30196
20
-3.28123
11
5.30316
21
-3.28003
0
LINE
8
BLACK
6
CONTINUOUS
10
5.30316
20
-3.28003
11
5.30451
21
-3.27733
0
LINE
8
BLACK
6
CONTINUOUS
10
5.30451
20
-3.27733
11
5.30451
21
-3.26935
0
LINE
8
BLACK
6
CONTINUOUS
10
5.30451
20
-3.26935
11
5.30316
21
-3.26665
0
LINE
8
BLACK
6
CONTINUOUS
10
5.30316
20
-3.26665
11
5.30196
21
-3.26546
0
LINE
8
BLACK
6
CONTINUOUS
10
5.30196
20
-3.26546
11
5.29927
21
-3.26411
0
LINE
8
BLACK
6
CONTINUOUS
10
5.29927
20
-3.26411
11
5.29434
21
-3.26411
0
LINE
8
BLACK
6
CONTINUOUS
10
5.29434
20
-3.26411
11
5.2939
21
-3.26403
0
LINE
8
BLACK
6
CONTINUOUS
10
5.2939
20
-3.26403
11
5.29377
21
-3.26405
0
LINE
8
BLACK
6
CONTINUOUS
10
5.29377
20
-3.26405
11
5.29366
21
-3.26399
0
LINE
8
BLACK
6
CONTINUOUS
10
5.29366
20
-3.26399
11
5.29333
21
-3.26393
0
LINE
8
BLACK
6
CONTINUOUS
10
5.29333
20
-3.26393
11
5.29272
21
-3.26342
0
LINE
8
BLACK
6
CONTINUOUS
10
5.29272
20
-3.26342
11
5.29204
21
-3.26301
0
LINE
8
BLACK
6
CONTINUOUS
10
5.29204
20
-3.26301
11
5.29196
21
-3.26278
0
LINE
8
BLACK
6
CONTINUOUS
10
5.29196
20
-3.26278
11
5.29178
21
-3.26263
0
LINE
8
BLACK
6
CONTINUOUS
10
5.29178
20
-3.26263
11
5.29164
21
-3.26185
0
LINE
8
BLACK
6
CONTINUOUS
10
5.29164
20
-3.26185
11
5.29139
21
-3.26109
0
LINE
8
BLACK
6
CONTINUOUS
10
5.29139
20
-3.26109
11
5.29147
21
-3.26087
0
LINE
8
BLACK
6
CONTINUOUS
10
5.29147
20
-3.26087
11
5.29143
21
-3.26064
0
LINE
8
BLACK
6
CONTINUOUS
10
5.29143
20
-3.26064
11
5.29183
21
-3.25995
0
LINE
8
BLACK
6
CONTINUOUS
10
5.29183
20
-3.25995
11
5.29212
21
-3.25921
0
LINE
8
BLACK
6
CONTINUOUS
10
5.29212
20
-3.25921
11
5.30095
21
-3.24911
0
LINE
8
BLACK
6
CONTINUOUS
10
5.30095
20
-3.24911
11
5.28309
21
-3.24911
0
LINE
8
BLACK
6
CONTINUOUS
10
5.28309
20
-3.24911
11
5.28208
21
-3.24893
0
LINE
8
BLACK
6
CONTINUOUS
10
5.28208
20
-3.24893
11
5.28053
21
-3.24763
0
LINE
8
BLACK
6
CONTINUOUS
10
5.28053
20
-3.24763
11
5.28018
21
-3.24564
0
LINE
8
BLACK
6
CONTINUOUS
10
5.28018
20
-3.24564
11
5.28119
21
-3.24389
0
LINE
8
BLACK
6
CONTINUOUS
10
5.28119
20
-3.24389
11
5.28309
21
-3.2432
0
LINE
8
BLACK
6
CONTINUOUS
10
5.28309
20
-3.2432
11
5.30746
21
-3.2432
0
LINE
8
BLACK
6
CONTINUOUS
10
5.30746
20
-3.2432
11
5.3079
21
-3.24328
0
LINE
8
BLACK
6
CONTINUOUS
10
5.82153
20
-3.24426
11
5.82223
21
-3.24616
0
LINE
8
BLACK
6
CONTINUOUS
10
5.82223
20
-3.24616
11
5.82223
21
-3.28553
0
LINE
8
BLACK
6
CONTINUOUS
10
5.82223
20
-3.28553
11
5.82205
21
-3.28654
0
LINE
8
BLACK
6
CONTINUOUS
10
5.82205
20
-3.28654
11
5.82075
21
-3.28808
0
LINE
8
BLACK
6
CONTINUOUS
10
5.82075
20
-3.28808
11
5.81876
21
-3.28843
0
LINE
8
BLACK
6
CONTINUOUS
10
5.81876
20
-3.28843
11
5.81701
21
-3.28742
0
LINE
8
BLACK
6
CONTINUOUS
10
5.81701
20
-3.28742
11
5.81632
21
-3.28553
0
LINE
8
BLACK
6
CONTINUOUS
10
5.81632
20
-3.28553
11
5.81632
21
-3.26786
0
LINE
8
BLACK
6
CONTINUOUS
10
5.81632
20
-3.26786
11
5.79973
21
-3.26786
0
LINE
8
BLACK
6
CONTINUOUS
10
5.79973
20
-3.26786
11
5.79973
21
-3.28553
0
LINE
8
BLACK
6
CONTINUOUS
10
5.79973
20
-3.28553
11
5.79955
21
-3.28654
0
LINE
8
BLACK
6
CONTINUOUS
10
5.79955
20
-3.28654
11
5.79825
21
-3.28808
0
LINE
8
BLACK
6
CONTINUOUS
10
5.79825
20
-3.28808
11
5.79626
21
-3.28843
0
LINE
8
BLACK
6
CONTINUOUS
10
5.79626
20
-3.28843
11
5.79451
21
-3.28742
0
LINE
8
BLACK
6
CONTINUOUS
10
5.79451
20
-3.28742
11
5.79382
21
-3.28553
0
LINE
8
BLACK
6
CONTINUOUS
10
5.79382
20
-3.28553
11
5.79382
21
-3.24616
0
LINE
8
BLACK
6
CONTINUOUS
10
5.79382
20
-3.24616
11
5.794
21
-3.24515
0
LINE
8
BLACK
6
CONTINUOUS
10
5.794
20
-3.24515
11
5.7953
21
-3.2436
0
LINE
8
BLACK
6
CONTINUOUS
10
5.7953
20
-3.2436
11
5.79729
21
-3.24325
0
LINE
8
BLACK
6
CONTINUOUS
10
5.79729
20
-3.24325
11
5.79904
21
-3.24426
0
LINE
8
BLACK
6
CONTINUOUS
10
5.79904
20
-3.24426
11
5.79973
21
-3.24616
0
LINE
8
BLACK
6
CONTINUOUS
10
5.79973
20
-3.24616
11
5.79973
21
-3.26195
0
LINE
8
BLACK
6
CONTINUOUS
10
5.79973
20
-3.26195
11
5.81632
21
-3.26195
0
LINE
8
BLACK
6
CONTINUOUS
10
5.81632
20
-3.26195
11
5.81632
21
-3.24616
0
LINE
8
BLACK
6
CONTINUOUS
10
5.81632
20
-3.24616
11
5.8165
21
-3.24515
0
LINE
8
BLACK
6
CONTINUOUS
10
5.8165
20
-3.24515
11
5.8178
21
-3.2436
0
LINE
8
BLACK
6
CONTINUOUS
10
5.8178
20
-3.2436
11
5.81979
21
-3.24325
0
LINE
8
BLACK
6
CONTINUOUS
10
5.81979
20
-3.24325
11
5.82153
21
-3.24426
0
LINE
8
BLACK
6
CONTINUOUS
10
5.27035
20
-3.24426
11
5.27104
21
-3.24616
0
LINE
8
BLACK
6
CONTINUOUS
10
5.27104
20
-3.24616
11
5.27104
21
-3.28553
0
LINE
8
BLACK
6
CONTINUOUS
10
5.27104
20
-3.28553
11
5.27087
21
-3.28654
0
LINE
8
BLACK
6
CONTINUOUS
10
5.27087
20
-3.28654
11
5.26957
21
-3.28808
0
LINE
8
BLACK
6
CONTINUOUS
10
5.26957
20
-3.28808
11
5.26758
21
-3.28843
0
LINE
8
BLACK
6
CONTINUOUS
10
5.26758
20
-3.28843
11
5.26583
21
-3.28742
0
LINE
8
BLACK
6
CONTINUOUS
10
5.26583
20
-3.28742
11
5.26514
21
-3.28553
0
LINE
8
BLACK
6
CONTINUOUS
10
5.26514
20
-3.28553
11
5.26514
21
-3.26786
0
LINE
8
BLACK
6
CONTINUOUS
10
5.26514
20
-3.26786
11
5.24855
21
-3.26786
0
LINE
8
BLACK
6
CONTINUOUS
10
5.24855
20
-3.26786
11
5.24855
21
-3.28553
0
LINE
8
BLACK
6
CONTINUOUS
10
5.24855
20
-3.28553
11
5.24837
21
-3.28654
0
LINE
8
BLACK
6
CONTINUOUS
10
5.24837
20
-3.28654
11
5.24707
21
-3.28808
0
LINE
8
BLACK
6
CONTINUOUS
10
5.24707
20
-3.28808
11
5.24508
21
-3.28843
0
LINE
8
BLACK
6
CONTINUOUS
10
5.24508
20
-3.28843
11
5.24333
21
-3.28742
0
LINE
8
BLACK
6
CONTINUOUS
10
5.24333
20
-3.28742
11
5.24264
21
-3.28553
0
LINE
8
BLACK
6
CONTINUOUS
10
5.24264
20
-3.28553
11
5.24264
21
-3.24616
0
LINE
8
BLACK
6
CONTINUOUS
10
5.24264
20
-3.24616
11
5.24282
21
-3.24515
0
LINE
8
BLACK
6
CONTINUOUS
10
5.24282
20
-3.24515
11
5.24412
21
-3.2436
0
LINE
8
BLACK
6
CONTINUOUS
10
5.24412
20
-3.2436
11
5.24611
21
-3.24325
0
LINE
8
BLACK
6
CONTINUOUS
10
5.24611
20
-3.24325
11
5.24786
21
-3.24426
0
LINE
8
BLACK
6
CONTINUOUS
10
5.24786
20
-3.24426
11
5.24855
21
-3.24616
0
LINE
8
BLACK
6
CONTINUOUS
10
5.24855
20
-3.24616
11
5.24855
21
-3.26195
0
LINE
8
BLACK
6
CONTINUOUS
10
5.24855
20
-3.26195
11
5.26514
21
-3.26195
0
LINE
8
BLACK
6
CONTINUOUS
10
5.26514
20
-3.26195
11
5.26514
21
-3.24616
0
LINE
8
BLACK
6
CONTINUOUS
10
5.26514
20
-3.24616
11
5.26532
21
-3.24515
0
LINE
8
BLACK
6
CONTINUOUS
10
5.26532
20
-3.24515
11
5.26662
21
-3.2436
0
LINE
8
BLACK
6
CONTINUOUS
10
5.26662
20
-3.2436
11
5.2686
21
-3.24325
0
LINE
8
BLACK
6
CONTINUOUS
10
5.2686
20
-3.24325
11
5.27035
21
-3.24426
  0
ENDSEC
  0
EOF
