  0
SECTION
  2
HEADER
  9
$ANGBASE
  50
0.0
  9
$ANGDIR
  70
1
  9
$MEASUREMENT
  70
0
  0
ENDSEC
  0
SECTION
  2
TABLES
  0
TABLE
  2
LTYPE
  70
4
  0
LTYPE
  5
40F
  2
CONTINUOUS
  70
0
  3
Solid line
  72
65
  73
0
  40
0.0
  0
LTYPE
  5
410
  2
DASHDOT
 70
0
  3
Dash Dot ____ _ ____ _
 72
65
 73
4
 40
2.0
 49
1.25
 49
-0.25
 49
0.25
 49
-0.25
  0
LTYPE
  5
411
  2
DASHED
 70
0
  3
Dashed __ __ __ __ __
 72
65
 73
2
 40
0.75
 49
0.5
 49
-0.25
  0
LTYPE
  5
43B
  2
DOTTED
 70
0
  3
Dotted .  .  .  .
 72
65
 73
2
 40
0.2
 49
0.0
 49
-0.2
  0
ENDTAB
  0
TABLE
  2
STYLE
  70
4
  0
STYLE
  2
KICAD
  70
0
  40
0
  41
1
  42
1
  50
0
  71
0
  3
isocp.shx
  0
STYLE
  2
KICADB
  70
0
  40
0
  41
1
  42
1
  50
0
  71
0
  3
isocp.shx
  0
STYLE
  2
KICADI
  70
0
  40
0
  41
1
  42
1
  50
15
  71
0
  3
isocp.shx
  0
STYLE
  2
KICADBI
  70
0
  40
0
  41
1
  42
1
  50
15
  71
0
  3
isocp.shx
  0
ENDTAB
  0
TABLE
  2
LAYER
  70
1
  0
LAYER
  2
BLACK
  70
0
  62
7
  6
CONTINUOUS
  0
ENDTAB
  0
ENDSEC
  0
SECTION
  2
ENTITIES
0
LINE
8
BLACK
6
CONTINUOUS
10
5.61219
20
-3.63459
11
5.6153
21
-3.63667
0
LINE
8
BLACK
6
CONTINUOUS
10
5.6153
20
-3.63667
11
5.61738
21
-3.63978
0
LINE
8
BLACK
6
CONTINUOUS
10
5.61738
20
-3.63978
11
5.61811
21
-3.64345
0
LINE
8
BLACK
6
CONTINUOUS
10
5.61811
20
-3.64345
11
5.61811
21
-3.66265
0
LINE
8
BLACK
6
CONTINUOUS
10
5.61811
20
-3.66265
11
5.61738
21
-3.66632
0
LINE
8
BLACK
6
CONTINUOUS
10
5.61738
20
-3.66632
11
5.6153
21
-3.66943
0
LINE
8
BLACK
6
CONTINUOUS
10
5.6153
20
-3.66943
11
5.61219
21
-3.67151
0
LINE
8
BLACK
6
CONTINUOUS
10
5.61219
20
-3.67151
11
5.60851
21
-3.67224
0
LINE
8
BLACK
6
CONTINUOUS
10
5.60851
20
-3.67224
11
5.57259
21
-3.67224
0
LINE
8
BLACK
6
CONTINUOUS
10
5.57259
20
-3.67224
11
5.56892
21
-3.67151
0
LINE
8
BLACK
6
CONTINUOUS
10
5.56892
20
-3.67151
11
5.5658
21
-3.66943
0
LINE
8
BLACK
6
CONTINUOUS
10
5.5658
20
-3.66943
11
5.56372
21
-3.66632
0
LINE
8
BLACK
6
CONTINUOUS
10
5.56372
20
-3.66632
11
5.56299
21
-3.66265
0
LINE
8
BLACK
6
CONTINUOUS
10
5.56299
20
-3.66265
11
5.56299
21
-3.64345
0
LINE
8
BLACK
6
CONTINUOUS
10
5.56299
20
-3.64345
11
5.56372
21
-3.63978
0
LINE
8
BLACK
6
CONTINUOUS
10
5.56372
20
-3.63978
11
5.5658
21
-3.63667
0
LINE
8
BLACK
6
CONTINUOUS
10
5.5658
20
-3.63667
11
5.56892
21
-3.63459
0
LINE
8
BLACK
6
CONTINUOUS
10
5.56892
20
-3.63459
11
5.57259
21
-3.63386
0
LINE
8
BLACK
6
CONTINUOUS
10
5.57259
20
-3.63386
11
5.60851
21
-3.63386
0
LINE
8
BLACK
6
CONTINUOUS
10
5.60851
20
-3.63386
11
5.61219
21
-3.63459
0
LINE
8
BLACK
6
CONTINUOUS
10
5.61219
20
-3.56077
11
5.6153
21
-3.56285
0
LINE
8
BLACK
6
CONTINUOUS
10
5.6153
20
-3.56285
11
5.61738
21
-3.56596
0
LINE
8
BLACK
6
CONTINUOUS
10
5.61738
20
-3.56596
11
5.61811
21
-3.56964
0
LINE
8
BLACK
6
CONTINUOUS
10
5.61811
20
-3.56964
11
5.61811
21
-3.58883
0
LINE
8
BLACK
6
CONTINUOUS
10
5.61811
20
-3.58883
11
5.61738
21
-3.5925
0
LINE
8
BLACK
6
CONTINUOUS
10
5.61738
20
-3.5925
11
5.6153
21
-3.59561
0
LINE
8
BLACK
6
CONTINUOUS
10
5.6153
20
-3.59561
11
5.61219
21
-3.59769
0
LINE
8
BLACK
6
CONTINUOUS
10
5.61219
20
-3.59769
11
5.60851
21
-3.59843
0
LINE
8
BLACK
6
CONTINUOUS
10
5.60851
20
-3.59843
11
5.57259
21
-3.59843
0
LINE
8
BLACK
6
CONTINUOUS
10
5.57259
20
-3.59843
11
5.56892
21
-3.59769
0
LINE
8
BLACK
6
CONTINUOUS
10
5.56892
20
-3.59769
11
5.5658
21
-3.59561
0
LINE
8
BLACK
6
CONTINUOUS
10
5.5658
20
-3.59561
11
5.56372
21
-3.5925
0
LINE
8
BLACK
6
CONTINUOUS
10
5.56372
20
-3.5925
11
5.56299
21
-3.58883
0
LINE
8
BLACK
6
CONTINUOUS
10
5.56299
20
-3.58883
11
5.56299
21
-3.56964
0
LINE
8
BLACK
6
CONTINUOUS
10
5.56299
20
-3.56964
11
5.56372
21
-3.56596
0
LINE
8
BLACK
6
CONTINUOUS
10
5.56372
20
-3.56596
11
5.5658
21
-3.56285
0
LINE
8
BLACK
6
CONTINUOUS
10
5.5658
20
-3.56285
11
5.56892
21
-3.56077
0
LINE
8
BLACK
6
CONTINUOUS
10
5.56892
20
-3.56077
11
5.57259
21
-3.56004
0
LINE
8
BLACK
6
CONTINUOUS
10
5.57259
20
-3.56004
11
5.60851
21
-3.56004
0
LINE
8
BLACK
6
CONTINUOUS
10
5.60851
20
-3.56004
11
5.61219
21
-3.56077
0
LINE
8
BLACK
6
CONTINUOUS
10
5.61203
20
-3.48106
11
5.61523
21
-3.4832
0
LINE
8
BLACK
6
CONTINUOUS
10
5.61523
20
-3.4832
11
5.61736
21
-3.48639
0
LINE
8
BLACK
6
CONTINUOUS
10
5.61736
20
-3.48639
11
5.61811
21
-3.49016
0
LINE
8
BLACK
6
CONTINUOUS
10
5.61811
20
-3.49016
11
5.61811
21
-3.51083
0
LINE
8
BLACK
6
CONTINUOUS
10
5.61811
20
-3.51083
11
5.61736
21
-3.51459
0
LINE
8
BLACK
6
CONTINUOUS
10
5.61736
20
-3.51459
11
5.61523
21
-3.51779
0
LINE
8
BLACK
6
CONTINUOUS
10
5.61523
20
-3.51779
11
5.61203
21
-3.51992
0
LINE
8
BLACK
6
CONTINUOUS
10
5.61203
20
-3.51992
11
5.60827
21
-3.52067
0
LINE
8
BLACK
6
CONTINUOUS
10
5.60827
20
-3.52067
11
5.57283
21
-3.52067
0
LINE
8
BLACK
6
CONTINUOUS
10
5.57283
20
-3.52067
11
5.56907
21
-3.51992
0
LINE
8
BLACK
6
CONTINUOUS
10
5.56907
20
-3.51992
11
5.56587
21
-3.51779
0
LINE
8
BLACK
6
CONTINUOUS
10
5.56587
20
-3.51779
11
5.56374
21
-3.51459
0
LINE
8
BLACK
6
CONTINUOUS
10
5.56374
20
-3.51459
11
5.56299
21
-3.51083
0
LINE
8
BLACK
6
CONTINUOUS
10
5.56299
20
-3.51083
11
5.56299
21
-3.49016
0
LINE
8
BLACK
6
CONTINUOUS
10
5.56299
20
-3.49016
11
5.56374
21
-3.48639
0
LINE
8
BLACK
6
CONTINUOUS
10
5.56374
20
-3.48639
11
5.56587
21
-3.4832
0
LINE
8
BLACK
6
CONTINUOUS
10
5.56587
20
-3.4832
11
5.56907
21
-3.48106
0
LINE
8
BLACK
6
CONTINUOUS
10
5.56907
20
-3.48106
11
5.57283
21
-3.48031
0
LINE
8
BLACK
6
CONTINUOUS
10
5.57283
20
-3.48031
11
5.60827
21
-3.48031
0
LINE
8
BLACK
6
CONTINUOUS
10
5.60827
20
-3.48031
11
5.61203
21
-3.48106
0
LINE
8
BLACK
6
CONTINUOUS
10
5.61203
20
-3.40921
11
5.61523
21
-3.41135
0
LINE
8
BLACK
6
CONTINUOUS
10
5.61523
20
-3.41135
11
5.61736
21
-3.41454
0
LINE
8
BLACK
6
CONTINUOUS
10
5.61736
20
-3.41454
11
5.61811
21
-3.41831
0
LINE
8
BLACK
6
CONTINUOUS
10
5.61811
20
-3.41831
11
5.61811
21
-3.43898
0
LINE
8
BLACK
6
CONTINUOUS
10
5.61811
20
-3.43898
11
5.61736
21
-3.44274
0
LINE
8
BLACK
6
CONTINUOUS
10
5.61736
20
-3.44274
11
5.61523
21
-3.44594
0
LINE
8
BLACK
6
CONTINUOUS
10
5.61523
20
-3.44594
11
5.61203
21
-3.44807
0
LINE
8
BLACK
6
CONTINUOUS
10
5.61203
20
-3.44807
11
5.60827
21
-3.44882
0
LINE
8
BLACK
6
CONTINUOUS
10
5.60827
20
-3.44882
11
5.57283
21
-3.44882
0
LINE
8
BLACK
6
CONTINUOUS
10
5.57283
20
-3.44882
11
5.56907
21
-3.44807
0
LINE
8
BLACK
6
CONTINUOUS
10
5.56907
20
-3.44807
11
5.56587
21
-3.44594
0
LINE
8
BLACK
6
CONTINUOUS
10
5.56587
20
-3.44594
11
5.56374
21
-3.44274
0
LINE
8
BLACK
6
CONTINUOUS
10
5.56374
20
-3.44274
11
5.56299
21
-3.43898
0
LINE
8
BLACK
6
CONTINUOUS
10
5.56299
20
-3.43898
11
5.56299
21
-3.41831
0
LINE
8
BLACK
6
CONTINUOUS
10
5.56299
20
-3.41831
11
5.56374
21
-3.41454
0
LINE
8
BLACK
6
CONTINUOUS
10
5.56374
20
-3.41454
11
5.56587
21
-3.41135
0
LINE
8
BLACK
6
CONTINUOUS
10
5.56587
20
-3.41135
11
5.56907
21
-3.40921
0
LINE
8
BLACK
6
CONTINUOUS
10
5.56907
20
-3.40921
11
5.57283
21
-3.40846
0
LINE
8
BLACK
6
CONTINUOUS
10
5.57283
20
-3.40846
11
5.60827
21
-3.40846
0
LINE
8
BLACK
6
CONTINUOUS
10
5.60827
20
-3.40846
11
5.61203
21
-3.40921
  0
ENDSEC
  0
EOF
