  0
SECTION
  2
HEADER
  9
$ANGBASE
  50
0.0
  9
$ANGDIR
  70
1
  9
$MEASUREMENT
  70
0
  0
ENDSEC
  0
SECTION
  2
TABLES
  0
TABLE
  2
LTYPE
  70
4
  0
LTYPE
  5
40F
  2
CONTINUOUS
  70
0
  3
Solid line
  72
65
  73
0
  40
0.0
  0
LTYPE
  5
410
  2
DASHDOT
 70
0
  3
Dash Dot ____ _ ____ _
 72
65
 73
4
 40
2.0
 49
1.25
 49
-0.25
 49
0.25
 49
-0.25
  0
LTYPE
  5
411
  2
DASHED
 70
0
  3
Dashed __ __ __ __ __
 72
65
 73
2
 40
0.75
 49
0.5
 49
-0.25
  0
LTYPE
  5
43B
  2
DOTTED
 70
0
  3
Dotted .  .  .  .
 72
65
 73
2
 40
0.2
 49
0.0
 49
-0.2
  0
ENDTAB
  0
TABLE
  2
STYLE
  70
4
  0
STYLE
  2
KICAD
  70
0
  40
0
  41
1
  42
1
  50
0
  71
0
  3
isocp.shx
  0
STYLE
  2
KICADB
  70
0
  40
0
  41
1
  42
1
  50
0
  71
0
  3
isocp.shx
  0
STYLE
  2
KICADI
  70
0
  40
0
  41
1
  42
1
  50
15
  71
0
  3
isocp.shx
  0
STYLE
  2
KICADBI
  70
0
  40
0
  41
1
  42
1
  50
15
  71
0
  3
isocp.shx
  0
ENDTAB
  0
TABLE
  2
LAYER
  70
1
  0
LAYER
  2
BLACK
  70
0
  62
7
  6
CONTINUOUS
  0
ENDTAB
  0
ENDSEC
  0
SECTION
  2
ENTITIES
0
LINE
8
BLACK
6
CONTINUOUS
10
5.26304
20
-3.93832
11
5.25062
21
-3.93635
0
LINE
8
BLACK
6
CONTINUOUS
10
5.25062
20
-3.93635
11
5.23848
21
-3.9331
0
LINE
8
BLACK
6
CONTINUOUS
10
5.23848
20
-3.9331
11
5.22675
21
-3.9286
0
LINE
8
BLACK
6
CONTINUOUS
10
5.22675
20
-3.9286
11
5.21555
21
-3.92289
0
LINE
8
BLACK
6
CONTINUOUS
10
5.21555
20
-3.92289
11
5.20501
21
-3.91604
0
LINE
8
BLACK
6
CONTINUOUS
10
5.20501
20
-3.91604
11
5.19524
21
-3.90813
0
LINE
8
BLACK
6
CONTINUOUS
10
5.19524
20
-3.90813
11
5.18635
21
-3.89925
0
LINE
8
BLACK
6
CONTINUOUS
10
5.18635
20
-3.89925
11
5.17844
21
-3.88948
0
LINE
8
BLACK
6
CONTINUOUS
10
5.17844
20
-3.88948
11
5.1716
21
-3.87894
0
LINE
8
BLACK
6
CONTINUOUS
10
5.1716
20
-3.87894
11
5.16589
21
-3.86774
0
LINE
8
BLACK
6
CONTINUOUS
10
5.16589
20
-3.86774
11
5.16139
21
-3.856
0
LINE
8
BLACK
6
CONTINUOUS
10
5.16139
20
-3.856
11
5.15814
21
-3.84386
0
LINE
8
BLACK
6
CONTINUOUS
10
5.15814
20
-3.84386
11
5.15617
21
-3.83145
0
LINE
8
BLACK
6
CONTINUOUS
10
5.15617
20
-3.83145
11
5.15551
21
-3.8189
0
LINE
8
BLACK
6
CONTINUOUS
10
5.15551
20
-3.8189
11
5.15551
21
-3.26772
0
LINE
8
BLACK
6
CONTINUOUS
10
5.15551
20
-3.26772
11
5.15617
21
-3.25516
0
LINE
8
BLACK
6
CONTINUOUS
10
5.15617
20
-3.25516
11
5.15814
21
-3.24275
0
LINE
8
BLACK
6
CONTINUOUS
10
5.15814
20
-3.24275
11
5.16139
21
-3.23061
0
LINE
8
BLACK
6
CONTINUOUS
10
5.16139
20
-3.23061
11
5.16589
21
-3.21888
0
LINE
8
BLACK
6
CONTINUOUS
10
5.16589
20
-3.21888
11
5.1716
21
-3.20768
0
LINE
8
BLACK
6
CONTINUOUS
10
5.1716
20
-3.20768
11
5.17844
21
-3.19714
0
LINE
8
BLACK
6
CONTINUOUS
10
5.17844
20
-3.19714
11
5.18635
21
-3.18737
0
LINE
8
BLACK
6
CONTINUOUS
10
5.18635
20
-3.18737
11
5.19524
21
-3.17848
0
LINE
8
BLACK
6
CONTINUOUS
10
5.19524
20
-3.17848
11
5.20501
21
-3.17057
0
LINE
8
BLACK
6
CONTINUOUS
10
5.20501
20
-3.17057
11
5.21555
21
-3.16373
0
LINE
8
BLACK
6
CONTINUOUS
10
5.21555
20
-3.16373
11
5.22675
21
-3.15802
0
LINE
8
BLACK
6
CONTINUOUS
10
5.22675
20
-3.15802
11
5.23848
21
-3.15351
0
LINE
8
BLACK
6
CONTINUOUS
10
5.23848
20
-3.15351
11
5.25062
21
-3.15026
0
LINE
8
BLACK
6
CONTINUOUS
10
5.25062
20
-3.15026
11
5.26304
21
-3.1483
0
LINE
8
BLACK
6
CONTINUOUS
10
5.26304
20
-3.1483
11
5.27559
21
-3.14764
0
LINE
8
BLACK
6
CONTINUOUS
10
5.27559
20
-3.14764
11
5.82677
21
-3.14764
0
LINE
8
BLACK
6
CONTINUOUS
10
5.82677
20
-3.14764
11
5.83932
21
-3.1483
0
LINE
8
BLACK
6
CONTINUOUS
10
5.83932
20
-3.1483
11
5.85174
21
-3.15026
0
LINE
8
BLACK
6
CONTINUOUS
10
5.85174
20
-3.15026
11
5.86388
21
-3.15351
0
LINE
8
BLACK
6
CONTINUOUS
10
5.86388
20
-3.15351
11
5.87561
21
-3.15802
0
LINE
8
BLACK
6
CONTINUOUS
10
5.87561
20
-3.15802
11
5.88681
21
-3.16373
0
LINE
8
BLACK
6
CONTINUOUS
10
5.88681
20
-3.16373
11
5.89735
21
-3.17057
0
LINE
8
BLACK
6
CONTINUOUS
10
5.89735
20
-3.17057
11
5.90712
21
-3.17848
0
LINE
8
BLACK
6
CONTINUOUS
10
5.90712
20
-3.17848
11
5.91601
21
-3.18737
0
LINE
8
BLACK
6
CONTINUOUS
10
5.91601
20
-3.18737
11
5.92392
21
-3.19714
0
LINE
8
BLACK
6
CONTINUOUS
10
5.92392
20
-3.19714
11
5.93076
21
-3.20768
0
LINE
8
BLACK
6
CONTINUOUS
10
5.93076
20
-3.20768
11
5.93647
21
-3.21888
0
LINE
8
BLACK
6
CONTINUOUS
10
5.93647
20
-3.21888
11
5.94097
21
-3.23061
0
LINE
8
BLACK
6
CONTINUOUS
10
5.94097
20
-3.23061
11
5.94423
21
-3.24275
0
LINE
8
BLACK
6
CONTINUOUS
10
5.94423
20
-3.24275
11
5.94619
21
-3.25516
0
LINE
8
BLACK
6
CONTINUOUS
10
5.94619
20
-3.25516
11
5.94685
21
-3.26772
0
LINE
8
BLACK
6
CONTINUOUS
10
5.94685
20
-3.26772
11
5.94685
21
-3.8189
0
LINE
8
BLACK
6
CONTINUOUS
10
5.94685
20
-3.8189
11
5.94619
21
-3.83145
0
LINE
8
BLACK
6
CONTINUOUS
10
5.94619
20
-3.83145
11
5.94423
21
-3.84386
0
LINE
8
BLACK
6
CONTINUOUS
10
5.94423
20
-3.84386
11
5.94097
21
-3.856
0
LINE
8
BLACK
6
CONTINUOUS
10
5.94097
20
-3.856
11
5.93647
21
-3.86774
0
LINE
8
BLACK
6
CONTINUOUS
10
5.93647
20
-3.86774
11
5.93076
21
-3.87894
0
LINE
8
BLACK
6
CONTINUOUS
10
5.93076
20
-3.87894
11
5.92392
21
-3.88948
0
LINE
8
BLACK
6
CONTINUOUS
10
5.92392
20
-3.88948
11
5.91601
21
-3.89925
0
LINE
8
BLACK
6
CONTINUOUS
10
5.91601
20
-3.89925
11
5.90712
21
-3.90813
0
LINE
8
BLACK
6
CONTINUOUS
10
5.90712
20
-3.90813
11
5.89735
21
-3.91604
0
LINE
8
BLACK
6
CONTINUOUS
10
5.89735
20
-3.91604
11
5.88681
21
-3.92289
0
LINE
8
BLACK
6
CONTINUOUS
10
5.88681
20
-3.92289
11
5.87561
21
-3.9286
0
LINE
8
BLACK
6
CONTINUOUS
10
5.87561
20
-3.9286
11
5.86388
21
-3.9331
0
LINE
8
BLACK
6
CONTINUOUS
10
5.86388
20
-3.9331
11
5.85174
21
-3.93635
0
LINE
8
BLACK
6
CONTINUOUS
10
5.85174
20
-3.93635
11
5.83932
21
-3.93832
0
LINE
8
BLACK
6
CONTINUOUS
10
5.83932
20
-3.93832
11
5.82677
21
-3.93898
0
LINE
8
BLACK
6
CONTINUOUS
10
5.82677
20
-3.93898
11
5.27559
21
-3.93898
0
LINE
8
BLACK
6
CONTINUOUS
10
5.27559
20
-3.93898
11
5.26304
21
-3.93832
0
LINE
8
BLACK
6
CONTINUOUS
10
5.2752
20
-3.15141
11
5.26257
21
-3.15212
0
LINE
8
BLACK
6
CONTINUOUS
10
5.26257
20
-3.15212
11
5.24971
21
-3.15431
0
LINE
8
BLACK
6
CONTINUOUS
10
5.24971
20
-3.15431
11
5.23717
21
-3.15792
0
LINE
8
BLACK
6
CONTINUOUS
10
5.23717
20
-3.15792
11
5.22512
21
-3.16291
0
LINE
8
BLACK
6
CONTINUOUS
10
5.22512
20
-3.16291
11
5.2137
21
-3.16922
0
LINE
8
BLACK
6
CONTINUOUS
10
5.2137
20
-3.16922
11
5.20306
21
-3.17677
0
LINE
8
BLACK
6
CONTINUOUS
10
5.20306
20
-3.17677
11
5.19334
21
-3.18546
0
LINE
8
BLACK
6
CONTINUOUS
10
5.19334
20
-3.18546
11
5.18464
21
-3.19519
0
LINE
8
BLACK
6
CONTINUOUS
10
5.18464
20
-3.19519
11
5.1771
21
-3.20583
0
LINE
8
BLACK
6
CONTINUOUS
10
5.1771
20
-3.20583
11
5.17079
21
-3.21725
0
LINE
8
BLACK
6
CONTINUOUS
10
5.17079
20
-3.21725
11
5.16579
21
-3.2293
0
LINE
8
BLACK
6
CONTINUOUS
10
5.16579
20
-3.2293
11
5.16218
21
-3.24183
0
LINE
8
BLACK
6
CONTINUOUS
10
5.16218
20
-3.24183
11
5.16
21
-3.25469
0
LINE
8
BLACK
6
CONTINUOUS
10
5.16
20
-3.25469
11
5.15929
21
-3.26733
0
LINE
8
BLACK
6
CONTINUOUS
10
5.15929
20
-3.26733
11
5.15945
21
-3.26772
0
LINE
8
BLACK
6
CONTINUOUS
10
5.15945
20
-3.26772
11
5.15945
21
-3.8189
0
LINE
8
BLACK
6
CONTINUOUS
10
5.15945
20
-3.8189
11
5.15929
21
-3.81929
0
LINE
8
BLACK
6
CONTINUOUS
10
5.15929
20
-3.81929
11
5.16
21
-3.83192
0
LINE
8
BLACK
6
CONTINUOUS
10
5.16
20
-3.83192
11
5.16218
21
-3.84478
0
LINE
8
BLACK
6
CONTINUOUS
10
5.16218
20
-3.84478
11
5.16579
21
-3.85732
0
LINE
8
BLACK
6
CONTINUOUS
10
5.16579
20
-3.85732
11
5.17079
21
-3.86937
0
LINE
8
BLACK
6
CONTINUOUS
10
5.17079
20
-3.86937
11
5.1771
21
-3.88079
0
LINE
8
BLACK
6
CONTINUOUS
10
5.1771
20
-3.88079
11
5.18464
21
-3.89142
0
LINE
8
BLACK
6
CONTINUOUS
10
5.18464
20
-3.89142
11
5.19334
21
-3.90115
0
LINE
8
BLACK
6
CONTINUOUS
10
5.19334
20
-3.90115
11
5.20306
21
-3.90984
0
LINE
8
BLACK
6
CONTINUOUS
10
5.20306
20
-3.90984
11
5.2137
21
-3.91739
0
LINE
8
BLACK
6
CONTINUOUS
10
5.2137
20
-3.91739
11
5.22512
21
-3.9237
0
LINE
8
BLACK
6
CONTINUOUS
10
5.22512
20
-3.9237
11
5.23717
21
-3.92869
0
LINE
8
BLACK
6
CONTINUOUS
10
5.23717
20
-3.92869
11
5.24971
21
-3.93231
0
LINE
8
BLACK
6
CONTINUOUS
10
5.24971
20
-3.93231
11
5.26257
21
-3.93449
0
LINE
8
BLACK
6
CONTINUOUS
10
5.26257
20
-3.93449
11
5.2752
21
-3.9352
0
LINE
8
BLACK
6
CONTINUOUS
10
5.2752
20
-3.9352
11
5.27559
21
-3.93504
0
LINE
8
BLACK
6
CONTINUOUS
10
5.27559
20
-3.93504
11
5.82677
21
-3.93504
0
LINE
8
BLACK
6
CONTINUOUS
10
5.82677
20
-3.93504
11
5.82716
21
-3.9352
0
LINE
8
BLACK
6
CONTINUOUS
10
5.82716
20
-3.9352
11
5.8398
21
-3.93449
0
LINE
8
BLACK
6
CONTINUOUS
10
5.8398
20
-3.93449
11
5.85266
21
-3.93231
0
LINE
8
BLACK
6
CONTINUOUS
10
5.85266
20
-3.93231
11
5.86519
21
-3.92869
0
LINE
8
BLACK
6
CONTINUOUS
10
5.86519
20
-3.92869
11
5.87724
21
-3.9237
0
LINE
8
BLACK
6
CONTINUOUS
10
5.87724
20
-3.9237
11
5.88866
21
-3.91739
0
LINE
8
BLACK
6
CONTINUOUS
10
5.88866
20
-3.91739
11
5.8993
21
-3.90984
0
LINE
8
BLACK
6
CONTINUOUS
10
5.8993
20
-3.90984
11
5.90903
21
-3.90115
0
LINE
8
BLACK
6
CONTINUOUS
10
5.90903
20
-3.90115
11
5.91772
21
-3.89142
0
LINE
8
BLACK
6
CONTINUOUS
10
5.91772
20
-3.89142
11
5.92527
21
-3.88079
0
LINE
8
BLACK
6
CONTINUOUS
10
5.92527
20
-3.88079
11
5.93158
21
-3.86937
0
LINE
8
BLACK
6
CONTINUOUS
10
5.93158
20
-3.86937
11
5.93657
21
-3.85732
0
LINE
8
BLACK
6
CONTINUOUS
10
5.93657
20
-3.85732
11
5.94018
21
-3.84478
0
LINE
8
BLACK
6
CONTINUOUS
10
5.94018
20
-3.84478
11
5.94236
21
-3.83192
0
LINE
8
BLACK
6
CONTINUOUS
10
5.94236
20
-3.83192
11
5.94307
21
-3.81929
0
LINE
8
BLACK
6
CONTINUOUS
10
5.94307
20
-3.81929
11
5.94291
21
-3.8189
0
LINE
8
BLACK
6
CONTINUOUS
10
5.94291
20
-3.8189
11
5.94291
21
-3.26772
0
LINE
8
BLACK
6
CONTINUOUS
10
5.94291
20
-3.26772
11
5.94307
21
-3.26733
0
LINE
8
BLACK
6
CONTINUOUS
10
5.94307
20
-3.26733
11
5.94236
21
-3.25469
0
LINE
8
BLACK
6
CONTINUOUS
10
5.94236
20
-3.25469
11
5.94018
21
-3.24183
0
LINE
8
BLACK
6
CONTINUOUS
10
5.94018
20
-3.24183
11
5.93657
21
-3.2293
0
LINE
8
BLACK
6
CONTINUOUS
10
5.93657
20
-3.2293
11
5.93158
21
-3.21725
0
LINE
8
BLACK
6
CONTINUOUS
10
5.93158
20
-3.21725
11
5.92527
21
-3.20583
0
LINE
8
BLACK
6
CONTINUOUS
10
5.92527
20
-3.20583
11
5.91772
21
-3.19519
0
LINE
8
BLACK
6
CONTINUOUS
10
5.91772
20
-3.19519
11
5.90903
21
-3.18546
0
LINE
8
BLACK
6
CONTINUOUS
10
5.90903
20
-3.18546
11
5.8993
21
-3.17677
0
LINE
8
BLACK
6
CONTINUOUS
10
5.8993
20
-3.17677
11
5.88866
21
-3.16922
0
LINE
8
BLACK
6
CONTINUOUS
10
5.88866
20
-3.16922
11
5.87724
21
-3.16291
0
LINE
8
BLACK
6
CONTINUOUS
10
5.87724
20
-3.16291
11
5.86519
21
-3.15792
0
LINE
8
BLACK
6
CONTINUOUS
10
5.86519
20
-3.15792
11
5.85266
21
-3.15431
0
LINE
8
BLACK
6
CONTINUOUS
10
5.85266
20
-3.15431
11
5.8398
21
-3.15212
0
LINE
8
BLACK
6
CONTINUOUS
10
5.8398
20
-3.15212
11
5.82716
21
-3.15141
0
LINE
8
BLACK
6
CONTINUOUS
10
5.82716
20
-3.15141
11
5.82677
21
-3.15157
0
LINE
8
BLACK
6
CONTINUOUS
10
5.82677
20
-3.15157
11
5.27559
21
-3.15157
0
LINE
8
BLACK
6
CONTINUOUS
10
5.27559
20
-3.15157
11
5.2752
21
-3.15141
  0
ENDSEC
  0
EOF
