  0
SECTION
  2
HEADER
  9
$ANGBASE
  50
0.0
  9
$ANGDIR
  70
1
  9
$MEASUREMENT
  70
0
  0
ENDSEC
  0
SECTION
  2
TABLES
  0
TABLE
  2
LTYPE
  70
4
  0
LTYPE
  5
40F
  2
CONTINUOUS
  70
0
  3
Solid line
  72
65
  73
0
  40
0.0
  0
LTYPE
  5
410
  2
DASHDOT
 70
0
  3
Dash Dot ____ _ ____ _
 72
65
 73
4
 40
2.0
 49
1.25
 49
-0.25
 49
0.25
 49
-0.25
  0
LTYPE
  5
411
  2
DASHED
 70
0
  3
Dashed __ __ __ __ __
 72
65
 73
2
 40
0.75
 49
0.5
 49
-0.25
  0
LTYPE
  5
43B
  2
DOTTED
 70
0
  3
Dotted .  .  .  .
 72
65
 73
2
 40
0.2
 49
0.0
 49
-0.2
  0
ENDTAB
  0
TABLE
  2
STYLE
  70
4
  0
STYLE
  2
KICAD
  70
0
  40
0
  41
1
  42
1
  50
0
  71
0
  3
isocp.shx
  0
STYLE
  2
KICADB
  70
0
  40
0
  41
1
  42
1
  50
0
  71
0
  3
isocp.shx
  0
STYLE
  2
KICADI
  70
0
  40
0
  41
1
  42
1
  50
15
  71
0
  3
isocp.shx
  0
STYLE
  2
KICADBI
  70
0
  40
0
  41
1
  42
1
  50
15
  71
0
  3
isocp.shx
  0
ENDTAB
  0
TABLE
  2
LAYER
  70
1
  0
LAYER
  2
BLACK
  70
0
  62
7
  6
CONTINUOUS
  0
ENDTAB
  0
ENDSEC
  0
SECTION
  2
ENTITIES
0
LINE
8
BLACK
6
CONTINUOUS
10
5.2448
20
-3.58694
11
5.24696
21
-3.5891
0
LINE
8
BLACK
6
CONTINUOUS
10
5.24696
20
-3.5891
11
5.24775
21
-3.59205
0
LINE
8
BLACK
6
CONTINUOUS
10
5.24775
20
-3.59205
11
5.24775
21
-3.65204
0
LINE
8
BLACK
6
CONTINUOUS
10
5.24775
20
-3.65204
11
5.24696
21
-3.655
0
LINE
8
BLACK
6
CONTINUOUS
10
5.24696
20
-3.655
11
5.2448
21
-3.65716
0
LINE
8
BLACK
6
CONTINUOUS
10
5.2448
20
-3.65716
11
5.24184
21
-3.65795
0
LINE
8
BLACK
6
CONTINUOUS
10
5.24184
20
-3.65795
11
5.23889
21
-3.65716
0
LINE
8
BLACK
6
CONTINUOUS
10
5.23889
20
-3.65716
11
5.23673
21
-3.655
0
LINE
8
BLACK
6
CONTINUOUS
10
5.23673
20
-3.655
11
5.23594
21
-3.65204
0
LINE
8
BLACK
6
CONTINUOUS
10
5.23594
20
-3.65204
11
5.23594
21
-3.59205
0
LINE
8
BLACK
6
CONTINUOUS
10
5.23594
20
-3.59205
11
5.23673
21
-3.5891
0
LINE
8
BLACK
6
CONTINUOUS
10
5.23673
20
-3.5891
11
5.23889
21
-3.58694
0
LINE
8
BLACK
6
CONTINUOUS
10
5.23889
20
-3.58694
11
5.24184
21
-3.58615
0
LINE
8
BLACK
6
CONTINUOUS
10
5.24184
20
-3.58615
11
5.2448
21
-3.58694
0
LINE
8
BLACK
6
CONTINUOUS
10
5.2448
20
-3.42946
11
5.24696
21
-3.43162
0
LINE
8
BLACK
6
CONTINUOUS
10
5.24696
20
-3.43162
11
5.24775
21
-3.43457
0
LINE
8
BLACK
6
CONTINUOUS
10
5.24775
20
-3.43457
11
5.24775
21
-3.45866
0
LINE
8
BLACK
6
CONTINUOUS
10
5.24775
20
-3.45866
11
5.27184
21
-3.45866
0
LINE
8
BLACK
6
CONTINUOUS
10
5.27184
20
-3.45866
11
5.27479
21
-3.45945
0
LINE
8
BLACK
6
CONTINUOUS
10
5.27479
20
-3.45945
11
5.27696
21
-3.46161
0
LINE
8
BLACK
6
CONTINUOUS
10
5.27696
20
-3.46161
11
5.27775
21
-3.46457
0
LINE
8
BLACK
6
CONTINUOUS
10
5.27775
20
-3.46457
11
5.27696
21
-3.46752
0
LINE
8
BLACK
6
CONTINUOUS
10
5.27696
20
-3.46752
11
5.27479
21
-3.46968
0
LINE
8
BLACK
6
CONTINUOUS
10
5.27479
20
-3.46968
11
5.27184
21
-3.47047
0
LINE
8
BLACK
6
CONTINUOUS
10
5.27184
20
-3.47047
11
5.24775
21
-3.47047
0
LINE
8
BLACK
6
CONTINUOUS
10
5.24775
20
-3.47047
11
5.24775
21
-3.49456
0
LINE
8
BLACK
6
CONTINUOUS
10
5.24775
20
-3.49456
11
5.24696
21
-3.49752
0
LINE
8
BLACK
6
CONTINUOUS
10
5.24696
20
-3.49752
11
5.2448
21
-3.49968
0
LINE
8
BLACK
6
CONTINUOUS
10
5.2448
20
-3.49968
11
5.24184
21
-3.50047
0
LINE
8
BLACK
6
CONTINUOUS
10
5.24184
20
-3.50047
11
5.23889
21
-3.49968
0
LINE
8
BLACK
6
CONTINUOUS
10
5.23889
20
-3.49968
11
5.23673
21
-3.49752
0
LINE
8
BLACK
6
CONTINUOUS
10
5.23673
20
-3.49752
11
5.23594
21
-3.49456
0
LINE
8
BLACK
6
CONTINUOUS
10
5.23594
20
-3.49456
11
5.23594
21
-3.47047
0
LINE
8
BLACK
6
CONTINUOUS
10
5.23594
20
-3.47047
11
5.21185
21
-3.47047
0
LINE
8
BLACK
6
CONTINUOUS
10
5.21185
20
-3.47047
11
5.2089
21
-3.46968
0
LINE
8
BLACK
6
CONTINUOUS
10
5.2089
20
-3.46968
11
5.20673
21
-3.46752
0
LINE
8
BLACK
6
CONTINUOUS
10
5.20673
20
-3.46752
11
5.20594
21
-3.46457
0
LINE
8
BLACK
6
CONTINUOUS
10
5.20594
20
-3.46457
11
5.20673
21
-3.46161
0
LINE
8
BLACK
6
CONTINUOUS
10
5.20673
20
-3.46161
11
5.2089
21
-3.45945
0
LINE
8
BLACK
6
CONTINUOUS
10
5.2089
20
-3.45945
11
5.21185
21
-3.45866
0
LINE
8
BLACK
6
CONTINUOUS
10
5.21185
20
-3.45866
11
5.23594
21
-3.45866
0
LINE
8
BLACK
6
CONTINUOUS
10
5.23594
20
-3.45866
11
5.23594
21
-3.43457
0
LINE
8
BLACK
6
CONTINUOUS
10
5.23594
20
-3.43457
11
5.23673
21
-3.43162
0
LINE
8
BLACK
6
CONTINUOUS
10
5.23673
20
-3.43162
11
5.23889
21
-3.42946
0
LINE
8
BLACK
6
CONTINUOUS
10
5.23889
20
-3.42946
11
5.24184
21
-3.42867
0
LINE
8
BLACK
6
CONTINUOUS
10
5.24184
20
-3.42867
11
5.2448
21
-3.42946
0
CIRCLE
8
BLACK
10
5.35433
20
-3.47441
40
0.023622
0
CIRCLE
8
BLACK
10
5.35433
20
-3.6122
40
0.023622
0
CIRCLE
8
BLACK
10
5.82677
20
-3.26772
40
0.0433071
0
CIRCLE
8
BLACK
10
5.82677
20
-3.8189
40
0.0433071
0
CIRCLE
8
BLACK
10
5.27559
20
-3.26772
40
0.0433071
0
CIRCLE
8
BLACK
10
5.27559
20
-3.8189
40
0.0433071
  0
ENDSEC
  0
EOF
