  0
SECTION
  2
HEADER
  9
$ANGBASE
  50
0.0
  9
$ANGDIR
  70
1
  9
$MEASUREMENT
  70
0
  0
ENDSEC
  0
SECTION
  2
TABLES
  0
TABLE
  2
LTYPE
  70
4
  0
LTYPE
  5
40F
  2
CONTINUOUS
  70
0
  3
Solid line
  72
65
  73
0
  40
0.0
  0
LTYPE
  5
410
  2
DASHDOT
 70
0
  3
Dash Dot ____ _ ____ _
 72
65
 73
4
 40
2.0
 49
1.25
 49
-0.25
 49
0.25
 49
-0.25
  0
LTYPE
  5
411
  2
DASHED
 70
0
  3
Dashed __ __ __ __ __
 72
65
 73
2
 40
0.75
 49
0.5
 49
-0.25
  0
LTYPE
  5
43B
  2
DOTTED
 70
0
  3
Dotted .  .  .  .
 72
65
 73
2
 40
0.2
 49
0.0
 49
-0.2
  0
ENDTAB
  0
TABLE
  2
STYLE
  70
4
  0
STYLE
  2
KICAD
  70
0
  40
0
  41
1
  42
1
  50
0
  71
0
  3
isocp.shx
  0
STYLE
  2
KICADB
  70
0
  40
0
  41
1
  42
1
  50
0
  71
0
  3
isocp.shx
  0
STYLE
  2
KICADI
  70
0
  40
0
  41
1
  42
1
  50
15
  71
0
  3
isocp.shx
  0
STYLE
  2
KICADBI
  70
0
  40
0
  41
1
  42
1
  50
15
  71
0
  3
isocp.shx
  0
ENDTAB
  0
TABLE
  2
LAYER
  70
1
  0
LAYER
  2
BLACK
  70
0
  62
7
  6
CONTINUOUS
  0
ENDTAB
  0
ENDSEC
  0
SECTION
  2
ENTITIES
0
LINE
8
BLACK
6
CONTINUOUS
10
5.8313
20
-3.77583
11
5.83907
21
-3.77737
0
LINE
8
BLACK
6
CONTINUOUS
10
5.83907
20
-3.77737
11
5.84643
21
-3.78031
0
LINE
8
BLACK
6
CONTINUOUS
10
5.84643
20
-3.78031
11
5.85314
21
-3.78454
0
LINE
8
BLACK
6
CONTINUOUS
10
5.85314
20
-3.78454
11
5.85896
21
-3.78992
0
LINE
8
BLACK
6
CONTINUOUS
10
5.85896
20
-3.78992
11
5.8637
21
-3.79627
0
LINE
8
BLACK
6
CONTINUOUS
10
5.8637
20
-3.79627
11
5.8672
21
-3.80338
0
LINE
8
BLACK
6
CONTINUOUS
10
5.8672
20
-3.80338
11
5.86935
21
-3.81101
0
LINE
8
BLACK
6
CONTINUOUS
10
5.86935
20
-3.81101
11
5.87008
21
-3.8189
0
LINE
8
BLACK
6
CONTINUOUS
10
5.87008
20
-3.8189
11
5.87002
21
-3.82116
0
LINE
8
BLACK
6
CONTINUOUS
10
5.87002
20
-3.82116
11
5.86888
21
-3.82901
0
LINE
8
BLACK
6
CONTINUOUS
10
5.86888
20
-3.82901
11
5.86633
21
-3.83651
0
LINE
8
BLACK
6
CONTINUOUS
10
5.86633
20
-3.83651
11
5.86246
21
-3.84343
0
LINE
8
BLACK
6
CONTINUOUS
10
5.86246
20
-3.84343
11
5.85739
21
-3.84952
0
LINE
8
BLACK
6
CONTINUOUS
10
5.85739
20
-3.84952
11
5.8513
21
-3.85459
0
LINE
8
BLACK
6
CONTINUOUS
10
5.8513
20
-3.85459
11
5.84439
21
-3.85846
0
LINE
8
BLACK
6
CONTINUOUS
10
5.84439
20
-3.85846
11
5.83688
21
-3.86101
0
LINE
8
BLACK
6
CONTINUOUS
10
5.83688
20
-3.86101
11
5.82904
21
-3.86215
0
LINE
8
BLACK
6
CONTINUOUS
10
5.82904
20
-3.86215
11
5.82112
21
-3.86183
0
LINE
8
BLACK
6
CONTINUOUS
10
5.82112
20
-3.86183
11
5.81339
21
-3.86009
0
LINE
8
BLACK
6
CONTINUOUS
10
5.81339
20
-3.86009
11
5.80611
21
-3.85696
0
LINE
8
BLACK
6
CONTINUOUS
10
5.80611
20
-3.85696
11
5.79952
21
-3.85255
0
LINE
8
BLACK
6
CONTINUOUS
10
5.79952
20
-3.85255
11
5.79384
21
-3.84702
0
LINE
8
BLACK
6
CONTINUOUS
10
5.79384
20
-3.84702
11
5.78927
21
-3.84055
0
LINE
8
BLACK
6
CONTINUOUS
10
5.78927
20
-3.84055
11
5.78595
21
-3.83335
0
LINE
8
BLACK
6
CONTINUOUS
10
5.78595
20
-3.83335
11
5.784
21
-3.82567
0
LINE
8
BLACK
6
CONTINUOUS
10
5.784
20
-3.82567
11
5.78348
21
-3.81776
0
LINE
8
BLACK
6
CONTINUOUS
10
5.78348
20
-3.81776
11
5.78441
21
-3.80989
0
LINE
8
BLACK
6
CONTINUOUS
10
5.78441
20
-3.80989
11
5.78676
21
-3.80232
0
LINE
8
BLACK
6
CONTINUOUS
10
5.78676
20
-3.80232
11
5.79045
21
-3.79531
0
LINE
8
BLACK
6
CONTINUOUS
10
5.79045
20
-3.79531
11
5.79536
21
-3.78909
0
LINE
8
BLACK
6
CONTINUOUS
10
5.79536
20
-3.78909
11
5.80132
21
-3.78386
0
LINE
8
BLACK
6
CONTINUOUS
10
5.80132
20
-3.78386
11
5.80813
21
-3.77981
0
LINE
8
BLACK
6
CONTINUOUS
10
5.80813
20
-3.77981
11
5.81556
21
-3.77707
0
LINE
8
BLACK
6
CONTINUOUS
10
5.81556
20
-3.77707
11
5.82337
21
-3.77572
0
LINE
8
BLACK
6
CONTINUOUS
10
5.82337
20
-3.77572
11
5.8313
21
-3.77583
0
LINE
8
BLACK
6
CONTINUOUS
10
5.28012
20
-3.77583
11
5.28789
21
-3.77737
0
LINE
8
BLACK
6
CONTINUOUS
10
5.28789
20
-3.77737
11
5.29525
21
-3.78031
0
LINE
8
BLACK
6
CONTINUOUS
10
5.29525
20
-3.78031
11
5.30195
21
-3.78454
0
LINE
8
BLACK
6
CONTINUOUS
10
5.30195
20
-3.78454
11
5.30777
21
-3.78992
0
LINE
8
BLACK
6
CONTINUOUS
10
5.30777
20
-3.78992
11
5.31252
21
-3.79627
0
LINE
8
BLACK
6
CONTINUOUS
10
5.31252
20
-3.79627
11
5.31602
21
-3.80338
0
LINE
8
BLACK
6
CONTINUOUS
10
5.31602
20
-3.80338
11
5.31817
21
-3.81101
0
LINE
8
BLACK
6
CONTINUOUS
10
5.31817
20
-3.81101
11
5.3189
21
-3.8189
0
LINE
8
BLACK
6
CONTINUOUS
10
5.3189
20
-3.8189
11
5.31884
21
-3.82116
0
LINE
8
BLACK
6
CONTINUOUS
10
5.31884
20
-3.82116
11
5.3177
21
-3.82901
0
LINE
8
BLACK
6
CONTINUOUS
10
5.3177
20
-3.82901
11
5.31515
21
-3.83651
0
LINE
8
BLACK
6
CONTINUOUS
10
5.31515
20
-3.83651
11
5.31128
21
-3.84343
0
LINE
8
BLACK
6
CONTINUOUS
10
5.31128
20
-3.84343
11
5.30621
21
-3.84952
0
LINE
8
BLACK
6
CONTINUOUS
10
5.30621
20
-3.84952
11
5.30012
21
-3.85459
0
LINE
8
BLACK
6
CONTINUOUS
10
5.30012
20
-3.85459
11
5.29321
21
-3.85846
0
LINE
8
BLACK
6
CONTINUOUS
10
5.29321
20
-3.85846
11
5.2857
21
-3.86101
0
LINE
8
BLACK
6
CONTINUOUS
10
5.2857
20
-3.86101
11
5.27786
21
-3.86215
0
LINE
8
BLACK
6
CONTINUOUS
10
5.27786
20
-3.86215
11
5.26994
21
-3.86183
0
LINE
8
BLACK
6
CONTINUOUS
10
5.26994
20
-3.86183
11
5.26221
21
-3.86009
0
LINE
8
BLACK
6
CONTINUOUS
10
5.26221
20
-3.86009
11
5.25493
21
-3.85696
0
LINE
8
BLACK
6
CONTINUOUS
10
5.25493
20
-3.85696
11
5.24834
21
-3.85255
0
LINE
8
BLACK
6
CONTINUOUS
10
5.24834
20
-3.85255
11
5.24266
21
-3.84702
0
LINE
8
BLACK
6
CONTINUOUS
10
5.24266
20
-3.84702
11
5.23809
21
-3.84055
0
LINE
8
BLACK
6
CONTINUOUS
10
5.23809
20
-3.84055
11
5.23477
21
-3.83335
0
LINE
8
BLACK
6
CONTINUOUS
10
5.23477
20
-3.83335
11
5.23282
21
-3.82567
0
LINE
8
BLACK
6
CONTINUOUS
10
5.23282
20
-3.82567
11
5.2323
21
-3.81776
0
LINE
8
BLACK
6
CONTINUOUS
10
5.2323
20
-3.81776
11
5.23323
21
-3.80989
0
LINE
8
BLACK
6
CONTINUOUS
10
5.23323
20
-3.80989
11
5.23558
21
-3.80232
0
LINE
8
BLACK
6
CONTINUOUS
10
5.23558
20
-3.80232
11
5.23927
21
-3.79531
0
LINE
8
BLACK
6
CONTINUOUS
10
5.23927
20
-3.79531
11
5.24418
21
-3.78909
0
LINE
8
BLACK
6
CONTINUOUS
10
5.24418
20
-3.78909
11
5.25014
21
-3.78386
0
LINE
8
BLACK
6
CONTINUOUS
10
5.25014
20
-3.78386
11
5.25695
21
-3.77981
0
LINE
8
BLACK
6
CONTINUOUS
10
5.25695
20
-3.77981
11
5.26438
21
-3.77707
0
LINE
8
BLACK
6
CONTINUOUS
10
5.26438
20
-3.77707
11
5.27219
21
-3.77572
0
LINE
8
BLACK
6
CONTINUOUS
10
5.27219
20
-3.77572
11
5.28012
21
-3.77583
0
LINE
8
BLACK
6
CONTINUOUS
10
5.35927
20
-3.56522
11
5.36775
21
-3.56691
0
LINE
8
BLACK
6
CONTINUOUS
10
5.36775
20
-3.56691
11
5.37578
21
-3.57011
0
LINE
8
BLACK
6
CONTINUOUS
10
5.37578
20
-3.57011
11
5.38309
21
-3.57472
0
LINE
8
BLACK
6
CONTINUOUS
10
5.38309
20
-3.57472
11
5.38944
21
-3.58059
0
LINE
8
BLACK
6
CONTINUOUS
10
5.38944
20
-3.58059
11
5.39461
21
-3.58752
0
LINE
8
BLACK
6
CONTINUOUS
10
5.39461
20
-3.58752
11
5.39844
21
-3.59527
0
LINE
8
BLACK
6
CONTINUOUS
10
5.39844
20
-3.59527
11
5.40078
21
-3.6036
0
LINE
8
BLACK
6
CONTINUOUS
10
5.40078
20
-3.6036
11
5.40157
21
-3.6122
0
LINE
8
BLACK
6
CONTINUOUS
10
5.40157
20
-3.6122
11
5.40151
21
-3.61468
0
LINE
8
BLACK
6
CONTINUOUS
10
5.40151
20
-3.61468
11
5.40027
21
-3.62323
0
LINE
8
BLACK
6
CONTINUOUS
10
5.40027
20
-3.62323
11
5.39749
21
-3.63142
0
LINE
8
BLACK
6
CONTINUOUS
10
5.39749
20
-3.63142
11
5.39327
21
-3.63896
0
LINE
8
BLACK
6
CONTINUOUS
10
5.39327
20
-3.63896
11
5.38774
21
-3.64561
0
LINE
8
BLACK
6
CONTINUOUS
10
5.38774
20
-3.64561
11
5.38109
21
-3.65114
0
LINE
8
BLACK
6
CONTINUOUS
10
5.38109
20
-3.65114
11
5.37355
21
-3.65536
0
LINE
8
BLACK
6
CONTINUOUS
10
5.37355
20
-3.65536
11
5.36536
21
-3.65814
0
LINE
8
BLACK
6
CONTINUOUS
10
5.36536
20
-3.65814
11
5.3568
21
-3.65938
0
LINE
8
BLACK
6
CONTINUOUS
10
5.3568
20
-3.65938
11
5.34816
21
-3.65904
0
LINE
8
BLACK
6
CONTINUOUS
10
5.34816
20
-3.65904
11
5.33973
21
-3.65714
0
LINE
8
BLACK
6
CONTINUOUS
10
5.33973
20
-3.65714
11
5.33179
21
-3.65372
0
LINE
8
BLACK
6
CONTINUOUS
10
5.33179
20
-3.65372
11
5.3246
21
-3.64892
0
LINE
8
BLACK
6
CONTINUOUS
10
5.3246
20
-3.64892
11
5.31841
21
-3.64289
0
LINE
8
BLACK
6
CONTINUOUS
10
5.31841
20
-3.64289
11
5.31342
21
-3.63583
0
LINE
8
BLACK
6
CONTINUOUS
10
5.31342
20
-3.63583
11
5.3098
21
-3.62798
0
LINE
8
BLACK
6
CONTINUOUS
10
5.3098
20
-3.62798
11
5.30767
21
-3.6196
0
LINE
8
BLACK
6
CONTINUOUS
10
5.30767
20
-3.6196
11
5.3071
21
-3.61097
0
LINE
8
BLACK
6
CONTINUOUS
10
5.3071
20
-3.61097
11
5.30812
21
-3.60238
0
LINE
8
BLACK
6
CONTINUOUS
10
5.30812
20
-3.60238
11
5.31068
21
-3.59413
0
LINE
8
BLACK
6
CONTINUOUS
10
5.31068
20
-3.59413
11
5.31471
21
-3.58647
0
LINE
8
BLACK
6
CONTINUOUS
10
5.31471
20
-3.58647
11
5.32006
21
-3.57968
0
LINE
8
BLACK
6
CONTINUOUS
10
5.32006
20
-3.57968
11
5.32656
21
-3.57398
0
LINE
8
BLACK
6
CONTINUOUS
10
5.32656
20
-3.57398
11
5.33399
21
-3.56956
0
LINE
8
BLACK
6
CONTINUOUS
10
5.33399
20
-3.56956
11
5.3421
21
-3.56657
0
LINE
8
BLACK
6
CONTINUOUS
10
5.3421
20
-3.56657
11
5.35062
21
-3.56511
0
LINE
8
BLACK
6
CONTINUOUS
10
5.35062
20
-3.56511
11
5.35927
21
-3.56522
0
LINE
8
BLACK
6
CONTINUOUS
10
5.40157
20
-3.52165
11
5.30709
21
-3.52165
0
LINE
8
BLACK
6
CONTINUOUS
10
5.30709
20
-3.52165
11
5.30709
21
-3.42717
0
LINE
8
BLACK
6
CONTINUOUS
10
5.30709
20
-3.42717
11
5.40157
21
-3.42717
0
LINE
8
BLACK
6
CONTINUOUS
10
5.40157
20
-3.42717
11
5.40157
21
-3.52165
0
LINE
8
BLACK
6
CONTINUOUS
10
5.8313
20
-3.22465
11
5.83907
21
-3.22619
0
LINE
8
BLACK
6
CONTINUOUS
10
5.83907
20
-3.22619
11
5.84643
21
-3.22913
0
LINE
8
BLACK
6
CONTINUOUS
10
5.84643
20
-3.22913
11
5.85314
21
-3.23336
0
LINE
8
BLACK
6
CONTINUOUS
10
5.85314
20
-3.23336
11
5.85896
21
-3.23874
0
LINE
8
BLACK
6
CONTINUOUS
10
5.85896
20
-3.23874
11
5.8637
21
-3.24509
0
LINE
8
BLACK
6
CONTINUOUS
10
5.8637
20
-3.24509
11
5.8672
21
-3.2522
0
LINE
8
BLACK
6
CONTINUOUS
10
5.8672
20
-3.2522
11
5.86935
21
-3.25982
0
LINE
8
BLACK
6
CONTINUOUS
10
5.86935
20
-3.25982
11
5.87008
21
-3.26772
0
LINE
8
BLACK
6
CONTINUOUS
10
5.87008
20
-3.26772
11
5.87002
21
-3.26998
0
LINE
8
BLACK
6
CONTINUOUS
10
5.87002
20
-3.26998
11
5.86888
21
-3.27783
0
LINE
8
BLACK
6
CONTINUOUS
10
5.86888
20
-3.27783
11
5.86633
21
-3.28533
0
LINE
8
BLACK
6
CONTINUOUS
10
5.86633
20
-3.28533
11
5.86246
21
-3.29225
0
LINE
8
BLACK
6
CONTINUOUS
10
5.86246
20
-3.29225
11
5.85739
21
-3.29834
0
LINE
8
BLACK
6
CONTINUOUS
10
5.85739
20
-3.29834
11
5.8513
21
-3.30341
0
LINE
8
BLACK
6
CONTINUOUS
10
5.8513
20
-3.30341
11
5.84439
21
-3.30728
0
LINE
8
BLACK
6
CONTINUOUS
10
5.84439
20
-3.30728
11
5.83688
21
-3.30983
0
LINE
8
BLACK
6
CONTINUOUS
10
5.83688
20
-3.30983
11
5.82904
21
-3.31096
0
LINE
8
BLACK
6
CONTINUOUS
10
5.82904
20
-3.31096
11
5.82112
21
-3.31065
0
LINE
8
BLACK
6
CONTINUOUS
10
5.82112
20
-3.31065
11
5.81339
21
-3.3089
0
LINE
8
BLACK
6
CONTINUOUS
10
5.81339
20
-3.3089
11
5.80611
21
-3.30578
0
LINE
8
BLACK
6
CONTINUOUS
10
5.80611
20
-3.30578
11
5.79952
21
-3.30137
0
LINE
8
BLACK
6
CONTINUOUS
10
5.79952
20
-3.30137
11
5.79384
21
-3.29584
0
LINE
8
BLACK
6
CONTINUOUS
10
5.79384
20
-3.29584
11
5.78927
21
-3.28937
0
LINE
8
BLACK
6
CONTINUOUS
10
5.78927
20
-3.28937
11
5.78595
21
-3.28217
0
LINE
8
BLACK
6
CONTINUOUS
10
5.78595
20
-3.28217
11
5.784
21
-3.27449
0
LINE
8
BLACK
6
CONTINUOUS
10
5.784
20
-3.27449
11
5.78348
21
-3.26658
0
LINE
8
BLACK
6
CONTINUOUS
10
5.78348
20
-3.26658
11
5.78441
21
-3.25871
0
LINE
8
BLACK
6
CONTINUOUS
10
5.78441
20
-3.25871
11
5.78676
21
-3.25114
0
LINE
8
BLACK
6
CONTINUOUS
10
5.78676
20
-3.25114
11
5.79045
21
-3.24413
0
LINE
8
BLACK
6
CONTINUOUS
10
5.79045
20
-3.24413
11
5.79536
21
-3.23791
0
LINE
8
BLACK
6
CONTINUOUS
10
5.79536
20
-3.23791
11
5.80132
21
-3.23268
0
LINE
8
BLACK
6
CONTINUOUS
10
5.80132
20
-3.23268
11
5.80813
21
-3.22863
0
LINE
8
BLACK
6
CONTINUOUS
10
5.80813
20
-3.22863
11
5.81556
21
-3.22589
0
LINE
8
BLACK
6
CONTINUOUS
10
5.81556
20
-3.22589
11
5.82337
21
-3.22454
0
LINE
8
BLACK
6
CONTINUOUS
10
5.82337
20
-3.22454
11
5.8313
21
-3.22465
0
LINE
8
BLACK
6
CONTINUOUS
10
5.28012
20
-3.22465
11
5.28789
21
-3.22619
0
LINE
8
BLACK
6
CONTINUOUS
10
5.28789
20
-3.22619
11
5.29525
21
-3.22913
0
LINE
8
BLACK
6
CONTINUOUS
10
5.29525
20
-3.22913
11
5.30195
21
-3.23336
0
LINE
8
BLACK
6
CONTINUOUS
10
5.30195
20
-3.23336
11
5.30777
21
-3.23874
0
LINE
8
BLACK
6
CONTINUOUS
10
5.30777
20
-3.23874
11
5.31252
21
-3.24509
0
LINE
8
BLACK
6
CONTINUOUS
10
5.31252
20
-3.24509
11
5.31602
21
-3.2522
0
LINE
8
BLACK
6
CONTINUOUS
10
5.31602
20
-3.2522
11
5.31817
21
-3.25982
0
LINE
8
BLACK
6
CONTINUOUS
10
5.31817
20
-3.25982
11
5.3189
21
-3.26772
0
LINE
8
BLACK
6
CONTINUOUS
10
5.3189
20
-3.26772
11
5.31884
21
-3.26998
0
LINE
8
BLACK
6
CONTINUOUS
10
5.31884
20
-3.26998
11
5.3177
21
-3.27783
0
LINE
8
BLACK
6
CONTINUOUS
10
5.3177
20
-3.27783
11
5.31515
21
-3.28533
0
LINE
8
BLACK
6
CONTINUOUS
10
5.31515
20
-3.28533
11
5.31128
21
-3.29225
0
LINE
8
BLACK
6
CONTINUOUS
10
5.31128
20
-3.29225
11
5.30621
21
-3.29834
0
LINE
8
BLACK
6
CONTINUOUS
10
5.30621
20
-3.29834
11
5.30012
21
-3.30341
0
LINE
8
BLACK
6
CONTINUOUS
10
5.30012
20
-3.30341
11
5.29321
21
-3.30728
0
LINE
8
BLACK
6
CONTINUOUS
10
5.29321
20
-3.30728
11
5.2857
21
-3.30983
0
LINE
8
BLACK
6
CONTINUOUS
10
5.2857
20
-3.30983
11
5.27786
21
-3.31096
0
LINE
8
BLACK
6
CONTINUOUS
10
5.27786
20
-3.31096
11
5.26994
21
-3.31065
0
LINE
8
BLACK
6
CONTINUOUS
10
5.26994
20
-3.31065
11
5.26221
21
-3.3089
0
LINE
8
BLACK
6
CONTINUOUS
10
5.26221
20
-3.3089
11
5.25493
21
-3.30578
0
LINE
8
BLACK
6
CONTINUOUS
10
5.25493
20
-3.30578
11
5.24834
21
-3.30137
0
LINE
8
BLACK
6
CONTINUOUS
10
5.24834
20
-3.30137
11
5.24266
21
-3.29584
0
LINE
8
BLACK
6
CONTINUOUS
10
5.24266
20
-3.29584
11
5.23809
21
-3.28937
0
LINE
8
BLACK
6
CONTINUOUS
10
5.23809
20
-3.28937
11
5.23477
21
-3.28217
0
LINE
8
BLACK
6
CONTINUOUS
10
5.23477
20
-3.28217
11
5.23282
21
-3.27449
0
LINE
8
BLACK
6
CONTINUOUS
10
5.23282
20
-3.27449
11
5.2323
21
-3.26658
0
LINE
8
BLACK
6
CONTINUOUS
10
5.2323
20
-3.26658
11
5.23323
21
-3.25871
0
LINE
8
BLACK
6
CONTINUOUS
10
5.23323
20
-3.25871
11
5.23558
21
-3.25114
0
LINE
8
BLACK
6
CONTINUOUS
10
5.23558
20
-3.25114
11
5.23927
21
-3.24413
0
LINE
8
BLACK
6
CONTINUOUS
10
5.23927
20
-3.24413
11
5.24418
21
-3.23791
0
LINE
8
BLACK
6
CONTINUOUS
10
5.24418
20
-3.23791
11
5.25014
21
-3.23268
0
LINE
8
BLACK
6
CONTINUOUS
10
5.25014
20
-3.23268
11
5.25695
21
-3.22863
0
LINE
8
BLACK
6
CONTINUOUS
10
5.25695
20
-3.22863
11
5.26438
21
-3.22589
0
LINE
8
BLACK
6
CONTINUOUS
10
5.26438
20
-3.22589
11
5.27219
21
-3.22454
0
LINE
8
BLACK
6
CONTINUOUS
10
5.27219
20
-3.22454
11
5.28012
21
-3.22465
  0
ENDSEC
  0
EOF
