  0
SECTION
  2
HEADER
  9
$ANGBASE
  50
0.0
  9
$ANGDIR
  70
1
  9
$MEASUREMENT
  70
0
  0
ENDSEC
  0
SECTION
  2
TABLES
  0
TABLE
  2
LTYPE
  70
4
  0
LTYPE
  5
40F
  2
CONTINUOUS
  70
0
  3
Solid line
  72
65
  73
0
  40
0.0
  0
LTYPE
  5
410
  2
DASHDOT
 70
0
  3
Dash Dot ____ _ ____ _
 72
65
 73
4
 40
2.0
 49
1.25
 49
-0.25
 49
0.25
 49
-0.25
  0
LTYPE
  5
411
  2
DASHED
 70
0
  3
Dashed __ __ __ __ __
 72
65
 73
2
 40
0.75
 49
0.5
 49
-0.25
  0
LTYPE
  5
43B
  2
DOTTED
 70
0
  3
Dotted .  .  .  .
 72
65
 73
2
 40
0.2
 49
0.0
 49
-0.2
  0
ENDTAB
  0
TABLE
  2
STYLE
  70
4
  0
STYLE
  2
KICAD
  70
0
  40
0
  41
1
  42
1
  50
0
  71
0
  3
isocp.shx
  0
STYLE
  2
KICADB
  70
0
  40
0
  41
1
  42
1
  50
0
  71
0
  3
isocp.shx
  0
STYLE
  2
KICADI
  70
0
  40
0
  41
1
  42
1
  50
15
  71
0
  3
isocp.shx
  0
STYLE
  2
KICADBI
  70
0
  40
0
  41
1
  42
1
  50
15
  71
0
  3
isocp.shx
  0
ENDTAB
  0
TABLE
  2
LAYER
  70
1
  0
LAYER
  2
BLACK
  70
0
  62
7
  6
CONTINUOUS
  0
ENDTAB
  0
ENDSEC
  0
SECTION
  2
ENTITIES
0
LINE
8
BLACK
6
CONTINUOUS
10
5.15678
20
-3.70148
11
5.1565
21
-3.70079
0
LINE
8
BLACK
6
CONTINUOUS
10
5.1565
20
-3.70079
11
5.1565
21
-3.38583
0
LINE
8
BLACK
6
CONTINUOUS
10
5.1565
20
-3.38583
11
5.15678
21
-3.38513
0
LINE
8
BLACK
6
CONTINUOUS
10
5.15678
20
-3.38513
11
5.15748
21
-3.38484
0
LINE
8
BLACK
6
CONTINUOUS
10
5.15748
20
-3.38484
11
5.49606
21
-3.38484
0
LINE
8
BLACK
6
CONTINUOUS
10
5.49606
20
-3.38484
11
5.49676
21
-3.38513
0
LINE
8
BLACK
6
CONTINUOUS
10
5.49676
20
-3.38513
11
5.49705
21
-3.38583
0
LINE
8
BLACK
6
CONTINUOUS
10
5.49705
20
-3.38583
11
5.49705
21
-3.70079
0
LINE
8
BLACK
6
CONTINUOUS
10
5.49705
20
-3.70079
11
5.49676
21
-3.70148
0
LINE
8
BLACK
6
CONTINUOUS
10
5.49676
20
-3.70148
11
5.49606
21
-3.70177
0
LINE
8
BLACK
6
CONTINUOUS
10
5.49606
20
-3.70177
11
5.15748
21
-3.70177
0
LINE
8
BLACK
6
CONTINUOUS
10
5.15748
20
-3.70177
11
5.15678
21
-3.70148
0
LINE
8
BLACK
6
CONTINUOUS
10
5.15846
20
-3.38681
11
5.15846
21
-3.6998
0
LINE
8
BLACK
6
CONTINUOUS
10
5.15846
20
-3.6998
11
5.49508
21
-3.6998
0
LINE
8
BLACK
6
CONTINUOUS
10
5.49508
20
-3.6998
11
5.49508
21
-3.38681
0
LINE
8
BLACK
6
CONTINUOUS
10
5.49508
20
-3.38681
11
5.15846
21
-3.38681
0
LINE
8
BLACK
6
CONTINUOUS
10
5.55245
20
-3.68298
11
5.55217
21
-3.68228
0
LINE
8
BLACK
6
CONTINUOUS
10
5.55217
20
-3.68228
11
5.55217
21
-3.55
0
LINE
8
BLACK
6
CONTINUOUS
10
5.55217
20
-3.55
11
5.55245
21
-3.5493
0
LINE
8
BLACK
6
CONTINUOUS
10
5.55245
20
-3.5493
11
5.55315
21
-3.54902
0
LINE
8
BLACK
6
CONTINUOUS
10
5.55315
20
-3.54902
11
5.62795
21
-3.54902
0
LINE
8
BLACK
6
CONTINUOUS
10
5.62795
20
-3.54902
11
5.62865
21
-3.5493
0
LINE
8
BLACK
6
CONTINUOUS
10
5.62865
20
-3.5493
11
5.62894
21
-3.55
0
LINE
8
BLACK
6
CONTINUOUS
10
5.62894
20
-3.55
11
5.62894
21
-3.68228
0
LINE
8
BLACK
6
CONTINUOUS
10
5.62894
20
-3.68228
11
5.62865
21
-3.68298
0
LINE
8
BLACK
6
CONTINUOUS
10
5.62865
20
-3.68298
11
5.62795
21
-3.68327
0
LINE
8
BLACK
6
CONTINUOUS
10
5.62795
20
-3.68327
11
5.55315
21
-3.68327
0
LINE
8
BLACK
6
CONTINUOUS
10
5.55315
20
-3.68327
11
5.55245
21
-3.68298
0
LINE
8
BLACK
6
CONTINUOUS
10
5.55413
20
-3.55098
11
5.55413
21
-3.6813
0
LINE
8
BLACK
6
CONTINUOUS
10
5.55413
20
-3.6813
11
5.62697
21
-3.6813
0
LINE
8
BLACK
6
CONTINUOUS
10
5.62697
20
-3.6813
11
5.62697
21
-3.55098
0
LINE
8
BLACK
6
CONTINUOUS
10
5.62697
20
-3.55098
11
5.55413
21
-3.55098
0
LINE
8
BLACK
6
CONTINUOUS
10
5.55245
20
-3.5314
11
5.55217
21
-3.53071
0
LINE
8
BLACK
6
CONTINUOUS
10
5.55217
20
-3.53071
11
5.55217
21
-3.39843
0
LINE
8
BLACK
6
CONTINUOUS
10
5.55217
20
-3.39843
11
5.55245
21
-3.39773
0
LINE
8
BLACK
6
CONTINUOUS
10
5.55245
20
-3.39773
11
5.55315
21
-3.39744
0
LINE
8
BLACK
6
CONTINUOUS
10
5.55315
20
-3.39744
11
5.62795
21
-3.39744
0
LINE
8
BLACK
6
CONTINUOUS
10
5.62795
20
-3.39744
11
5.62865
21
-3.39773
0
LINE
8
BLACK
6
CONTINUOUS
10
5.62865
20
-3.39773
11
5.62894
21
-3.39843
0
LINE
8
BLACK
6
CONTINUOUS
10
5.62894
20
-3.39843
11
5.62894
21
-3.53071
0
LINE
8
BLACK
6
CONTINUOUS
10
5.62894
20
-3.53071
11
5.62865
21
-3.5314
0
LINE
8
BLACK
6
CONTINUOUS
10
5.62865
20
-3.5314
11
5.62795
21
-3.53169
0
LINE
8
BLACK
6
CONTINUOUS
10
5.62795
20
-3.53169
11
5.55315
21
-3.53169
0
LINE
8
BLACK
6
CONTINUOUS
10
5.55315
20
-3.53169
11
5.55245
21
-3.5314
0
LINE
8
BLACK
6
CONTINUOUS
10
5.55413
20
-3.39941
11
5.55413
21
-3.52972
0
LINE
8
BLACK
6
CONTINUOUS
10
5.55413
20
-3.52972
11
5.62697
21
-3.52972
0
LINE
8
BLACK
6
CONTINUOUS
10
5.62697
20
-3.52972
11
5.62697
21
-3.39941
0
LINE
8
BLACK
6
CONTINUOUS
10
5.62697
20
-3.39941
11
5.55413
21
-3.39941
0
LINE
8
BLACK
6
CONTINUOUS
10
5.18121
20
-3.79467
11
5.18499
21
-3.78303
0
LINE
8
BLACK
6
CONTINUOUS
10
5.18499
20
-3.78303
11
5.1902
21
-3.77196
0
LINE
8
BLACK
6
CONTINUOUS
10
5.1902
20
-3.77196
11
5.19676
21
-3.76162
0
LINE
8
BLACK
6
CONTINUOUS
10
5.19676
20
-3.76162
11
5.20456
21
-3.75219
0
LINE
8
BLACK
6
CONTINUOUS
10
5.20456
20
-3.75219
11
5.21348
21
-3.74382
0
LINE
8
BLACK
6
CONTINUOUS
10
5.21348
20
-3.74382
11
5.22338
21
-3.73663
0
LINE
8
BLACK
6
CONTINUOUS
10
5.22338
20
-3.73663
11
5.2341
21
-3.73073
0
LINE
8
BLACK
6
CONTINUOUS
10
5.2341
20
-3.73073
11
5.24548
21
-3.72623
0
LINE
8
BLACK
6
CONTINUOUS
10
5.24548
20
-3.72623
11
5.25733
21
-3.72318
0
LINE
8
BLACK
6
CONTINUOUS
10
5.25733
20
-3.72318
11
5.26947
21
-3.72165
0
LINE
8
BLACK
6
CONTINUOUS
10
5.26947
20
-3.72165
11
5.28171
21
-3.72165
0
LINE
8
BLACK
6
CONTINUOUS
10
5.28171
20
-3.72165
11
5.29385
21
-3.72318
0
LINE
8
BLACK
6
CONTINUOUS
10
5.29385
20
-3.72318
11
5.3057
21
-3.72623
0
LINE
8
BLACK
6
CONTINUOUS
10
5.3057
20
-3.72623
11
5.31708
21
-3.73073
0
LINE
8
BLACK
6
CONTINUOUS
10
5.31708
20
-3.73073
11
5.3278
21
-3.73663
0
LINE
8
BLACK
6
CONTINUOUS
10
5.3278
20
-3.73663
11
5.3377
21
-3.74382
0
LINE
8
BLACK
6
CONTINUOUS
10
5.3377
20
-3.74382
11
5.34662
21
-3.75219
0
LINE
8
BLACK
6
CONTINUOUS
10
5.34662
20
-3.75219
11
5.35442
21
-3.76162
0
LINE
8
BLACK
6
CONTINUOUS
10
5.35442
20
-3.76162
11
5.36098
21
-3.77196
0
LINE
8
BLACK
6
CONTINUOUS
10
5.36098
20
-3.77196
11
5.36619
21
-3.78303
0
LINE
8
BLACK
6
CONTINUOUS
10
5.36619
20
-3.78303
11
5.36997
21
-3.79467
0
LINE
8
BLACK
6
CONTINUOUS
10
5.36997
20
-3.79467
11
5.37226
21
-3.80669
0
LINE
8
BLACK
6
CONTINUOUS
10
5.37226
20
-3.80669
11
5.37303
21
-3.8189
0
LINE
8
BLACK
6
CONTINUOUS
10
5.37303
20
-3.8189
11
5.37226
21
-3.83111
0
LINE
8
BLACK
6
CONTINUOUS
10
5.37226
20
-3.83111
11
5.36997
21
-3.84313
0
LINE
8
BLACK
6
CONTINUOUS
10
5.36997
20
-3.84313
11
5.36619
21
-3.85477
0
LINE
8
BLACK
6
CONTINUOUS
10
5.36619
20
-3.85477
11
5.36098
21
-3.86584
0
LINE
8
BLACK
6
CONTINUOUS
10
5.36098
20
-3.86584
11
5.35442
21
-3.87617
0
LINE
8
BLACK
6
CONTINUOUS
10
5.35442
20
-3.87617
11
5.34662
21
-3.8856
0
LINE
8
BLACK
6
CONTINUOUS
10
5.34662
20
-3.8856
11
5.3377
21
-3.89398
0
LINE
8
BLACK
6
CONTINUOUS
10
5.3377
20
-3.89398
11
5.3278
21
-3.90117
0
LINE
8
BLACK
6
CONTINUOUS
10
5.3278
20
-3.90117
11
5.31708
21
-3.90706
0
LINE
8
BLACK
6
CONTINUOUS
10
5.31708
20
-3.90706
11
5.3057
21
-3.91157
0
LINE
8
BLACK
6
CONTINUOUS
10
5.3057
20
-3.91157
11
5.29385
21
-3.91461
0
LINE
8
BLACK
6
CONTINUOUS
10
5.29385
20
-3.91461
11
5.28171
21
-3.91615
0
LINE
8
BLACK
6
CONTINUOUS
10
5.28171
20
-3.91615
11
5.26947
21
-3.91615
0
LINE
8
BLACK
6
CONTINUOUS
10
5.26947
20
-3.91615
11
5.25733
21
-3.91461
0
LINE
8
BLACK
6
CONTINUOUS
10
5.25733
20
-3.91461
11
5.24548
21
-3.91157
0
LINE
8
BLACK
6
CONTINUOUS
10
5.24548
20
-3.91157
11
5.2341
21
-3.90706
0
LINE
8
BLACK
6
CONTINUOUS
10
5.2341
20
-3.90706
11
5.22338
21
-3.90117
0
LINE
8
BLACK
6
CONTINUOUS
10
5.22338
20
-3.90117
11
5.21348
21
-3.89398
0
LINE
8
BLACK
6
CONTINUOUS
10
5.21348
20
-3.89398
11
5.20456
21
-3.8856
0
LINE
8
BLACK
6
CONTINUOUS
10
5.20456
20
-3.8856
11
5.19676
21
-3.87617
0
LINE
8
BLACK
6
CONTINUOUS
10
5.19676
20
-3.87617
11
5.1902
21
-3.86584
0
LINE
8
BLACK
6
CONTINUOUS
10
5.1902
20
-3.86584
11
5.18499
21
-3.85477
0
LINE
8
BLACK
6
CONTINUOUS
10
5.18499
20
-3.85477
11
5.18121
21
-3.84313
0
LINE
8
BLACK
6
CONTINUOUS
10
5.18121
20
-3.84313
11
5.17892
21
-3.83111
0
LINE
8
BLACK
6
CONTINUOUS
10
5.17892
20
-3.83111
11
5.17815
21
-3.8189
0
LINE
8
BLACK
6
CONTINUOUS
10
5.17815
20
-3.8189
11
5.17892
21
-3.80669
0
LINE
8
BLACK
6
CONTINUOUS
10
5.17892
20
-3.80669
11
5.18121
21
-3.79467
0
LINE
8
BLACK
6
CONTINUOUS
10
5.18293
20
-3.84269
11
5.18665
21
-3.85411
0
LINE
8
BLACK
6
CONTINUOUS
10
5.18665
20
-3.85411
11
5.19176
21
-3.86498
0
LINE
8
BLACK
6
CONTINUOUS
10
5.19176
20
-3.86498
11
5.1982
21
-3.87513
0
LINE
8
BLACK
6
CONTINUOUS
10
5.1982
20
-3.87513
11
5.20586
21
-3.88438
0
LINE
8
BLACK
6
CONTINUOUS
10
5.20586
20
-3.88438
11
5.21461
21
-3.89261
0
LINE
8
BLACK
6
CONTINUOUS
10
5.21461
20
-3.89261
11
5.22433
21
-3.89967
0
LINE
8
BLACK
6
CONTINUOUS
10
5.22433
20
-3.89967
11
5.23486
21
-3.90545
0
LINE
8
BLACK
6
CONTINUOUS
10
5.23486
20
-3.90545
11
5.24603
21
-3.90988
0
LINE
8
BLACK
6
CONTINUOUS
10
5.24603
20
-3.90988
11
5.25767
21
-3.91286
0
LINE
8
BLACK
6
CONTINUOUS
10
5.25767
20
-3.91286
11
5.26958
21
-3.91437
0
LINE
8
BLACK
6
CONTINUOUS
10
5.26958
20
-3.91437
11
5.2816
21
-3.91437
0
LINE
8
BLACK
6
CONTINUOUS
10
5.2816
20
-3.91437
11
5.29352
21
-3.91286
0
LINE
8
BLACK
6
CONTINUOUS
10
5.29352
20
-3.91286
11
5.30515
21
-3.90988
0
LINE
8
BLACK
6
CONTINUOUS
10
5.30515
20
-3.90988
11
5.31632
21
-3.90545
0
LINE
8
BLACK
6
CONTINUOUS
10
5.31632
20
-3.90545
11
5.32685
21
-3.89967
0
LINE
8
BLACK
6
CONTINUOUS
10
5.32685
20
-3.89967
11
5.33657
21
-3.89261
0
LINE
8
BLACK
6
CONTINUOUS
10
5.33657
20
-3.89261
11
5.34532
21
-3.88438
0
LINE
8
BLACK
6
CONTINUOUS
10
5.34532
20
-3.88438
11
5.35298
21
-3.87513
0
LINE
8
BLACK
6
CONTINUOUS
10
5.35298
20
-3.87513
11
5.35942
21
-3.86498
0
LINE
8
BLACK
6
CONTINUOUS
10
5.35942
20
-3.86498
11
5.36453
21
-3.85411
0
LINE
8
BLACK
6
CONTINUOUS
10
5.36453
20
-3.85411
11
5.36825
21
-3.84269
0
LINE
8
BLACK
6
CONTINUOUS
10
5.36825
20
-3.84269
11
5.3705
21
-3.83089
0
LINE
8
BLACK
6
CONTINUOUS
10
5.3705
20
-3.83089
11
5.37125
21
-3.8189
0
LINE
8
BLACK
6
CONTINUOUS
10
5.37125
20
-3.8189
11
5.3705
21
-3.80691
0
LINE
8
BLACK
6
CONTINUOUS
10
5.3705
20
-3.80691
11
5.36825
21
-3.79511
0
LINE
8
BLACK
6
CONTINUOUS
10
5.36825
20
-3.79511
11
5.36453
21
-3.78368
0
LINE
8
BLACK
6
CONTINUOUS
10
5.36453
20
-3.78368
11
5.35942
21
-3.77281
0
LINE
8
BLACK
6
CONTINUOUS
10
5.35942
20
-3.77281
11
5.35298
21
-3.76267
0
LINE
8
BLACK
6
CONTINUOUS
10
5.35298
20
-3.76267
11
5.34532
21
-3.75341
0
LINE
8
BLACK
6
CONTINUOUS
10
5.34532
20
-3.75341
11
5.33657
21
-3.74519
0
LINE
8
BLACK
6
CONTINUOUS
10
5.33657
20
-3.74519
11
5.32685
21
-3.73813
0
LINE
8
BLACK
6
CONTINUOUS
10
5.32685
20
-3.73813
11
5.31632
21
-3.73234
0
LINE
8
BLACK
6
CONTINUOUS
10
5.31632
20
-3.73234
11
5.30515
21
-3.72792
0
LINE
8
BLACK
6
CONTINUOUS
10
5.30515
20
-3.72792
11
5.29352
21
-3.72493
0
LINE
8
BLACK
6
CONTINUOUS
10
5.29352
20
-3.72493
11
5.2816
21
-3.72343
0
LINE
8
BLACK
6
CONTINUOUS
10
5.2816
20
-3.72343
11
5.26958
21
-3.72343
0
LINE
8
BLACK
6
CONTINUOUS
10
5.26958
20
-3.72343
11
5.25767
21
-3.72493
0
LINE
8
BLACK
6
CONTINUOUS
10
5.25767
20
-3.72493
11
5.24603
21
-3.72792
0
LINE
8
BLACK
6
CONTINUOUS
10
5.24603
20
-3.72792
11
5.23486
21
-3.73234
0
LINE
8
BLACK
6
CONTINUOUS
10
5.23486
20
-3.73234
11
5.22433
21
-3.73813
0
LINE
8
BLACK
6
CONTINUOUS
10
5.22433
20
-3.73813
11
5.21461
21
-3.74519
0
LINE
8
BLACK
6
CONTINUOUS
10
5.21461
20
-3.74519
11
5.20586
21
-3.75341
0
LINE
8
BLACK
6
CONTINUOUS
10
5.20586
20
-3.75341
11
5.1982
21
-3.76267
0
LINE
8
BLACK
6
CONTINUOUS
10
5.1982
20
-3.76267
11
5.19176
21
-3.77281
0
LINE
8
BLACK
6
CONTINUOUS
10
5.19176
20
-3.77281
11
5.18665
21
-3.78368
0
LINE
8
BLACK
6
CONTINUOUS
10
5.18665
20
-3.78368
11
5.18293
21
-3.79511
0
LINE
8
BLACK
6
CONTINUOUS
10
5.18293
20
-3.79511
11
5.18068
21
-3.80691
0
LINE
8
BLACK
6
CONTINUOUS
10
5.18068
20
-3.80691
11
5.17993
21
-3.8189
0
LINE
8
BLACK
6
CONTINUOUS
10
5.17993
20
-3.8189
11
5.18068
21
-3.83089
0
LINE
8
BLACK
6
CONTINUOUS
10
5.18068
20
-3.83089
11
5.18293
21
-3.84269
0
LINE
8
BLACK
6
CONTINUOUS
10
5.73239
20
-3.79467
11
5.73617
21
-3.78303
0
LINE
8
BLACK
6
CONTINUOUS
10
5.73617
20
-3.78303
11
5.74138
21
-3.77196
0
LINE
8
BLACK
6
CONTINUOUS
10
5.74138
20
-3.77196
11
5.74794
21
-3.76162
0
LINE
8
BLACK
6
CONTINUOUS
10
5.74794
20
-3.76162
11
5.75574
21
-3.75219
0
LINE
8
BLACK
6
CONTINUOUS
10
5.75574
20
-3.75219
11
5.76466
21
-3.74382
0
LINE
8
BLACK
6
CONTINUOUS
10
5.76466
20
-3.74382
11
5.77456
21
-3.73663
0
LINE
8
BLACK
6
CONTINUOUS
10
5.77456
20
-3.73663
11
5.78528
21
-3.73073
0
LINE
8
BLACK
6
CONTINUOUS
10
5.78528
20
-3.73073
11
5.79666
21
-3.72623
0
LINE
8
BLACK
6
CONTINUOUS
10
5.79666
20
-3.72623
11
5.80851
21
-3.72318
0
LINE
8
BLACK
6
CONTINUOUS
10
5.80851
20
-3.72318
11
5.82065
21
-3.72165
0
LINE
8
BLACK
6
CONTINUOUS
10
5.82065
20
-3.72165
11
5.83289
21
-3.72165
0
LINE
8
BLACK
6
CONTINUOUS
10
5.83289
20
-3.72165
11
5.84503
21
-3.72318
0
LINE
8
BLACK
6
CONTINUOUS
10
5.84503
20
-3.72318
11
5.85688
21
-3.72623
0
LINE
8
BLACK
6
CONTINUOUS
10
5.85688
20
-3.72623
11
5.86826
21
-3.73073
0
LINE
8
BLACK
6
CONTINUOUS
10
5.86826
20
-3.73073
11
5.87898
21
-3.73663
0
LINE
8
BLACK
6
CONTINUOUS
10
5.87898
20
-3.73663
11
5.88888
21
-3.74382
0
LINE
8
BLACK
6
CONTINUOUS
10
5.88888
20
-3.74382
11
5.8978
21
-3.75219
0
LINE
8
BLACK
6
CONTINUOUS
10
5.8978
20
-3.75219
11
5.9056
21
-3.76162
0
LINE
8
BLACK
6
CONTINUOUS
10
5.9056
20
-3.76162
11
5.91216
21
-3.77196
0
LINE
8
BLACK
6
CONTINUOUS
10
5.91216
20
-3.77196
11
5.91737
21
-3.78303
0
LINE
8
BLACK
6
CONTINUOUS
10
5.91737
20
-3.78303
11
5.92115
21
-3.79467
0
LINE
8
BLACK
6
CONTINUOUS
10
5.92115
20
-3.79467
11
5.92344
21
-3.80669
0
LINE
8
BLACK
6
CONTINUOUS
10
5.92344
20
-3.80669
11
5.92421
21
-3.8189
0
LINE
8
BLACK
6
CONTINUOUS
10
5.92421
20
-3.8189
11
5.92344
21
-3.83111
0
LINE
8
BLACK
6
CONTINUOUS
10
5.92344
20
-3.83111
11
5.92115
21
-3.84313
0
LINE
8
BLACK
6
CONTINUOUS
10
5.92115
20
-3.84313
11
5.91737
21
-3.85477
0
LINE
8
BLACK
6
CONTINUOUS
10
5.91737
20
-3.85477
11
5.91216
21
-3.86584
0
LINE
8
BLACK
6
CONTINUOUS
10
5.91216
20
-3.86584
11
5.9056
21
-3.87617
0
LINE
8
BLACK
6
CONTINUOUS
10
5.9056
20
-3.87617
11
5.8978
21
-3.8856
0
LINE
8
BLACK
6
CONTINUOUS
10
5.8978
20
-3.8856
11
5.88888
21
-3.89398
0
LINE
8
BLACK
6
CONTINUOUS
10
5.88888
20
-3.89398
11
5.87898
21
-3.90117
0
LINE
8
BLACK
6
CONTINUOUS
10
5.87898
20
-3.90117
11
5.86826
21
-3.90706
0
LINE
8
BLACK
6
CONTINUOUS
10
5.86826
20
-3.90706
11
5.85688
21
-3.91157
0
LINE
8
BLACK
6
CONTINUOUS
10
5.85688
20
-3.91157
11
5.84503
21
-3.91461
0
LINE
8
BLACK
6
CONTINUOUS
10
5.84503
20
-3.91461
11
5.83289
21
-3.91615
0
LINE
8
BLACK
6
CONTINUOUS
10
5.83289
20
-3.91615
11
5.82065
21
-3.91615
0
LINE
8
BLACK
6
CONTINUOUS
10
5.82065
20
-3.91615
11
5.80851
21
-3.91461
0
LINE
8
BLACK
6
CONTINUOUS
10
5.80851
20
-3.91461
11
5.79666
21
-3.91157
0
LINE
8
BLACK
6
CONTINUOUS
10
5.79666
20
-3.91157
11
5.78528
21
-3.90706
0
LINE
8
BLACK
6
CONTINUOUS
10
5.78528
20
-3.90706
11
5.77456
21
-3.90117
0
LINE
8
BLACK
6
CONTINUOUS
10
5.77456
20
-3.90117
11
5.76466
21
-3.89398
0
LINE
8
BLACK
6
CONTINUOUS
10
5.76466
20
-3.89398
11
5.75574
21
-3.8856
0
LINE
8
BLACK
6
CONTINUOUS
10
5.75574
20
-3.8856
11
5.74794
21
-3.87617
0
LINE
8
BLACK
6
CONTINUOUS
10
5.74794
20
-3.87617
11
5.74138
21
-3.86584
0
LINE
8
BLACK
6
CONTINUOUS
10
5.74138
20
-3.86584
11
5.73617
21
-3.85477
0
LINE
8
BLACK
6
CONTINUOUS
10
5.73617
20
-3.85477
11
5.73239
21
-3.84313
0
LINE
8
BLACK
6
CONTINUOUS
10
5.73239
20
-3.84313
11
5.7301
21
-3.83111
0
LINE
8
BLACK
6
CONTINUOUS
10
5.7301
20
-3.83111
11
5.72933
21
-3.8189
0
LINE
8
BLACK
6
CONTINUOUS
10
5.72933
20
-3.8189
11
5.7301
21
-3.80669
0
LINE
8
BLACK
6
CONTINUOUS
10
5.7301
20
-3.80669
11
5.73239
21
-3.79467
0
LINE
8
BLACK
6
CONTINUOUS
10
5.73412
20
-3.84269
11
5.73783
21
-3.85411
0
LINE
8
BLACK
6
CONTINUOUS
10
5.73783
20
-3.85411
11
5.74294
21
-3.86498
0
LINE
8
BLACK
6
CONTINUOUS
10
5.74294
20
-3.86498
11
5.74938
21
-3.87513
0
LINE
8
BLACK
6
CONTINUOUS
10
5.74938
20
-3.87513
11
5.75704
21
-3.88438
0
LINE
8
BLACK
6
CONTINUOUS
10
5.75704
20
-3.88438
11
5.76579
21
-3.89261
0
LINE
8
BLACK
6
CONTINUOUS
10
5.76579
20
-3.89261
11
5.77551
21
-3.89967
0
LINE
8
BLACK
6
CONTINUOUS
10
5.77551
20
-3.89967
11
5.78604
21
-3.90545
0
LINE
8
BLACK
6
CONTINUOUS
10
5.78604
20
-3.90545
11
5.79721
21
-3.90988
0
LINE
8
BLACK
6
CONTINUOUS
10
5.79721
20
-3.90988
11
5.80885
21
-3.91286
0
LINE
8
BLACK
6
CONTINUOUS
10
5.80885
20
-3.91286
11
5.82077
21
-3.91437
0
LINE
8
BLACK
6
CONTINUOUS
10
5.82077
20
-3.91437
11
5.83278
21
-3.91437
0
LINE
8
BLACK
6
CONTINUOUS
10
5.83278
20
-3.91437
11
5.8447
21
-3.91286
0
LINE
8
BLACK
6
CONTINUOUS
10
5.8447
20
-3.91286
11
5.85633
21
-3.90988
0
LINE
8
BLACK
6
CONTINUOUS
10
5.85633
20
-3.90988
11
5.8675
21
-3.90545
0
LINE
8
BLACK
6
CONTINUOUS
10
5.8675
20
-3.90545
11
5.87803
21
-3.89967
0
LINE
8
BLACK
6
CONTINUOUS
10
5.87803
20
-3.89967
11
5.88775
21
-3.89261
0
LINE
8
BLACK
6
CONTINUOUS
10
5.88775
20
-3.89261
11
5.89651
21
-3.88438
0
LINE
8
BLACK
6
CONTINUOUS
10
5.89651
20
-3.88438
11
5.90416
21
-3.87513
0
LINE
8
BLACK
6
CONTINUOUS
10
5.90416
20
-3.87513
11
5.9106
21
-3.86498
0
LINE
8
BLACK
6
CONTINUOUS
10
5.9106
20
-3.86498
11
5.91572
21
-3.85411
0
LINE
8
BLACK
6
CONTINUOUS
10
5.91572
20
-3.85411
11
5.91943
21
-3.84269
0
LINE
8
BLACK
6
CONTINUOUS
10
5.91943
20
-3.84269
11
5.92168
21
-3.83089
0
LINE
8
BLACK
6
CONTINUOUS
10
5.92168
20
-3.83089
11
5.92243
21
-3.8189
0
LINE
8
BLACK
6
CONTINUOUS
10
5.92243
20
-3.8189
11
5.92168
21
-3.80691
0
LINE
8
BLACK
6
CONTINUOUS
10
5.92168
20
-3.80691
11
5.91943
21
-3.79511
0
LINE
8
BLACK
6
CONTINUOUS
10
5.91943
20
-3.79511
11
5.91572
21
-3.78368
0
LINE
8
BLACK
6
CONTINUOUS
10
5.91572
20
-3.78368
11
5.9106
21
-3.77281
0
LINE
8
BLACK
6
CONTINUOUS
10
5.9106
20
-3.77281
11
5.90416
21
-3.76267
0
LINE
8
BLACK
6
CONTINUOUS
10
5.90416
20
-3.76267
11
5.89651
21
-3.75341
0
LINE
8
BLACK
6
CONTINUOUS
10
5.89651
20
-3.75341
11
5.88775
21
-3.74519
0
LINE
8
BLACK
6
CONTINUOUS
10
5.88775
20
-3.74519
11
5.87803
21
-3.73813
0
LINE
8
BLACK
6
CONTINUOUS
10
5.87803
20
-3.73813
11
5.8675
21
-3.73234
0
LINE
8
BLACK
6
CONTINUOUS
10
5.8675
20
-3.73234
11
5.85633
21
-3.72792
0
LINE
8
BLACK
6
CONTINUOUS
10
5.85633
20
-3.72792
11
5.8447
21
-3.72493
0
LINE
8
BLACK
6
CONTINUOUS
10
5.8447
20
-3.72493
11
5.83278
21
-3.72343
0
LINE
8
BLACK
6
CONTINUOUS
10
5.83278
20
-3.72343
11
5.82077
21
-3.72343
0
LINE
8
BLACK
6
CONTINUOUS
10
5.82077
20
-3.72343
11
5.80885
21
-3.72493
0
LINE
8
BLACK
6
CONTINUOUS
10
5.80885
20
-3.72493
11
5.79721
21
-3.72792
0
LINE
8
BLACK
6
CONTINUOUS
10
5.79721
20
-3.72792
11
5.78604
21
-3.73234
0
LINE
8
BLACK
6
CONTINUOUS
10
5.78604
20
-3.73234
11
5.77551
21
-3.73813
0
LINE
8
BLACK
6
CONTINUOUS
10
5.77551
20
-3.73813
11
5.76579
21
-3.74519
0
LINE
8
BLACK
6
CONTINUOUS
10
5.76579
20
-3.74519
11
5.75704
21
-3.75341
0
LINE
8
BLACK
6
CONTINUOUS
10
5.75704
20
-3.75341
11
5.74938
21
-3.76267
0
LINE
8
BLACK
6
CONTINUOUS
10
5.74938
20
-3.76267
11
5.74294
21
-3.77281
0
LINE
8
BLACK
6
CONTINUOUS
10
5.74294
20
-3.77281
11
5.73783
21
-3.78368
0
LINE
8
BLACK
6
CONTINUOUS
10
5.73783
20
-3.78368
11
5.73412
21
-3.79511
0
LINE
8
BLACK
6
CONTINUOUS
10
5.73412
20
-3.79511
11
5.73186
21
-3.80691
0
LINE
8
BLACK
6
CONTINUOUS
10
5.73186
20
-3.80691
11
5.73111
21
-3.8189
0
LINE
8
BLACK
6
CONTINUOUS
10
5.73111
20
-3.8189
11
5.73186
21
-3.83089
0
LINE
8
BLACK
6
CONTINUOUS
10
5.73186
20
-3.83089
11
5.73412
21
-3.84269
0
LINE
8
BLACK
6
CONTINUOUS
10
5.73239
20
-3.24348
11
5.73617
21
-3.23185
0
LINE
8
BLACK
6
CONTINUOUS
10
5.73617
20
-3.23185
11
5.74138
21
-3.22077
0
LINE
8
BLACK
6
CONTINUOUS
10
5.74138
20
-3.22077
11
5.74794
21
-3.21044
0
LINE
8
BLACK
6
CONTINUOUS
10
5.74794
20
-3.21044
11
5.75574
21
-3.20101
0
LINE
8
BLACK
6
CONTINUOUS
10
5.75574
20
-3.20101
11
5.76466
21
-3.19264
0
LINE
8
BLACK
6
CONTINUOUS
10
5.76466
20
-3.19264
11
5.77456
21
-3.18544
0
LINE
8
BLACK
6
CONTINUOUS
10
5.77456
20
-3.18544
11
5.78528
21
-3.17955
0
LINE
8
BLACK
6
CONTINUOUS
10
5.78528
20
-3.17955
11
5.79666
21
-3.17504
0
LINE
8
BLACK
6
CONTINUOUS
10
5.79666
20
-3.17504
11
5.80851
21
-3.172
0
LINE
8
BLACK
6
CONTINUOUS
10
5.80851
20
-3.172
11
5.82065
21
-3.17047
0
LINE
8
BLACK
6
CONTINUOUS
10
5.82065
20
-3.17047
11
5.83289
21
-3.17047
0
LINE
8
BLACK
6
CONTINUOUS
10
5.83289
20
-3.17047
11
5.84503
21
-3.172
0
LINE
8
BLACK
6
CONTINUOUS
10
5.84503
20
-3.172
11
5.85688
21
-3.17504
0
LINE
8
BLACK
6
CONTINUOUS
10
5.85688
20
-3.17504
11
5.86826
21
-3.17955
0
LINE
8
BLACK
6
CONTINUOUS
10
5.86826
20
-3.17955
11
5.87898
21
-3.18544
0
LINE
8
BLACK
6
CONTINUOUS
10
5.87898
20
-3.18544
11
5.88888
21
-3.19264
0
LINE
8
BLACK
6
CONTINUOUS
10
5.88888
20
-3.19264
11
5.8978
21
-3.20101
0
LINE
8
BLACK
6
CONTINUOUS
10
5.8978
20
-3.20101
11
5.9056
21
-3.21044
0
LINE
8
BLACK
6
CONTINUOUS
10
5.9056
20
-3.21044
11
5.91216
21
-3.22077
0
LINE
8
BLACK
6
CONTINUOUS
10
5.91216
20
-3.22077
11
5.91737
21
-3.23185
0
LINE
8
BLACK
6
CONTINUOUS
10
5.91737
20
-3.23185
11
5.92115
21
-3.24348
0
LINE
8
BLACK
6
CONTINUOUS
10
5.92115
20
-3.24348
11
5.92344
21
-3.2555
0
LINE
8
BLACK
6
CONTINUOUS
10
5.92344
20
-3.2555
11
5.92421
21
-3.26772
0
LINE
8
BLACK
6
CONTINUOUS
10
5.92421
20
-3.26772
11
5.92344
21
-3.27993
0
LINE
8
BLACK
6
CONTINUOUS
10
5.92344
20
-3.27993
11
5.92115
21
-3.29195
0
LINE
8
BLACK
6
CONTINUOUS
10
5.92115
20
-3.29195
11
5.91737
21
-3.30359
0
LINE
8
BLACK
6
CONTINUOUS
10
5.91737
20
-3.30359
11
5.91216
21
-3.31466
0
LINE
8
BLACK
6
CONTINUOUS
10
5.91216
20
-3.31466
11
5.9056
21
-3.32499
0
LINE
8
BLACK
6
CONTINUOUS
10
5.9056
20
-3.32499
11
5.8978
21
-3.33442
0
LINE
8
BLACK
6
CONTINUOUS
10
5.8978
20
-3.33442
11
5.88888
21
-3.3428
0
LINE
8
BLACK
6
CONTINUOUS
10
5.88888
20
-3.3428
11
5.87898
21
-3.34999
0
LINE
8
BLACK
6
CONTINUOUS
10
5.87898
20
-3.34999
11
5.86826
21
-3.35588
0
LINE
8
BLACK
6
CONTINUOUS
10
5.86826
20
-3.35588
11
5.85688
21
-3.36039
0
LINE
8
BLACK
6
CONTINUOUS
10
5.85688
20
-3.36039
11
5.84503
21
-3.36343
0
LINE
8
BLACK
6
CONTINUOUS
10
5.84503
20
-3.36343
11
5.83289
21
-3.36497
0
LINE
8
BLACK
6
CONTINUOUS
10
5.83289
20
-3.36497
11
5.82065
21
-3.36497
0
LINE
8
BLACK
6
CONTINUOUS
10
5.82065
20
-3.36497
11
5.80851
21
-3.36343
0
LINE
8
BLACK
6
CONTINUOUS
10
5.80851
20
-3.36343
11
5.79666
21
-3.36039
0
LINE
8
BLACK
6
CONTINUOUS
10
5.79666
20
-3.36039
11
5.78528
21
-3.35588
0
LINE
8
BLACK
6
CONTINUOUS
10
5.78528
20
-3.35588
11
5.77456
21
-3.34999
0
LINE
8
BLACK
6
CONTINUOUS
10
5.77456
20
-3.34999
11
5.76466
21
-3.3428
0
LINE
8
BLACK
6
CONTINUOUS
10
5.76466
20
-3.3428
11
5.75574
21
-3.33442
0
LINE
8
BLACK
6
CONTINUOUS
10
5.75574
20
-3.33442
11
5.74794
21
-3.32499
0
LINE
8
BLACK
6
CONTINUOUS
10
5.74794
20
-3.32499
11
5.74138
21
-3.31466
0
LINE
8
BLACK
6
CONTINUOUS
10
5.74138
20
-3.31466
11
5.73617
21
-3.30359
0
LINE
8
BLACK
6
CONTINUOUS
10
5.73617
20
-3.30359
11
5.73239
21
-3.29195
0
LINE
8
BLACK
6
CONTINUOUS
10
5.73239
20
-3.29195
11
5.7301
21
-3.27993
0
LINE
8
BLACK
6
CONTINUOUS
10
5.7301
20
-3.27993
11
5.72933
21
-3.26772
0
LINE
8
BLACK
6
CONTINUOUS
10
5.72933
20
-3.26772
11
5.7301
21
-3.2555
0
LINE
8
BLACK
6
CONTINUOUS
10
5.7301
20
-3.2555
11
5.73239
21
-3.24348
0
LINE
8
BLACK
6
CONTINUOUS
10
5.73412
20
-3.29151
11
5.73783
21
-3.30293
0
LINE
8
BLACK
6
CONTINUOUS
10
5.73783
20
-3.30293
11
5.74294
21
-3.3138
0
LINE
8
BLACK
6
CONTINUOUS
10
5.74294
20
-3.3138
11
5.74938
21
-3.32394
0
LINE
8
BLACK
6
CONTINUOUS
10
5.74938
20
-3.32394
11
5.75704
21
-3.3332
0
LINE
8
BLACK
6
CONTINUOUS
10
5.75704
20
-3.3332
11
5.76579
21
-3.34142
0
LINE
8
BLACK
6
CONTINUOUS
10
5.76579
20
-3.34142
11
5.77551
21
-3.34849
0
LINE
8
BLACK
6
CONTINUOUS
10
5.77551
20
-3.34849
11
5.78604
21
-3.35427
0
LINE
8
BLACK
6
CONTINUOUS
10
5.78604
20
-3.35427
11
5.79721
21
-3.3587
0
LINE
8
BLACK
6
CONTINUOUS
10
5.79721
20
-3.3587
11
5.80885
21
-3.36168
0
LINE
8
BLACK
6
CONTINUOUS
10
5.80885
20
-3.36168
11
5.82077
21
-3.36319
0
LINE
8
BLACK
6
CONTINUOUS
10
5.82077
20
-3.36319
11
5.83278
21
-3.36319
0
LINE
8
BLACK
6
CONTINUOUS
10
5.83278
20
-3.36319
11
5.8447
21
-3.36168
0
LINE
8
BLACK
6
CONTINUOUS
10
5.8447
20
-3.36168
11
5.85633
21
-3.3587
0
LINE
8
BLACK
6
CONTINUOUS
10
5.85633
20
-3.3587
11
5.8675
21
-3.35427
0
LINE
8
BLACK
6
CONTINUOUS
10
5.8675
20
-3.35427
11
5.87803
21
-3.34849
0
LINE
8
BLACK
6
CONTINUOUS
10
5.87803
20
-3.34849
11
5.88775
21
-3.34142
0
LINE
8
BLACK
6
CONTINUOUS
10
5.88775
20
-3.34142
11
5.89651
21
-3.3332
0
LINE
8
BLACK
6
CONTINUOUS
10
5.89651
20
-3.3332
11
5.90416
21
-3.32394
0
LINE
8
BLACK
6
CONTINUOUS
10
5.90416
20
-3.32394
11
5.9106
21
-3.3138
0
LINE
8
BLACK
6
CONTINUOUS
10
5.9106
20
-3.3138
11
5.91572
21
-3.30293
0
LINE
8
BLACK
6
CONTINUOUS
10
5.91572
20
-3.30293
11
5.91943
21
-3.29151
0
LINE
8
BLACK
6
CONTINUOUS
10
5.91943
20
-3.29151
11
5.92168
21
-3.27971
0
LINE
8
BLACK
6
CONTINUOUS
10
5.92168
20
-3.27971
11
5.92243
21
-3.26772
0
LINE
8
BLACK
6
CONTINUOUS
10
5.92243
20
-3.26772
11
5.92168
21
-3.25573
0
LINE
8
BLACK
6
CONTINUOUS
10
5.92168
20
-3.25573
11
5.91943
21
-3.24393
0
LINE
8
BLACK
6
CONTINUOUS
10
5.91943
20
-3.24393
11
5.91572
21
-3.2325
0
LINE
8
BLACK
6
CONTINUOUS
10
5.91572
20
-3.2325
11
5.9106
21
-3.22163
0
LINE
8
BLACK
6
CONTINUOUS
10
5.9106
20
-3.22163
11
5.90416
21
-3.21149
0
LINE
8
BLACK
6
CONTINUOUS
10
5.90416
20
-3.21149
11
5.89651
21
-3.20223
0
LINE
8
BLACK
6
CONTINUOUS
10
5.89651
20
-3.20223
11
5.88775
21
-3.19401
0
LINE
8
BLACK
6
CONTINUOUS
10
5.88775
20
-3.19401
11
5.87803
21
-3.18695
0
LINE
8
BLACK
6
CONTINUOUS
10
5.87803
20
-3.18695
11
5.8675
21
-3.18116
0
LINE
8
BLACK
6
CONTINUOUS
10
5.8675
20
-3.18116
11
5.85633
21
-3.17674
0
LINE
8
BLACK
6
CONTINUOUS
10
5.85633
20
-3.17674
11
5.8447
21
-3.17375
0
LINE
8
BLACK
6
CONTINUOUS
10
5.8447
20
-3.17375
11
5.83278
21
-3.17224
0
LINE
8
BLACK
6
CONTINUOUS
10
5.83278
20
-3.17224
11
5.82077
21
-3.17224
0
LINE
8
BLACK
6
CONTINUOUS
10
5.82077
20
-3.17224
11
5.80885
21
-3.17375
0
LINE
8
BLACK
6
CONTINUOUS
10
5.80885
20
-3.17375
11
5.79721
21
-3.17674
0
LINE
8
BLACK
6
CONTINUOUS
10
5.79721
20
-3.17674
11
5.78604
21
-3.18116
0
LINE
8
BLACK
6
CONTINUOUS
10
5.78604
20
-3.18116
11
5.77551
21
-3.18695
0
LINE
8
BLACK
6
CONTINUOUS
10
5.77551
20
-3.18695
11
5.76579
21
-3.19401
0
LINE
8
BLACK
6
CONTINUOUS
10
5.76579
20
-3.19401
11
5.75704
21
-3.20223
0
LINE
8
BLACK
6
CONTINUOUS
10
5.75704
20
-3.20223
11
5.74938
21
-3.21149
0
LINE
8
BLACK
6
CONTINUOUS
10
5.74938
20
-3.21149
11
5.74294
21
-3.22163
0
LINE
8
BLACK
6
CONTINUOUS
10
5.74294
20
-3.22163
11
5.73783
21
-3.2325
0
LINE
8
BLACK
6
CONTINUOUS
10
5.73783
20
-3.2325
11
5.73412
21
-3.24393
0
LINE
8
BLACK
6
CONTINUOUS
10
5.73412
20
-3.24393
11
5.73186
21
-3.25573
0
LINE
8
BLACK
6
CONTINUOUS
10
5.73186
20
-3.25573
11
5.73111
21
-3.26772
0
LINE
8
BLACK
6
CONTINUOUS
10
5.73111
20
-3.26772
11
5.73186
21
-3.27971
0
LINE
8
BLACK
6
CONTINUOUS
10
5.73186
20
-3.27971
11
5.73412
21
-3.29151
0
LINE
8
BLACK
6
CONTINUOUS
10
5.18121
20
-3.24348
11
5.18499
21
-3.23185
0
LINE
8
BLACK
6
CONTINUOUS
10
5.18499
20
-3.23185
11
5.1902
21
-3.22077
0
LINE
8
BLACK
6
CONTINUOUS
10
5.1902
20
-3.22077
11
5.19676
21
-3.21044
0
LINE
8
BLACK
6
CONTINUOUS
10
5.19676
20
-3.21044
11
5.20456
21
-3.20101
0
LINE
8
BLACK
6
CONTINUOUS
10
5.20456
20
-3.20101
11
5.21348
21
-3.19264
0
LINE
8
BLACK
6
CONTINUOUS
10
5.21348
20
-3.19264
11
5.22338
21
-3.18544
0
LINE
8
BLACK
6
CONTINUOUS
10
5.22338
20
-3.18544
11
5.2341
21
-3.17955
0
LINE
8
BLACK
6
CONTINUOUS
10
5.2341
20
-3.17955
11
5.24548
21
-3.17504
0
LINE
8
BLACK
6
CONTINUOUS
10
5.24548
20
-3.17504
11
5.25733
21
-3.172
0
LINE
8
BLACK
6
CONTINUOUS
10
5.25733
20
-3.172
11
5.26947
21
-3.17047
0
LINE
8
BLACK
6
CONTINUOUS
10
5.26947
20
-3.17047
11
5.28171
21
-3.17047
0
LINE
8
BLACK
6
CONTINUOUS
10
5.28171
20
-3.17047
11
5.29385
21
-3.172
0
LINE
8
BLACK
6
CONTINUOUS
10
5.29385
20
-3.172
11
5.3057
21
-3.17504
0
LINE
8
BLACK
6
CONTINUOUS
10
5.3057
20
-3.17504
11
5.31708
21
-3.17955
0
LINE
8
BLACK
6
CONTINUOUS
10
5.31708
20
-3.17955
11
5.3278
21
-3.18544
0
LINE
8
BLACK
6
CONTINUOUS
10
5.3278
20
-3.18544
11
5.3377
21
-3.19264
0
LINE
8
BLACK
6
CONTINUOUS
10
5.3377
20
-3.19264
11
5.34662
21
-3.20101
0
LINE
8
BLACK
6
CONTINUOUS
10
5.34662
20
-3.20101
11
5.35442
21
-3.21044
0
LINE
8
BLACK
6
CONTINUOUS
10
5.35442
20
-3.21044
11
5.36098
21
-3.22077
0
LINE
8
BLACK
6
CONTINUOUS
10
5.36098
20
-3.22077
11
5.36619
21
-3.23185
0
LINE
8
BLACK
6
CONTINUOUS
10
5.36619
20
-3.23185
11
5.36997
21
-3.24348
0
LINE
8
BLACK
6
CONTINUOUS
10
5.36997
20
-3.24348
11
5.37226
21
-3.2555
0
LINE
8
BLACK
6
CONTINUOUS
10
5.37226
20
-3.2555
11
5.37303
21
-3.26772
0
LINE
8
BLACK
6
CONTINUOUS
10
5.37303
20
-3.26772
11
5.37226
21
-3.27993
0
LINE
8
BLACK
6
CONTINUOUS
10
5.37226
20
-3.27993
11
5.36997
21
-3.29195
0
LINE
8
BLACK
6
CONTINUOUS
10
5.36997
20
-3.29195
11
5.36619
21
-3.30359
0
LINE
8
BLACK
6
CONTINUOUS
10
5.36619
20
-3.30359
11
5.36098
21
-3.31466
0
LINE
8
BLACK
6
CONTINUOUS
10
5.36098
20
-3.31466
11
5.35442
21
-3.32499
0
LINE
8
BLACK
6
CONTINUOUS
10
5.35442
20
-3.32499
11
5.34662
21
-3.33442
0
LINE
8
BLACK
6
CONTINUOUS
10
5.34662
20
-3.33442
11
5.3377
21
-3.3428
0
LINE
8
BLACK
6
CONTINUOUS
10
5.3377
20
-3.3428
11
5.3278
21
-3.34999
0
LINE
8
BLACK
6
CONTINUOUS
10
5.3278
20
-3.34999
11
5.31708
21
-3.35588
0
LINE
8
BLACK
6
CONTINUOUS
10
5.31708
20
-3.35588
11
5.3057
21
-3.36039
0
LINE
8
BLACK
6
CONTINUOUS
10
5.3057
20
-3.36039
11
5.29385
21
-3.36343
0
LINE
8
BLACK
6
CONTINUOUS
10
5.29385
20
-3.36343
11
5.28171
21
-3.36497
0
LINE
8
BLACK
6
CONTINUOUS
10
5.28171
20
-3.36497
11
5.26947
21
-3.36497
0
LINE
8
BLACK
6
CONTINUOUS
10
5.26947
20
-3.36497
11
5.25733
21
-3.36343
0
LINE
8
BLACK
6
CONTINUOUS
10
5.25733
20
-3.36343
11
5.24548
21
-3.36039
0
LINE
8
BLACK
6
CONTINUOUS
10
5.24548
20
-3.36039
11
5.2341
21
-3.35588
0
LINE
8
BLACK
6
CONTINUOUS
10
5.2341
20
-3.35588
11
5.22338
21
-3.34999
0
LINE
8
BLACK
6
CONTINUOUS
10
5.22338
20
-3.34999
11
5.21348
21
-3.3428
0
LINE
8
BLACK
6
CONTINUOUS
10
5.21348
20
-3.3428
11
5.20456
21
-3.33442
0
LINE
8
BLACK
6
CONTINUOUS
10
5.20456
20
-3.33442
11
5.19676
21
-3.32499
0
LINE
8
BLACK
6
CONTINUOUS
10
5.19676
20
-3.32499
11
5.1902
21
-3.31466
0
LINE
8
BLACK
6
CONTINUOUS
10
5.1902
20
-3.31466
11
5.18499
21
-3.30359
0
LINE
8
BLACK
6
CONTINUOUS
10
5.18499
20
-3.30359
11
5.18121
21
-3.29195
0
LINE
8
BLACK
6
CONTINUOUS
10
5.18121
20
-3.29195
11
5.17892
21
-3.27993
0
LINE
8
BLACK
6
CONTINUOUS
10
5.17892
20
-3.27993
11
5.17815
21
-3.26772
0
LINE
8
BLACK
6
CONTINUOUS
10
5.17815
20
-3.26772
11
5.17892
21
-3.2555
0
LINE
8
BLACK
6
CONTINUOUS
10
5.17892
20
-3.2555
11
5.18121
21
-3.24348
0
LINE
8
BLACK
6
CONTINUOUS
10
5.18293
20
-3.29151
11
5.18665
21
-3.30293
0
LINE
8
BLACK
6
CONTINUOUS
10
5.18665
20
-3.30293
11
5.19176
21
-3.3138
0
LINE
8
BLACK
6
CONTINUOUS
10
5.19176
20
-3.3138
11
5.1982
21
-3.32394
0
LINE
8
BLACK
6
CONTINUOUS
10
5.1982
20
-3.32394
11
5.20586
21
-3.3332
0
LINE
8
BLACK
6
CONTINUOUS
10
5.20586
20
-3.3332
11
5.21461
21
-3.34142
0
LINE
8
BLACK
6
CONTINUOUS
10
5.21461
20
-3.34142
11
5.22433
21
-3.34849
0
LINE
8
BLACK
6
CONTINUOUS
10
5.22433
20
-3.34849
11
5.23486
21
-3.35427
0
LINE
8
BLACK
6
CONTINUOUS
10
5.23486
20
-3.35427
11
5.24603
21
-3.3587
0
LINE
8
BLACK
6
CONTINUOUS
10
5.24603
20
-3.3587
11
5.25767
21
-3.36168
0
LINE
8
BLACK
6
CONTINUOUS
10
5.25767
20
-3.36168
11
5.26958
21
-3.36319
0
LINE
8
BLACK
6
CONTINUOUS
10
5.26958
20
-3.36319
11
5.2816
21
-3.36319
0
LINE
8
BLACK
6
CONTINUOUS
10
5.2816
20
-3.36319
11
5.29352
21
-3.36168
0
LINE
8
BLACK
6
CONTINUOUS
10
5.29352
20
-3.36168
11
5.30515
21
-3.3587
0
LINE
8
BLACK
6
CONTINUOUS
10
5.30515
20
-3.3587
11
5.31632
21
-3.35427
0
LINE
8
BLACK
6
CONTINUOUS
10
5.31632
20
-3.35427
11
5.32685
21
-3.34849
0
LINE
8
BLACK
6
CONTINUOUS
10
5.32685
20
-3.34849
11
5.33657
21
-3.34142
0
LINE
8
BLACK
6
CONTINUOUS
10
5.33657
20
-3.34142
11
5.34532
21
-3.3332
0
LINE
8
BLACK
6
CONTINUOUS
10
5.34532
20
-3.3332
11
5.35298
21
-3.32394
0
LINE
8
BLACK
6
CONTINUOUS
10
5.35298
20
-3.32394
11
5.35942
21
-3.3138
0
LINE
8
BLACK
6
CONTINUOUS
10
5.35942
20
-3.3138
11
5.36453
21
-3.30293
0
LINE
8
BLACK
6
CONTINUOUS
10
5.36453
20
-3.30293
11
5.36825
21
-3.29151
0
LINE
8
BLACK
6
CONTINUOUS
10
5.36825
20
-3.29151
11
5.3705
21
-3.27971
0
LINE
8
BLACK
6
CONTINUOUS
10
5.3705
20
-3.27971
11
5.37125
21
-3.26772
0
LINE
8
BLACK
6
CONTINUOUS
10
5.37125
20
-3.26772
11
5.3705
21
-3.25573
0
LINE
8
BLACK
6
CONTINUOUS
10
5.3705
20
-3.25573
11
5.36825
21
-3.24393
0
LINE
8
BLACK
6
CONTINUOUS
10
5.36825
20
-3.24393
11
5.36453
21
-3.2325
0
LINE
8
BLACK
6
CONTINUOUS
10
5.36453
20
-3.2325
11
5.35942
21
-3.22163
0
LINE
8
BLACK
6
CONTINUOUS
10
5.35942
20
-3.22163
11
5.35298
21
-3.21149
0
LINE
8
BLACK
6
CONTINUOUS
10
5.35298
20
-3.21149
11
5.34532
21
-3.20223
0
LINE
8
BLACK
6
CONTINUOUS
10
5.34532
20
-3.20223
11
5.33657
21
-3.19401
0
LINE
8
BLACK
6
CONTINUOUS
10
5.33657
20
-3.19401
11
5.32685
21
-3.18695
0
LINE
8
BLACK
6
CONTINUOUS
10
5.32685
20
-3.18695
11
5.31632
21
-3.18116
0
LINE
8
BLACK
6
CONTINUOUS
10
5.31632
20
-3.18116
11
5.30515
21
-3.17674
0
LINE
8
BLACK
6
CONTINUOUS
10
5.30515
20
-3.17674
11
5.29352
21
-3.17375
0
LINE
8
BLACK
6
CONTINUOUS
10
5.29352
20
-3.17375
11
5.2816
21
-3.17224
0
LINE
8
BLACK
6
CONTINUOUS
10
5.2816
20
-3.17224
11
5.26958
21
-3.17224
0
LINE
8
BLACK
6
CONTINUOUS
10
5.26958
20
-3.17224
11
5.25767
21
-3.17375
0
LINE
8
BLACK
6
CONTINUOUS
10
5.25767
20
-3.17375
11
5.24603
21
-3.17674
0
LINE
8
BLACK
6
CONTINUOUS
10
5.24603
20
-3.17674
11
5.23486
21
-3.18116
0
LINE
8
BLACK
6
CONTINUOUS
10
5.23486
20
-3.18116
11
5.22433
21
-3.18695
0
LINE
8
BLACK
6
CONTINUOUS
10
5.22433
20
-3.18695
11
5.21461
21
-3.19401
0
LINE
8
BLACK
6
CONTINUOUS
10
5.21461
20
-3.19401
11
5.20586
21
-3.20223
0
LINE
8
BLACK
6
CONTINUOUS
10
5.20586
20
-3.20223
11
5.1982
21
-3.21149
0
LINE
8
BLACK
6
CONTINUOUS
10
5.1982
20
-3.21149
11
5.19176
21
-3.22163
0
LINE
8
BLACK
6
CONTINUOUS
10
5.19176
20
-3.22163
11
5.18665
21
-3.2325
0
LINE
8
BLACK
6
CONTINUOUS
10
5.18665
20
-3.2325
11
5.18293
21
-3.24393
0
LINE
8
BLACK
6
CONTINUOUS
10
5.18293
20
-3.24393
11
5.18068
21
-3.25573
0
LINE
8
BLACK
6
CONTINUOUS
10
5.18068
20
-3.25573
11
5.17993
21
-3.26772
0
LINE
8
BLACK
6
CONTINUOUS
10
5.17993
20
-3.26772
11
5.18068
21
-3.27971
0
LINE
8
BLACK
6
CONTINUOUS
10
5.18068
20
-3.27971
11
5.18293
21
-3.29151
  0
ENDSEC
  0
EOF
