  0
SECTION
  2
HEADER
  9
$ANGBASE
  50
0.0
  9
$ANGDIR
  70
1
  9
$MEASUREMENT
  70
0
  0
ENDSEC
  0
SECTION
  2
TABLES
  0
TABLE
  2
LTYPE
  70
4
  0
LTYPE
  5
40F
  2
CONTINUOUS
  70
0
  3
Solid line
  72
65
  73
0
  40
0.0
  0
LTYPE
  5
410
  2
DASHDOT
 70
0
  3
Dash Dot ____ _ ____ _
 72
65
 73
4
 40
2.0
 49
1.25
 49
-0.25
 49
0.25
 49
-0.25
  0
LTYPE
  5
411
  2
DASHED
 70
0
  3
Dashed __ __ __ __ __
 72
65
 73
2
 40
0.75
 49
0.5
 49
-0.25
  0
LTYPE
  5
43B
  2
DOTTED
 70
0
  3
Dotted .  .  .  .
 72
65
 73
2
 40
0.2
 49
0.0
 49
-0.2
  0
ENDTAB
  0
TABLE
  2
STYLE
  70
4
  0
STYLE
  2
KICAD
  70
0
  40
0
  41
1
  42
1
  50
0
  71
0
  3
isocp.shx
  0
STYLE
  2
KICADB
  70
0
  40
0
  41
1
  42
1
  50
0
  71
0
  3
isocp.shx
  0
STYLE
  2
KICADI
  70
0
  40
0
  41
1
  42
1
  50
15
  71
0
  3
isocp.shx
  0
STYLE
  2
KICADBI
  70
0
  40
0
  41
1
  42
1
  50
15
  71
0
  3
isocp.shx
  0
ENDTAB
  0
TABLE
  2
LAYER
  70
1
  0
LAYER
  2
BLACK
  70
0
  62
7
  6
CONTINUOUS
  0
ENDTAB
  0
ENDSEC
  0
SECTION
  2
ENTITIES
0
LINE
8
BLACK
6
CONTINUOUS
10
5.74026
20
-3.79572
11
5.74402
21
-3.78462
0
LINE
8
BLACK
6
CONTINUOUS
10
5.74402
20
-3.78462
11
5.7492
21
-3.77411
0
LINE
8
BLACK
6
CONTINUOUS
10
5.7492
20
-3.77411
11
5.75571
21
-3.76437
0
LINE
8
BLACK
6
CONTINUOUS
10
5.75571
20
-3.76437
11
5.76344
21
-3.75556
0
LINE
8
BLACK
6
CONTINUOUS
10
5.76344
20
-3.75556
11
5.77225
21
-3.74784
0
LINE
8
BLACK
6
CONTINUOUS
10
5.77225
20
-3.74784
11
5.78199
21
-3.74133
0
LINE
8
BLACK
6
CONTINUOUS
10
5.78199
20
-3.74133
11
5.7925
21
-3.73615
0
LINE
8
BLACK
6
CONTINUOUS
10
5.7925
20
-3.73615
11
5.80359
21
-3.73238
0
LINE
8
BLACK
6
CONTINUOUS
10
5.80359
20
-3.73238
11
5.81508
21
-3.7301
0
LINE
8
BLACK
6
CONTINUOUS
10
5.81508
20
-3.7301
11
5.82677
21
-3.72933
0
LINE
8
BLACK
6
CONTINUOUS
10
5.82677
20
-3.72933
11
5.83846
21
-3.7301
0
LINE
8
BLACK
6
CONTINUOUS
10
5.83846
20
-3.7301
11
5.84995
21
-3.73238
0
LINE
8
BLACK
6
CONTINUOUS
10
5.84995
20
-3.73238
11
5.86105
21
-3.73615
0
LINE
8
BLACK
6
CONTINUOUS
10
5.86105
20
-3.73615
11
5.87156
21
-3.74133
0
LINE
8
BLACK
6
CONTINUOUS
10
5.87156
20
-3.74133
11
5.8813
21
-3.74784
0
LINE
8
BLACK
6
CONTINUOUS
10
5.8813
20
-3.74784
11
5.89011
21
-3.75556
0
LINE
8
BLACK
6
CONTINUOUS
10
5.89011
20
-3.75556
11
5.89783
21
-3.76437
0
LINE
8
BLACK
6
CONTINUOUS
10
5.89783
20
-3.76437
11
5.90434
21
-3.77411
0
LINE
8
BLACK
6
CONTINUOUS
10
5.90434
20
-3.77411
11
5.90952
21
-3.78462
0
LINE
8
BLACK
6
CONTINUOUS
10
5.90952
20
-3.78462
11
5.91329
21
-3.79572
0
LINE
8
BLACK
6
CONTINUOUS
10
5.91329
20
-3.79572
11
5.91557
21
-3.80721
0
LINE
8
BLACK
6
CONTINUOUS
10
5.91557
20
-3.80721
11
5.91634
21
-3.8189
0
LINE
8
BLACK
6
CONTINUOUS
10
5.91634
20
-3.8189
11
5.91557
21
-3.83059
0
LINE
8
BLACK
6
CONTINUOUS
10
5.91557
20
-3.83059
11
5.91329
21
-3.84208
0
LINE
8
BLACK
6
CONTINUOUS
10
5.91329
20
-3.84208
11
5.90952
21
-3.85317
0
LINE
8
BLACK
6
CONTINUOUS
10
5.90952
20
-3.85317
11
5.90434
21
-3.86368
0
LINE
8
BLACK
6
CONTINUOUS
10
5.90434
20
-3.86368
11
5.89783
21
-3.87342
0
LINE
8
BLACK
6
CONTINUOUS
10
5.89783
20
-3.87342
11
5.89011
21
-3.88223
0
LINE
8
BLACK
6
CONTINUOUS
10
5.89011
20
-3.88223
11
5.8813
21
-3.88996
0
LINE
8
BLACK
6
CONTINUOUS
10
5.8813
20
-3.88996
11
5.87156
21
-3.89646
0
LINE
8
BLACK
6
CONTINUOUS
10
5.87156
20
-3.89646
11
5.86105
21
-3.90165
0
LINE
8
BLACK
6
CONTINUOUS
10
5.86105
20
-3.90165
11
5.84995
21
-3.90541
0
LINE
8
BLACK
6
CONTINUOUS
10
5.84995
20
-3.90541
11
5.83846
21
-3.9077
0
LINE
8
BLACK
6
CONTINUOUS
10
5.83846
20
-3.9077
11
5.82677
21
-3.90846
0
LINE
8
BLACK
6
CONTINUOUS
10
5.82677
20
-3.90846
11
5.81508
21
-3.9077
0
LINE
8
BLACK
6
CONTINUOUS
10
5.81508
20
-3.9077
11
5.80359
21
-3.90541
0
LINE
8
BLACK
6
CONTINUOUS
10
5.80359
20
-3.90541
11
5.7925
21
-3.90165
0
LINE
8
BLACK
6
CONTINUOUS
10
5.7925
20
-3.90165
11
5.78199
21
-3.89646
0
LINE
8
BLACK
6
CONTINUOUS
10
5.78199
20
-3.89646
11
5.77225
21
-3.88996
0
LINE
8
BLACK
6
CONTINUOUS
10
5.77225
20
-3.88996
11
5.76344
21
-3.88223
0
LINE
8
BLACK
6
CONTINUOUS
10
5.76344
20
-3.88223
11
5.75571
21
-3.87342
0
LINE
8
BLACK
6
CONTINUOUS
10
5.75571
20
-3.87342
11
5.7492
21
-3.86368
0
LINE
8
BLACK
6
CONTINUOUS
10
5.7492
20
-3.86368
11
5.74402
21
-3.85317
0
LINE
8
BLACK
6
CONTINUOUS
10
5.74402
20
-3.85317
11
5.74026
21
-3.84208
0
LINE
8
BLACK
6
CONTINUOUS
10
5.74026
20
-3.84208
11
5.73797
21
-3.83059
0
LINE
8
BLACK
6
CONTINUOUS
10
5.73797
20
-3.83059
11
5.7372
21
-3.8189
0
LINE
8
BLACK
6
CONTINUOUS
10
5.7372
20
-3.8189
11
5.73726
21
-3.81802
0
LINE
8
BLACK
6
CONTINUOUS
10
5.73726
20
-3.81802
11
5.73797
21
-3.80721
0
LINE
8
BLACK
6
CONTINUOUS
10
5.73797
20
-3.80721
11
5.74026
21
-3.79572
0
LINE
8
BLACK
6
CONTINUOUS
10
5.74577
20
-3.8406
11
5.74947
21
-3.85139
0
LINE
8
BLACK
6
CONTINUOUS
10
5.74947
20
-3.85139
11
5.75459
21
-3.86158
0
LINE
8
BLACK
6
CONTINUOUS
10
5.75459
20
-3.86158
11
5.76105
21
-3.87099
0
LINE
8
BLACK
6
CONTINUOUS
10
5.76105
20
-3.87099
11
5.76873
21
-3.87942
0
LINE
8
BLACK
6
CONTINUOUS
10
5.76873
20
-3.87942
11
5.77748
21
-3.88674
0
LINE
8
BLACK
6
CONTINUOUS
10
5.77748
20
-3.88674
11
5.78714
21
-3.8928
0
LINE
8
BLACK
6
CONTINUOUS
10
5.78714
20
-3.8928
11
5.79754
21
-3.8975
0
LINE
8
BLACK
6
CONTINUOUS
10
5.79754
20
-3.8975
11
5.80848
21
-3.90074
0
LINE
8
BLACK
6
CONTINUOUS
10
5.80848
20
-3.90074
11
5.81975
21
-3.90246
0
LINE
8
BLACK
6
CONTINUOUS
10
5.81975
20
-3.90246
11
5.83116
21
-3.90264
0
LINE
8
BLACK
6
CONTINUOUS
10
5.83116
20
-3.90264
11
5.84248
21
-3.90127
0
LINE
8
BLACK
6
CONTINUOUS
10
5.84248
20
-3.90127
11
5.85352
21
-3.89837
0
LINE
8
BLACK
6
CONTINUOUS
10
5.85352
20
-3.89837
11
5.86406
21
-3.89401
0
LINE
8
BLACK
6
CONTINUOUS
10
5.86406
20
-3.89401
11
5.87391
21
-3.88825
0
LINE
8
BLACK
6
CONTINUOUS
10
5.87391
20
-3.88825
11
5.88288
21
-3.88122
0
LINE
8
BLACK
6
CONTINUOUS
10
5.88288
20
-3.88122
11
5.89082
21
-3.87302
0
LINE
8
BLACK
6
CONTINUOUS
10
5.89082
20
-3.87302
11
5.89757
21
-3.86383
0
LINE
8
BLACK
6
CONTINUOUS
10
5.89757
20
-3.86383
11
5.90302
21
-3.85381
0
LINE
8
BLACK
6
CONTINUOUS
10
5.90302
20
-3.85381
11
5.90705
21
-3.84313
0
LINE
8
BLACK
6
CONTINUOUS
10
5.90705
20
-3.84313
11
5.9096
21
-3.83202
0
LINE
8
BLACK
6
CONTINUOUS
10
5.9096
20
-3.83202
11
5.91061
21
-3.82065
0
LINE
8
BLACK
6
CONTINUOUS
10
5.91061
20
-3.82065
11
5.91063
21
-3.8189
0
LINE
8
BLACK
6
CONTINUOUS
10
5.91063
20
-3.8189
11
5.90985
21
-3.80752
0
LINE
8
BLACK
6
CONTINUOUS
10
5.90985
20
-3.80752
11
5.90754
21
-3.79635
0
LINE
8
BLACK
6
CONTINUOUS
10
5.90754
20
-3.79635
11
5.90373
21
-3.78559
0
LINE
8
BLACK
6
CONTINUOUS
10
5.90373
20
-3.78559
11
5.8985
21
-3.77546
0
LINE
8
BLACK
6
CONTINUOUS
10
5.8985
20
-3.77546
11
5.89194
21
-3.76612
0
LINE
8
BLACK
6
CONTINUOUS
10
5.89194
20
-3.76612
11
5.88418
21
-3.75777
0
LINE
8
BLACK
6
CONTINUOUS
10
5.88418
20
-3.75777
11
5.87535
21
-3.75054
0
LINE
8
BLACK
6
CONTINUOUS
10
5.87535
20
-3.75054
11
5.86562
21
-3.74458
0
LINE
8
BLACK
6
CONTINUOUS
10
5.86562
20
-3.74458
11
5.85518
21
-3.74
0
LINE
8
BLACK
6
CONTINUOUS
10
5.85518
20
-3.74
11
5.84421
21
-3.73687
0
LINE
8
BLACK
6
CONTINUOUS
10
5.84421
20
-3.73687
11
5.83291
21
-3.73527
0
LINE
8
BLACK
6
CONTINUOUS
10
5.83291
20
-3.73527
11
5.82151
21
-3.73521
0
LINE
8
BLACK
6
CONTINUOUS
10
5.82151
20
-3.73521
11
5.8102
21
-3.7367
0
LINE
8
BLACK
6
CONTINUOUS
10
5.8102
20
-3.7367
11
5.79919
21
-3.73971
0
LINE
8
BLACK
6
CONTINUOUS
10
5.79919
20
-3.73971
11
5.7887
21
-3.74418
0
LINE
8
BLACK
6
CONTINUOUS
10
5.7887
20
-3.74418
11
5.77891
21
-3.75004
0
LINE
8
BLACK
6
CONTINUOUS
10
5.77891
20
-3.75004
11
5.77001
21
-3.75717
0
LINE
8
BLACK
6
CONTINUOUS
10
5.77001
20
-3.75717
11
5.76216
21
-3.76545
0
LINE
8
BLACK
6
CONTINUOUS
10
5.76216
20
-3.76545
11
5.7555
21
-3.77471
0
LINE
8
BLACK
6
CONTINUOUS
10
5.7555
20
-3.77471
11
5.75016
21
-3.78479
0
LINE
8
BLACK
6
CONTINUOUS
10
5.75016
20
-3.78479
11
5.74624
21
-3.7955
0
LINE
8
BLACK
6
CONTINUOUS
10
5.74624
20
-3.7955
11
5.74381
21
-3.80665
0
LINE
8
BLACK
6
CONTINUOUS
10
5.74381
20
-3.80665
11
5.74292
21
-3.81802
0
LINE
8
BLACK
6
CONTINUOUS
10
5.74292
20
-3.81802
11
5.74358
21
-3.82941
0
LINE
8
BLACK
6
CONTINUOUS
10
5.74358
20
-3.82941
11
5.74577
21
-3.8406
0
LINE
8
BLACK
6
CONTINUOUS
10
5.18908
20
-3.79572
11
5.19284
21
-3.78462
0
LINE
8
BLACK
6
CONTINUOUS
10
5.19284
20
-3.78462
11
5.19802
21
-3.77411
0
LINE
8
BLACK
6
CONTINUOUS
10
5.19802
20
-3.77411
11
5.20453
21
-3.76437
0
LINE
8
BLACK
6
CONTINUOUS
10
5.20453
20
-3.76437
11
5.21226
21
-3.75556
0
LINE
8
BLACK
6
CONTINUOUS
10
5.21226
20
-3.75556
11
5.22107
21
-3.74784
0
LINE
8
BLACK
6
CONTINUOUS
10
5.22107
20
-3.74784
11
5.23081
21
-3.74133
0
LINE
8
BLACK
6
CONTINUOUS
10
5.23081
20
-3.74133
11
5.24131
21
-3.73615
0
LINE
8
BLACK
6
CONTINUOUS
10
5.24131
20
-3.73615
11
5.25241
21
-3.73238
0
LINE
8
BLACK
6
CONTINUOUS
10
5.25241
20
-3.73238
11
5.2639
21
-3.7301
0
LINE
8
BLACK
6
CONTINUOUS
10
5.2639
20
-3.7301
11
5.27559
21
-3.72933
0
LINE
8
BLACK
6
CONTINUOUS
10
5.27559
20
-3.72933
11
5.28728
21
-3.7301
0
LINE
8
BLACK
6
CONTINUOUS
10
5.28728
20
-3.7301
11
5.29877
21
-3.73238
0
LINE
8
BLACK
6
CONTINUOUS
10
5.29877
20
-3.73238
11
5.30987
21
-3.73615
0
LINE
8
BLACK
6
CONTINUOUS
10
5.30987
20
-3.73615
11
5.32037
21
-3.74133
0
LINE
8
BLACK
6
CONTINUOUS
10
5.32037
20
-3.74133
11
5.33012
21
-3.74784
0
LINE
8
BLACK
6
CONTINUOUS
10
5.33012
20
-3.74784
11
5.33892
21
-3.75556
0
LINE
8
BLACK
6
CONTINUOUS
10
5.33892
20
-3.75556
11
5.34665
21
-3.76437
0
LINE
8
BLACK
6
CONTINUOUS
10
5.34665
20
-3.76437
11
5.35316
21
-3.77411
0
LINE
8
BLACK
6
CONTINUOUS
10
5.35316
20
-3.77411
11
5.35834
21
-3.78462
0
LINE
8
BLACK
6
CONTINUOUS
10
5.35834
20
-3.78462
11
5.36211
21
-3.79572
0
LINE
8
BLACK
6
CONTINUOUS
10
5.36211
20
-3.79572
11
5.36439
21
-3.80721
0
LINE
8
BLACK
6
CONTINUOUS
10
5.36439
20
-3.80721
11
5.36516
21
-3.8189
0
LINE
8
BLACK
6
CONTINUOUS
10
5.36516
20
-3.8189
11
5.36439
21
-3.83059
0
LINE
8
BLACK
6
CONTINUOUS
10
5.36439
20
-3.83059
11
5.36211
21
-3.84208
0
LINE
8
BLACK
6
CONTINUOUS
10
5.36211
20
-3.84208
11
5.35834
21
-3.85317
0
LINE
8
BLACK
6
CONTINUOUS
10
5.35834
20
-3.85317
11
5.35316
21
-3.86368
0
LINE
8
BLACK
6
CONTINUOUS
10
5.35316
20
-3.86368
11
5.34665
21
-3.87342
0
LINE
8
BLACK
6
CONTINUOUS
10
5.34665
20
-3.87342
11
5.33892
21
-3.88223
0
LINE
8
BLACK
6
CONTINUOUS
10
5.33892
20
-3.88223
11
5.33012
21
-3.88996
0
LINE
8
BLACK
6
CONTINUOUS
10
5.33012
20
-3.88996
11
5.32037
21
-3.89646
0
LINE
8
BLACK
6
CONTINUOUS
10
5.32037
20
-3.89646
11
5.30987
21
-3.90165
0
LINE
8
BLACK
6
CONTINUOUS
10
5.30987
20
-3.90165
11
5.29877
21
-3.90541
0
LINE
8
BLACK
6
CONTINUOUS
10
5.29877
20
-3.90541
11
5.28728
21
-3.9077
0
LINE
8
BLACK
6
CONTINUOUS
10
5.28728
20
-3.9077
11
5.27559
21
-3.90846
0
LINE
8
BLACK
6
CONTINUOUS
10
5.27559
20
-3.90846
11
5.2639
21
-3.9077
0
LINE
8
BLACK
6
CONTINUOUS
10
5.2639
20
-3.9077
11
5.25241
21
-3.90541
0
LINE
8
BLACK
6
CONTINUOUS
10
5.25241
20
-3.90541
11
5.24131
21
-3.90165
0
LINE
8
BLACK
6
CONTINUOUS
10
5.24131
20
-3.90165
11
5.23081
21
-3.89646
0
LINE
8
BLACK
6
CONTINUOUS
10
5.23081
20
-3.89646
11
5.22107
21
-3.88996
0
LINE
8
BLACK
6
CONTINUOUS
10
5.22107
20
-3.88996
11
5.21226
21
-3.88223
0
LINE
8
BLACK
6
CONTINUOUS
10
5.21226
20
-3.88223
11
5.20453
21
-3.87342
0
LINE
8
BLACK
6
CONTINUOUS
10
5.20453
20
-3.87342
11
5.19802
21
-3.86368
0
LINE
8
BLACK
6
CONTINUOUS
10
5.19802
20
-3.86368
11
5.19284
21
-3.85317
0
LINE
8
BLACK
6
CONTINUOUS
10
5.19284
20
-3.85317
11
5.18908
21
-3.84208
0
LINE
8
BLACK
6
CONTINUOUS
10
5.18908
20
-3.84208
11
5.18679
21
-3.83059
0
LINE
8
BLACK
6
CONTINUOUS
10
5.18679
20
-3.83059
11
5.18602
21
-3.8189
0
LINE
8
BLACK
6
CONTINUOUS
10
5.18602
20
-3.8189
11
5.18608
21
-3.81802
0
LINE
8
BLACK
6
CONTINUOUS
10
5.18608
20
-3.81802
11
5.18679
21
-3.80721
0
LINE
8
BLACK
6
CONTINUOUS
10
5.18679
20
-3.80721
11
5.18908
21
-3.79572
0
LINE
8
BLACK
6
CONTINUOUS
10
5.19459
20
-3.8406
11
5.19829
21
-3.85139
0
LINE
8
BLACK
6
CONTINUOUS
10
5.19829
20
-3.85139
11
5.20341
21
-3.86158
0
LINE
8
BLACK
6
CONTINUOUS
10
5.20341
20
-3.86158
11
5.20987
21
-3.87099
0
LINE
8
BLACK
6
CONTINUOUS
10
5.20987
20
-3.87099
11
5.21755
21
-3.87942
0
LINE
8
BLACK
6
CONTINUOUS
10
5.21755
20
-3.87942
11
5.2263
21
-3.88674
0
LINE
8
BLACK
6
CONTINUOUS
10
5.2263
20
-3.88674
11
5.23596
21
-3.8928
0
LINE
8
BLACK
6
CONTINUOUS
10
5.23596
20
-3.8928
11
5.24636
21
-3.8975
0
LINE
8
BLACK
6
CONTINUOUS
10
5.24636
20
-3.8975
11
5.2573
21
-3.90074
0
LINE
8
BLACK
6
CONTINUOUS
10
5.2573
20
-3.90074
11
5.26857
21
-3.90246
0
LINE
8
BLACK
6
CONTINUOUS
10
5.26857
20
-3.90246
11
5.27998
21
-3.90264
0
LINE
8
BLACK
6
CONTINUOUS
10
5.27998
20
-3.90264
11
5.2913
21
-3.90127
0
LINE
8
BLACK
6
CONTINUOUS
10
5.2913
20
-3.90127
11
5.30234
21
-3.89837
0
LINE
8
BLACK
6
CONTINUOUS
10
5.30234
20
-3.89837
11
5.31288
21
-3.89401
0
LINE
8
BLACK
6
CONTINUOUS
10
5.31288
20
-3.89401
11
5.32273
21
-3.88825
0
LINE
8
BLACK
6
CONTINUOUS
10
5.32273
20
-3.88825
11
5.3317
21
-3.88122
0
LINE
8
BLACK
6
CONTINUOUS
10
5.3317
20
-3.88122
11
5.33964
21
-3.87302
0
LINE
8
BLACK
6
CONTINUOUS
10
5.33964
20
-3.87302
11
5.34639
21
-3.86383
0
LINE
8
BLACK
6
CONTINUOUS
10
5.34639
20
-3.86383
11
5.35184
21
-3.85381
0
LINE
8
BLACK
6
CONTINUOUS
10
5.35184
20
-3.85381
11
5.35587
21
-3.84313
0
LINE
8
BLACK
6
CONTINUOUS
10
5.35587
20
-3.84313
11
5.35842
21
-3.83202
0
LINE
8
BLACK
6
CONTINUOUS
10
5.35842
20
-3.83202
11
5.35943
21
-3.82065
0
LINE
8
BLACK
6
CONTINUOUS
10
5.35943
20
-3.82065
11
5.35945
21
-3.8189
0
LINE
8
BLACK
6
CONTINUOUS
10
5.35945
20
-3.8189
11
5.35867
21
-3.80752
0
LINE
8
BLACK
6
CONTINUOUS
10
5.35867
20
-3.80752
11
5.35636
21
-3.79635
0
LINE
8
BLACK
6
CONTINUOUS
10
5.35636
20
-3.79635
11
5.35255
21
-3.78559
0
LINE
8
BLACK
6
CONTINUOUS
10
5.35255
20
-3.78559
11
5.34732
21
-3.77546
0
LINE
8
BLACK
6
CONTINUOUS
10
5.34732
20
-3.77546
11
5.34076
21
-3.76612
0
LINE
8
BLACK
6
CONTINUOUS
10
5.34076
20
-3.76612
11
5.33299
21
-3.75777
0
LINE
8
BLACK
6
CONTINUOUS
10
5.33299
20
-3.75777
11
5.32417
21
-3.75054
0
LINE
8
BLACK
6
CONTINUOUS
10
5.32417
20
-3.75054
11
5.31444
21
-3.74458
0
LINE
8
BLACK
6
CONTINUOUS
10
5.31444
20
-3.74458
11
5.304
21
-3.74
0
LINE
8
BLACK
6
CONTINUOUS
10
5.304
20
-3.74
11
5.29303
21
-3.73687
0
LINE
8
BLACK
6
CONTINUOUS
10
5.29303
20
-3.73687
11
5.28173
21
-3.73527
0
LINE
8
BLACK
6
CONTINUOUS
10
5.28173
20
-3.73527
11
5.27033
21
-3.73521
0
LINE
8
BLACK
6
CONTINUOUS
10
5.27033
20
-3.73521
11
5.25902
21
-3.7367
0
LINE
8
BLACK
6
CONTINUOUS
10
5.25902
20
-3.7367
11
5.24801
21
-3.73971
0
LINE
8
BLACK
6
CONTINUOUS
10
5.24801
20
-3.73971
11
5.23752
21
-3.74418
0
LINE
8
BLACK
6
CONTINUOUS
10
5.23752
20
-3.74418
11
5.22773
21
-3.75004
0
LINE
8
BLACK
6
CONTINUOUS
10
5.22773
20
-3.75004
11
5.21883
21
-3.75717
0
LINE
8
BLACK
6
CONTINUOUS
10
5.21883
20
-3.75717
11
5.21098
21
-3.76545
0
LINE
8
BLACK
6
CONTINUOUS
10
5.21098
20
-3.76545
11
5.20432
21
-3.77471
0
LINE
8
BLACK
6
CONTINUOUS
10
5.20432
20
-3.77471
11
5.19898
21
-3.78479
0
LINE
8
BLACK
6
CONTINUOUS
10
5.19898
20
-3.78479
11
5.19506
21
-3.7955
0
LINE
8
BLACK
6
CONTINUOUS
10
5.19506
20
-3.7955
11
5.19263
21
-3.80665
0
LINE
8
BLACK
6
CONTINUOUS
10
5.19263
20
-3.80665
11
5.19174
21
-3.81802
0
LINE
8
BLACK
6
CONTINUOUS
10
5.19174
20
-3.81802
11
5.19239
21
-3.82941
0
LINE
8
BLACK
6
CONTINUOUS
10
5.19239
20
-3.82941
11
5.19459
21
-3.8406
0
LINE
8
BLACK
6
CONTINUOUS
10
5.74026
20
-3.24453
11
5.74402
21
-3.23344
0
LINE
8
BLACK
6
CONTINUOUS
10
5.74402
20
-3.23344
11
5.7492
21
-3.22293
0
LINE
8
BLACK
6
CONTINUOUS
10
5.7492
20
-3.22293
11
5.75571
21
-3.21319
0
LINE
8
BLACK
6
CONTINUOUS
10
5.75571
20
-3.21319
11
5.76344
21
-3.20438
0
LINE
8
BLACK
6
CONTINUOUS
10
5.76344
20
-3.20438
11
5.77225
21
-3.19666
0
LINE
8
BLACK
6
CONTINUOUS
10
5.77225
20
-3.19666
11
5.78199
21
-3.19015
0
LINE
8
BLACK
6
CONTINUOUS
10
5.78199
20
-3.19015
11
5.7925
21
-3.18497
0
LINE
8
BLACK
6
CONTINUOUS
10
5.7925
20
-3.18497
11
5.80359
21
-3.1812
0
LINE
8
BLACK
6
CONTINUOUS
10
5.80359
20
-3.1812
11
5.81508
21
-3.17892
0
LINE
8
BLACK
6
CONTINUOUS
10
5.81508
20
-3.17892
11
5.82677
21
-3.17815
0
LINE
8
BLACK
6
CONTINUOUS
10
5.82677
20
-3.17815
11
5.83846
21
-3.17892
0
LINE
8
BLACK
6
CONTINUOUS
10
5.83846
20
-3.17892
11
5.84995
21
-3.1812
0
LINE
8
BLACK
6
CONTINUOUS
10
5.84995
20
-3.1812
11
5.86105
21
-3.18497
0
LINE
8
BLACK
6
CONTINUOUS
10
5.86105
20
-3.18497
11
5.87156
21
-3.19015
0
LINE
8
BLACK
6
CONTINUOUS
10
5.87156
20
-3.19015
11
5.8813
21
-3.19666
0
LINE
8
BLACK
6
CONTINUOUS
10
5.8813
20
-3.19666
11
5.89011
21
-3.20438
0
LINE
8
BLACK
6
CONTINUOUS
10
5.89011
20
-3.20438
11
5.89783
21
-3.21319
0
LINE
8
BLACK
6
CONTINUOUS
10
5.89783
20
-3.21319
11
5.90434
21
-3.22293
0
LINE
8
BLACK
6
CONTINUOUS
10
5.90434
20
-3.22293
11
5.90952
21
-3.23344
0
LINE
8
BLACK
6
CONTINUOUS
10
5.90952
20
-3.23344
11
5.91329
21
-3.24453
0
LINE
8
BLACK
6
CONTINUOUS
10
5.91329
20
-3.24453
11
5.91557
21
-3.25603
0
LINE
8
BLACK
6
CONTINUOUS
10
5.91557
20
-3.25603
11
5.91634
21
-3.26772
0
LINE
8
BLACK
6
CONTINUOUS
10
5.91634
20
-3.26772
11
5.91557
21
-3.27941
0
LINE
8
BLACK
6
CONTINUOUS
10
5.91557
20
-3.27941
11
5.91329
21
-3.2909
0
LINE
8
BLACK
6
CONTINUOUS
10
5.91329
20
-3.2909
11
5.90952
21
-3.30199
0
LINE
8
BLACK
6
CONTINUOUS
10
5.90952
20
-3.30199
11
5.90434
21
-3.3125
0
LINE
8
BLACK
6
CONTINUOUS
10
5.90434
20
-3.3125
11
5.89783
21
-3.32224
0
LINE
8
BLACK
6
CONTINUOUS
10
5.89783
20
-3.32224
11
5.89011
21
-3.33105
0
LINE
8
BLACK
6
CONTINUOUS
10
5.89011
20
-3.33105
11
5.8813
21
-3.33877
0
LINE
8
BLACK
6
CONTINUOUS
10
5.8813
20
-3.33877
11
5.87156
21
-3.34528
0
LINE
8
BLACK
6
CONTINUOUS
10
5.87156
20
-3.34528
11
5.86105
21
-3.35047
0
LINE
8
BLACK
6
CONTINUOUS
10
5.86105
20
-3.35047
11
5.84995
21
-3.35423
0
LINE
8
BLACK
6
CONTINUOUS
10
5.84995
20
-3.35423
11
5.83846
21
-3.35652
0
LINE
8
BLACK
6
CONTINUOUS
10
5.83846
20
-3.35652
11
5.82677
21
-3.35728
0
LINE
8
BLACK
6
CONTINUOUS
10
5.82677
20
-3.35728
11
5.81508
21
-3.35652
0
LINE
8
BLACK
6
CONTINUOUS
10
5.81508
20
-3.35652
11
5.80359
21
-3.35423
0
LINE
8
BLACK
6
CONTINUOUS
10
5.80359
20
-3.35423
11
5.7925
21
-3.35047
0
LINE
8
BLACK
6
CONTINUOUS
10
5.7925
20
-3.35047
11
5.78199
21
-3.34528
0
LINE
8
BLACK
6
CONTINUOUS
10
5.78199
20
-3.34528
11
5.77225
21
-3.33877
0
LINE
8
BLACK
6
CONTINUOUS
10
5.77225
20
-3.33877
11
5.76344
21
-3.33105
0
LINE
8
BLACK
6
CONTINUOUS
10
5.76344
20
-3.33105
11
5.75571
21
-3.32224
0
LINE
8
BLACK
6
CONTINUOUS
10
5.75571
20
-3.32224
11
5.7492
21
-3.3125
0
LINE
8
BLACK
6
CONTINUOUS
10
5.7492
20
-3.3125
11
5.74402
21
-3.30199
0
LINE
8
BLACK
6
CONTINUOUS
10
5.74402
20
-3.30199
11
5.74026
21
-3.2909
0
LINE
8
BLACK
6
CONTINUOUS
10
5.74026
20
-3.2909
11
5.73797
21
-3.27941
0
LINE
8
BLACK
6
CONTINUOUS
10
5.73797
20
-3.27941
11
5.7372
21
-3.26772
0
LINE
8
BLACK
6
CONTINUOUS
10
5.7372
20
-3.26772
11
5.73726
21
-3.26684
0
LINE
8
BLACK
6
CONTINUOUS
10
5.73726
20
-3.26684
11
5.73797
21
-3.25603
0
LINE
8
BLACK
6
CONTINUOUS
10
5.73797
20
-3.25603
11
5.74026
21
-3.24453
0
LINE
8
BLACK
6
CONTINUOUS
10
5.74577
20
-3.28942
11
5.74947
21
-3.30021
0
LINE
8
BLACK
6
CONTINUOUS
10
5.74947
20
-3.30021
11
5.75459
21
-3.3104
0
LINE
8
BLACK
6
CONTINUOUS
10
5.75459
20
-3.3104
11
5.76105
21
-3.3198
0
LINE
8
BLACK
6
CONTINUOUS
10
5.76105
20
-3.3198
11
5.76873
21
-3.32824
0
LINE
8
BLACK
6
CONTINUOUS
10
5.76873
20
-3.32824
11
5.77748
21
-3.33556
0
LINE
8
BLACK
6
CONTINUOUS
10
5.77748
20
-3.33556
11
5.78714
21
-3.34162
0
LINE
8
BLACK
6
CONTINUOUS
10
5.78714
20
-3.34162
11
5.79754
21
-3.34631
0
LINE
8
BLACK
6
CONTINUOUS
10
5.79754
20
-3.34631
11
5.80848
21
-3.34955
0
LINE
8
BLACK
6
CONTINUOUS
10
5.80848
20
-3.34955
11
5.81975
21
-3.35128
0
LINE
8
BLACK
6
CONTINUOUS
10
5.81975
20
-3.35128
11
5.83116
21
-3.35146
0
LINE
8
BLACK
6
CONTINUOUS
10
5.83116
20
-3.35146
11
5.84248
21
-3.35009
0
LINE
8
BLACK
6
CONTINUOUS
10
5.84248
20
-3.35009
11
5.85352
21
-3.34719
0
LINE
8
BLACK
6
CONTINUOUS
10
5.85352
20
-3.34719
11
5.86406
21
-3.34283
0
LINE
8
BLACK
6
CONTINUOUS
10
5.86406
20
-3.34283
11
5.87391
21
-3.33707
0
LINE
8
BLACK
6
CONTINUOUS
10
5.87391
20
-3.33707
11
5.88288
21
-3.33003
0
LINE
8
BLACK
6
CONTINUOUS
10
5.88288
20
-3.33003
11
5.89082
21
-3.32184
0
LINE
8
BLACK
6
CONTINUOUS
10
5.89082
20
-3.32184
11
5.89757
21
-3.31265
0
LINE
8
BLACK
6
CONTINUOUS
10
5.89757
20
-3.31265
11
5.90302
21
-3.30262
0
LINE
8
BLACK
6
CONTINUOUS
10
5.90302
20
-3.30262
11
5.90705
21
-3.29195
0
LINE
8
BLACK
6
CONTINUOUS
10
5.90705
20
-3.29195
11
5.9096
21
-3.28083
0
LINE
8
BLACK
6
CONTINUOUS
10
5.9096
20
-3.28083
11
5.91061
21
-3.26947
0
LINE
8
BLACK
6
CONTINUOUS
10
5.91061
20
-3.26947
11
5.91063
21
-3.26772
0
LINE
8
BLACK
6
CONTINUOUS
10
5.91063
20
-3.26772
11
5.90985
21
-3.25634
0
LINE
8
BLACK
6
CONTINUOUS
10
5.90985
20
-3.25634
11
5.90754
21
-3.24517
0
LINE
8
BLACK
6
CONTINUOUS
10
5.90754
20
-3.24517
11
5.90373
21
-3.23441
0
LINE
8
BLACK
6
CONTINUOUS
10
5.90373
20
-3.23441
11
5.8985
21
-3.22428
0
LINE
8
BLACK
6
CONTINUOUS
10
5.8985
20
-3.22428
11
5.89194
21
-3.21494
0
LINE
8
BLACK
6
CONTINUOUS
10
5.89194
20
-3.21494
11
5.88418
21
-3.20659
0
LINE
8
BLACK
6
CONTINUOUS
10
5.88418
20
-3.20659
11
5.87535
21
-3.19936
0
LINE
8
BLACK
6
CONTINUOUS
10
5.87535
20
-3.19936
11
5.86562
21
-3.1934
0
LINE
8
BLACK
6
CONTINUOUS
10
5.86562
20
-3.1934
11
5.85518
21
-3.18882
0
LINE
8
BLACK
6
CONTINUOUS
10
5.85518
20
-3.18882
11
5.84421
21
-3.18569
0
LINE
8
BLACK
6
CONTINUOUS
10
5.84421
20
-3.18569
11
5.83291
21
-3.18408
0
LINE
8
BLACK
6
CONTINUOUS
10
5.83291
20
-3.18408
11
5.82151
21
-3.18403
0
LINE
8
BLACK
6
CONTINUOUS
10
5.82151
20
-3.18403
11
5.8102
21
-3.18551
0
LINE
8
BLACK
6
CONTINUOUS
10
5.8102
20
-3.18551
11
5.79919
21
-3.18852
0
LINE
8
BLACK
6
CONTINUOUS
10
5.79919
20
-3.18852
11
5.7887
21
-3.193
0
LINE
8
BLACK
6
CONTINUOUS
10
5.7887
20
-3.193
11
5.77891
21
-3.19886
0
LINE
8
BLACK
6
CONTINUOUS
10
5.77891
20
-3.19886
11
5.77001
21
-3.20599
0
LINE
8
BLACK
6
CONTINUOUS
10
5.77001
20
-3.20599
11
5.76216
21
-3.21426
0
LINE
8
BLACK
6
CONTINUOUS
10
5.76216
20
-3.21426
11
5.7555
21
-3.22353
0
LINE
8
BLACK
6
CONTINUOUS
10
5.7555
20
-3.22353
11
5.75016
21
-3.23361
0
LINE
8
BLACK
6
CONTINUOUS
10
5.75016
20
-3.23361
11
5.74624
21
-3.24432
0
LINE
8
BLACK
6
CONTINUOUS
10
5.74624
20
-3.24432
11
5.74381
21
-3.25547
0
LINE
8
BLACK
6
CONTINUOUS
10
5.74381
20
-3.25547
11
5.74292
21
-3.26684
0
LINE
8
BLACK
6
CONTINUOUS
10
5.74292
20
-3.26684
11
5.74358
21
-3.27823
0
LINE
8
BLACK
6
CONTINUOUS
10
5.74358
20
-3.27823
11
5.74577
21
-3.28942
0
LINE
8
BLACK
6
CONTINUOUS
10
5.18908
20
-3.24453
11
5.19284
21
-3.23344
0
LINE
8
BLACK
6
CONTINUOUS
10
5.19284
20
-3.23344
11
5.19802
21
-3.22293
0
LINE
8
BLACK
6
CONTINUOUS
10
5.19802
20
-3.22293
11
5.20453
21
-3.21319
0
LINE
8
BLACK
6
CONTINUOUS
10
5.20453
20
-3.21319
11
5.21226
21
-3.20438
0
LINE
8
BLACK
6
CONTINUOUS
10
5.21226
20
-3.20438
11
5.22107
21
-3.19666
0
LINE
8
BLACK
6
CONTINUOUS
10
5.22107
20
-3.19666
11
5.23081
21
-3.19015
0
LINE
8
BLACK
6
CONTINUOUS
10
5.23081
20
-3.19015
11
5.24131
21
-3.18497
0
LINE
8
BLACK
6
CONTINUOUS
10
5.24131
20
-3.18497
11
5.25241
21
-3.1812
0
LINE
8
BLACK
6
CONTINUOUS
10
5.25241
20
-3.1812
11
5.2639
21
-3.17892
0
LINE
8
BLACK
6
CONTINUOUS
10
5.2639
20
-3.17892
11
5.27559
21
-3.17815
0
LINE
8
BLACK
6
CONTINUOUS
10
5.27559
20
-3.17815
11
5.28728
21
-3.17892
0
LINE
8
BLACK
6
CONTINUOUS
10
5.28728
20
-3.17892
11
5.29877
21
-3.1812
0
LINE
8
BLACK
6
CONTINUOUS
10
5.29877
20
-3.1812
11
5.30987
21
-3.18497
0
LINE
8
BLACK
6
CONTINUOUS
10
5.30987
20
-3.18497
11
5.32037
21
-3.19015
0
LINE
8
BLACK
6
CONTINUOUS
10
5.32037
20
-3.19015
11
5.33012
21
-3.19666
0
LINE
8
BLACK
6
CONTINUOUS
10
5.33012
20
-3.19666
11
5.33892
21
-3.20438
0
LINE
8
BLACK
6
CONTINUOUS
10
5.33892
20
-3.20438
11
5.34665
21
-3.21319
0
LINE
8
BLACK
6
CONTINUOUS
10
5.34665
20
-3.21319
11
5.35316
21
-3.22293
0
LINE
8
BLACK
6
CONTINUOUS
10
5.35316
20
-3.22293
11
5.35834
21
-3.23344
0
LINE
8
BLACK
6
CONTINUOUS
10
5.35834
20
-3.23344
11
5.36211
21
-3.24453
0
LINE
8
BLACK
6
CONTINUOUS
10
5.36211
20
-3.24453
11
5.36439
21
-3.25603
0
LINE
8
BLACK
6
CONTINUOUS
10
5.36439
20
-3.25603
11
5.36516
21
-3.26772
0
LINE
8
BLACK
6
CONTINUOUS
10
5.36516
20
-3.26772
11
5.36439
21
-3.27941
0
LINE
8
BLACK
6
CONTINUOUS
10
5.36439
20
-3.27941
11
5.36211
21
-3.2909
0
LINE
8
BLACK
6
CONTINUOUS
10
5.36211
20
-3.2909
11
5.35834
21
-3.30199
0
LINE
8
BLACK
6
CONTINUOUS
10
5.35834
20
-3.30199
11
5.35316
21
-3.3125
0
LINE
8
BLACK
6
CONTINUOUS
10
5.35316
20
-3.3125
11
5.34665
21
-3.32224
0
LINE
8
BLACK
6
CONTINUOUS
10
5.34665
20
-3.32224
11
5.33892
21
-3.33105
0
LINE
8
BLACK
6
CONTINUOUS
10
5.33892
20
-3.33105
11
5.33012
21
-3.33877
0
LINE
8
BLACK
6
CONTINUOUS
10
5.33012
20
-3.33877
11
5.32037
21
-3.34528
0
LINE
8
BLACK
6
CONTINUOUS
10
5.32037
20
-3.34528
11
5.30987
21
-3.35047
0
LINE
8
BLACK
6
CONTINUOUS
10
5.30987
20
-3.35047
11
5.29877
21
-3.35423
0
LINE
8
BLACK
6
CONTINUOUS
10
5.29877
20
-3.35423
11
5.28728
21
-3.35652
0
LINE
8
BLACK
6
CONTINUOUS
10
5.28728
20
-3.35652
11
5.27559
21
-3.35728
0
LINE
8
BLACK
6
CONTINUOUS
10
5.27559
20
-3.35728
11
5.2639
21
-3.35652
0
LINE
8
BLACK
6
CONTINUOUS
10
5.2639
20
-3.35652
11
5.25241
21
-3.35423
0
LINE
8
BLACK
6
CONTINUOUS
10
5.25241
20
-3.35423
11
5.24131
21
-3.35047
0
LINE
8
BLACK
6
CONTINUOUS
10
5.24131
20
-3.35047
11
5.23081
21
-3.34528
0
LINE
8
BLACK
6
CONTINUOUS
10
5.23081
20
-3.34528
11
5.22107
21
-3.33877
0
LINE
8
BLACK
6
CONTINUOUS
10
5.22107
20
-3.33877
11
5.21226
21
-3.33105
0
LINE
8
BLACK
6
CONTINUOUS
10
5.21226
20
-3.33105
11
5.20453
21
-3.32224
0
LINE
8
BLACK
6
CONTINUOUS
10
5.20453
20
-3.32224
11
5.19802
21
-3.3125
0
LINE
8
BLACK
6
CONTINUOUS
10
5.19802
20
-3.3125
11
5.19284
21
-3.30199
0
LINE
8
BLACK
6
CONTINUOUS
10
5.19284
20
-3.30199
11
5.18908
21
-3.2909
0
LINE
8
BLACK
6
CONTINUOUS
10
5.18908
20
-3.2909
11
5.18679
21
-3.27941
0
LINE
8
BLACK
6
CONTINUOUS
10
5.18679
20
-3.27941
11
5.18602
21
-3.26772
0
LINE
8
BLACK
6
CONTINUOUS
10
5.18602
20
-3.26772
11
5.18608
21
-3.26684
0
LINE
8
BLACK
6
CONTINUOUS
10
5.18608
20
-3.26684
11
5.18679
21
-3.25603
0
LINE
8
BLACK
6
CONTINUOUS
10
5.18679
20
-3.25603
11
5.18908
21
-3.24453
0
LINE
8
BLACK
6
CONTINUOUS
10
5.19459
20
-3.28942
11
5.19829
21
-3.30021
0
LINE
8
BLACK
6
CONTINUOUS
10
5.19829
20
-3.30021
11
5.20341
21
-3.3104
0
LINE
8
BLACK
6
CONTINUOUS
10
5.20341
20
-3.3104
11
5.20987
21
-3.3198
0
LINE
8
BLACK
6
CONTINUOUS
10
5.20987
20
-3.3198
11
5.21755
21
-3.32824
0
LINE
8
BLACK
6
CONTINUOUS
10
5.21755
20
-3.32824
11
5.2263
21
-3.33556
0
LINE
8
BLACK
6
CONTINUOUS
10
5.2263
20
-3.33556
11
5.23596
21
-3.34162
0
LINE
8
BLACK
6
CONTINUOUS
10
5.23596
20
-3.34162
11
5.24636
21
-3.34631
0
LINE
8
BLACK
6
CONTINUOUS
10
5.24636
20
-3.34631
11
5.2573
21
-3.34955
0
LINE
8
BLACK
6
CONTINUOUS
10
5.2573
20
-3.34955
11
5.26857
21
-3.35128
0
LINE
8
BLACK
6
CONTINUOUS
10
5.26857
20
-3.35128
11
5.27998
21
-3.35146
0
LINE
8
BLACK
6
CONTINUOUS
10
5.27998
20
-3.35146
11
5.2913
21
-3.35009
0
LINE
8
BLACK
6
CONTINUOUS
10
5.2913
20
-3.35009
11
5.30234
21
-3.34719
0
LINE
8
BLACK
6
CONTINUOUS
10
5.30234
20
-3.34719
11
5.31288
21
-3.34283
0
LINE
8
BLACK
6
CONTINUOUS
10
5.31288
20
-3.34283
11
5.32273
21
-3.33707
0
LINE
8
BLACK
6
CONTINUOUS
10
5.32273
20
-3.33707
11
5.3317
21
-3.33003
0
LINE
8
BLACK
6
CONTINUOUS
10
5.3317
20
-3.33003
11
5.33964
21
-3.32184
0
LINE
8
BLACK
6
CONTINUOUS
10
5.33964
20
-3.32184
11
5.34639
21
-3.31265
0
LINE
8
BLACK
6
CONTINUOUS
10
5.34639
20
-3.31265
11
5.35184
21
-3.30262
0
LINE
8
BLACK
6
CONTINUOUS
10
5.35184
20
-3.30262
11
5.35587
21
-3.29195
0
LINE
8
BLACK
6
CONTINUOUS
10
5.35587
20
-3.29195
11
5.35842
21
-3.28083
0
LINE
8
BLACK
6
CONTINUOUS
10
5.35842
20
-3.28083
11
5.35943
21
-3.26947
0
LINE
8
BLACK
6
CONTINUOUS
10
5.35943
20
-3.26947
11
5.35945
21
-3.26772
0
LINE
8
BLACK
6
CONTINUOUS
10
5.35945
20
-3.26772
11
5.35867
21
-3.25634
0
LINE
8
BLACK
6
CONTINUOUS
10
5.35867
20
-3.25634
11
5.35636
21
-3.24517
0
LINE
8
BLACK
6
CONTINUOUS
10
5.35636
20
-3.24517
11
5.35255
21
-3.23441
0
LINE
8
BLACK
6
CONTINUOUS
10
5.35255
20
-3.23441
11
5.34732
21
-3.22428
0
LINE
8
BLACK
6
CONTINUOUS
10
5.34732
20
-3.22428
11
5.34076
21
-3.21494
0
LINE
8
BLACK
6
CONTINUOUS
10
5.34076
20
-3.21494
11
5.33299
21
-3.20659
0
LINE
8
BLACK
6
CONTINUOUS
10
5.33299
20
-3.20659
11
5.32417
21
-3.19936
0
LINE
8
BLACK
6
CONTINUOUS
10
5.32417
20
-3.19936
11
5.31444
21
-3.1934
0
LINE
8
BLACK
6
CONTINUOUS
10
5.31444
20
-3.1934
11
5.304
21
-3.18882
0
LINE
8
BLACK
6
CONTINUOUS
10
5.304
20
-3.18882
11
5.29303
21
-3.18569
0
LINE
8
BLACK
6
CONTINUOUS
10
5.29303
20
-3.18569
11
5.28173
21
-3.18408
0
LINE
8
BLACK
6
CONTINUOUS
10
5.28173
20
-3.18408
11
5.27033
21
-3.18403
0
LINE
8
BLACK
6
CONTINUOUS
10
5.27033
20
-3.18403
11
5.25902
21
-3.18551
0
LINE
8
BLACK
6
CONTINUOUS
10
5.25902
20
-3.18551
11
5.24801
21
-3.18852
0
LINE
8
BLACK
6
CONTINUOUS
10
5.24801
20
-3.18852
11
5.23752
21
-3.193
0
LINE
8
BLACK
6
CONTINUOUS
10
5.23752
20
-3.193
11
5.22773
21
-3.19886
0
LINE
8
BLACK
6
CONTINUOUS
10
5.22773
20
-3.19886
11
5.21883
21
-3.20599
0
LINE
8
BLACK
6
CONTINUOUS
10
5.21883
20
-3.20599
11
5.21098
21
-3.21426
0
LINE
8
BLACK
6
CONTINUOUS
10
5.21098
20
-3.21426
11
5.20432
21
-3.22353
0
LINE
8
BLACK
6
CONTINUOUS
10
5.20432
20
-3.22353
11
5.19898
21
-3.23361
0
LINE
8
BLACK
6
CONTINUOUS
10
5.19898
20
-3.23361
11
5.19506
21
-3.24432
0
LINE
8
BLACK
6
CONTINUOUS
10
5.19506
20
-3.24432
11
5.19263
21
-3.25547
0
LINE
8
BLACK
6
CONTINUOUS
10
5.19263
20
-3.25547
11
5.19174
21
-3.26684
0
LINE
8
BLACK
6
CONTINUOUS
10
5.19174
20
-3.26684
11
5.19239
21
-3.27823
0
LINE
8
BLACK
6
CONTINUOUS
10
5.19239
20
-3.27823
11
5.19459
21
-3.28942
  0
ENDSEC
  0
EOF
