  0
SECTION
  2
HEADER
  9
$ANGBASE
  50
0.0
  9
$ANGDIR
  70
1
  9
$MEASUREMENT
  70
0
  0
ENDSEC
  0
SECTION
  2
TABLES
  0
TABLE
  2
LTYPE
  70
4
  0
LTYPE
  5
40F
  2
CONTINUOUS
  70
0
  3
Solid line
  72
65
  73
0
  40
0.0
  0
LTYPE
  5
410
  2
DASHDOT
 70
0
  3
Dash Dot ____ _ ____ _
 72
65
 73
4
 40
2.0
 49
1.25
 49
-0.25
 49
0.25
 49
-0.25
  0
LTYPE
  5
411
  2
DASHED
 70
0
  3
Dashed __ __ __ __ __
 72
65
 73
2
 40
0.75
 49
0.5
 49
-0.25
  0
LTYPE
  5
43B
  2
DOTTED
 70
0
  3
Dotted .  .  .  .
 72
65
 73
2
 40
0.2
 49
0.0
 49
-0.2
  0
ENDTAB
  0
TABLE
  2
STYLE
  70
4
  0
STYLE
  2
KICAD
  70
0
  40
0
  41
1
  42
1
  50
0
  71
0
  3
isocp.shx
  0
STYLE
  2
KICADB
  70
0
  40
0
  41
1
  42
1
  50
0
  71
0
  3
isocp.shx
  0
STYLE
  2
KICADI
  70
0
  40
0
  41
1
  42
1
  50
15
  71
0
  3
isocp.shx
  0
STYLE
  2
KICADBI
  70
0
  40
0
  41
1
  42
1
  50
15
  71
0
  3
isocp.shx
  0
ENDTAB
  0
TABLE
  2
LAYER
  70
35
  0
LAYER
  2
BLACK
  70
0
  62
7
  6
CONTINUOUS
  0
LAYER
  2
GRAY1
  70
0
  62
251
  6
CONTINUOUS
  0
LAYER
  2
GRAY2
  70
0
  62
8
  6
CONTINUOUS
  0
LAYER
  2
GRAY3
  70
0
  62
9
  6
CONTINUOUS
  0
LAYER
  2
WHITE
  70
0
  62
7
  6
CONTINUOUS
  0
LAYER
  2
LYELLOW
  70
0
  62
51
  6
CONTINUOUS
  0
LAYER
  2
LORANGE
  70
0
  62
41
  6
CONTINUOUS
  0
LAYER
  2
BLUE1
  70
0
  62
178
  6
CONTINUOUS
  0
LAYER
  2
GREEN1
  70
0
  62
98
  6
CONTINUOUS
  0
LAYER
  2
CYAN1
  70
0
  62
138
  6
CONTINUOUS
  0
LAYER
  2
RED1
  70
0
  62
18
  6
CONTINUOUS
  0
LAYER
  2
MAGENTA1
  70
0
  62
228
  6
CONTINUOUS
  0
LAYER
  2
BROWN1
  70
0
  62
58
  6
CONTINUOUS
  0
LAYER
  2
ORANGE1
  70
0
  62
34
  6
CONTINUOUS
  0
LAYER
  2
BLUE2
  70
0
  62
5
  6
CONTINUOUS
  0
LAYER
  2
GREEN2
  70
0
  62
3
  6
CONTINUOUS
  0
LAYER
  2
CYAN2
  70
0
  62
4
  6
CONTINUOUS
  0
LAYER
  2
RED2
  70
0
  62
1
  6
CONTINUOUS
  0
LAYER
  2
MAGENTA2
  70
0
  62
6
  6
CONTINUOUS
  0
LAYER
  2
BROWN2
  70
0
  62
54
  6
CONTINUOUS
  0
LAYER
  2
ORANGE2
  70
0
  62
42
  6
CONTINUOUS
  0
LAYER
  2
BLUE3
  70
0
  62
171
  6
CONTINUOUS
  0
LAYER
  2
GREEN3
  70
0
  62
91
  6
CONTINUOUS
  0
LAYER
  2
CYAN3
  70
0
  62
131
  6
CONTINUOUS
  0
LAYER
  2
RED3
  70
0
  62
11
  6
CONTINUOUS
  0
LAYER
  2
MAGENTA3
  70
0
  62
221
  6
CONTINUOUS
  0
LAYER
  2
YELLOW3
  70
0
  62
2
  6
CONTINUOUS
  0
LAYER
  2
ORANGE3
  70
0
  62
32
  6
CONTINUOUS
  0
LAYER
  2
BLUE4
  70
0
  62
5
  6
CONTINUOUS
  0
LAYER
  2
GREEN4
  70
0
  62
3
  6
CONTINUOUS
  0
LAYER
  2
CYAN4
  70
0
  62
4
  6
CONTINUOUS
  0
LAYER
  2
RED4
  70
0
  62
1
  6
CONTINUOUS
  0
LAYER
  2
MAGENTA4
  70
0
  62
6
  6
CONTINUOUS
  0
LAYER
  2
YELLOW4
  70
0
  62
2
  6
CONTINUOUS
  0
LAYER
  2
ORANGE4
  70
0
  62
40
  6
CONTINUOUS
  0
ENDTAB
  0
ENDSEC
  0
SECTION
  2
ENTITIES
0
LINE
8
RED2
6
CONTINUOUS
10
6.96859
20
-6.53572
11
6.96859
21
-7.79556
0
LINE
8
RED2
6
CONTINUOUS
10
6.96859
20
-7.79556
11
11.2206
21
-7.79556
0
LINE
8
RED2
6
CONTINUOUS
10
11.2206
20
-7.79556
11
11.2206
21
-6.53572
0
LINE
8
RED2
6
CONTINUOUS
10
11.2206
20
-6.53572
11
6.96859
21
-6.53572
0
LINE
8
RED2
6
CONTINUOUS
10
0.393701
20
-0.393701
11
0.393701
21
-7.8743
0
LINE
8
RED2
6
CONTINUOUS
10
0.393701
20
-7.8743
11
11.2993
21
-7.8743
0
LINE
8
RED2
6
CONTINUOUS
10
11.2993
20
-7.8743
11
11.2993
21
-0.393701
0
LINE
8
RED2
6
CONTINUOUS
10
11.2993
20
-0.393701
11
0.393701
21
-0.393701
0
LINE
8
RED2
6
CONTINUOUS
10
0.472441
20
-0.472441
11
0.472441
21
-7.79556
0
LINE
8
RED2
6
CONTINUOUS
10
0.472441
20
-7.79556
11
11.2206
21
-7.79556
0
LINE
8
RED2
6
CONTINUOUS
10
11.2206
20
-7.79556
11
11.2206
21
-0.472441
0
LINE
8
RED2
6
CONTINUOUS
10
11.2206
20
-0.472441
11
0.472441
21
-0.472441
0
LINE
8
RED2
6
CONTINUOUS
10
2.3622
20
-0.472441
11
2.3622
21
-0.393701
0
LINE
8
RED2
6
CONTINUOUS
10
4.33071
20
-0.472441
11
4.33071
21
-0.393701
0
LINE
8
RED2
6
CONTINUOUS
10
6.29921
20
-0.472441
11
6.29921
21
-0.393701
0
LINE
8
RED2
6
CONTINUOUS
10
8.26772
20
-0.472441
11
8.26772
21
-0.393701
0
LINE
8
RED2
6
CONTINUOUS
10
10.2362
20
-0.472441
11
10.2362
21
-0.393701
0
LINE
8
RED2
6
CONTINUOUS
10
1.4199
20
-0.45622
11
1.39065
21
-0.45622
0
LINE
8
RED2
6
CONTINUOUS
10
1.40528
20
-0.45622
11
1.40528
21
-0.405039
0
LINE
8
RED2
6
CONTINUOUS
10
1.40528
20
-0.405039
11
1.4004
21
-0.412354
0
LINE
8
RED2
6
CONTINUOUS
10
1.4004
20
-0.412354
11
1.39553
21
-0.417228
0
LINE
8
RED2
6
CONTINUOUS
10
1.39553
20
-0.417228
11
1.39065
21
-0.419665
0
LINE
8
RED2
6
CONTINUOUS
10
3.35916
20
-0.409917
11
3.36159
21
-0.40748
0
LINE
8
RED2
6
CONTINUOUS
10
3.36159
20
-0.40748
11
3.36647
21
-0.405039
0
LINE
8
RED2
6
CONTINUOUS
10
3.36647
20
-0.405039
11
3.37865
21
-0.405039
0
LINE
8
RED2
6
CONTINUOUS
10
3.37865
20
-0.405039
11
3.38353
21
-0.40748
0
LINE
8
RED2
6
CONTINUOUS
10
3.38353
20
-0.40748
11
3.38596
21
-0.409917
0
LINE
8
RED2
6
CONTINUOUS
10
3.38596
20
-0.409917
11
3.3884
21
-0.414791
0
LINE
8
RED2
6
CONTINUOUS
10
3.3884
20
-0.414791
11
3.3884
21
-0.419665
0
LINE
8
RED2
6
CONTINUOUS
10
3.3884
20
-0.419665
11
3.38596
21
-0.426976
0
LINE
8
RED2
6
CONTINUOUS
10
3.38596
20
-0.426976
11
3.35672
21
-0.45622
0
LINE
8
RED2
6
CONTINUOUS
10
3.35672
20
-0.45622
11
3.3884
21
-0.45622
0
LINE
8
RED2
6
CONTINUOUS
10
5.32522
20
-0.405039
11
5.35691
21
-0.405039
0
LINE
8
RED2
6
CONTINUOUS
10
5.35691
20
-0.405039
11
5.33985
21
-0.424539
0
LINE
8
RED2
6
CONTINUOUS
10
5.33985
20
-0.424539
11
5.34716
21
-0.424539
0
LINE
8
RED2
6
CONTINUOUS
10
5.34716
20
-0.424539
11
5.35203
21
-0.426976
0
LINE
8
RED2
6
CONTINUOUS
10
5.35203
20
-0.426976
11
5.35447
21
-0.429413
0
LINE
8
RED2
6
CONTINUOUS
10
5.35447
20
-0.429413
11
5.35691
21
-0.434287
0
LINE
8
RED2
6
CONTINUOUS
10
5.35691
20
-0.434287
11
5.35691
21
-0.446472
0
LINE
8
RED2
6
CONTINUOUS
10
5.35691
20
-0.446472
11
5.35447
21
-0.451346
0
LINE
8
RED2
6
CONTINUOUS
10
5.35447
20
-0.451346
11
5.35203
21
-0.453783
0
LINE
8
RED2
6
CONTINUOUS
10
5.35203
20
-0.453783
11
5.34716
21
-0.45622
0
LINE
8
RED2
6
CONTINUOUS
10
5.34716
20
-0.45622
11
5.33254
21
-0.45622
0
LINE
8
RED2
6
CONTINUOUS
10
5.33254
20
-0.45622
11
5.32766
21
-0.453783
0
LINE
8
RED2
6
CONTINUOUS
10
5.32766
20
-0.453783
11
5.32522
21
-0.451346
0
LINE
8
RED2
6
CONTINUOUS
10
7.32054
20
-0.422102
11
7.32054
21
-0.45622
0
LINE
8
RED2
6
CONTINUOUS
10
7.30835
20
-0.402602
11
7.29617
21
-0.439161
0
LINE
8
RED2
6
CONTINUOUS
10
7.29617
20
-0.439161
11
7.32785
21
-0.439161
0
LINE
8
RED2
6
CONTINUOUS
10
9.29148
20
-0.405039
11
9.26711
21
-0.405039
0
LINE
8
RED2
6
CONTINUOUS
10
9.26711
20
-0.405039
11
9.26467
21
-0.429413
0
LINE
8
RED2
6
CONTINUOUS
10
9.26467
20
-0.429413
11
9.26711
21
-0.426976
0
LINE
8
RED2
6
CONTINUOUS
10
9.26711
20
-0.426976
11
9.27198
21
-0.424539
0
LINE
8
RED2
6
CONTINUOUS
10
9.27198
20
-0.424539
11
9.28417
21
-0.424539
0
LINE
8
RED2
6
CONTINUOUS
10
9.28417
20
-0.424539
11
9.28904
21
-0.426976
0
LINE
8
RED2
6
CONTINUOUS
10
9.28904
20
-0.426976
11
9.29148
21
-0.429413
0
LINE
8
RED2
6
CONTINUOUS
10
9.29148
20
-0.429413
11
9.29391
21
-0.434287
0
LINE
8
RED2
6
CONTINUOUS
10
9.29391
20
-0.434287
11
9.29391
21
-0.446472
0
LINE
8
RED2
6
CONTINUOUS
10
9.29391
20
-0.446472
11
9.29148
21
-0.451346
0
LINE
8
RED2
6
CONTINUOUS
10
9.29148
20
-0.451346
11
9.28904
21
-0.453783
0
LINE
8
RED2
6
CONTINUOUS
10
9.28904
20
-0.453783
11
9.28417
21
-0.45622
0
LINE
8
RED2
6
CONTINUOUS
10
9.28417
20
-0.45622
11
9.27198
21
-0.45622
0
LINE
8
RED2
6
CONTINUOUS
10
9.27198
20
-0.45622
11
9.26711
21
-0.453783
0
LINE
8
RED2
6
CONTINUOUS
10
9.26711
20
-0.453783
11
9.26467
21
-0.451346
0
LINE
8
RED2
6
CONTINUOUS
10
11.2575
20
-0.405039
11
11.2478
21
-0.405039
0
LINE
8
RED2
6
CONTINUOUS
10
11.2478
20
-0.405039
11
11.2429
21
-0.40748
0
LINE
8
RED2
6
CONTINUOUS
10
11.2429
20
-0.40748
11
11.2405
21
-0.409917
0
LINE
8
RED2
6
CONTINUOUS
10
11.2405
20
-0.409917
11
11.2356
21
-0.417228
0
LINE
8
RED2
6
CONTINUOUS
10
11.2356
20
-0.417228
11
11.2332
21
-0.426976
0
LINE
8
RED2
6
CONTINUOUS
10
11.2332
20
-0.426976
11
11.2332
21
-0.446472
0
LINE
8
RED2
6
CONTINUOUS
10
11.2332
20
-0.446472
11
11.2356
21
-0.451346
0
LINE
8
RED2
6
CONTINUOUS
10
11.2356
20
-0.451346
11
11.238
21
-0.453783
0
LINE
8
RED2
6
CONTINUOUS
10
11.238
20
-0.453783
11
11.2429
21
-0.45622
0
LINE
8
RED2
6
CONTINUOUS
10
11.2429
20
-0.45622
11
11.2527
21
-0.45622
0
LINE
8
RED2
6
CONTINUOUS
10
11.2527
20
-0.45622
11
11.2575
21
-0.453783
0
LINE
8
RED2
6
CONTINUOUS
10
11.2575
20
-0.453783
11
11.26
21
-0.451346
0
LINE
8
RED2
6
CONTINUOUS
10
11.26
20
-0.451346
11
11.2624
21
-0.446472
0
LINE
8
RED2
6
CONTINUOUS
10
11.2624
20
-0.446472
11
11.2624
21
-0.434287
0
LINE
8
RED2
6
CONTINUOUS
10
11.2624
20
-0.434287
11
11.26
21
-0.429413
0
LINE
8
RED2
6
CONTINUOUS
10
11.26
20
-0.429413
11
11.2575
21
-0.426976
0
LINE
8
RED2
6
CONTINUOUS
10
11.2575
20
-0.426976
11
11.2527
21
-0.424539
0
LINE
8
RED2
6
CONTINUOUS
10
11.2527
20
-0.424539
11
11.2429
21
-0.424539
0
LINE
8
RED2
6
CONTINUOUS
10
11.2429
20
-0.424539
11
11.238
21
-0.426976
0
LINE
8
RED2
6
CONTINUOUS
10
11.238
20
-0.426976
11
11.2356
21
-0.429413
0
LINE
8
RED2
6
CONTINUOUS
10
11.2356
20
-0.429413
11
11.2332
21
-0.434287
0
LINE
8
RED2
6
CONTINUOUS
10
2.3622
20
-7.79556
11
2.3622
21
-7.8743
0
LINE
8
RED2
6
CONTINUOUS
10
4.33071
20
-7.79556
11
4.33071
21
-7.8743
0
LINE
8
RED2
6
CONTINUOUS
10
6.29921
20
-7.79556
11
6.29921
21
-7.8743
0
LINE
8
RED2
6
CONTINUOUS
10
8.26772
20
-7.79556
11
8.26772
21
-7.8743
0
LINE
8
RED2
6
CONTINUOUS
10
10.2362
20
-7.79556
11
10.2362
21
-7.8743
0
LINE
8
RED2
6
CONTINUOUS
10
1.4199
20
-7.85808
11
1.39065
21
-7.85808
0
LINE
8
RED2
6
CONTINUOUS
10
1.40528
20
-7.85808
11
1.40528
21
-7.8069
0
LINE
8
RED2
6
CONTINUOUS
10
1.40528
20
-7.8069
11
1.4004
21
-7.81421
0
LINE
8
RED2
6
CONTINUOUS
10
1.4004
20
-7.81421
11
1.39553
21
-7.81909
0
LINE
8
RED2
6
CONTINUOUS
10
1.39553
20
-7.81909
11
1.39065
21
-7.82152
0
LINE
8
RED2
6
CONTINUOUS
10
3.35916
20
-7.81178
11
3.36159
21
-7.80934
0
LINE
8
RED2
6
CONTINUOUS
10
3.36159
20
-7.80934
11
3.36647
21
-7.8069
0
LINE
8
RED2
6
CONTINUOUS
10
3.36647
20
-7.8069
11
3.37865
21
-7.8069
0
LINE
8
RED2
6
CONTINUOUS
10
3.37865
20
-7.8069
11
3.38353
21
-7.80934
0
LINE
8
RED2
6
CONTINUOUS
10
3.38353
20
-7.80934
11
3.38596
21
-7.81178
0
LINE
8
RED2
6
CONTINUOUS
10
3.38596
20
-7.81178
11
3.3884
21
-7.81665
0
LINE
8
RED2
6
CONTINUOUS
10
3.3884
20
-7.81665
11
3.3884
21
-7.82152
0
LINE
8
RED2
6
CONTINUOUS
10
3.3884
20
-7.82152
11
3.38596
21
-7.82883
0
LINE
8
RED2
6
CONTINUOUS
10
3.38596
20
-7.82883
11
3.35672
21
-7.85808
0
LINE
8
RED2
6
CONTINUOUS
10
3.35672
20
-7.85808
11
3.3884
21
-7.85808
0
LINE
8
RED2
6
CONTINUOUS
10
5.32522
20
-7.8069
11
5.35691
21
-7.8069
0
LINE
8
RED2
6
CONTINUOUS
10
5.35691
20
-7.8069
11
5.33985
21
-7.8264
0
LINE
8
RED2
6
CONTINUOUS
10
5.33985
20
-7.8264
11
5.34716
21
-7.8264
0
LINE
8
RED2
6
CONTINUOUS
10
5.34716
20
-7.8264
11
5.35203
21
-7.82883
0
LINE
8
RED2
6
CONTINUOUS
10
5.35203
20
-7.82883
11
5.35447
21
-7.83127
0
LINE
8
RED2
6
CONTINUOUS
10
5.35447
20
-7.83127
11
5.35691
21
-7.83615
0
LINE
8
RED2
6
CONTINUOUS
10
5.35691
20
-7.83615
11
5.35691
21
-7.84833
0
LINE
8
RED2
6
CONTINUOUS
10
5.35691
20
-7.84833
11
5.35447
21
-7.8532
0
LINE
8
RED2
6
CONTINUOUS
10
5.35447
20
-7.8532
11
5.35203
21
-7.85564
0
LINE
8
RED2
6
CONTINUOUS
10
5.35203
20
-7.85564
11
5.34716
21
-7.85808
0
LINE
8
RED2
6
CONTINUOUS
10
5.34716
20
-7.85808
11
5.33254
21
-7.85808
0
LINE
8
RED2
6
CONTINUOUS
10
5.33254
20
-7.85808
11
5.32766
21
-7.85564
0
LINE
8
RED2
6
CONTINUOUS
10
5.32766
20
-7.85564
11
5.32522
21
-7.8532
0
LINE
8
RED2
6
CONTINUOUS
10
7.32054
20
-7.82396
11
7.32054
21
-7.85808
0
LINE
8
RED2
6
CONTINUOUS
10
7.30835
20
-7.80446
11
7.29617
21
-7.84102
0
LINE
8
RED2
6
CONTINUOUS
10
7.29617
20
-7.84102
11
7.32785
21
-7.84102
0
LINE
8
RED2
6
CONTINUOUS
10
9.29148
20
-7.8069
11
9.26711
21
-7.8069
0
LINE
8
RED2
6
CONTINUOUS
10
9.26711
20
-7.8069
11
9.26467
21
-7.83127
0
LINE
8
RED2
6
CONTINUOUS
10
9.26467
20
-7.83127
11
9.26711
21
-7.82883
0
LINE
8
RED2
6
CONTINUOUS
10
9.26711
20
-7.82883
11
9.27198
21
-7.8264
0
LINE
8
RED2
6
CONTINUOUS
10
9.27198
20
-7.8264
11
9.28417
21
-7.8264
0
LINE
8
RED2
6
CONTINUOUS
10
9.28417
20
-7.8264
11
9.28904
21
-7.82883
0
LINE
8
RED2
6
CONTINUOUS
10
9.28904
20
-7.82883
11
9.29148
21
-7.83127
0
LINE
8
RED2
6
CONTINUOUS
10
9.29148
20
-7.83127
11
9.29391
21
-7.83615
0
LINE
8
RED2
6
CONTINUOUS
10
9.29391
20
-7.83615
11
9.29391
21
-7.84833
0
LINE
8
RED2
6
CONTINUOUS
10
9.29391
20
-7.84833
11
9.29148
21
-7.8532
0
LINE
8
RED2
6
CONTINUOUS
10
9.29148
20
-7.8532
11
9.28904
21
-7.85564
0
LINE
8
RED2
6
CONTINUOUS
10
9.28904
20
-7.85564
11
9.28417
21
-7.85808
0
LINE
8
RED2
6
CONTINUOUS
10
9.28417
20
-7.85808
11
9.27198
21
-7.85808
0
LINE
8
RED2
6
CONTINUOUS
10
9.27198
20
-7.85808
11
9.26711
21
-7.85564
0
LINE
8
RED2
6
CONTINUOUS
10
9.26711
20
-7.85564
11
9.26467
21
-7.8532
0
LINE
8
RED2
6
CONTINUOUS
10
11.2575
20
-7.8069
11
11.2478
21
-7.8069
0
LINE
8
RED2
6
CONTINUOUS
10
11.2478
20
-7.8069
11
11.2429
21
-7.80934
0
LINE
8
RED2
6
CONTINUOUS
10
11.2429
20
-7.80934
11
11.2405
21
-7.81178
0
LINE
8
RED2
6
CONTINUOUS
10
11.2405
20
-7.81178
11
11.2356
21
-7.81909
0
LINE
8
RED2
6
CONTINUOUS
10
11.2356
20
-7.81909
11
11.2332
21
-7.82883
0
LINE
8
RED2
6
CONTINUOUS
10
11.2332
20
-7.82883
11
11.2332
21
-7.84833
0
LINE
8
RED2
6
CONTINUOUS
10
11.2332
20
-7.84833
11
11.2356
21
-7.8532
0
LINE
8
RED2
6
CONTINUOUS
10
11.2356
20
-7.8532
11
11.238
21
-7.85564
0
LINE
8
RED2
6
CONTINUOUS
10
11.238
20
-7.85564
11
11.2429
21
-7.85808
0
LINE
8
RED2
6
CONTINUOUS
10
11.2429
20
-7.85808
11
11.2527
21
-7.85808
0
LINE
8
RED2
6
CONTINUOUS
10
11.2527
20
-7.85808
11
11.2575
21
-7.85564
0
LINE
8
RED2
6
CONTINUOUS
10
11.2575
20
-7.85564
11
11.26
21
-7.8532
0
LINE
8
RED2
6
CONTINUOUS
10
11.26
20
-7.8532
11
11.2624
21
-7.84833
0
LINE
8
RED2
6
CONTINUOUS
10
11.2624
20
-7.84833
11
11.2624
21
-7.83615
0
LINE
8
RED2
6
CONTINUOUS
10
11.2624
20
-7.83615
11
11.26
21
-7.83127
0
LINE
8
RED2
6
CONTINUOUS
10
11.26
20
-7.83127
11
11.2575
21
-7.82883
0
LINE
8
RED2
6
CONTINUOUS
10
11.2575
20
-7.82883
11
11.2527
21
-7.8264
0
LINE
8
RED2
6
CONTINUOUS
10
11.2527
20
-7.8264
11
11.2429
21
-7.8264
0
LINE
8
RED2
6
CONTINUOUS
10
11.2429
20
-7.8264
11
11.238
21
-7.82883
0
LINE
8
RED2
6
CONTINUOUS
10
11.238
20
-7.82883
11
11.2356
21
-7.83127
0
LINE
8
RED2
6
CONTINUOUS
10
11.2356
20
-7.83127
11
11.2332
21
-7.83615
0
LINE
8
RED2
6
CONTINUOUS
10
0.393701
20
-2.3622
11
0.472441
21
-2.3622
0
LINE
8
RED2
6
CONTINUOUS
10
0.393701
20
-4.33071
11
0.472441
21
-4.33071
0
LINE
8
RED2
6
CONTINUOUS
10
0.393701
20
-6.29921
11
0.472441
21
-6.29921
0
LINE
8
RED2
6
CONTINUOUS
10
0.420882
20
-1.38648
11
0.445256
21
-1.38648
0
LINE
8
RED2
6
CONTINUOUS
10
0.416008
20
-1.4011
11
0.433071
21
-1.34992
0
LINE
8
RED2
6
CONTINUOUS
10
0.433071
20
-1.34992
11
0.45013
21
-1.4011
0
LINE
8
RED2
6
CONTINUOUS
10
0.436724
20
-3.3428
11
0.444035
21
-3.34524
0
LINE
8
RED2
6
CONTINUOUS
10
0.444035
20
-3.34524
11
0.446472
21
-3.34767
0
LINE
8
RED2
6
CONTINUOUS
10
0.446472
20
-3.34767
11
0.448909
21
-3.35255
0
LINE
8
RED2
6
CONTINUOUS
10
0.448909
20
-3.35255
11
0.448909
21
-3.35986
0
LINE
8
RED2
6
CONTINUOUS
10
0.448909
20
-3.35986
11
0.446472
21
-3.36473
0
LINE
8
RED2
6
CONTINUOUS
10
0.446472
20
-3.36473
11
0.444035
21
-3.36717
0
LINE
8
RED2
6
CONTINUOUS
10
0.444035
20
-3.36717
11
0.439161
21
-3.36961
0
LINE
8
RED2
6
CONTINUOUS
10
0.439161
20
-3.36961
11
0.419665
21
-3.36961
0
LINE
8
RED2
6
CONTINUOUS
10
0.419665
20
-3.36961
11
0.419665
21
-3.31843
0
LINE
8
RED2
6
CONTINUOUS
10
0.419665
20
-3.31843
11
0.436724
21
-3.31843
0
LINE
8
RED2
6
CONTINUOUS
10
0.436724
20
-3.31843
11
0.441598
21
-3.32087
0
LINE
8
RED2
6
CONTINUOUS
10
0.441598
20
-3.32087
11
0.444035
21
-3.3233
0
LINE
8
RED2
6
CONTINUOUS
10
0.444035
20
-3.3233
11
0.446472
21
-3.32818
0
LINE
8
RED2
6
CONTINUOUS
10
0.446472
20
-3.32818
11
0.446472
21
-3.33305
0
LINE
8
RED2
6
CONTINUOUS
10
0.446472
20
-3.33305
11
0.444035
21
-3.33793
0
LINE
8
RED2
6
CONTINUOUS
10
0.444035
20
-3.33793
11
0.441598
21
-3.34036
0
LINE
8
RED2
6
CONTINUOUS
10
0.441598
20
-3.34036
11
0.436724
21
-3.3428
0
LINE
8
RED2
6
CONTINUOUS
10
0.436724
20
-3.3428
11
0.419665
21
-3.3428
0
LINE
8
RED2
6
CONTINUOUS
10
0.448909
20
-5.33324
11
0.446472
21
-5.33567
0
LINE
8
RED2
6
CONTINUOUS
10
0.446472
20
-5.33567
11
0.439161
21
-5.33811
0
LINE
8
RED2
6
CONTINUOUS
10
0.439161
20
-5.33811
11
0.434287
21
-5.33811
0
LINE
8
RED2
6
CONTINUOUS
10
0.434287
20
-5.33811
11
0.426976
21
-5.33567
0
LINE
8
RED2
6
CONTINUOUS
10
0.426976
20
-5.33567
11
0.422102
21
-5.3308
0
LINE
8
RED2
6
CONTINUOUS
10
0.422102
20
-5.3308
11
0.419665
21
-5.32593
0
LINE
8
RED2
6
CONTINUOUS
10
0.419665
20
-5.32593
11
0.417228
21
-5.31618
0
LINE
8
RED2
6
CONTINUOUS
10
0.417228
20
-5.31618
11
0.417228
21
-5.30887
0
LINE
8
RED2
6
CONTINUOUS
10
0.417228
20
-5.30887
11
0.419665
21
-5.29912
0
LINE
8
RED2
6
CONTINUOUS
10
0.419665
20
-5.29912
11
0.422102
21
-5.29424
0
LINE
8
RED2
6
CONTINUOUS
10
0.422102
20
-5.29424
11
0.426976
21
-5.28937
0
LINE
8
RED2
6
CONTINUOUS
10
0.426976
20
-5.28937
11
0.434287
21
-5.28693
0
LINE
8
RED2
6
CONTINUOUS
10
0.434287
20
-5.28693
11
0.439161
21
-5.28693
0
LINE
8
RED2
6
CONTINUOUS
10
0.439161
20
-5.28693
11
0.446472
21
-5.28937
0
LINE
8
RED2
6
CONTINUOUS
10
0.446472
20
-5.28937
11
0.448909
21
-5.29181
0
LINE
8
RED2
6
CONTINUOUS
10
0.419665
20
-7.30661
11
0.419665
21
-7.25543
0
LINE
8
RED2
6
CONTINUOUS
10
0.419665
20
-7.25543
11
0.43185
21
-7.25543
0
LINE
8
RED2
6
CONTINUOUS
10
0.43185
20
-7.25543
11
0.439161
21
-7.25787
0
LINE
8
RED2
6
CONTINUOUS
10
0.439161
20
-7.25787
11
0.444035
21
-7.26275
0
LINE
8
RED2
6
CONTINUOUS
10
0.444035
20
-7.26275
11
0.446472
21
-7.26762
0
LINE
8
RED2
6
CONTINUOUS
10
0.446472
20
-7.26762
11
0.448909
21
-7.27737
0
LINE
8
RED2
6
CONTINUOUS
10
0.448909
20
-7.27737
11
0.448909
21
-7.28468
0
LINE
8
RED2
6
CONTINUOUS
10
0.448909
20
-7.28468
11
0.446472
21
-7.29443
0
LINE
8
RED2
6
CONTINUOUS
10
0.446472
20
-7.29443
11
0.444035
21
-7.2993
0
LINE
8
RED2
6
CONTINUOUS
10
0.444035
20
-7.2993
11
0.439161
21
-7.30418
0
LINE
8
RED2
6
CONTINUOUS
10
0.439161
20
-7.30418
11
0.43185
21
-7.30661
0
LINE
8
RED2
6
CONTINUOUS
10
0.43185
20
-7.30661
11
0.419665
21
-7.30661
0
LINE
8
RED2
6
CONTINUOUS
10
11.2993
20
-2.3622
11
11.2206
21
-2.3622
0
LINE
8
RED2
6
CONTINUOUS
10
11.2993
20
-4.33071
11
11.2206
21
-4.33071
0
LINE
8
RED2
6
CONTINUOUS
10
11.2993
20
-6.29921
11
11.2206
21
-6.29921
0
LINE
8
RED2
6
CONTINUOUS
10
11.2477
20
-1.38648
11
11.2721
21
-1.38648
0
LINE
8
RED2
6
CONTINUOUS
10
11.2429
20
-1.4011
11
11.2599
21
-1.34992
0
LINE
8
RED2
6
CONTINUOUS
10
11.2599
20
-1.34992
11
11.277
21
-1.4011
0
LINE
8
RED2
6
CONTINUOUS
10
11.2636
20
-3.3428
11
11.2709
21
-3.34524
0
LINE
8
RED2
6
CONTINUOUS
10
11.2709
20
-3.34524
11
11.2733
21
-3.34767
0
LINE
8
RED2
6
CONTINUOUS
10
11.2733
20
-3.34767
11
11.2758
21
-3.35255
0
LINE
8
RED2
6
CONTINUOUS
10
11.2758
20
-3.35255
11
11.2758
21
-3.35986
0
LINE
8
RED2
6
CONTINUOUS
10
11.2758
20
-3.35986
11
11.2733
21
-3.36473
0
LINE
8
RED2
6
CONTINUOUS
10
11.2733
20
-3.36473
11
11.2709
21
-3.36717
0
LINE
8
RED2
6
CONTINUOUS
10
11.2709
20
-3.36717
11
11.266
21
-3.36961
0
LINE
8
RED2
6
CONTINUOUS
10
11.266
20
-3.36961
11
11.2465
21
-3.36961
0
LINE
8
RED2
6
CONTINUOUS
10
11.2465
20
-3.36961
11
11.2465
21
-3.31843
0
LINE
8
RED2
6
CONTINUOUS
10
11.2465
20
-3.31843
11
11.2636
21
-3.31843
0
LINE
8
RED2
6
CONTINUOUS
10
11.2636
20
-3.31843
11
11.2685
21
-3.32087
0
LINE
8
RED2
6
CONTINUOUS
10
11.2685
20
-3.32087
11
11.2709
21
-3.3233
0
LINE
8
RED2
6
CONTINUOUS
10
11.2709
20
-3.3233
11
11.2733
21
-3.32818
0
LINE
8
RED2
6
CONTINUOUS
10
11.2733
20
-3.32818
11
11.2733
21
-3.33305
0
LINE
8
RED2
6
CONTINUOUS
10
11.2733
20
-3.33305
11
11.2709
21
-3.33793
0
LINE
8
RED2
6
CONTINUOUS
10
11.2709
20
-3.33793
11
11.2685
21
-3.34036
0
LINE
8
RED2
6
CONTINUOUS
10
11.2685
20
-3.34036
11
11.2636
21
-3.3428
0
LINE
8
RED2
6
CONTINUOUS
10
11.2636
20
-3.3428
11
11.2465
21
-3.3428
0
LINE
8
RED2
6
CONTINUOUS
10
11.2758
20
-5.33324
11
11.2733
21
-5.33567
0
LINE
8
RED2
6
CONTINUOUS
10
11.2733
20
-5.33567
11
11.266
21
-5.33811
0
LINE
8
RED2
6
CONTINUOUS
10
11.266
20
-5.33811
11
11.2611
21
-5.33811
0
LINE
8
RED2
6
CONTINUOUS
10
11.2611
20
-5.33811
11
11.2538
21
-5.33567
0
LINE
8
RED2
6
CONTINUOUS
10
11.2538
20
-5.33567
11
11.249
21
-5.3308
0
LINE
8
RED2
6
CONTINUOUS
10
11.249
20
-5.3308
11
11.2465
21
-5.32593
0
LINE
8
RED2
6
CONTINUOUS
10
11.2465
20
-5.32593
11
11.2441
21
-5.31618
0
LINE
8
RED2
6
CONTINUOUS
10
11.2441
20
-5.31618
11
11.2441
21
-5.30887
0
LINE
8
RED2
6
CONTINUOUS
10
11.2441
20
-5.30887
11
11.2465
21
-5.29912
0
LINE
8
RED2
6
CONTINUOUS
10
11.2465
20
-5.29912
11
11.249
21
-5.29424
0
LINE
8
RED2
6
CONTINUOUS
10
11.249
20
-5.29424
11
11.2538
21
-5.28937
0
LINE
8
RED2
6
CONTINUOUS
10
11.2538
20
-5.28937
11
11.2611
21
-5.28693
0
LINE
8
RED2
6
CONTINUOUS
10
11.2611
20
-5.28693
11
11.266
21
-5.28693
0
LINE
8
RED2
6
CONTINUOUS
10
11.266
20
-5.28693
11
11.2733
21
-5.28937
0
LINE
8
RED2
6
CONTINUOUS
10
11.2733
20
-5.28937
11
11.2758
21
-5.29181
0
LINE
8
RED2
6
CONTINUOUS
10
11.2465
20
-7.30661
11
11.2465
21
-7.25543
0
LINE
8
RED2
6
CONTINUOUS
10
11.2465
20
-7.25543
11
11.2587
21
-7.25543
0
LINE
8
RED2
6
CONTINUOUS
10
11.2587
20
-7.25543
11
11.266
21
-7.25787
0
LINE
8
RED2
6
CONTINUOUS
10
11.266
20
-7.25787
11
11.2709
21
-7.26275
0
LINE
8
RED2
6
CONTINUOUS
10
11.2709
20
-7.26275
11
11.2733
21
-7.26762
0
LINE
8
RED2
6
CONTINUOUS
10
11.2733
20
-7.26762
11
11.2758
21
-7.27737
0
LINE
8
RED2
6
CONTINUOUS
10
11.2758
20
-7.27737
11
11.2758
21
-7.28468
0
LINE
8
RED2
6
CONTINUOUS
10
11.2758
20
-7.28468
11
11.2733
21
-7.29443
0
LINE
8
RED2
6
CONTINUOUS
10
11.2733
20
-7.29443
11
11.2709
21
-7.2993
0
LINE
8
RED2
6
CONTINUOUS
10
11.2709
20
-7.2993
11
11.266
21
-7.30418
0
LINE
8
RED2
6
CONTINUOUS
10
11.266
20
-7.30418
11
11.2587
21
-7.30661
0
LINE
8
RED2
6
CONTINUOUS
10
11.2587
20
-7.30661
11
11.2465
21
-7.30661
0
LINE
8
RED2
6
CONTINUOUS
10
7.89111
20
-7.62936
11
7.89111
21
-7.5703
0
LINE
8
RED2
6
CONTINUOUS
10
7.89111
20
-7.5703
11
7.90517
21
-7.5703
0
LINE
8
RED2
6
CONTINUOUS
10
7.90517
20
-7.5703
11
7.91361
21
-7.57312
0
LINE
8
RED2
6
CONTINUOUS
10
7.91361
20
-7.57312
11
7.91924
21
-7.57874
0
LINE
8
RED2
6
CONTINUOUS
10
7.91924
20
-7.57874
11
7.92205
21
-7.58437
0
LINE
8
RED2
6
CONTINUOUS
10
7.92205
20
-7.58437
11
7.92486
21
-7.59561
0
LINE
8
RED2
6
CONTINUOUS
10
7.92486
20
-7.59561
11
7.92486
21
-7.60405
0
LINE
8
RED2
6
CONTINUOUS
10
7.92486
20
-7.60405
11
7.92205
21
-7.6153
0
LINE
8
RED2
6
CONTINUOUS
10
7.92205
20
-7.6153
11
7.91924
21
-7.62092
0
LINE
8
RED2
6
CONTINUOUS
10
7.91924
20
-7.62092
11
7.91361
21
-7.62655
0
LINE
8
RED2
6
CONTINUOUS
10
7.91361
20
-7.62655
11
7.90517
21
-7.62936
0
LINE
8
RED2
6
CONTINUOUS
10
7.90517
20
-7.62936
11
7.89111
21
-7.62936
0
LINE
8
RED2
6
CONTINUOUS
10
7.97548
20
-7.62936
11
7.97548
21
-7.59843
0
LINE
8
RED2
6
CONTINUOUS
10
7.97548
20
-7.59843
11
7.97267
21
-7.5928
0
LINE
8
RED2
6
CONTINUOUS
10
7.97267
20
-7.5928
11
7.96704
21
-7.58999
0
LINE
8
RED2
6
CONTINUOUS
10
7.96704
20
-7.58999
11
7.9558
21
-7.58999
0
LINE
8
RED2
6
CONTINUOUS
10
7.9558
20
-7.58999
11
7.95017
21
-7.5928
0
LINE
8
RED2
6
CONTINUOUS
10
7.97548
20
-7.62655
11
7.96985
21
-7.62936
0
LINE
8
RED2
6
CONTINUOUS
10
7.96985
20
-7.62936
11
7.9558
21
-7.62936
0
LINE
8
RED2
6
CONTINUOUS
10
7.9558
20
-7.62936
11
7.95017
21
-7.62655
0
LINE
8
RED2
6
CONTINUOUS
10
7.95017
20
-7.62655
11
7.94736
21
-7.62092
0
LINE
8
RED2
6
CONTINUOUS
10
7.94736
20
-7.62092
11
7.94736
21
-7.6153
0
LINE
8
RED2
6
CONTINUOUS
10
7.94736
20
-7.6153
11
7.95017
21
-7.60967
0
LINE
8
RED2
6
CONTINUOUS
10
7.95017
20
-7.60967
11
7.9558
21
-7.60686
0
LINE
8
RED2
6
CONTINUOUS
10
7.9558
20
-7.60686
11
7.96985
21
-7.60686
0
LINE
8
RED2
6
CONTINUOUS
10
7.96985
20
-7.60686
11
7.97548
21
-7.60405
0
LINE
8
RED2
6
CONTINUOUS
10
7.99517
20
-7.58999
11
8.01766
21
-7.58999
0
LINE
8
RED2
6
CONTINUOUS
10
8.0036
20
-7.5703
11
8.0036
21
-7.62092
0
LINE
8
RED2
6
CONTINUOUS
10
8.0036
20
-7.62092
11
8.00641
21
-7.62655
0
LINE
8
RED2
6
CONTINUOUS
10
8.00641
20
-7.62655
11
8.01204
21
-7.62936
0
LINE
8
RED2
6
CONTINUOUS
10
8.01204
20
-7.62936
11
8.01766
21
-7.62936
0
LINE
8
RED2
6
CONTINUOUS
10
8.05984
20
-7.62655
11
8.05422
21
-7.62936
0
LINE
8
RED2
6
CONTINUOUS
10
8.05422
20
-7.62936
11
8.04297
21
-7.62936
0
LINE
8
RED2
6
CONTINUOUS
10
8.04297
20
-7.62936
11
8.03735
21
-7.62655
0
LINE
8
RED2
6
CONTINUOUS
10
8.03735
20
-7.62655
11
8.03454
21
-7.62092
0
LINE
8
RED2
6
CONTINUOUS
10
8.03454
20
-7.62092
11
8.03454
21
-7.59843
0
LINE
8
RED2
6
CONTINUOUS
10
8.03454
20
-7.59843
11
8.03735
21
-7.5928
0
LINE
8
RED2
6
CONTINUOUS
10
8.03735
20
-7.5928
11
8.04297
21
-7.58999
0
LINE
8
RED2
6
CONTINUOUS
10
8.04297
20
-7.58999
11
8.05422
21
-7.58999
0
LINE
8
RED2
6
CONTINUOUS
10
8.05422
20
-7.58999
11
8.05984
21
-7.5928
0
LINE
8
RED2
6
CONTINUOUS
10
8.05984
20
-7.5928
11
8.06265
21
-7.59843
0
LINE
8
RED2
6
CONTINUOUS
10
8.06265
20
-7.59843
11
8.06265
21
-7.60405
0
LINE
8
RED2
6
CONTINUOUS
10
8.06265
20
-7.60405
11
8.03454
21
-7.60967
0
LINE
8
RED2
6
CONTINUOUS
10
8.08796
20
-7.62374
11
8.09078
21
-7.62655
0
LINE
8
RED2
6
CONTINUOUS
10
8.09078
20
-7.62655
11
8.08796
21
-7.62936
0
LINE
8
RED2
6
CONTINUOUS
10
8.08796
20
-7.62936
11
8.08515
21
-7.62655
0
LINE
8
RED2
6
CONTINUOUS
10
8.08515
20
-7.62655
11
8.08796
21
-7.62374
0
LINE
8
RED2
6
CONTINUOUS
10
8.08796
20
-7.62374
11
8.08796
21
-7.62936
0
LINE
8
RED2
6
CONTINUOUS
10
8.08796
20
-7.5928
11
8.09078
21
-7.59561
0
LINE
8
RED2
6
CONTINUOUS
10
8.09078
20
-7.59561
11
8.08796
21
-7.59843
0
LINE
8
RED2
6
CONTINUOUS
10
8.08796
20
-7.59843
11
8.08515
21
-7.59561
0
LINE
8
RED2
6
CONTINUOUS
10
8.08515
20
-7.59561
11
8.08796
21
-7.5928
0
LINE
8
RED2
6
CONTINUOUS
10
8.08796
20
-7.5928
11
8.08796
21
-7.59843
0
LINE
8
RED2
6
CONTINUOUS
10
6.96859
20
-7.65776
11
11.2206
21
-7.65776
0
LINE
8
RED2
6
CONTINUOUS
10
7.02497
20
-7.73959
11
7.02497
21
-7.68054
0
LINE
8
RED2
6
CONTINUOUS
10
7.05872
20
-7.73959
11
7.03341
21
-7.70585
0
LINE
8
RED2
6
CONTINUOUS
10
7.05872
20
-7.68054
11
7.02497
21
-7.71429
0
LINE
8
RED2
6
CONTINUOUS
10
7.08403
20
-7.73959
11
7.08403
21
-7.70022
0
LINE
8
RED2
6
CONTINUOUS
10
7.08403
20
-7.68054
11
7.08122
21
-7.68335
0
LINE
8
RED2
6
CONTINUOUS
10
7.08122
20
-7.68335
11
7.08403
21
-7.68617
0
LINE
8
RED2
6
CONTINUOUS
10
7.08403
20
-7.68617
11
7.08684
21
-7.68335
0
LINE
8
RED2
6
CONTINUOUS
10
7.08684
20
-7.68335
11
7.08403
21
-7.68054
0
LINE
8
RED2
6
CONTINUOUS
10
7.08403
20
-7.68054
11
7.08403
21
-7.68617
0
LINE
8
RED2
6
CONTINUOUS
10
7.14589
20
-7.73397
11
7.14308
21
-7.73678
0
LINE
8
RED2
6
CONTINUOUS
10
7.14308
20
-7.73678
11
7.13465
21
-7.73959
0
LINE
8
RED2
6
CONTINUOUS
10
7.13465
20
-7.73959
11
7.12902
21
-7.73959
0
LINE
8
RED2
6
CONTINUOUS
10
7.12902
20
-7.73959
11
7.12059
21
-7.73678
0
LINE
8
RED2
6
CONTINUOUS
10
7.12059
20
-7.73678
11
7.11496
21
-7.73116
0
LINE
8
RED2
6
CONTINUOUS
10
7.11496
20
-7.73116
11
7.11215
21
-7.72554
0
LINE
8
RED2
6
CONTINUOUS
10
7.11215
20
-7.72554
11
7.10934
21
-7.71429
0
LINE
8
RED2
6
CONTINUOUS
10
7.10934
20
-7.71429
11
7.10934
21
-7.70585
0
LINE
8
RED2
6
CONTINUOUS
10
7.10934
20
-7.70585
11
7.11215
21
-7.6946
0
LINE
8
RED2
6
CONTINUOUS
10
7.11215
20
-7.6946
11
7.11496
21
-7.68898
0
LINE
8
RED2
6
CONTINUOUS
10
7.11496
20
-7.68898
11
7.12059
21
-7.68335
0
LINE
8
RED2
6
CONTINUOUS
10
7.12059
20
-7.68335
11
7.12902
21
-7.68054
0
LINE
8
RED2
6
CONTINUOUS
10
7.12902
20
-7.68054
11
7.13465
21
-7.68054
0
LINE
8
RED2
6
CONTINUOUS
10
7.13465
20
-7.68054
11
7.14308
21
-7.68335
0
LINE
8
RED2
6
CONTINUOUS
10
7.14308
20
-7.68335
11
7.14589
21
-7.68617
0
LINE
8
RED2
6
CONTINUOUS
10
7.19651
20
-7.73959
11
7.19651
21
-7.70866
0
LINE
8
RED2
6
CONTINUOUS
10
7.19651
20
-7.70866
11
7.1937
21
-7.70304
0
LINE
8
RED2
6
CONTINUOUS
10
7.1937
20
-7.70304
11
7.18808
21
-7.70022
0
LINE
8
RED2
6
CONTINUOUS
10
7.18808
20
-7.70022
11
7.17683
21
-7.70022
0
LINE
8
RED2
6
CONTINUOUS
10
7.17683
20
-7.70022
11
7.1712
21
-7.70304
0
LINE
8
RED2
6
CONTINUOUS
10
7.19651
20
-7.73678
11
7.19089
21
-7.73959
0
LINE
8
RED2
6
CONTINUOUS
10
7.19089
20
-7.73959
11
7.17683
21
-7.73959
0
LINE
8
RED2
6
CONTINUOUS
10
7.17683
20
-7.73959
11
7.1712
21
-7.73678
0
LINE
8
RED2
6
CONTINUOUS
10
7.1712
20
-7.73678
11
7.16839
21
-7.73116
0
LINE
8
RED2
6
CONTINUOUS
10
7.16839
20
-7.73116
11
7.16839
21
-7.72554
0
LINE
8
RED2
6
CONTINUOUS
10
7.16839
20
-7.72554
11
7.1712
21
-7.71991
0
LINE
8
RED2
6
CONTINUOUS
10
7.1712
20
-7.71991
11
7.17683
21
-7.7171
0
LINE
8
RED2
6
CONTINUOUS
10
7.17683
20
-7.7171
11
7.19089
21
-7.7171
0
LINE
8
RED2
6
CONTINUOUS
10
7.19089
20
-7.7171
11
7.19651
21
-7.71429
0
LINE
8
RED2
6
CONTINUOUS
10
7.24994
20
-7.73959
11
7.24994
21
-7.68054
0
LINE
8
RED2
6
CONTINUOUS
10
7.24994
20
-7.73678
11
7.24432
21
-7.73959
0
LINE
8
RED2
6
CONTINUOUS
10
7.24432
20
-7.73959
11
7.23307
21
-7.73959
0
LINE
8
RED2
6
CONTINUOUS
10
7.23307
20
-7.73959
11
7.22745
21
-7.73678
0
LINE
8
RED2
6
CONTINUOUS
10
7.22745
20
-7.73678
11
7.22463
21
-7.73397
0
LINE
8
RED2
6
CONTINUOUS
10
7.22463
20
-7.73397
11
7.22182
21
-7.72835
0
LINE
8
RED2
6
CONTINUOUS
10
7.22182
20
-7.72835
11
7.22182
21
-7.71147
0
LINE
8
RED2
6
CONTINUOUS
10
7.22182
20
-7.71147
11
7.22463
21
-7.70585
0
LINE
8
RED2
6
CONTINUOUS
10
7.22463
20
-7.70585
11
7.22745
21
-7.70304
0
LINE
8
RED2
6
CONTINUOUS
10
7.22745
20
-7.70304
11
7.23307
21
-7.70022
0
LINE
8
RED2
6
CONTINUOUS
10
7.23307
20
-7.70022
11
7.24432
21
-7.70022
0
LINE
8
RED2
6
CONTINUOUS
10
7.24432
20
-7.70022
11
7.24994
21
-7.70304
0
LINE
8
RED2
6
CONTINUOUS
10
7.32306
20
-7.70866
11
7.34274
21
-7.70866
0
LINE
8
RED2
6
CONTINUOUS
10
7.35118
20
-7.73959
11
7.32306
21
-7.73959
0
LINE
8
RED2
6
CONTINUOUS
10
7.32306
20
-7.73959
11
7.32306
21
-7.68054
0
LINE
8
RED2
6
CONTINUOUS
10
7.32306
20
-7.68054
11
7.35118
21
-7.68054
0
LINE
8
RED2
6
CONTINUOUS
10
7.37649
20
-7.73397
11
7.3793
21
-7.73678
0
LINE
8
RED2
6
CONTINUOUS
10
7.3793
20
-7.73678
11
7.37649
21
-7.73959
0
LINE
8
RED2
6
CONTINUOUS
10
7.37649
20
-7.73959
11
7.37368
21
-7.73678
0
LINE
8
RED2
6
CONTINUOUS
10
7.37368
20
-7.73678
11
7.37649
21
-7.73397
0
LINE
8
RED2
6
CONTINUOUS
10
7.37649
20
-7.73397
11
7.37649
21
-7.73959
0
LINE
8
RED2
6
CONTINUOUS
10
7.40461
20
-7.73959
11
7.40461
21
-7.68054
0
LINE
8
RED2
6
CONTINUOUS
10
7.40461
20
-7.68054
11
7.41867
21
-7.68054
0
LINE
8
RED2
6
CONTINUOUS
10
7.41867
20
-7.68054
11
7.42711
21
-7.68335
0
LINE
8
RED2
6
CONTINUOUS
10
7.42711
20
-7.68335
11
7.43273
21
-7.68898
0
LINE
8
RED2
6
CONTINUOUS
10
7.43273
20
-7.68898
11
7.43555
21
-7.6946
0
LINE
8
RED2
6
CONTINUOUS
10
7.43555
20
-7.6946
11
7.43836
21
-7.70585
0
LINE
8
RED2
6
CONTINUOUS
10
7.43836
20
-7.70585
11
7.43836
21
-7.71429
0
LINE
8
RED2
6
CONTINUOUS
10
7.43836
20
-7.71429
11
7.43555
21
-7.72554
0
LINE
8
RED2
6
CONTINUOUS
10
7.43555
20
-7.72554
11
7.43273
21
-7.73116
0
LINE
8
RED2
6
CONTINUOUS
10
7.43273
20
-7.73116
11
7.42711
21
-7.73678
0
LINE
8
RED2
6
CONTINUOUS
10
7.42711
20
-7.73678
11
7.41867
21
-7.73959
0
LINE
8
RED2
6
CONTINUOUS
10
7.41867
20
-7.73959
11
7.40461
21
-7.73959
0
LINE
8
RED2
6
CONTINUOUS
10
7.46367
20
-7.73397
11
7.46648
21
-7.73678
0
LINE
8
RED2
6
CONTINUOUS
10
7.46648
20
-7.73678
11
7.46367
21
-7.73959
0
LINE
8
RED2
6
CONTINUOUS
10
7.46367
20
-7.73959
11
7.46085
21
-7.73678
0
LINE
8
RED2
6
CONTINUOUS
10
7.46085
20
-7.73678
11
7.46367
21
-7.73397
0
LINE
8
RED2
6
CONTINUOUS
10
7.46367
20
-7.73397
11
7.46367
21
-7.73959
0
LINE
8
RED2
6
CONTINUOUS
10
7.48898
20
-7.72272
11
7.5171
21
-7.72272
0
LINE
8
RED2
6
CONTINUOUS
10
7.48335
20
-7.73959
11
7.50304
21
-7.68054
0
LINE
8
RED2
6
CONTINUOUS
10
7.50304
20
-7.68054
11
7.52272
21
-7.73959
0
LINE
8
RED2
6
CONTINUOUS
10
7.54241
20
-7.73397
11
7.54522
21
-7.73678
0
LINE
8
RED2
6
CONTINUOUS
10
7.54522
20
-7.73678
11
7.54241
21
-7.73959
0
LINE
8
RED2
6
CONTINUOUS
10
7.54241
20
-7.73959
11
7.53959
21
-7.73678
0
LINE
8
RED2
6
CONTINUOUS
10
7.53959
20
-7.73678
11
7.54241
21
-7.73397
0
LINE
8
RED2
6
CONTINUOUS
10
7.54241
20
-7.73397
11
7.54241
21
-7.73959
0
LINE
8
RED2
6
CONTINUOUS
10
7.68302
20
-7.73678
11
7.67739
21
-7.73959
0
LINE
8
RED2
6
CONTINUOUS
10
7.67739
20
-7.73959
11
7.66614
21
-7.73959
0
LINE
8
RED2
6
CONTINUOUS
10
7.66614
20
-7.73959
11
7.66052
21
-7.73678
0
LINE
8
RED2
6
CONTINUOUS
10
7.66052
20
-7.73678
11
7.6577
21
-7.73116
0
LINE
8
RED2
6
CONTINUOUS
10
7.6577
20
-7.73116
11
7.6577
21
-7.70866
0
LINE
8
RED2
6
CONTINUOUS
10
7.6577
20
-7.70866
11
7.66052
21
-7.70304
0
LINE
8
RED2
6
CONTINUOUS
10
7.66052
20
-7.70304
11
7.66614
21
-7.70022
0
LINE
8
RED2
6
CONTINUOUS
10
7.66614
20
-7.70022
11
7.67739
21
-7.70022
0
LINE
8
RED2
6
CONTINUOUS
10
7.67739
20
-7.70022
11
7.68302
21
-7.70304
0
LINE
8
RED2
6
CONTINUOUS
10
7.68302
20
-7.70304
11
7.68583
21
-7.70866
0
LINE
8
RED2
6
CONTINUOUS
10
7.68583
20
-7.70866
11
7.68583
21
-7.71429
0
LINE
8
RED2
6
CONTINUOUS
10
7.68583
20
-7.71429
11
7.6577
21
-7.71991
0
LINE
8
RED2
6
CONTINUOUS
10
7.73363
20
-7.73678
11
7.72801
21
-7.73959
0
LINE
8
RED2
6
CONTINUOUS
10
7.72801
20
-7.73959
11
7.71676
21
-7.73959
0
LINE
8
RED2
6
CONTINUOUS
10
7.71676
20
-7.73959
11
7.71114
21
-7.73678
0
LINE
8
RED2
6
CONTINUOUS
10
7.71114
20
-7.73678
11
7.70832
21
-7.73116
0
LINE
8
RED2
6
CONTINUOUS
10
7.70832
20
-7.73116
11
7.70832
21
-7.70866
0
LINE
8
RED2
6
CONTINUOUS
10
7.70832
20
-7.70866
11
7.71114
21
-7.70304
0
LINE
8
RED2
6
CONTINUOUS
10
7.71114
20
-7.70304
11
7.71676
21
-7.70022
0
LINE
8
RED2
6
CONTINUOUS
10
7.71676
20
-7.70022
11
7.72801
21
-7.70022
0
LINE
8
RED2
6
CONTINUOUS
10
7.72801
20
-7.70022
11
7.73363
21
-7.70304
0
LINE
8
RED2
6
CONTINUOUS
10
7.73363
20
-7.70304
11
7.73644
21
-7.70866
0
LINE
8
RED2
6
CONTINUOUS
10
7.73644
20
-7.70866
11
7.73644
21
-7.71429
0
LINE
8
RED2
6
CONTINUOUS
10
7.73644
20
-7.71429
11
7.70832
21
-7.71991
0
LINE
8
RED2
6
CONTINUOUS
10
7.75894
20
-7.73678
11
7.76457
21
-7.73959
0
LINE
8
RED2
6
CONTINUOUS
10
7.76457
20
-7.73959
11
7.77581
21
-7.73959
0
LINE
8
RED2
6
CONTINUOUS
10
7.77581
20
-7.73959
11
7.78144
21
-7.73678
0
LINE
8
RED2
6
CONTINUOUS
10
7.78144
20
-7.73678
11
7.78425
21
-7.73116
0
LINE
8
RED2
6
CONTINUOUS
10
7.78425
20
-7.73116
11
7.78425
21
-7.72835
0
LINE
8
RED2
6
CONTINUOUS
10
7.78425
20
-7.72835
11
7.78144
21
-7.72272
0
LINE
8
RED2
6
CONTINUOUS
10
7.78144
20
-7.72272
11
7.77581
21
-7.71991
0
LINE
8
RED2
6
CONTINUOUS
10
7.77581
20
-7.71991
11
7.76738
21
-7.71991
0
LINE
8
RED2
6
CONTINUOUS
10
7.76738
20
-7.71991
11
7.76176
21
-7.7171
0
LINE
8
RED2
6
CONTINUOUS
10
7.76176
20
-7.7171
11
7.75894
21
-7.71147
0
LINE
8
RED2
6
CONTINUOUS
10
7.75894
20
-7.71147
11
7.75894
21
-7.70866
0
LINE
8
RED2
6
CONTINUOUS
10
7.75894
20
-7.70866
11
7.76176
21
-7.70304
0
LINE
8
RED2
6
CONTINUOUS
10
7.76176
20
-7.70304
11
7.76738
21
-7.70022
0
LINE
8
RED2
6
CONTINUOUS
10
7.76738
20
-7.70022
11
7.77581
21
-7.70022
0
LINE
8
RED2
6
CONTINUOUS
10
7.77581
20
-7.70022
11
7.78144
21
-7.70304
0
LINE
8
RED2
6
CONTINUOUS
10
7.83487
20
-7.73678
11
7.82925
21
-7.73959
0
LINE
8
RED2
6
CONTINUOUS
10
7.82925
20
-7.73959
11
7.818
21
-7.73959
0
LINE
8
RED2
6
CONTINUOUS
10
7.818
20
-7.73959
11
7.81237
21
-7.73678
0
LINE
8
RED2
6
CONTINUOUS
10
7.81237
20
-7.73678
11
7.80956
21
-7.73397
0
LINE
8
RED2
6
CONTINUOUS
10
7.80956
20
-7.73397
11
7.80675
21
-7.72835
0
LINE
8
RED2
6
CONTINUOUS
10
7.80675
20
-7.72835
11
7.80675
21
-7.71147
0
LINE
8
RED2
6
CONTINUOUS
10
7.80675
20
-7.71147
11
7.80956
21
-7.70585
0
LINE
8
RED2
6
CONTINUOUS
10
7.80956
20
-7.70585
11
7.81237
21
-7.70304
0
LINE
8
RED2
6
CONTINUOUS
10
7.81237
20
-7.70304
11
7.818
21
-7.70022
0
LINE
8
RED2
6
CONTINUOUS
10
7.818
20
-7.70022
11
7.82925
21
-7.70022
0
LINE
8
RED2
6
CONTINUOUS
10
7.82925
20
-7.70022
11
7.83487
21
-7.70304
0
LINE
8
RED2
6
CONTINUOUS
10
7.86018
20
-7.73959
11
7.86018
21
-7.68054
0
LINE
8
RED2
6
CONTINUOUS
10
7.88549
20
-7.73959
11
7.88549
21
-7.70866
0
LINE
8
RED2
6
CONTINUOUS
10
7.88549
20
-7.70866
11
7.88268
21
-7.70304
0
LINE
8
RED2
6
CONTINUOUS
10
7.88268
20
-7.70304
11
7.87706
21
-7.70022
0
LINE
8
RED2
6
CONTINUOUS
10
7.87706
20
-7.70022
11
7.86862
21
-7.70022
0
LINE
8
RED2
6
CONTINUOUS
10
7.86862
20
-7.70022
11
7.86299
21
-7.70304
0
LINE
8
RED2
6
CONTINUOUS
10
7.86299
20
-7.70304
11
7.86018
21
-7.70585
0
LINE
8
RED2
6
CONTINUOUS
10
7.93611
20
-7.73678
11
7.93048
21
-7.73959
0
LINE
8
RED2
6
CONTINUOUS
10
7.93048
20
-7.73959
11
7.91924
21
-7.73959
0
LINE
8
RED2
6
CONTINUOUS
10
7.91924
20
-7.73959
11
7.91361
21
-7.73678
0
LINE
8
RED2
6
CONTINUOUS
10
7.91361
20
-7.73678
11
7.9108
21
-7.73116
0
LINE
8
RED2
6
CONTINUOUS
10
7.9108
20
-7.73116
11
7.9108
21
-7.70866
0
LINE
8
RED2
6
CONTINUOUS
10
7.9108
20
-7.70866
11
7.91361
21
-7.70304
0
LINE
8
RED2
6
CONTINUOUS
10
7.91361
20
-7.70304
11
7.91924
21
-7.70022
0
LINE
8
RED2
6
CONTINUOUS
10
7.91924
20
-7.70022
11
7.93048
21
-7.70022
0
LINE
8
RED2
6
CONTINUOUS
10
7.93048
20
-7.70022
11
7.93611
21
-7.70304
0
LINE
8
RED2
6
CONTINUOUS
10
7.93611
20
-7.70304
11
7.93892
21
-7.70866
0
LINE
8
RED2
6
CONTINUOUS
10
7.93892
20
-7.70866
11
7.93892
21
-7.71429
0
LINE
8
RED2
6
CONTINUOUS
10
7.93892
20
-7.71429
11
7.9108
21
-7.71991
0
LINE
8
RED2
6
CONTINUOUS
10
7.96423
20
-7.73959
11
7.96423
21
-7.70022
0
LINE
8
RED2
6
CONTINUOUS
10
7.96423
20
-7.70585
11
7.96704
21
-7.70304
0
LINE
8
RED2
6
CONTINUOUS
10
7.96704
20
-7.70304
11
7.97267
21
-7.70022
0
LINE
8
RED2
6
CONTINUOUS
10
7.97267
20
-7.70022
11
7.9811
21
-7.70022
0
LINE
8
RED2
6
CONTINUOUS
10
7.9811
20
-7.70022
11
7.98673
21
-7.70304
0
LINE
8
RED2
6
CONTINUOUS
10
7.98673
20
-7.70304
11
7.98954
21
-7.70866
0
LINE
8
RED2
6
CONTINUOUS
10
7.98954
20
-7.70866
11
7.98954
21
-7.73959
0
LINE
8
RED2
6
CONTINUOUS
10
7.98954
20
-7.70866
11
7.99235
21
-7.70304
0
LINE
8
RED2
6
CONTINUOUS
10
7.99235
20
-7.70304
11
7.99798
21
-7.70022
0
LINE
8
RED2
6
CONTINUOUS
10
7.99798
20
-7.70022
11
8.00641
21
-7.70022
0
LINE
8
RED2
6
CONTINUOUS
10
8.00641
20
-7.70022
11
8.01204
21
-7.70304
0
LINE
8
RED2
6
CONTINUOUS
10
8.01204
20
-7.70304
11
8.01485
21
-7.70866
0
LINE
8
RED2
6
CONTINUOUS
10
8.01485
20
-7.70866
11
8.01485
21
-7.73959
0
LINE
8
RED2
6
CONTINUOUS
10
8.06828
20
-7.73959
11
8.06828
21
-7.70866
0
LINE
8
RED2
6
CONTINUOUS
10
8.06828
20
-7.70866
11
8.06547
21
-7.70304
0
LINE
8
RED2
6
CONTINUOUS
10
8.06547
20
-7.70304
11
8.05984
21
-7.70022
0
LINE
8
RED2
6
CONTINUOUS
10
8.05984
20
-7.70022
11
8.04859
21
-7.70022
0
LINE
8
RED2
6
CONTINUOUS
10
8.04859
20
-7.70022
11
8.04297
21
-7.70304
0
LINE
8
RED2
6
CONTINUOUS
10
8.06828
20
-7.73678
11
8.06265
21
-7.73959
0
LINE
8
RED2
6
CONTINUOUS
10
8.06265
20
-7.73959
11
8.04859
21
-7.73959
0
LINE
8
RED2
6
CONTINUOUS
10
8.04859
20
-7.73959
11
8.04297
21
-7.73678
0
LINE
8
RED2
6
CONTINUOUS
10
8.04297
20
-7.73678
11
8.04016
21
-7.73116
0
LINE
8
RED2
6
CONTINUOUS
10
8.04016
20
-7.73116
11
8.04016
21
-7.72554
0
LINE
8
RED2
6
CONTINUOUS
10
8.04016
20
-7.72554
11
8.04297
21
-7.71991
0
LINE
8
RED2
6
CONTINUOUS
10
8.04297
20
-7.71991
11
8.04859
21
-7.7171
0
LINE
8
RED2
6
CONTINUOUS
10
8.04859
20
-7.7171
11
8.06265
21
-7.7171
0
LINE
8
RED2
6
CONTINUOUS
10
8.06265
20
-7.7171
11
8.06828
21
-7.71429
0
LINE
8
RED2
6
CONTINUOUS
10
8.1667
20
-7.68054
11
8.15546
21
-7.68054
0
LINE
8
RED2
6
CONTINUOUS
10
8.15546
20
-7.68054
11
8.14983
21
-7.68335
0
LINE
8
RED2
6
CONTINUOUS
10
8.14983
20
-7.68335
11
8.14702
21
-7.68617
0
LINE
8
RED2
6
CONTINUOUS
10
8.14702
20
-7.68617
11
8.14139
21
-7.6946
0
LINE
8
RED2
6
CONTINUOUS
10
8.14139
20
-7.6946
11
8.13858
21
-7.70585
0
LINE
8
RED2
6
CONTINUOUS
10
8.13858
20
-7.70585
11
8.13858
21
-7.72835
0
LINE
8
RED2
6
CONTINUOUS
10
8.13858
20
-7.72835
11
8.14139
21
-7.73397
0
LINE
8
RED2
6
CONTINUOUS
10
8.14139
20
-7.73397
11
8.14421
21
-7.73678
0
LINE
8
RED2
6
CONTINUOUS
10
8.14421
20
-7.73678
11
8.14983
21
-7.73959
0
LINE
8
RED2
6
CONTINUOUS
10
8.14983
20
-7.73959
11
8.16108
21
-7.73959
0
LINE
8
RED2
6
CONTINUOUS
10
8.16108
20
-7.73959
11
8.1667
21
-7.73678
0
LINE
8
RED2
6
CONTINUOUS
10
8.1667
20
-7.73678
11
8.16952
21
-7.73397
0
LINE
8
RED2
6
CONTINUOUS
10
8.16952
20
-7.73397
11
8.17233
21
-7.72835
0
LINE
8
RED2
6
CONTINUOUS
10
8.17233
20
-7.72835
11
8.17233
21
-7.71429
0
LINE
8
RED2
6
CONTINUOUS
10
8.17233
20
-7.71429
11
8.16952
21
-7.70866
0
LINE
8
RED2
6
CONTINUOUS
10
8.16952
20
-7.70866
11
8.1667
21
-7.70585
0
LINE
8
RED2
6
CONTINUOUS
10
8.1667
20
-7.70585
11
8.16108
21
-7.70304
0
LINE
8
RED2
6
CONTINUOUS
10
8.16108
20
-7.70304
11
8.14983
21
-7.70304
0
LINE
8
RED2
6
CONTINUOUS
10
8.14983
20
-7.70304
11
8.14421
21
-7.70585
0
LINE
8
RED2
6
CONTINUOUS
10
8.14421
20
-7.70585
11
8.14139
21
-7.70866
0
LINE
8
RED2
6
CONTINUOUS
10
8.14139
20
-7.70866
11
8.13858
21
-7.71429
0
LINE
8
RED2
6
CONTINUOUS
10
8.19764
20
-7.73397
11
8.20045
21
-7.73678
0
LINE
8
RED2
6
CONTINUOUS
10
8.20045
20
-7.73678
11
8.19764
21
-7.73959
0
LINE
8
RED2
6
CONTINUOUS
10
8.19764
20
-7.73959
11
8.19483
21
-7.73678
0
LINE
8
RED2
6
CONTINUOUS
10
8.19483
20
-7.73678
11
8.19764
21
-7.73397
0
LINE
8
RED2
6
CONTINUOUS
10
8.19764
20
-7.73397
11
8.19764
21
-7.73959
0
LINE
8
RED2
6
CONTINUOUS
10
8.23701
20
-7.68054
11
8.24263
21
-7.68054
0
LINE
8
RED2
6
CONTINUOUS
10
8.24263
20
-7.68054
11
8.24826
21
-7.68335
0
LINE
8
RED2
6
CONTINUOUS
10
8.24826
20
-7.68335
11
8.25107
21
-7.68617
0
LINE
8
RED2
6
CONTINUOUS
10
8.25107
20
-7.68617
11
8.25388
21
-7.69179
0
LINE
8
RED2
6
CONTINUOUS
10
8.25388
20
-7.69179
11
8.25669
21
-7.70304
0
LINE
8
RED2
6
CONTINUOUS
10
8.25669
20
-7.70304
11
8.25669
21
-7.7171
0
LINE
8
RED2
6
CONTINUOUS
10
8.25669
20
-7.7171
11
8.25388
21
-7.72835
0
LINE
8
RED2
6
CONTINUOUS
10
8.25388
20
-7.72835
11
8.25107
21
-7.73397
0
LINE
8
RED2
6
CONTINUOUS
10
8.25107
20
-7.73397
11
8.24826
21
-7.73678
0
LINE
8
RED2
6
CONTINUOUS
10
8.24826
20
-7.73678
11
8.24263
21
-7.73959
0
LINE
8
RED2
6
CONTINUOUS
10
8.24263
20
-7.73959
11
8.23701
21
-7.73959
0
LINE
8
RED2
6
CONTINUOUS
10
8.23701
20
-7.73959
11
8.23139
21
-7.73678
0
LINE
8
RED2
6
CONTINUOUS
10
8.23139
20
-7.73678
11
8.22857
21
-7.73397
0
LINE
8
RED2
6
CONTINUOUS
10
8.22857
20
-7.73397
11
8.22576
21
-7.72835
0
LINE
8
RED2
6
CONTINUOUS
10
8.22576
20
-7.72835
11
8.22295
21
-7.7171
0
LINE
8
RED2
6
CONTINUOUS
10
8.22295
20
-7.7171
11
8.22295
21
-7.70304
0
LINE
8
RED2
6
CONTINUOUS
10
8.22295
20
-7.70304
11
8.22576
21
-7.69179
0
LINE
8
RED2
6
CONTINUOUS
10
8.22576
20
-7.69179
11
8.22857
21
-7.68617
0
LINE
8
RED2
6
CONTINUOUS
10
8.22857
20
-7.68617
11
8.23139
21
-7.68335
0
LINE
8
RED2
6
CONTINUOUS
10
8.23139
20
-7.68335
11
8.23701
21
-7.68054
0
LINE
8
RED2
6
CONTINUOUS
10
8.282
20
-7.73397
11
8.28481
21
-7.73678
0
LINE
8
RED2
6
CONTINUOUS
10
8.28481
20
-7.73678
11
8.282
21
-7.73959
0
LINE
8
RED2
6
CONTINUOUS
10
8.282
20
-7.73959
11
8.27919
21
-7.73678
0
LINE
8
RED2
6
CONTINUOUS
10
8.27919
20
-7.73678
11
8.282
21
-7.73397
0
LINE
8
RED2
6
CONTINUOUS
10
8.282
20
-7.73397
11
8.282
21
-7.73959
0
LINE
8
RED2
6
CONTINUOUS
10
8.34106
20
-7.73959
11
8.30731
21
-7.73959
0
LINE
8
RED2
6
CONTINUOUS
10
8.32419
20
-7.73959
11
8.32419
21
-7.68054
0
LINE
8
RED2
6
CONTINUOUS
10
8.32419
20
-7.68054
11
8.31856
21
-7.68898
0
LINE
8
RED2
6
CONTINUOUS
10
8.31856
20
-7.68898
11
8.31294
21
-7.6946
0
LINE
8
RED2
6
CONTINUOUS
10
8.31294
20
-7.6946
11
8.30731
21
-7.69741
0
LINE
8
RED2
6
CONTINUOUS
10
8.37761
20
-7.68054
11
8.38324
21
-7.68054
0
LINE
8
RED2
6
CONTINUOUS
10
8.38324
20
-7.68054
11
8.38887
21
-7.68335
0
LINE
8
RED2
6
CONTINUOUS
10
8.38887
20
-7.68335
11
8.39168
21
-7.68617
0
LINE
8
RED2
6
CONTINUOUS
10
8.39168
20
-7.68617
11
8.39449
21
-7.69179
0
LINE
8
RED2
6
CONTINUOUS
10
8.39449
20
-7.69179
11
8.3973
21
-7.70304
0
LINE
8
RED2
6
CONTINUOUS
10
8.3973
20
-7.70304
11
8.3973
21
-7.7171
0
LINE
8
RED2
6
CONTINUOUS
10
8.3973
20
-7.7171
11
8.39449
21
-7.72835
0
LINE
8
RED2
6
CONTINUOUS
10
8.39449
20
-7.72835
11
8.39168
21
-7.73397
0
LINE
8
RED2
6
CONTINUOUS
10
8.39168
20
-7.73397
11
8.38887
21
-7.73678
0
LINE
8
RED2
6
CONTINUOUS
10
8.38887
20
-7.73678
11
8.38324
21
-7.73959
0
LINE
8
RED2
6
CONTINUOUS
10
8.38324
20
-7.73959
11
8.37761
21
-7.73959
0
LINE
8
RED2
6
CONTINUOUS
10
8.37761
20
-7.73959
11
8.37199
21
-7.73678
0
LINE
8
RED2
6
CONTINUOUS
10
8.37199
20
-7.73678
11
8.36918
21
-7.73397
0
LINE
8
RED2
6
CONTINUOUS
10
8.36918
20
-7.73397
11
8.36637
21
-7.72835
0
LINE
8
RED2
6
CONTINUOUS
10
8.36637
20
-7.72835
11
8.36356
21
-7.7171
0
LINE
8
RED2
6
CONTINUOUS
10
8.36356
20
-7.7171
11
8.36356
21
-7.70304
0
LINE
8
RED2
6
CONTINUOUS
10
8.36356
20
-7.70304
11
8.36637
21
-7.69179
0
LINE
8
RED2
6
CONTINUOUS
10
8.36637
20
-7.69179
11
8.36918
21
-7.68617
0
LINE
8
RED2
6
CONTINUOUS
10
8.36918
20
-7.68617
11
8.37199
21
-7.68335
0
LINE
8
RED2
6
CONTINUOUS
10
8.37199
20
-7.68335
11
8.37761
21
-7.68054
0
LINE
8
RED2
6
CONTINUOUS
10
8.42261
20
-7.7171
11
8.46761
21
-7.7171
0
LINE
8
RED2
6
CONTINUOUS
10
8.44511
20
-7.73959
11
8.44511
21
-7.6946
0
LINE
8
RED2
6
CONTINUOUS
10
8.52104
20
-7.73959
11
8.52104
21
-7.68054
0
LINE
8
RED2
6
CONTINUOUS
10
8.52104
20
-7.73678
11
8.51541
21
-7.73959
0
LINE
8
RED2
6
CONTINUOUS
10
8.51541
20
-7.73959
11
8.50416
21
-7.73959
0
LINE
8
RED2
6
CONTINUOUS
10
8.50416
20
-7.73959
11
8.49854
21
-7.73678
0
LINE
8
RED2
6
CONTINUOUS
10
8.49854
20
-7.73678
11
8.49572
21
-7.73397
0
LINE
8
RED2
6
CONTINUOUS
10
8.49572
20
-7.73397
11
8.49291
21
-7.72835
0
LINE
8
RED2
6
CONTINUOUS
10
8.49291
20
-7.72835
11
8.49291
21
-7.71147
0
LINE
8
RED2
6
CONTINUOUS
10
8.49291
20
-7.71147
11
8.49572
21
-7.70585
0
LINE
8
RED2
6
CONTINUOUS
10
8.49572
20
-7.70585
11
8.49854
21
-7.70304
0
LINE
8
RED2
6
CONTINUOUS
10
8.49854
20
-7.70304
11
8.50416
21
-7.70022
0
LINE
8
RED2
6
CONTINUOUS
10
8.50416
20
-7.70022
11
8.51541
21
-7.70022
0
LINE
8
RED2
6
CONTINUOUS
10
8.51541
20
-7.70022
11
8.52104
21
-7.70304
0
LINE
8
RED2
6
CONTINUOUS
10
8.54072
20
-7.70022
11
8.56322
21
-7.70022
0
LINE
8
RED2
6
CONTINUOUS
10
8.54916
20
-7.73959
11
8.54916
21
-7.68898
0
LINE
8
RED2
6
CONTINUOUS
10
8.54916
20
-7.68898
11
8.55197
21
-7.68335
0
LINE
8
RED2
6
CONTINUOUS
10
8.55197
20
-7.68335
11
8.55759
21
-7.68054
0
LINE
8
RED2
6
CONTINUOUS
10
8.55759
20
-7.68054
11
8.56322
21
-7.68054
0
LINE
8
RED2
6
CONTINUOUS
10
8.58009
20
-7.73678
11
8.58572
21
-7.73959
0
LINE
8
RED2
6
CONTINUOUS
10
8.58572
20
-7.73959
11
8.59696
21
-7.73959
0
LINE
8
RED2
6
CONTINUOUS
10
8.59696
20
-7.73959
11
8.60259
21
-7.73678
0
LINE
8
RED2
6
CONTINUOUS
10
8.60259
20
-7.73678
11
8.6054
21
-7.73116
0
LINE
8
RED2
6
CONTINUOUS
10
8.6054
20
-7.73116
11
8.6054
21
-7.72835
0
LINE
8
RED2
6
CONTINUOUS
10
8.6054
20
-7.72835
11
8.60259
21
-7.72272
0
LINE
8
RED2
6
CONTINUOUS
10
8.60259
20
-7.72272
11
8.59696
21
-7.71991
0
LINE
8
RED2
6
CONTINUOUS
10
8.59696
20
-7.71991
11
8.58853
21
-7.71991
0
LINE
8
RED2
6
CONTINUOUS
10
8.58853
20
-7.71991
11
8.5829
21
-7.7171
0
LINE
8
RED2
6
CONTINUOUS
10
8.5829
20
-7.7171
11
8.58009
21
-7.71147
0
LINE
8
RED2
6
CONTINUOUS
10
8.58009
20
-7.71147
11
8.58009
21
-7.70866
0
LINE
8
RED2
6
CONTINUOUS
10
8.58009
20
-7.70866
11
8.5829
21
-7.70304
0
LINE
8
RED2
6
CONTINUOUS
10
8.5829
20
-7.70304
11
8.58853
21
-7.70022
0
LINE
8
RED2
6
CONTINUOUS
10
8.58853
20
-7.70022
11
8.59696
21
-7.70022
0
LINE
8
RED2
6
CONTINUOUS
10
8.59696
20
-7.70022
11
8.60259
21
-7.70304
0
LINE
8
RED2
6
CONTINUOUS
10
8.65602
20
-7.70022
11
8.65602
21
-7.74803
0
LINE
8
RED2
6
CONTINUOUS
10
8.65602
20
-7.74803
11
8.6532
21
-7.75366
0
LINE
8
RED2
6
CONTINUOUS
10
8.6532
20
-7.75366
11
8.65039
21
-7.75647
0
LINE
8
RED2
6
CONTINUOUS
10
8.65039
20
-7.75647
11
8.64477
21
-7.75928
0
LINE
8
RED2
6
CONTINUOUS
10
8.64477
20
-7.75928
11
8.63633
21
-7.75928
0
LINE
8
RED2
6
CONTINUOUS
10
8.63633
20
-7.75928
11
8.63071
21
-7.75647
0
LINE
8
RED2
6
CONTINUOUS
10
8.65602
20
-7.73678
11
8.65039
21
-7.73959
0
LINE
8
RED2
6
CONTINUOUS
10
8.65039
20
-7.73959
11
8.63915
21
-7.73959
0
LINE
8
RED2
6
CONTINUOUS
10
8.63915
20
-7.73959
11
8.63352
21
-7.73678
0
LINE
8
RED2
6
CONTINUOUS
10
8.63352
20
-7.73678
11
8.63071
21
-7.73397
0
LINE
8
RED2
6
CONTINUOUS
10
8.63071
20
-7.73397
11
8.6279
21
-7.72835
0
LINE
8
RED2
6
CONTINUOUS
10
8.6279
20
-7.72835
11
8.6279
21
-7.71147
0
LINE
8
RED2
6
CONTINUOUS
10
8.6279
20
-7.71147
11
8.63071
21
-7.70585
0
LINE
8
RED2
6
CONTINUOUS
10
8.63071
20
-7.70585
11
8.63352
21
-7.70304
0
LINE
8
RED2
6
CONTINUOUS
10
8.63352
20
-7.70304
11
8.63915
21
-7.70022
0
LINE
8
RED2
6
CONTINUOUS
10
8.63915
20
-7.70022
11
8.65039
21
-7.70022
0
LINE
8
RED2
6
CONTINUOUS
10
8.65039
20
-7.70022
11
8.65602
21
-7.70304
0
LINE
8
RED2
6
CONTINUOUS
10
8.68414
20
-7.7171
11
8.72913
21
-7.7171
0
LINE
8
RED2
6
CONTINUOUS
10
8.78819
20
-7.73959
11
8.75444
21
-7.73959
0
LINE
8
RED2
6
CONTINUOUS
10
8.77131
20
-7.73959
11
8.77131
21
-7.68054
0
LINE
8
RED2
6
CONTINUOUS
10
8.77131
20
-7.68054
11
8.76569
21
-7.68898
0
LINE
8
RED2
6
CONTINUOUS
10
8.76569
20
-7.68898
11
8.76007
21
-7.6946
0
LINE
8
RED2
6
CONTINUOUS
10
8.76007
20
-7.6946
11
8.75444
21
-7.69741
0
LINE
8
RED2
6
CONTINUOUS
10
8.80506
20
-7.7171
11
8.80787
21
-7.71429
0
LINE
8
RED2
6
CONTINUOUS
10
8.80787
20
-7.71429
11
8.8135
21
-7.71147
0
LINE
8
RED2
6
CONTINUOUS
10
8.8135
20
-7.71147
11
8.82475
21
-7.7171
0
LINE
8
RED2
6
CONTINUOUS
10
8.82475
20
-7.7171
11
8.83037
21
-7.71429
0
LINE
8
RED2
6
CONTINUOUS
10
8.83037
20
-7.71429
11
8.83319
21
-7.71147
0
LINE
8
RED2
6
CONTINUOUS
10
8.85568
20
-7.73959
11
8.85568
21
-7.68054
0
LINE
8
RED2
6
CONTINUOUS
10
8.85568
20
-7.70304
11
8.86131
21
-7.70022
0
LINE
8
RED2
6
CONTINUOUS
10
8.86131
20
-7.70022
11
8.87256
21
-7.70022
0
LINE
8
RED2
6
CONTINUOUS
10
8.87256
20
-7.70022
11
8.87818
21
-7.70304
0
LINE
8
RED2
6
CONTINUOUS
10
8.87818
20
-7.70304
11
8.88099
21
-7.70585
0
LINE
8
RED2
6
CONTINUOUS
10
8.88099
20
-7.70585
11
8.8838
21
-7.71147
0
LINE
8
RED2
6
CONTINUOUS
10
8.8838
20
-7.71147
11
8.8838
21
-7.72835
0
LINE
8
RED2
6
CONTINUOUS
10
8.8838
20
-7.72835
11
8.88099
21
-7.73397
0
LINE
8
RED2
6
CONTINUOUS
10
8.88099
20
-7.73397
11
8.87818
21
-7.73678
0
LINE
8
RED2
6
CONTINUOUS
10
8.87818
20
-7.73678
11
8.87256
21
-7.73959
0
LINE
8
RED2
6
CONTINUOUS
10
8.87256
20
-7.73959
11
8.86131
21
-7.73959
0
LINE
8
RED2
6
CONTINUOUS
10
8.86131
20
-7.73959
11
8.85568
21
-7.73678
0
LINE
8
RED2
6
CONTINUOUS
10
8.90911
20
-7.70022
11
8.90911
21
-7.75928
0
LINE
8
RED2
6
CONTINUOUS
10
8.90911
20
-7.70304
11
8.91474
21
-7.70022
0
LINE
8
RED2
6
CONTINUOUS
10
8.91474
20
-7.70022
11
8.92598
21
-7.70022
0
LINE
8
RED2
6
CONTINUOUS
10
8.92598
20
-7.70022
11
8.93161
21
-7.70304
0
LINE
8
RED2
6
CONTINUOUS
10
8.93161
20
-7.70304
11
8.93442
21
-7.70585
0
LINE
8
RED2
6
CONTINUOUS
10
8.93442
20
-7.70585
11
8.93723
21
-7.71147
0
LINE
8
RED2
6
CONTINUOUS
10
8.93723
20
-7.71147
11
8.93723
21
-7.72835
0
LINE
8
RED2
6
CONTINUOUS
10
8.93723
20
-7.72835
11
8.93442
21
-7.73397
0
LINE
8
RED2
6
CONTINUOUS
10
8.93442
20
-7.73397
11
8.93161
21
-7.73678
0
LINE
8
RED2
6
CONTINUOUS
10
8.93161
20
-7.73678
11
8.92598
21
-7.73959
0
LINE
8
RED2
6
CONTINUOUS
10
8.92598
20
-7.73959
11
8.91474
21
-7.73959
0
LINE
8
RED2
6
CONTINUOUS
10
8.91474
20
-7.73959
11
8.90911
21
-7.73678
0
LINE
8
RED2
6
CONTINUOUS
10
8.97098
20
-7.73959
11
8.96535
21
-7.73678
0
LINE
8
RED2
6
CONTINUOUS
10
8.96535
20
-7.73678
11
8.96254
21
-7.73397
0
LINE
8
RED2
6
CONTINUOUS
10
8.96254
20
-7.73397
11
8.95973
21
-7.72835
0
LINE
8
RED2
6
CONTINUOUS
10
8.95973
20
-7.72835
11
8.95973
21
-7.71147
0
LINE
8
RED2
6
CONTINUOUS
10
8.95973
20
-7.71147
11
8.96254
21
-7.70585
0
LINE
8
RED2
6
CONTINUOUS
10
8.96254
20
-7.70585
11
8.96535
21
-7.70304
0
LINE
8
RED2
6
CONTINUOUS
10
8.96535
20
-7.70304
11
8.97098
21
-7.70022
0
LINE
8
RED2
6
CONTINUOUS
10
8.97098
20
-7.70022
11
8.97942
21
-7.70022
0
LINE
8
RED2
6
CONTINUOUS
10
8.97942
20
-7.70022
11
8.98504
21
-7.70304
0
LINE
8
RED2
6
CONTINUOUS
10
8.98504
20
-7.70304
11
8.98785
21
-7.70585
0
LINE
8
RED2
6
CONTINUOUS
10
8.98785
20
-7.70585
11
8.99067
21
-7.71147
0
LINE
8
RED2
6
CONTINUOUS
10
8.99067
20
-7.71147
11
8.99067
21
-7.72835
0
LINE
8
RED2
6
CONTINUOUS
10
8.99067
20
-7.72835
11
8.98785
21
-7.73397
0
LINE
8
RED2
6
CONTINUOUS
10
8.98785
20
-7.73397
11
8.98504
21
-7.73678
0
LINE
8
RED2
6
CONTINUOUS
10
8.98504
20
-7.73678
11
8.97942
21
-7.73959
0
LINE
8
RED2
6
CONTINUOUS
10
8.97942
20
-7.73959
11
8.97098
21
-7.73959
0
LINE
8
RED2
6
CONTINUOUS
10
9.04691
20
-7.73959
11
9.01316
21
-7.73959
0
LINE
8
RED2
6
CONTINUOUS
10
9.03004
20
-7.73959
11
9.03004
21
-7.68054
0
LINE
8
RED2
6
CONTINUOUS
10
9.03004
20
-7.68054
11
9.02441
21
-7.68898
0
LINE
8
RED2
6
CONTINUOUS
10
9.02441
20
-7.68898
11
9.01879
21
-7.6946
0
LINE
8
RED2
6
CONTINUOUS
10
9.01879
20
-7.6946
11
9.01316
21
-7.69741
0
LINE
8
RED2
6
CONTINUOUS
10
9.10315
20
-7.73959
11
9.06941
21
-7.73959
0
LINE
8
RED2
6
CONTINUOUS
10
9.08628
20
-7.73959
11
9.08628
21
-7.68054
0
LINE
8
RED2
6
CONTINUOUS
10
9.08628
20
-7.68054
11
9.08065
21
-7.68898
0
LINE
8
RED2
6
CONTINUOUS
10
9.08065
20
-7.68898
11
9.07503
21
-7.6946
0
LINE
8
RED2
6
CONTINUOUS
10
9.07503
20
-7.6946
11
9.06941
21
-7.69741
0
LINE
8
RED2
6
CONTINUOUS
10
9.12846
20
-7.7171
11
9.17345
21
-7.7171
0
LINE
8
RED2
6
CONTINUOUS
10
9.15096
20
-7.73959
11
9.15096
21
-7.6946
0
LINE
8
RED2
6
CONTINUOUS
10
9.23251
20
-7.73959
11
9.19876
21
-7.73959
0
LINE
8
RED2
6
CONTINUOUS
10
9.21564
20
-7.73959
11
9.21564
21
-7.68054
0
LINE
8
RED2
6
CONTINUOUS
10
9.21564
20
-7.68054
11
9.21001
21
-7.68898
0
LINE
8
RED2
6
CONTINUOUS
10
9.21001
20
-7.68898
11
9.20439
21
-7.6946
0
LINE
8
RED2
6
CONTINUOUS
10
9.20439
20
-7.6946
11
9.19876
21
-7.69741
0
LINE
8
RED2
6
CONTINUOUS
10
6.96859
20
-7.53965
11
11.2206
21
-7.53965
0
LINE
8
RED2
6
CONTINUOUS
10
10.4099
20
-7.62936
11
10.3902
21
-7.60124
0
LINE
8
RED2
6
CONTINUOUS
10
10.3762
20
-7.62936
11
10.3762
21
-7.5703
0
LINE
8
RED2
6
CONTINUOUS
10
10.3762
20
-7.5703
11
10.3986
21
-7.5703
0
LINE
8
RED2
6
CONTINUOUS
10
10.3986
20
-7.5703
11
10.4043
21
-7.57312
0
LINE
8
RED2
6
CONTINUOUS
10
10.4043
20
-7.57312
11
10.4071
21
-7.57593
0
LINE
8
RED2
6
CONTINUOUS
10
10.4071
20
-7.57593
11
10.4099
21
-7.58155
0
LINE
8
RED2
6
CONTINUOUS
10
10.4099
20
-7.58155
11
10.4099
21
-7.58999
0
LINE
8
RED2
6
CONTINUOUS
10
10.4099
20
-7.58999
11
10.4071
21
-7.59561
0
LINE
8
RED2
6
CONTINUOUS
10
10.4071
20
-7.59561
11
10.4043
21
-7.59843
0
LINE
8
RED2
6
CONTINUOUS
10
10.4043
20
-7.59843
11
10.3986
21
-7.60124
0
LINE
8
RED2
6
CONTINUOUS
10
10.3986
20
-7.60124
11
10.3762
21
-7.60124
0
LINE
8
RED2
6
CONTINUOUS
10
10.4577
20
-7.62655
11
10.4521
21
-7.62936
0
LINE
8
RED2
6
CONTINUOUS
10
10.4521
20
-7.62936
11
10.4408
21
-7.62936
0
LINE
8
RED2
6
CONTINUOUS
10
10.4408
20
-7.62936
11
10.4352
21
-7.62655
0
LINE
8
RED2
6
CONTINUOUS
10
10.4352
20
-7.62655
11
10.4324
21
-7.62092
0
LINE
8
RED2
6
CONTINUOUS
10
10.4324
20
-7.62092
11
10.4324
21
-7.59843
0
LINE
8
RED2
6
CONTINUOUS
10
10.4324
20
-7.59843
11
10.4352
21
-7.5928
0
LINE
8
RED2
6
CONTINUOUS
10
10.4352
20
-7.5928
11
10.4408
21
-7.58999
0
LINE
8
RED2
6
CONTINUOUS
10
10.4408
20
-7.58999
11
10.4521
21
-7.58999
0
LINE
8
RED2
6
CONTINUOUS
10
10.4521
20
-7.58999
11
10.4577
21
-7.5928
0
LINE
8
RED2
6
CONTINUOUS
10
10.4577
20
-7.5928
11
10.4605
21
-7.59843
0
LINE
8
RED2
6
CONTINUOUS
10
10.4605
20
-7.59843
11
10.4605
21
-7.60405
0
LINE
8
RED2
6
CONTINUOUS
10
10.4605
20
-7.60405
11
10.4324
21
-7.60967
0
LINE
8
RED2
6
CONTINUOUS
10
10.4802
20
-7.58999
11
10.4943
21
-7.62936
0
LINE
8
RED2
6
CONTINUOUS
10
10.4943
20
-7.62936
11
10.5083
21
-7.58999
0
LINE
8
RED2
6
CONTINUOUS
10
10.5308
20
-7.62374
11
10.5336
21
-7.62655
0
LINE
8
RED2
6
CONTINUOUS
10
10.5336
20
-7.62655
11
10.5308
21
-7.62936
0
LINE
8
RED2
6
CONTINUOUS
10
10.5308
20
-7.62936
11
10.528
21
-7.62655
0
LINE
8
RED2
6
CONTINUOUS
10
10.528
20
-7.62655
11
10.5308
21
-7.62374
0
LINE
8
RED2
6
CONTINUOUS
10
10.5308
20
-7.62374
11
10.5308
21
-7.62936
0
LINE
8
RED2
6
CONTINUOUS
10
10.5308
20
-7.5928
11
10.5336
21
-7.59561
0
LINE
8
RED2
6
CONTINUOUS
10
10.5336
20
-7.59561
11
10.5308
21
-7.59843
0
LINE
8
RED2
6
CONTINUOUS
10
10.5308
20
-7.59843
11
10.528
21
-7.59561
0
LINE
8
RED2
6
CONTINUOUS
10
10.528
20
-7.59561
11
10.5308
21
-7.5928
0
LINE
8
RED2
6
CONTINUOUS
10
10.5308
20
-7.5928
11
10.5308
21
-7.59843
0
LINE
8
RED2
6
CONTINUOUS
10
7.02216
20
-7.62655
11
7.0306
21
-7.62936
0
LINE
8
RED2
6
CONTINUOUS
10
7.0306
20
-7.62936
11
7.04466
21
-7.62936
0
LINE
8
RED2
6
CONTINUOUS
10
7.04466
20
-7.62936
11
7.05028
21
-7.62655
0
LINE
8
RED2
6
CONTINUOUS
10
7.05028
20
-7.62655
11
7.05309
21
-7.62374
0
LINE
8
RED2
6
CONTINUOUS
10
7.05309
20
-7.62374
11
7.05591
21
-7.61811
0
LINE
8
RED2
6
CONTINUOUS
10
7.05591
20
-7.61811
11
7.05591
21
-7.61249
0
LINE
8
RED2
6
CONTINUOUS
10
7.05591
20
-7.61249
11
7.05309
21
-7.60686
0
LINE
8
RED2
6
CONTINUOUS
10
7.05309
20
-7.60686
11
7.05028
21
-7.60405
0
LINE
8
RED2
6
CONTINUOUS
10
7.05028
20
-7.60405
11
7.04466
21
-7.60124
0
LINE
8
RED2
6
CONTINUOUS
10
7.04466
20
-7.60124
11
7.03341
21
-7.59843
0
LINE
8
RED2
6
CONTINUOUS
10
7.03341
20
-7.59843
11
7.02778
21
-7.59561
0
LINE
8
RED2
6
CONTINUOUS
10
7.02778
20
-7.59561
11
7.02497
21
-7.5928
0
LINE
8
RED2
6
CONTINUOUS
10
7.02497
20
-7.5928
11
7.02216
21
-7.58718
0
LINE
8
RED2
6
CONTINUOUS
10
7.02216
20
-7.58718
11
7.02216
21
-7.58155
0
LINE
8
RED2
6
CONTINUOUS
10
7.02216
20
-7.58155
11
7.02497
21
-7.57593
0
LINE
8
RED2
6
CONTINUOUS
10
7.02497
20
-7.57593
11
7.02778
21
-7.57312
0
LINE
8
RED2
6
CONTINUOUS
10
7.02778
20
-7.57312
11
7.03341
21
-7.5703
0
LINE
8
RED2
6
CONTINUOUS
10
7.03341
20
-7.5703
11
7.04747
21
-7.5703
0
LINE
8
RED2
6
CONTINUOUS
10
7.04747
20
-7.5703
11
7.05591
21
-7.57312
0
LINE
8
RED2
6
CONTINUOUS
10
7.08122
20
-7.62936
11
7.08122
21
-7.58999
0
LINE
8
RED2
6
CONTINUOUS
10
7.08122
20
-7.5703
11
7.0784
21
-7.57312
0
LINE
8
RED2
6
CONTINUOUS
10
7.0784
20
-7.57312
11
7.08122
21
-7.57593
0
LINE
8
RED2
6
CONTINUOUS
10
7.08122
20
-7.57593
11
7.08403
21
-7.57312
0
LINE
8
RED2
6
CONTINUOUS
10
7.08403
20
-7.57312
11
7.08122
21
-7.5703
0
LINE
8
RED2
6
CONTINUOUS
10
7.08122
20
-7.5703
11
7.08122
21
-7.57593
0
LINE
8
RED2
6
CONTINUOUS
10
7.10371
20
-7.58999
11
7.13465
21
-7.58999
0
LINE
8
RED2
6
CONTINUOUS
10
7.13465
20
-7.58999
11
7.10371
21
-7.62936
0
LINE
8
RED2
6
CONTINUOUS
10
7.10371
20
-7.62936
11
7.13465
21
-7.62936
0
LINE
8
RED2
6
CONTINUOUS
10
7.17964
20
-7.62655
11
7.17402
21
-7.62936
0
LINE
8
RED2
6
CONTINUOUS
10
7.17402
20
-7.62936
11
7.16277
21
-7.62936
0
LINE
8
RED2
6
CONTINUOUS
10
7.16277
20
-7.62936
11
7.15714
21
-7.62655
0
LINE
8
RED2
6
CONTINUOUS
10
7.15714
20
-7.62655
11
7.15433
21
-7.62092
0
LINE
8
RED2
6
CONTINUOUS
10
7.15433
20
-7.62092
11
7.15433
21
-7.59843
0
LINE
8
RED2
6
CONTINUOUS
10
7.15433
20
-7.59843
11
7.15714
21
-7.5928
0
LINE
8
RED2
6
CONTINUOUS
10
7.15714
20
-7.5928
11
7.16277
21
-7.58999
0
LINE
8
RED2
6
CONTINUOUS
10
7.16277
20
-7.58999
11
7.17402
21
-7.58999
0
LINE
8
RED2
6
CONTINUOUS
10
7.17402
20
-7.58999
11
7.17964
21
-7.5928
0
LINE
8
RED2
6
CONTINUOUS
10
7.17964
20
-7.5928
11
7.18245
21
-7.59843
0
LINE
8
RED2
6
CONTINUOUS
10
7.18245
20
-7.59843
11
7.18245
21
-7.60405
0
LINE
8
RED2
6
CONTINUOUS
10
7.18245
20
-7.60405
11
7.15433
21
-7.60967
0
LINE
8
RED2
6
CONTINUOUS
10
7.20776
20
-7.62374
11
7.21057
21
-7.62655
0
LINE
8
RED2
6
CONTINUOUS
10
7.21057
20
-7.62655
11
7.20776
21
-7.62936
0
LINE
8
RED2
6
CONTINUOUS
10
7.20776
20
-7.62936
11
7.20495
21
-7.62655
0
LINE
8
RED2
6
CONTINUOUS
10
7.20495
20
-7.62655
11
7.20776
21
-7.62374
0
LINE
8
RED2
6
CONTINUOUS
10
7.20776
20
-7.62374
11
7.20776
21
-7.62936
0
LINE
8
RED2
6
CONTINUOUS
10
7.20776
20
-7.5928
11
7.21057
21
-7.59561
0
LINE
8
RED2
6
CONTINUOUS
10
7.21057
20
-7.59561
11
7.20776
21
-7.59843
0
LINE
8
RED2
6
CONTINUOUS
10
7.20776
20
-7.59843
11
7.20495
21
-7.59561
0
LINE
8
RED2
6
CONTINUOUS
10
7.20495
20
-7.59561
11
7.20776
21
-7.5928
0
LINE
8
RED2
6
CONTINUOUS
10
7.20776
20
-7.5928
11
7.20776
21
-7.59843
0
LINE
8
RED2
6
CONTINUOUS
10
7.27807
20
-7.61249
11
7.30619
21
-7.61249
0
LINE
8
RED2
6
CONTINUOUS
10
7.27244
20
-7.62936
11
7.29213
21
-7.5703
0
LINE
8
RED2
6
CONTINUOUS
10
7.29213
20
-7.5703
11
7.31181
21
-7.62936
0
LINE
8
RED2
6
CONTINUOUS
10
7.35681
20
-7.58999
11
7.35681
21
-7.62936
0
LINE
8
RED2
6
CONTINUOUS
10
7.34274
20
-7.56749
11
7.32869
21
-7.60967
0
LINE
8
RED2
6
CONTINUOUS
10
7.32869
20
-7.60967
11
7.36524
21
-7.60967
0
LINE
8
RED2
6
CONTINUOUS
10
10.3714
20
-7.73959
11
10.3714
21
-7.68054
0
LINE
8
RED2
6
CONTINUOUS
10
10.4249
20
-7.73959
11
10.4249
21
-7.68054
0
LINE
8
RED2
6
CONTINUOUS
10
10.4249
20
-7.73678
11
10.4192
21
-7.73959
0
LINE
8
RED2
6
CONTINUOUS
10
10.4192
20
-7.73959
11
10.408
21
-7.73959
0
LINE
8
RED2
6
CONTINUOUS
10
10.408
20
-7.73959
11
10.4024
21
-7.73678
0
LINE
8
RED2
6
CONTINUOUS
10
10.4024
20
-7.73678
11
10.3996
21
-7.73397
0
LINE
8
RED2
6
CONTINUOUS
10
10.3996
20
-7.73397
11
10.3967
21
-7.72835
0
LINE
8
RED2
6
CONTINUOUS
10
10.3967
20
-7.72835
11
10.3967
21
-7.71147
0
LINE
8
RED2
6
CONTINUOUS
10
10.3967
20
-7.71147
11
10.3996
21
-7.70585
0
LINE
8
RED2
6
CONTINUOUS
10
10.3996
20
-7.70585
11
10.4024
21
-7.70304
0
LINE
8
RED2
6
CONTINUOUS
10
10.4024
20
-7.70304
11
10.408
21
-7.70022
0
LINE
8
RED2
6
CONTINUOUS
10
10.408
20
-7.70022
11
10.4192
21
-7.70022
0
LINE
8
RED2
6
CONTINUOUS
10
10.4192
20
-7.70022
11
10.4249
21
-7.70304
0
LINE
8
RED2
6
CONTINUOUS
10
10.453
20
-7.73397
11
10.4558
21
-7.73678
0
LINE
8
RED2
6
CONTINUOUS
10
10.4558
20
-7.73678
11
10.453
21
-7.73959
0
LINE
8
RED2
6
CONTINUOUS
10
10.453
20
-7.73959
11
10.4502
21
-7.73678
0
LINE
8
RED2
6
CONTINUOUS
10
10.4502
20
-7.73678
11
10.453
21
-7.73397
0
LINE
8
RED2
6
CONTINUOUS
10
10.453
20
-7.73397
11
10.453
21
-7.73959
0
LINE
8
RED2
6
CONTINUOUS
10
10.453
20
-7.70304
11
10.4558
21
-7.70585
0
LINE
8
RED2
6
CONTINUOUS
10
10.4558
20
-7.70585
11
10.453
21
-7.70866
0
LINE
8
RED2
6
CONTINUOUS
10
10.453
20
-7.70866
11
10.4502
21
-7.70585
0
LINE
8
RED2
6
CONTINUOUS
10
10.4502
20
-7.70585
11
10.453
21
-7.70304
0
LINE
8
RED2
6
CONTINUOUS
10
10.453
20
-7.70304
11
10.453
21
-7.70866
0
LINE
8
RED2
6
CONTINUOUS
10
10.557
20
-7.73959
11
10.5233
21
-7.73959
0
LINE
8
RED2
6
CONTINUOUS
10
10.5402
20
-7.73959
11
10.5402
21
-7.68054
0
LINE
8
RED2
6
CONTINUOUS
10
10.5402
20
-7.68054
11
10.5345
21
-7.68898
0
LINE
8
RED2
6
CONTINUOUS
10
10.5345
20
-7.68898
11
10.5289
21
-7.6946
0
LINE
8
RED2
6
CONTINUOUS
10
10.5289
20
-7.6946
11
10.5233
21
-7.69741
0
LINE
8
RED2
6
CONTINUOUS
10
10.6245
20
-7.67773
11
10.5739
21
-7.75366
0
LINE
8
RED2
6
CONTINUOUS
10
10.6751
20
-7.73959
11
10.6414
21
-7.73959
0
LINE
8
RED2
6
CONTINUOUS
10
10.6583
20
-7.73959
11
10.6583
21
-7.68054
0
LINE
8
RED2
6
CONTINUOUS
10
10.6583
20
-7.68054
11
10.6526
21
-7.68898
0
LINE
8
RED2
6
CONTINUOUS
10
10.6526
20
-7.68898
11
10.647
21
-7.6946
0
LINE
8
RED2
6
CONTINUOUS
10
10.647
20
-7.6946
11
10.6414
21
-7.69741
0
LINE
8
RED2
6
CONTINUOUS
10
6.96859
20
-7.38217
11
11.2206
21
-7.38217
0
LINE
8
RED2
6
CONTINUOUS
10
7.036
20
-7.40992
11
7.081
21
-7.40992
0
LINE
8
RED2
6
CONTINUOUS
10
7.04866
20
-7.48866
11
7.0585
21
-7.40992
0
LINE
8
RED2
6
CONTINUOUS
10
7.09741
20
-7.48866
11
7.10396
21
-7.43617
0
LINE
8
RED2
6
CONTINUOUS
10
7.10725
20
-7.40992
11
7.10303
21
-7.41367
0
LINE
8
RED2
6
CONTINUOUS
10
7.10303
20
-7.41367
11
7.10631
21
-7.41742
0
LINE
8
RED2
6
CONTINUOUS
10
7.10631
20
-7.41742
11
7.11053
21
-7.41367
0
LINE
8
RED2
6
CONTINUOUS
10
7.11053
20
-7.41367
11
7.10725
21
-7.40992
0
LINE
8
RED2
6
CONTINUOUS
10
7.10725
20
-7.40992
11
7.10631
21
-7.41742
0
LINE
8
RED2
6
CONTINUOUS
10
7.13021
20
-7.43617
11
7.16021
21
-7.43617
0
LINE
8
RED2
6
CONTINUOUS
10
7.14474
20
-7.40992
11
7.13631
21
-7.47741
0
LINE
8
RED2
6
CONTINUOUS
10
7.13631
20
-7.47741
11
7.13912
21
-7.48491
0
LINE
8
RED2
6
CONTINUOUS
10
7.13912
20
-7.48491
11
7.14615
21
-7.48866
0
LINE
8
RED2
6
CONTINUOUS
10
7.14615
20
-7.48866
11
7.15365
21
-7.48866
0
LINE
8
RED2
6
CONTINUOUS
10
7.19114
20
-7.48866
11
7.18411
21
-7.48491
0
LINE
8
RED2
6
CONTINUOUS
10
7.18411
20
-7.48491
11
7.1813
21
-7.47741
0
LINE
8
RED2
6
CONTINUOUS
10
7.1813
20
-7.47741
11
7.18974
21
-7.40992
0
LINE
8
RED2
6
CONTINUOUS
10
7.2516
20
-7.48491
11
7.24363
21
-7.48866
0
LINE
8
RED2
6
CONTINUOUS
10
7.24363
20
-7.48866
11
7.22864
21
-7.48866
0
LINE
8
RED2
6
CONTINUOUS
10
7.22864
20
-7.48866
11
7.22161
21
-7.48491
0
LINE
8
RED2
6
CONTINUOUS
10
7.22161
20
-7.48491
11
7.2188
21
-7.47741
0
LINE
8
RED2
6
CONTINUOUS
10
7.2188
20
-7.47741
11
7.22254
21
-7.44741
0
LINE
8
RED2
6
CONTINUOUS
10
7.22254
20
-7.44741
11
7.22723
21
-7.43991
0
LINE
8
RED2
6
CONTINUOUS
10
7.22723
20
-7.43991
11
7.2352
21
-7.43617
0
LINE
8
RED2
6
CONTINUOUS
10
7.2352
20
-7.43617
11
7.2502
21
-7.43617
0
LINE
8
RED2
6
CONTINUOUS
10
7.2502
20
-7.43617
11
7.25723
21
-7.43991
0
LINE
8
RED2
6
CONTINUOUS
10
7.25723
20
-7.43991
11
7.26004
21
-7.44741
0
LINE
8
RED2
6
CONTINUOUS
10
7.26004
20
-7.44741
11
7.2591
21
-7.45491
0
LINE
8
RED2
6
CONTINUOUS
10
7.2591
20
-7.45491
11
7.22067
21
-7.46241
0
LINE
8
RED2
6
CONTINUOUS
10
7.28957
20
-7.48116
11
7.29285
21
-7.48491
0
LINE
8
RED2
6
CONTINUOUS
10
7.29285
20
-7.48491
11
7.28863
21
-7.48866
0
LINE
8
RED2
6
CONTINUOUS
10
7.28863
20
-7.48866
11
7.28535
21
-7.48491
0
LINE
8
RED2
6
CONTINUOUS
10
7.28535
20
-7.48491
11
7.28957
21
-7.48116
0
LINE
8
RED2
6
CONTINUOUS
10
7.28957
20
-7.48116
11
7.28863
21
-7.48866
0
LINE
8
RED2
6
CONTINUOUS
10
7.29472
20
-7.43991
11
7.298
21
-7.44367
0
LINE
8
RED2
6
CONTINUOUS
10
7.298
20
-7.44367
11
7.29379
21
-7.44741
0
LINE
8
RED2
6
CONTINUOUS
10
7.29379
20
-7.44741
11
7.2905
21
-7.44367
0
LINE
8
RED2
6
CONTINUOUS
10
7.2905
20
-7.44367
11
7.29472
21
-7.43991
0
LINE
8
RED2
6
CONTINUOUS
10
7.29472
20
-7.43991
11
7.29379
21
-7.44741
0
LINE
8
RED2
6
CONTINUOUS
10
7.04466
20
-7.30709
11
7.02497
21
-7.30709
0
LINE
8
RED2
6
CONTINUOUS
10
7.02497
20
-7.33802
11
7.02497
21
-7.27896
0
LINE
8
RED2
6
CONTINUOUS
10
7.02497
20
-7.27896
11
7.05309
21
-7.27896
0
LINE
8
RED2
6
CONTINUOUS
10
7.07559
20
-7.33802
11
7.07559
21
-7.29865
0
LINE
8
RED2
6
CONTINUOUS
10
7.07559
20
-7.27896
11
7.07278
21
-7.28178
0
LINE
8
RED2
6
CONTINUOUS
10
7.07278
20
-7.28178
11
7.07559
21
-7.28459
0
LINE
8
RED2
6
CONTINUOUS
10
7.07559
20
-7.28459
11
7.0784
21
-7.28178
0
LINE
8
RED2
6
CONTINUOUS
10
7.0784
20
-7.28178
11
7.07559
21
-7.27896
0
LINE
8
RED2
6
CONTINUOUS
10
7.07559
20
-7.27896
11
7.07559
21
-7.28459
0
LINE
8
RED2
6
CONTINUOUS
10
7.11215
20
-7.33802
11
7.10652
21
-7.33521
0
LINE
8
RED2
6
CONTINUOUS
10
7.10652
20
-7.33521
11
7.10371
21
-7.32958
0
LINE
8
RED2
6
CONTINUOUS
10
7.10371
20
-7.32958
11
7.10371
21
-7.27896
0
LINE
8
RED2
6
CONTINUOUS
10
7.15714
20
-7.33521
11
7.15152
21
-7.33802
0
LINE
8
RED2
6
CONTINUOUS
10
7.15152
20
-7.33802
11
7.14027
21
-7.33802
0
LINE
8
RED2
6
CONTINUOUS
10
7.14027
20
-7.33802
11
7.13465
21
-7.33521
0
LINE
8
RED2
6
CONTINUOUS
10
7.13465
20
-7.33521
11
7.13183
21
-7.32958
0
LINE
8
RED2
6
CONTINUOUS
10
7.13183
20
-7.32958
11
7.13183
21
-7.30709
0
LINE
8
RED2
6
CONTINUOUS
10
7.13183
20
-7.30709
11
7.13465
21
-7.30146
0
LINE
8
RED2
6
CONTINUOUS
10
7.13465
20
-7.30146
11
7.14027
21
-7.29865
0
LINE
8
RED2
6
CONTINUOUS
10
7.14027
20
-7.29865
11
7.15152
21
-7.29865
0
LINE
8
RED2
6
CONTINUOUS
10
7.15152
20
-7.29865
11
7.15714
21
-7.30146
0
LINE
8
RED2
6
CONTINUOUS
10
7.15714
20
-7.30146
11
7.15996
21
-7.30709
0
LINE
8
RED2
6
CONTINUOUS
10
7.15996
20
-7.30709
11
7.15996
21
-7.31271
0
LINE
8
RED2
6
CONTINUOUS
10
7.15996
20
-7.31271
11
7.13183
21
-7.31833
0
LINE
8
RED2
6
CONTINUOUS
10
7.18526
20
-7.3324
11
7.18808
21
-7.33521
0
LINE
8
RED2
6
CONTINUOUS
10
7.18808
20
-7.33521
11
7.18526
21
-7.33802
0
LINE
8
RED2
6
CONTINUOUS
10
7.18526
20
-7.33802
11
7.18245
21
-7.33521
0
LINE
8
RED2
6
CONTINUOUS
10
7.18245
20
-7.33521
11
7.18526
21
-7.3324
0
LINE
8
RED2
6
CONTINUOUS
10
7.18526
20
-7.3324
11
7.18526
21
-7.33802
0
LINE
8
RED2
6
CONTINUOUS
10
7.18526
20
-7.30146
11
7.18808
21
-7.30428
0
LINE
8
RED2
6
CONTINUOUS
10
7.18808
20
-7.30428
11
7.18526
21
-7.30709
0
LINE
8
RED2
6
CONTINUOUS
10
7.18526
20
-7.30709
11
7.18245
21
-7.30428
0
LINE
8
RED2
6
CONTINUOUS
10
7.18245
20
-7.30428
11
7.18526
21
-7.30146
0
LINE
8
RED2
6
CONTINUOUS
10
7.18526
20
-7.30146
11
7.18526
21
-7.30709
0
LINE
8
RED2
6
CONTINUOUS
10
7.25838
20
-7.33802
11
7.25838
21
-7.27896
0
LINE
8
RED2
6
CONTINUOUS
10
7.264
20
-7.31552
11
7.28088
21
-7.33802
0
LINE
8
RED2
6
CONTINUOUS
10
7.28088
20
-7.29865
11
7.25838
21
-7.32115
0
LINE
8
RED2
6
CONTINUOUS
10
7.30619
20
-7.33802
11
7.30619
21
-7.29865
0
LINE
8
RED2
6
CONTINUOUS
10
7.30619
20
-7.27896
11
7.30337
21
-7.28178
0
LINE
8
RED2
6
CONTINUOUS
10
7.30337
20
-7.28178
11
7.30619
21
-7.28459
0
LINE
8
RED2
6
CONTINUOUS
10
7.30619
20
-7.28459
11
7.309
21
-7.28178
0
LINE
8
RED2
6
CONTINUOUS
10
7.309
20
-7.28178
11
7.30619
21
-7.27896
0
LINE
8
RED2
6
CONTINUOUS
10
7.30619
20
-7.27896
11
7.30619
21
-7.28459
0
LINE
8
RED2
6
CONTINUOUS
10
7.35962
20
-7.33521
11
7.35399
21
-7.33802
0
LINE
8
RED2
6
CONTINUOUS
10
7.35399
20
-7.33802
11
7.34274
21
-7.33802
0
LINE
8
RED2
6
CONTINUOUS
10
7.34274
20
-7.33802
11
7.33712
21
-7.33521
0
LINE
8
RED2
6
CONTINUOUS
10
7.33712
20
-7.33521
11
7.33431
21
-7.3324
0
LINE
8
RED2
6
CONTINUOUS
10
7.33431
20
-7.3324
11
7.3315
21
-7.32677
0
LINE
8
RED2
6
CONTINUOUS
10
7.3315
20
-7.32677
11
7.3315
21
-7.3099
0
LINE
8
RED2
6
CONTINUOUS
10
7.3315
20
-7.3099
11
7.33431
21
-7.30428
0
LINE
8
RED2
6
CONTINUOUS
10
7.33431
20
-7.30428
11
7.33712
21
-7.30146
0
LINE
8
RED2
6
CONTINUOUS
10
7.33712
20
-7.30146
11
7.34274
21
-7.29865
0
LINE
8
RED2
6
CONTINUOUS
10
7.34274
20
-7.29865
11
7.35399
21
-7.29865
0
LINE
8
RED2
6
CONTINUOUS
10
7.35399
20
-7.29865
11
7.35962
21
-7.30146
0
LINE
8
RED2
6
CONTINUOUS
10
7.41024
20
-7.33802
11
7.41024
21
-7.30709
0
LINE
8
RED2
6
CONTINUOUS
10
7.41024
20
-7.30709
11
7.40743
21
-7.30146
0
LINE
8
RED2
6
CONTINUOUS
10
7.40743
20
-7.30146
11
7.4018
21
-7.29865
0
LINE
8
RED2
6
CONTINUOUS
10
7.4018
20
-7.29865
11
7.39055
21
-7.29865
0
LINE
8
RED2
6
CONTINUOUS
10
7.39055
20
-7.29865
11
7.38493
21
-7.30146
0
LINE
8
RED2
6
CONTINUOUS
10
7.41024
20
-7.33521
11
7.40461
21
-7.33802
0
LINE
8
RED2
6
CONTINUOUS
10
7.40461
20
-7.33802
11
7.39055
21
-7.33802
0
LINE
8
RED2
6
CONTINUOUS
10
7.39055
20
-7.33802
11
7.38493
21
-7.33521
0
LINE
8
RED2
6
CONTINUOUS
10
7.38493
20
-7.33521
11
7.38211
21
-7.32958
0
LINE
8
RED2
6
CONTINUOUS
10
7.38211
20
-7.32958
11
7.38211
21
-7.32396
0
LINE
8
RED2
6
CONTINUOUS
10
7.38211
20
-7.32396
11
7.38493
21
-7.31833
0
LINE
8
RED2
6
CONTINUOUS
10
7.38493
20
-7.31833
11
7.39055
21
-7.31552
0
LINE
8
RED2
6
CONTINUOUS
10
7.39055
20
-7.31552
11
7.40461
21
-7.31552
0
LINE
8
RED2
6
CONTINUOUS
10
7.40461
20
-7.31552
11
7.41024
21
-7.31271
0
LINE
8
RED2
6
CONTINUOUS
10
7.46367
20
-7.33802
11
7.46367
21
-7.27896
0
LINE
8
RED2
6
CONTINUOUS
10
7.46367
20
-7.33521
11
7.45804
21
-7.33802
0
LINE
8
RED2
6
CONTINUOUS
10
7.45804
20
-7.33802
11
7.4468
21
-7.33802
0
LINE
8
RED2
6
CONTINUOUS
10
7.4468
20
-7.33802
11
7.44117
21
-7.33521
0
LINE
8
RED2
6
CONTINUOUS
10
7.44117
20
-7.33521
11
7.43836
21
-7.3324
0
LINE
8
RED2
6
CONTINUOUS
10
7.43836
20
-7.3324
11
7.43555
21
-7.32677
0
LINE
8
RED2
6
CONTINUOUS
10
7.43555
20
-7.32677
11
7.43555
21
-7.3099
0
LINE
8
RED2
6
CONTINUOUS
10
7.43555
20
-7.3099
11
7.43836
21
-7.30428
0
LINE
8
RED2
6
CONTINUOUS
10
7.43836
20
-7.30428
11
7.44117
21
-7.30146
0
LINE
8
RED2
6
CONTINUOUS
10
7.44117
20
-7.30146
11
7.4468
21
-7.29865
0
LINE
8
RED2
6
CONTINUOUS
10
7.4468
20
-7.29865
11
7.45804
21
-7.29865
0
LINE
8
RED2
6
CONTINUOUS
10
7.45804
20
-7.29865
11
7.46367
21
-7.30146
0
LINE
8
RED2
6
CONTINUOUS
10
7.49179
20
-7.31552
11
7.53678
21
-7.31552
0
LINE
8
RED2
6
CONTINUOUS
10
7.59021
20
-7.33802
11
7.59021
21
-7.30709
0
LINE
8
RED2
6
CONTINUOUS
10
7.59021
20
-7.30709
11
7.5874
21
-7.30146
0
LINE
8
RED2
6
CONTINUOUS
10
7.5874
20
-7.30146
11
7.58178
21
-7.29865
0
LINE
8
RED2
6
CONTINUOUS
10
7.58178
20
-7.29865
11
7.57053
21
-7.29865
0
LINE
8
RED2
6
CONTINUOUS
10
7.57053
20
-7.29865
11
7.56491
21
-7.30146
0
LINE
8
RED2
6
CONTINUOUS
10
7.59021
20
-7.33521
11
7.58459
21
-7.33802
0
LINE
8
RED2
6
CONTINUOUS
10
7.58459
20
-7.33802
11
7.57053
21
-7.33802
0
LINE
8
RED2
6
CONTINUOUS
10
7.57053
20
-7.33802
11
7.56491
21
-7.33521
0
LINE
8
RED2
6
CONTINUOUS
10
7.56491
20
-7.33521
11
7.56209
21
-7.32958
0
LINE
8
RED2
6
CONTINUOUS
10
7.56209
20
-7.32958
11
7.56209
21
-7.32396
0
LINE
8
RED2
6
CONTINUOUS
10
7.56209
20
-7.32396
11
7.56491
21
-7.31833
0
LINE
8
RED2
6
CONTINUOUS
10
7.56491
20
-7.31833
11
7.57053
21
-7.31552
0
LINE
8
RED2
6
CONTINUOUS
10
7.57053
20
-7.31552
11
7.58459
21
-7.31552
0
LINE
8
RED2
6
CONTINUOUS
10
7.58459
20
-7.31552
11
7.59021
21
-7.31271
0
LINE
8
RED2
6
CONTINUOUS
10
7.64365
20
-7.29865
11
7.64365
21
-7.33802
0
LINE
8
RED2
6
CONTINUOUS
10
7.61833
20
-7.29865
11
7.61833
21
-7.32958
0
LINE
8
RED2
6
CONTINUOUS
10
7.61833
20
-7.32958
11
7.62115
21
-7.33521
0
LINE
8
RED2
6
CONTINUOUS
10
7.62115
20
-7.33521
11
7.62677
21
-7.33802
0
LINE
8
RED2
6
CONTINUOUS
10
7.62677
20
-7.33802
11
7.63521
21
-7.33802
0
LINE
8
RED2
6
CONTINUOUS
10
7.63521
20
-7.33802
11
7.64083
21
-7.33521
0
LINE
8
RED2
6
CONTINUOUS
10
7.64083
20
-7.33521
11
7.64365
21
-7.3324
0
LINE
8
RED2
6
CONTINUOUS
10
7.66333
20
-7.29865
11
7.68583
21
-7.29865
0
LINE
8
RED2
6
CONTINUOUS
10
7.67177
20
-7.27896
11
7.67177
21
-7.32958
0
LINE
8
RED2
6
CONTINUOUS
10
7.67177
20
-7.32958
11
7.67458
21
-7.33521
0
LINE
8
RED2
6
CONTINUOUS
10
7.67458
20
-7.33521
11
7.6802
21
-7.33802
0
LINE
8
RED2
6
CONTINUOUS
10
7.6802
20
-7.33802
11
7.68583
21
-7.33802
0
LINE
8
RED2
6
CONTINUOUS
10
7.71395
20
-7.33802
11
7.70832
21
-7.33521
0
LINE
8
RED2
6
CONTINUOUS
10
7.70832
20
-7.33521
11
7.70551
21
-7.3324
0
LINE
8
RED2
6
CONTINUOUS
10
7.70551
20
-7.3324
11
7.7027
21
-7.32677
0
LINE
8
RED2
6
CONTINUOUS
10
7.7027
20
-7.32677
11
7.7027
21
-7.3099
0
LINE
8
RED2
6
CONTINUOUS
10
7.7027
20
-7.3099
11
7.70551
21
-7.30428
0
LINE
8
RED2
6
CONTINUOUS
10
7.70551
20
-7.30428
11
7.70832
21
-7.30146
0
LINE
8
RED2
6
CONTINUOUS
10
7.70832
20
-7.30146
11
7.71395
21
-7.29865
0
LINE
8
RED2
6
CONTINUOUS
10
7.71395
20
-7.29865
11
7.72239
21
-7.29865
0
LINE
8
RED2
6
CONTINUOUS
10
7.72239
20
-7.29865
11
7.72801
21
-7.30146
0
LINE
8
RED2
6
CONTINUOUS
10
7.72801
20
-7.30146
11
7.73082
21
-7.30428
0
LINE
8
RED2
6
CONTINUOUS
10
7.73082
20
-7.30428
11
7.73363
21
-7.3099
0
LINE
8
RED2
6
CONTINUOUS
10
7.73363
20
-7.3099
11
7.73363
21
-7.32677
0
LINE
8
RED2
6
CONTINUOUS
10
7.73363
20
-7.32677
11
7.73082
21
-7.3324
0
LINE
8
RED2
6
CONTINUOUS
10
7.73082
20
-7.3324
11
7.72801
21
-7.33521
0
LINE
8
RED2
6
CONTINUOUS
10
7.72801
20
-7.33521
11
7.72239
21
-7.33802
0
LINE
8
RED2
6
CONTINUOUS
10
7.72239
20
-7.33802
11
7.71395
21
-7.33802
0
LINE
8
RED2
6
CONTINUOUS
10
7.75894
20
-7.33802
11
7.75894
21
-7.29865
0
LINE
8
RED2
6
CONTINUOUS
10
7.75894
20
-7.30428
11
7.76176
21
-7.30146
0
LINE
8
RED2
6
CONTINUOUS
10
7.76176
20
-7.30146
11
7.76738
21
-7.29865
0
LINE
8
RED2
6
CONTINUOUS
10
7.76738
20
-7.29865
11
7.77581
21
-7.29865
0
LINE
8
RED2
6
CONTINUOUS
10
7.77581
20
-7.29865
11
7.78144
21
-7.30146
0
LINE
8
RED2
6
CONTINUOUS
10
7.78144
20
-7.30146
11
7.78425
21
-7.30709
0
LINE
8
RED2
6
CONTINUOUS
10
7.78425
20
-7.30709
11
7.78425
21
-7.33802
0
LINE
8
RED2
6
CONTINUOUS
10
7.78425
20
-7.30709
11
7.78706
21
-7.30146
0
LINE
8
RED2
6
CONTINUOUS
10
7.78706
20
-7.30146
11
7.79269
21
-7.29865
0
LINE
8
RED2
6
CONTINUOUS
10
7.79269
20
-7.29865
11
7.80113
21
-7.29865
0
LINE
8
RED2
6
CONTINUOUS
10
7.80113
20
-7.29865
11
7.80675
21
-7.30146
0
LINE
8
RED2
6
CONTINUOUS
10
7.80675
20
-7.30146
11
7.80956
21
-7.30709
0
LINE
8
RED2
6
CONTINUOUS
10
7.80956
20
-7.30709
11
7.80956
21
-7.33802
0
LINE
8
RED2
6
CONTINUOUS
10
7.86299
20
-7.33802
11
7.86299
21
-7.30709
0
LINE
8
RED2
6
CONTINUOUS
10
7.86299
20
-7.30709
11
7.86018
21
-7.30146
0
LINE
8
RED2
6
CONTINUOUS
10
7.86018
20
-7.30146
11
7.85456
21
-7.29865
0
LINE
8
RED2
6
CONTINUOUS
10
7.85456
20
-7.29865
11
7.84331
21
-7.29865
0
LINE
8
RED2
6
CONTINUOUS
10
7.84331
20
-7.29865
11
7.83769
21
-7.30146
0
LINE
8
RED2
6
CONTINUOUS
10
7.86299
20
-7.33521
11
7.85737
21
-7.33802
0
LINE
8
RED2
6
CONTINUOUS
10
7.85737
20
-7.33802
11
7.84331
21
-7.33802
0
LINE
8
RED2
6
CONTINUOUS
10
7.84331
20
-7.33802
11
7.83769
21
-7.33521
0
LINE
8
RED2
6
CONTINUOUS
10
7.83769
20
-7.33521
11
7.83487
21
-7.32958
0
LINE
8
RED2
6
CONTINUOUS
10
7.83487
20
-7.32958
11
7.83487
21
-7.32396
0
LINE
8
RED2
6
CONTINUOUS
10
7.83487
20
-7.32396
11
7.83769
21
-7.31833
0
LINE
8
RED2
6
CONTINUOUS
10
7.83769
20
-7.31833
11
7.84331
21
-7.31552
0
LINE
8
RED2
6
CONTINUOUS
10
7.84331
20
-7.31552
11
7.85737
21
-7.31552
0
LINE
8
RED2
6
CONTINUOUS
10
7.85737
20
-7.31552
11
7.86299
21
-7.31271
0
LINE
8
RED2
6
CONTINUOUS
10
7.88268
20
-7.29865
11
7.90517
21
-7.29865
0
LINE
8
RED2
6
CONTINUOUS
10
7.89111
20
-7.27896
11
7.89111
21
-7.32958
0
LINE
8
RED2
6
CONTINUOUS
10
7.89111
20
-7.32958
11
7.89393
21
-7.33521
0
LINE
8
RED2
6
CONTINUOUS
10
7.89393
20
-7.33521
11
7.89955
21
-7.33802
0
LINE
8
RED2
6
CONTINUOUS
10
7.89955
20
-7.33802
11
7.90517
21
-7.33802
0
LINE
8
RED2
6
CONTINUOUS
10
7.92486
20
-7.33802
11
7.92486
21
-7.29865
0
LINE
8
RED2
6
CONTINUOUS
10
7.92486
20
-7.27896
11
7.92205
21
-7.28178
0
LINE
8
RED2
6
CONTINUOUS
10
7.92205
20
-7.28178
11
7.92486
21
-7.28459
0
LINE
8
RED2
6
CONTINUOUS
10
7.92486
20
-7.28459
11
7.92767
21
-7.28178
0
LINE
8
RED2
6
CONTINUOUS
10
7.92767
20
-7.28178
11
7.92486
21
-7.27896
0
LINE
8
RED2
6
CONTINUOUS
10
7.92486
20
-7.27896
11
7.92486
21
-7.28459
0
LINE
8
RED2
6
CONTINUOUS
10
7.96142
20
-7.33802
11
7.9558
21
-7.33521
0
LINE
8
RED2
6
CONTINUOUS
10
7.9558
20
-7.33521
11
7.95298
21
-7.3324
0
LINE
8
RED2
6
CONTINUOUS
10
7.95298
20
-7.3324
11
7.95017
21
-7.32677
0
LINE
8
RED2
6
CONTINUOUS
10
7.95017
20
-7.32677
11
7.95017
21
-7.3099
0
LINE
8
RED2
6
CONTINUOUS
10
7.95017
20
-7.3099
11
7.95298
21
-7.30428
0
LINE
8
RED2
6
CONTINUOUS
10
7.95298
20
-7.30428
11
7.9558
21
-7.30146
0
LINE
8
RED2
6
CONTINUOUS
10
7.9558
20
-7.30146
11
7.96142
21
-7.29865
0
LINE
8
RED2
6
CONTINUOUS
10
7.96142
20
-7.29865
11
7.96985
21
-7.29865
0
LINE
8
RED2
6
CONTINUOUS
10
7.96985
20
-7.29865
11
7.97548
21
-7.30146
0
LINE
8
RED2
6
CONTINUOUS
10
7.97548
20
-7.30146
11
7.97829
21
-7.30428
0
LINE
8
RED2
6
CONTINUOUS
10
7.97829
20
-7.30428
11
7.9811
21
-7.3099
0
LINE
8
RED2
6
CONTINUOUS
10
7.9811
20
-7.3099
11
7.9811
21
-7.32677
0
LINE
8
RED2
6
CONTINUOUS
10
7.9811
20
-7.32677
11
7.97829
21
-7.3324
0
LINE
8
RED2
6
CONTINUOUS
10
7.97829
20
-7.3324
11
7.97548
21
-7.33521
0
LINE
8
RED2
6
CONTINUOUS
10
7.97548
20
-7.33521
11
7.96985
21
-7.33802
0
LINE
8
RED2
6
CONTINUOUS
10
7.96985
20
-7.33802
11
7.96142
21
-7.33802
0
LINE
8
RED2
6
CONTINUOUS
10
8.00641
20
-7.29865
11
8.00641
21
-7.33802
0
LINE
8
RED2
6
CONTINUOUS
10
8.00641
20
-7.30428
11
8.00922
21
-7.30146
0
LINE
8
RED2
6
CONTINUOUS
10
8.00922
20
-7.30146
11
8.01485
21
-7.29865
0
LINE
8
RED2
6
CONTINUOUS
10
8.01485
20
-7.29865
11
8.02328
21
-7.29865
0
LINE
8
RED2
6
CONTINUOUS
10
8.02328
20
-7.29865
11
8.02891
21
-7.30146
0
LINE
8
RED2
6
CONTINUOUS
10
8.02891
20
-7.30146
11
8.03172
21
-7.30709
0
LINE
8
RED2
6
CONTINUOUS
10
8.03172
20
-7.30709
11
8.03172
21
-7.33802
0
LINE
8
RED2
6
CONTINUOUS
10
8.05984
20
-7.31552
11
8.10484
21
-7.31552
0
LINE
8
RED2
6
CONTINUOUS
10
8.12452
20
-7.29865
11
8.14702
21
-7.29865
0
LINE
8
RED2
6
CONTINUOUS
10
8.13296
20
-7.27896
11
8.13296
21
-7.32958
0
LINE
8
RED2
6
CONTINUOUS
10
8.13296
20
-7.32958
11
8.13577
21
-7.33521
0
LINE
8
RED2
6
CONTINUOUS
10
8.13577
20
-7.33521
11
8.14139
21
-7.33802
0
LINE
8
RED2
6
CONTINUOUS
10
8.14139
20
-7.33802
11
8.14702
21
-7.33802
0
LINE
8
RED2
6
CONTINUOUS
10
8.1892
20
-7.33521
11
8.18358
21
-7.33802
0
LINE
8
RED2
6
CONTINUOUS
10
8.18358
20
-7.33802
11
8.17233
21
-7.33802
0
LINE
8
RED2
6
CONTINUOUS
10
8.17233
20
-7.33802
11
8.1667
21
-7.33521
0
LINE
8
RED2
6
CONTINUOUS
10
8.1667
20
-7.33521
11
8.16389
21
-7.32958
0
LINE
8
RED2
6
CONTINUOUS
10
8.16389
20
-7.32958
11
8.16389
21
-7.30709
0
LINE
8
RED2
6
CONTINUOUS
10
8.16389
20
-7.30709
11
8.1667
21
-7.30146
0
LINE
8
RED2
6
CONTINUOUS
10
8.1667
20
-7.30146
11
8.17233
21
-7.29865
0
LINE
8
RED2
6
CONTINUOUS
10
8.17233
20
-7.29865
11
8.18358
21
-7.29865
0
LINE
8
RED2
6
CONTINUOUS
10
8.18358
20
-7.29865
11
8.1892
21
-7.30146
0
LINE
8
RED2
6
CONTINUOUS
10
8.1892
20
-7.30146
11
8.19202
21
-7.30709
0
LINE
8
RED2
6
CONTINUOUS
10
8.19202
20
-7.30709
11
8.19202
21
-7.31271
0
LINE
8
RED2
6
CONTINUOUS
10
8.19202
20
-7.31271
11
8.16389
21
-7.31833
0
LINE
8
RED2
6
CONTINUOUS
10
8.21451
20
-7.33521
11
8.22013
21
-7.33802
0
LINE
8
RED2
6
CONTINUOUS
10
8.22013
20
-7.33802
11
8.23139
21
-7.33802
0
LINE
8
RED2
6
CONTINUOUS
10
8.23139
20
-7.33802
11
8.23701
21
-7.33521
0
LINE
8
RED2
6
CONTINUOUS
10
8.23701
20
-7.33521
11
8.23982
21
-7.32958
0
LINE
8
RED2
6
CONTINUOUS
10
8.23982
20
-7.32958
11
8.23982
21
-7.32677
0
LINE
8
RED2
6
CONTINUOUS
10
8.23982
20
-7.32677
11
8.23701
21
-7.32115
0
LINE
8
RED2
6
CONTINUOUS
10
8.23701
20
-7.32115
11
8.23139
21
-7.31833
0
LINE
8
RED2
6
CONTINUOUS
10
8.23139
20
-7.31833
11
8.22295
21
-7.31833
0
LINE
8
RED2
6
CONTINUOUS
10
8.22295
20
-7.31833
11
8.21732
21
-7.31552
0
LINE
8
RED2
6
CONTINUOUS
10
8.21732
20
-7.31552
11
8.21451
21
-7.3099
0
LINE
8
RED2
6
CONTINUOUS
10
8.21451
20
-7.3099
11
8.21451
21
-7.30709
0
LINE
8
RED2
6
CONTINUOUS
10
8.21451
20
-7.30709
11
8.21732
21
-7.30146
0
LINE
8
RED2
6
CONTINUOUS
10
8.21732
20
-7.30146
11
8.22295
21
-7.29865
0
LINE
8
RED2
6
CONTINUOUS
10
8.22295
20
-7.29865
11
8.23139
21
-7.29865
0
LINE
8
RED2
6
CONTINUOUS
10
8.23139
20
-7.29865
11
8.23701
21
-7.30146
0
LINE
8
RED2
6
CONTINUOUS
10
8.25669
20
-7.29865
11
8.27919
21
-7.29865
0
LINE
8
RED2
6
CONTINUOUS
10
8.26513
20
-7.27896
11
8.26513
21
-7.32958
0
LINE
8
RED2
6
CONTINUOUS
10
8.26513
20
-7.32958
11
8.26794
21
-7.33521
0
LINE
8
RED2
6
CONTINUOUS
10
8.26794
20
-7.33521
11
8.27357
21
-7.33802
0
LINE
8
RED2
6
CONTINUOUS
10
8.27357
20
-7.33802
11
8.27919
21
-7.33802
0
LINE
8
RED2
6
CONTINUOUS
10
8.29887
20
-7.3324
11
8.30169
21
-7.33521
0
LINE
8
RED2
6
CONTINUOUS
10
8.30169
20
-7.33521
11
8.29887
21
-7.33802
0
LINE
8
RED2
6
CONTINUOUS
10
8.29887
20
-7.33802
11
8.29606
21
-7.33521
0
LINE
8
RED2
6
CONTINUOUS
10
8.29606
20
-7.33521
11
8.29887
21
-7.3324
0
LINE
8
RED2
6
CONTINUOUS
10
8.29887
20
-7.3324
11
8.29887
21
-7.33802
0
LINE
8
RED2
6
CONTINUOUS
10
8.327
20
-7.33802
11
8.327
21
-7.27896
0
LINE
8
RED2
6
CONTINUOUS
10
8.33262
20
-7.31552
11
8.3495
21
-7.33802
0
LINE
8
RED2
6
CONTINUOUS
10
8.3495
20
-7.29865
11
8.327
21
-7.32115
0
LINE
8
RED2
6
CONTINUOUS
10
8.3748
20
-7.33802
11
8.3748
21
-7.29865
0
LINE
8
RED2
6
CONTINUOUS
10
8.3748
20
-7.27896
11
8.37199
21
-7.28178
0
LINE
8
RED2
6
CONTINUOUS
10
8.37199
20
-7.28178
11
8.3748
21
-7.28459
0
LINE
8
RED2
6
CONTINUOUS
10
8.3748
20
-7.28459
11
8.37761
21
-7.28178
0
LINE
8
RED2
6
CONTINUOUS
10
8.37761
20
-7.28178
11
8.3748
21
-7.27896
0
LINE
8
RED2
6
CONTINUOUS
10
8.3748
20
-7.27896
11
8.3748
21
-7.28459
0
LINE
8
RED2
6
CONTINUOUS
10
8.42824
20
-7.33521
11
8.42261
21
-7.33802
0
LINE
8
RED2
6
CONTINUOUS
10
8.42261
20
-7.33802
11
8.41136
21
-7.33802
0
LINE
8
RED2
6
CONTINUOUS
10
8.41136
20
-7.33802
11
8.40574
21
-7.33521
0
LINE
8
RED2
6
CONTINUOUS
10
8.40574
20
-7.33521
11
8.40293
21
-7.3324
0
LINE
8
RED2
6
CONTINUOUS
10
8.40293
20
-7.3324
11
8.40011
21
-7.32677
0
LINE
8
RED2
6
CONTINUOUS
10
8.40011
20
-7.32677
11
8.40011
21
-7.3099
0
LINE
8
RED2
6
CONTINUOUS
10
8.40011
20
-7.3099
11
8.40293
21
-7.30428
0
LINE
8
RED2
6
CONTINUOUS
10
8.40293
20
-7.30428
11
8.40574
21
-7.30146
0
LINE
8
RED2
6
CONTINUOUS
10
8.40574
20
-7.30146
11
8.41136
21
-7.29865
0
LINE
8
RED2
6
CONTINUOUS
10
8.41136
20
-7.29865
11
8.42261
21
-7.29865
0
LINE
8
RED2
6
CONTINUOUS
10
8.42261
20
-7.29865
11
8.42824
21
-7.30146
0
LINE
8
RED2
6
CONTINUOUS
10
8.47885
20
-7.33802
11
8.47885
21
-7.30709
0
LINE
8
RED2
6
CONTINUOUS
10
8.47885
20
-7.30709
11
8.47604
21
-7.30146
0
LINE
8
RED2
6
CONTINUOUS
10
8.47604
20
-7.30146
11
8.47042
21
-7.29865
0
LINE
8
RED2
6
CONTINUOUS
10
8.47042
20
-7.29865
11
8.45917
21
-7.29865
0
LINE
8
RED2
6
CONTINUOUS
10
8.45917
20
-7.29865
11
8.45354
21
-7.30146
0
LINE
8
RED2
6
CONTINUOUS
10
8.47885
20
-7.33521
11
8.47323
21
-7.33802
0
LINE
8
RED2
6
CONTINUOUS
10
8.47323
20
-7.33802
11
8.45917
21
-7.33802
0
LINE
8
RED2
6
CONTINUOUS
10
8.45917
20
-7.33802
11
8.45354
21
-7.33521
0
LINE
8
RED2
6
CONTINUOUS
10
8.45354
20
-7.33521
11
8.45073
21
-7.32958
0
LINE
8
RED2
6
CONTINUOUS
10
8.45073
20
-7.32958
11
8.45073
21
-7.32396
0
LINE
8
RED2
6
CONTINUOUS
10
8.45073
20
-7.32396
11
8.45354
21
-7.31833
0
LINE
8
RED2
6
CONTINUOUS
10
8.45354
20
-7.31833
11
8.45917
21
-7.31552
0
LINE
8
RED2
6
CONTINUOUS
10
8.45917
20
-7.31552
11
8.47323
21
-7.31552
0
LINE
8
RED2
6
CONTINUOUS
10
8.47323
20
-7.31552
11
8.47885
21
-7.31271
0
LINE
8
RED2
6
CONTINUOUS
10
8.53228
20
-7.33802
11
8.53228
21
-7.27896
0
LINE
8
RED2
6
CONTINUOUS
10
8.53228
20
-7.33521
11
8.52666
21
-7.33802
0
LINE
8
RED2
6
CONTINUOUS
10
8.52666
20
-7.33802
11
8.51541
21
-7.33802
0
LINE
8
RED2
6
CONTINUOUS
10
8.51541
20
-7.33802
11
8.50979
21
-7.33521
0
LINE
8
RED2
6
CONTINUOUS
10
8.50979
20
-7.33521
11
8.50698
21
-7.3324
0
LINE
8
RED2
6
CONTINUOUS
10
8.50698
20
-7.3324
11
8.50416
21
-7.32677
0
LINE
8
RED2
6
CONTINUOUS
10
8.50416
20
-7.32677
11
8.50416
21
-7.3099
0
LINE
8
RED2
6
CONTINUOUS
10
8.50416
20
-7.3099
11
8.50698
21
-7.30428
0
LINE
8
RED2
6
CONTINUOUS
10
8.50698
20
-7.30428
11
8.50979
21
-7.30146
0
LINE
8
RED2
6
CONTINUOUS
10
8.50979
20
-7.30146
11
8.51541
21
-7.29865
0
LINE
8
RED2
6
CONTINUOUS
10
8.51541
20
-7.29865
11
8.52666
21
-7.29865
0
LINE
8
RED2
6
CONTINUOUS
10
8.52666
20
-7.29865
11
8.53228
21
-7.30146
0
LINE
8
RED2
6
CONTINUOUS
10
8.54635
20
-7.34365
11
8.59134
21
-7.34365
0
LINE
8
RED2
6
CONTINUOUS
10
8.60259
20
-7.33521
11
8.60821
21
-7.33802
0
LINE
8
RED2
6
CONTINUOUS
10
8.60821
20
-7.33802
11
8.61946
21
-7.33802
0
LINE
8
RED2
6
CONTINUOUS
10
8.61946
20
-7.33802
11
8.62509
21
-7.33521
0
LINE
8
RED2
6
CONTINUOUS
10
8.62509
20
-7.33521
11
8.6279
21
-7.32958
0
LINE
8
RED2
6
CONTINUOUS
10
8.6279
20
-7.32958
11
8.6279
21
-7.32677
0
LINE
8
RED2
6
CONTINUOUS
10
8.6279
20
-7.32677
11
8.62509
21
-7.32115
0
LINE
8
RED2
6
CONTINUOUS
10
8.62509
20
-7.32115
11
8.61946
21
-7.31833
0
LINE
8
RED2
6
CONTINUOUS
10
8.61946
20
-7.31833
11
8.61102
21
-7.31833
0
LINE
8
RED2
6
CONTINUOUS
10
8.61102
20
-7.31833
11
8.6054
21
-7.31552
0
LINE
8
RED2
6
CONTINUOUS
10
8.6054
20
-7.31552
11
8.60259
21
-7.3099
0
LINE
8
RED2
6
CONTINUOUS
10
8.60259
20
-7.3099
11
8.60259
21
-7.30709
0
LINE
8
RED2
6
CONTINUOUS
10
8.60259
20
-7.30709
11
8.6054
21
-7.30146
0
LINE
8
RED2
6
CONTINUOUS
10
8.6054
20
-7.30146
11
8.61102
21
-7.29865
0
LINE
8
RED2
6
CONTINUOUS
10
8.61102
20
-7.29865
11
8.61946
21
-7.29865
0
LINE
8
RED2
6
CONTINUOUS
10
8.61946
20
-7.29865
11
8.62509
21
-7.30146
0
LINE
8
RED2
6
CONTINUOUS
10
8.67852
20
-7.33521
11
8.67289
21
-7.33802
0
LINE
8
RED2
6
CONTINUOUS
10
8.67289
20
-7.33802
11
8.66164
21
-7.33802
0
LINE
8
RED2
6
CONTINUOUS
10
8.66164
20
-7.33802
11
8.65602
21
-7.33521
0
LINE
8
RED2
6
CONTINUOUS
10
8.65602
20
-7.33521
11
8.6532
21
-7.3324
0
LINE
8
RED2
6
CONTINUOUS
10
8.6532
20
-7.3324
11
8.65039
21
-7.32677
0
LINE
8
RED2
6
CONTINUOUS
10
8.65039
20
-7.32677
11
8.65039
21
-7.3099
0
LINE
8
RED2
6
CONTINUOUS
10
8.65039
20
-7.3099
11
8.6532
21
-7.30428
0
LINE
8
RED2
6
CONTINUOUS
10
8.6532
20
-7.30428
11
8.65602
21
-7.30146
0
LINE
8
RED2
6
CONTINUOUS
10
8.65602
20
-7.30146
11
8.66164
21
-7.29865
0
LINE
8
RED2
6
CONTINUOUS
10
8.66164
20
-7.29865
11
8.67289
21
-7.29865
0
LINE
8
RED2
6
CONTINUOUS
10
8.67289
20
-7.29865
11
8.67852
21
-7.30146
0
LINE
8
RED2
6
CONTINUOUS
10
8.70383
20
-7.33802
11
8.70383
21
-7.27896
0
LINE
8
RED2
6
CONTINUOUS
10
8.72913
20
-7.33802
11
8.72913
21
-7.30709
0
LINE
8
RED2
6
CONTINUOUS
10
8.72913
20
-7.30709
11
8.72632
21
-7.30146
0
LINE
8
RED2
6
CONTINUOUS
10
8.72632
20
-7.30146
11
8.7207
21
-7.29865
0
LINE
8
RED2
6
CONTINUOUS
10
8.7207
20
-7.29865
11
8.71226
21
-7.29865
0
LINE
8
RED2
6
CONTINUOUS
10
8.71226
20
-7.29865
11
8.70664
21
-7.30146
0
LINE
8
RED2
6
CONTINUOUS
10
8.70664
20
-7.30146
11
8.70383
21
-7.30428
0
LINE
8
RED2
6
CONTINUOUS
10
6.96859
20
-7.14595
11
11.2206
21
-7.14595
0
LINE
8
RED2
6
CONTINUOUS
10
7.02216
20
-7.22891
11
7.0306
21
-7.23172
0
LINE
8
RED2
6
CONTINUOUS
10
7.0306
20
-7.23172
11
7.04466
21
-7.23172
0
LINE
8
RED2
6
CONTINUOUS
10
7.04466
20
-7.23172
11
7.05028
21
-7.22891
0
LINE
8
RED2
6
CONTINUOUS
10
7.05028
20
-7.22891
11
7.05309
21
-7.2261
0
LINE
8
RED2
6
CONTINUOUS
10
7.05309
20
-7.2261
11
7.05591
21
-7.22047
0
LINE
8
RED2
6
CONTINUOUS
10
7.05591
20
-7.22047
11
7.05591
21
-7.21485
0
LINE
8
RED2
6
CONTINUOUS
10
7.05591
20
-7.21485
11
7.05309
21
-7.20922
0
LINE
8
RED2
6
CONTINUOUS
10
7.05309
20
-7.20922
11
7.05028
21
-7.20641
0
LINE
8
RED2
6
CONTINUOUS
10
7.05028
20
-7.20641
11
7.04466
21
-7.2036
0
LINE
8
RED2
6
CONTINUOUS
10
7.04466
20
-7.2036
11
7.03341
21
-7.20079
0
LINE
8
RED2
6
CONTINUOUS
10
7.03341
20
-7.20079
11
7.02778
21
-7.19798
0
LINE
8
RED2
6
CONTINUOUS
10
7.02778
20
-7.19798
11
7.02497
21
-7.19517
0
LINE
8
RED2
6
CONTINUOUS
10
7.02497
20
-7.19517
11
7.02216
21
-7.18954
0
LINE
8
RED2
6
CONTINUOUS
10
7.02216
20
-7.18954
11
7.02216
21
-7.18391
0
LINE
8
RED2
6
CONTINUOUS
10
7.02216
20
-7.18391
11
7.02497
21
-7.17829
0
LINE
8
RED2
6
CONTINUOUS
10
7.02497
20
-7.17829
11
7.02778
21
-7.17548
0
LINE
8
RED2
6
CONTINUOUS
10
7.02778
20
-7.17548
11
7.03341
21
-7.17267
0
LINE
8
RED2
6
CONTINUOUS
10
7.03341
20
-7.17267
11
7.04747
21
-7.17267
0
LINE
8
RED2
6
CONTINUOUS
10
7.04747
20
-7.17267
11
7.05591
21
-7.17548
0
LINE
8
RED2
6
CONTINUOUS
10
7.08122
20
-7.23172
11
7.08122
21
-7.17267
0
LINE
8
RED2
6
CONTINUOUS
10
7.10652
20
-7.23172
11
7.10652
21
-7.20079
0
LINE
8
RED2
6
CONTINUOUS
10
7.10652
20
-7.20079
11
7.10371
21
-7.19517
0
LINE
8
RED2
6
CONTINUOUS
10
7.10371
20
-7.19517
11
7.09809
21
-7.19235
0
LINE
8
RED2
6
CONTINUOUS
10
7.09809
20
-7.19235
11
7.08965
21
-7.19235
0
LINE
8
RED2
6
CONTINUOUS
10
7.08965
20
-7.19235
11
7.08403
21
-7.19517
0
LINE
8
RED2
6
CONTINUOUS
10
7.08403
20
-7.19517
11
7.08122
21
-7.19798
0
LINE
8
RED2
6
CONTINUOUS
10
7.15714
20
-7.22891
11
7.15152
21
-7.23172
0
LINE
8
RED2
6
CONTINUOUS
10
7.15152
20
-7.23172
11
7.14027
21
-7.23172
0
LINE
8
RED2
6
CONTINUOUS
10
7.14027
20
-7.23172
11
7.13465
21
-7.22891
0
LINE
8
RED2
6
CONTINUOUS
10
7.13465
20
-7.22891
11
7.13183
21
-7.22328
0
LINE
8
RED2
6
CONTINUOUS
10
7.13183
20
-7.22328
11
7.13183
21
-7.20079
0
LINE
8
RED2
6
CONTINUOUS
10
7.13183
20
-7.20079
11
7.13465
21
-7.19517
0
LINE
8
RED2
6
CONTINUOUS
10
7.13465
20
-7.19517
11
7.14027
21
-7.19235
0
LINE
8
RED2
6
CONTINUOUS
10
7.14027
20
-7.19235
11
7.15152
21
-7.19235
0
LINE
8
RED2
6
CONTINUOUS
10
7.15152
20
-7.19235
11
7.15714
21
-7.19517
0
LINE
8
RED2
6
CONTINUOUS
10
7.15714
20
-7.19517
11
7.15996
21
-7.20079
0
LINE
8
RED2
6
CONTINUOUS
10
7.15996
20
-7.20079
11
7.15996
21
-7.20641
0
LINE
8
RED2
6
CONTINUOUS
10
7.15996
20
-7.20641
11
7.13183
21
-7.21204
0
LINE
8
RED2
6
CONTINUOUS
10
7.20776
20
-7.22891
11
7.20214
21
-7.23172
0
LINE
8
RED2
6
CONTINUOUS
10
7.20214
20
-7.23172
11
7.19089
21
-7.23172
0
LINE
8
RED2
6
CONTINUOUS
10
7.19089
20
-7.23172
11
7.18526
21
-7.22891
0
LINE
8
RED2
6
CONTINUOUS
10
7.18526
20
-7.22891
11
7.18245
21
-7.22328
0
LINE
8
RED2
6
CONTINUOUS
10
7.18245
20
-7.22328
11
7.18245
21
-7.20079
0
LINE
8
RED2
6
CONTINUOUS
10
7.18245
20
-7.20079
11
7.18526
21
-7.19517
0
LINE
8
RED2
6
CONTINUOUS
10
7.18526
20
-7.19517
11
7.19089
21
-7.19235
0
LINE
8
RED2
6
CONTINUOUS
10
7.19089
20
-7.19235
11
7.20214
21
-7.19235
0
LINE
8
RED2
6
CONTINUOUS
10
7.20214
20
-7.19235
11
7.20776
21
-7.19517
0
LINE
8
RED2
6
CONTINUOUS
10
7.20776
20
-7.19517
11
7.21057
21
-7.20079
0
LINE
8
RED2
6
CONTINUOUS
10
7.21057
20
-7.20079
11
7.21057
21
-7.20641
0
LINE
8
RED2
6
CONTINUOUS
10
7.21057
20
-7.20641
11
7.18245
21
-7.21204
0
LINE
8
RED2
6
CONTINUOUS
10
7.22745
20
-7.19235
11
7.24994
21
-7.19235
0
LINE
8
RED2
6
CONTINUOUS
10
7.23588
20
-7.17267
11
7.23588
21
-7.22328
0
LINE
8
RED2
6
CONTINUOUS
10
7.23588
20
-7.22328
11
7.2387
21
-7.22891
0
LINE
8
RED2
6
CONTINUOUS
10
7.2387
20
-7.22891
11
7.24432
21
-7.23172
0
LINE
8
RED2
6
CONTINUOUS
10
7.24432
20
-7.23172
11
7.24994
21
-7.23172
0
LINE
8
RED2
6
CONTINUOUS
10
7.26963
20
-7.2261
11
7.27244
21
-7.22891
0
LINE
8
RED2
6
CONTINUOUS
10
7.27244
20
-7.22891
11
7.26963
21
-7.23172
0
LINE
8
RED2
6
CONTINUOUS
10
7.26963
20
-7.23172
11
7.26682
21
-7.22891
0
LINE
8
RED2
6
CONTINUOUS
10
7.26682
20
-7.22891
11
7.26963
21
-7.2261
0
LINE
8
RED2
6
CONTINUOUS
10
7.26963
20
-7.2261
11
7.26963
21
-7.23172
0
LINE
8
RED2
6
CONTINUOUS
10
7.26963
20
-7.19517
11
7.27244
21
-7.19798
0
LINE
8
RED2
6
CONTINUOUS
10
7.27244
20
-7.19798
11
7.26963
21
-7.20079
0
LINE
8
RED2
6
CONTINUOUS
10
7.26963
20
-7.20079
11
7.26682
21
-7.19798
0
LINE
8
RED2
6
CONTINUOUS
10
7.26682
20
-7.19798
11
7.26963
21
-7.19517
0
LINE
8
RED2
6
CONTINUOUS
10
7.26963
20
-7.19517
11
7.26963
21
-7.20079
0
LINE
8
RED2
6
CONTINUOUS
10
7.38493
20
-7.16985
11
7.33431
21
-7.24578
0
LINE
8
RED2
6
CONTINUOUS
10
7.75599
20
-7.53965
11
7.75599
21
-7.65776
0
LINE
8
RED2
6
CONTINUOUS
10
10.2757
20
-7.53965
11
10.2757
21
-7.79556
0
LINE
8
RED2
6
CONTINUOUS
10
5.885
20
-3.375
11
5.885
21
-3.175
0
LINE
8
RED2
6
CONTINUOUS
10
5.885
20
-3.175
11
5.965
21
-3.175
0
LINE
8
RED2
6
CONTINUOUS
10
5.965
20
-3.175
11
5.965
21
-3.375
0
LINE
8
RED2
6
CONTINUOUS
10
5.965
20
-3.375
11
5.885
21
-3.375
0
LINE
8
RED2
6
CONTINUOUS
10
5.925
20
-3.175
11
5.925
21
-3.125
0
LINE
8
RED2
6
CONTINUOUS
10
5.925
20
-3.375
11
5.925
21
-3.425
0
LINE
8
CYAN2
6
CONTINUOUS
10
6.0386
20
-3.26475
11
6.02193
21
-3.24094
0
LINE
8
CYAN2
6
CONTINUOUS
10
6.01003
20
-3.26475
11
6.01003
21
-3.21475
0
LINE
8
CYAN2
6
CONTINUOUS
10
6.01003
20
-3.21475
11
6.02907
21
-3.21475
0
LINE
8
CYAN2
6
CONTINUOUS
10
6.02907
20
-3.21475
11
6.03383
21
-3.21713
0
LINE
8
CYAN2
6
CONTINUOUS
10
6.03383
20
-3.21713
11
6.03622
21
-3.21951
0
LINE
8
CYAN2
6
CONTINUOUS
10
6.03622
20
-3.21951
11
6.0386
21
-3.22428
0
LINE
8
CYAN2
6
CONTINUOUS
10
6.0386
20
-3.22428
11
6.0386
21
-3.23142
0
LINE
8
CYAN2
6
CONTINUOUS
10
6.0386
20
-3.23142
11
6.03622
21
-3.23618
0
LINE
8
CYAN2
6
CONTINUOUS
10
6.03622
20
-3.23618
11
6.03383
21
-3.23856
0
LINE
8
CYAN2
6
CONTINUOUS
10
6.03383
20
-3.23856
11
6.02907
21
-3.24094
0
LINE
8
CYAN2
6
CONTINUOUS
10
6.02907
20
-3.24094
11
6.01003
21
-3.24094
0
LINE
8
CYAN2
6
CONTINUOUS
10
6.08622
20
-3.26475
11
6.05765
21
-3.26475
0
LINE
8
CYAN2
6
CONTINUOUS
10
6.07193
20
-3.26475
11
6.07193
21
-3.21475
0
LINE
8
CYAN2
6
CONTINUOUS
10
6.07193
20
-3.21475
11
6.06717
21
-3.22189
0
LINE
8
CYAN2
6
CONTINUOUS
10
6.06717
20
-3.22189
11
6.06241
21
-3.22666
0
LINE
8
CYAN2
6
CONTINUOUS
10
6.06241
20
-3.22666
11
6.05765
21
-3.22904
0
LINE
8
CYAN2
6
CONTINUOUS
10
6.03622
20
-3.36463
11
6.00765
21
-3.36463
0
LINE
8
CYAN2
6
CONTINUOUS
10
6.02193
20
-3.36463
11
6.02193
21
-3.31463
0
LINE
8
CYAN2
6
CONTINUOUS
10
6.02193
20
-3.31463
11
6.01717
21
-3.32177
0
LINE
8
CYAN2
6
CONTINUOUS
10
6.01717
20
-3.32177
11
6.01241
21
-3.32654
0
LINE
8
CYAN2
6
CONTINUOUS
10
6.01241
20
-3.32654
11
6.00765
21
-3.32891
0
LINE
8
CYAN2
6
CONTINUOUS
10
6.05527
20
-3.31939
11
6.05765
21
-3.31701
0
LINE
8
CYAN2
6
CONTINUOUS
10
6.05765
20
-3.31701
11
6.06241
21
-3.31463
0
LINE
8
CYAN2
6
CONTINUOUS
10
6.06241
20
-3.31463
11
6.07431
21
-3.31463
0
LINE
8
CYAN2
6
CONTINUOUS
10
6.07431
20
-3.31463
11
6.07908
21
-3.31701
0
LINE
8
CYAN2
6
CONTINUOUS
10
6.07908
20
-3.31701
11
6.08146
21
-3.31939
0
LINE
8
CYAN2
6
CONTINUOUS
10
6.08146
20
-3.31939
11
6.08384
21
-3.32415
0
LINE
8
CYAN2
6
CONTINUOUS
10
6.08384
20
-3.32415
11
6.08384
21
-3.32891
0
LINE
8
CYAN2
6
CONTINUOUS
10
6.08384
20
-3.32891
11
6.08146
21
-3.33606
0
LINE
8
CYAN2
6
CONTINUOUS
10
6.08146
20
-3.33606
11
6.05289
21
-3.36463
0
LINE
8
CYAN2
6
CONTINUOUS
10
6.05289
20
-3.36463
11
6.08384
21
-3.36463
0
LINE
8
CYAN2
6
CONTINUOUS
10
6.11479
20
-3.31463
11
6.11956
21
-3.31463
0
LINE
8
CYAN2
6
CONTINUOUS
10
6.11956
20
-3.31463
11
6.12431
21
-3.31701
0
LINE
8
CYAN2
6
CONTINUOUS
10
6.12431
20
-3.31701
11
6.1267
21
-3.31939
0
LINE
8
CYAN2
6
CONTINUOUS
10
6.1267
20
-3.31939
11
6.12908
21
-3.32415
0
LINE
8
CYAN2
6
CONTINUOUS
10
6.12908
20
-3.32415
11
6.13146
21
-3.33368
0
LINE
8
CYAN2
6
CONTINUOUS
10
6.13146
20
-3.33368
11
6.13146
21
-3.34558
0
LINE
8
CYAN2
6
CONTINUOUS
10
6.13146
20
-3.34558
11
6.12908
21
-3.35511
0
LINE
8
CYAN2
6
CONTINUOUS
10
6.12908
20
-3.35511
11
6.1267
21
-3.35987
0
LINE
8
CYAN2
6
CONTINUOUS
10
6.1267
20
-3.35987
11
6.12431
21
-3.36225
0
LINE
8
CYAN2
6
CONTINUOUS
10
6.12431
20
-3.36225
11
6.11956
21
-3.36463
0
LINE
8
CYAN2
6
CONTINUOUS
10
6.11956
20
-3.36463
11
6.11479
21
-3.36463
0
LINE
8
CYAN2
6
CONTINUOUS
10
6.11479
20
-3.36463
11
6.11003
21
-3.36225
0
LINE
8
CYAN2
6
CONTINUOUS
10
6.11003
20
-3.36225
11
6.10765
21
-3.35987
0
LINE
8
CYAN2
6
CONTINUOUS
10
6.10765
20
-3.35987
11
6.10527
21
-3.35511
0
LINE
8
CYAN2
6
CONTINUOUS
10
6.10527
20
-3.35511
11
6.10289
21
-3.34558
0
LINE
8
CYAN2
6
CONTINUOUS
10
6.10289
20
-3.34558
11
6.10289
21
-3.33368
0
LINE
8
CYAN2
6
CONTINUOUS
10
6.10289
20
-3.33368
11
6.10527
21
-3.32415
0
LINE
8
CYAN2
6
CONTINUOUS
10
6.10527
20
-3.32415
11
6.10765
21
-3.31939
0
LINE
8
CYAN2
6
CONTINUOUS
10
6.10765
20
-3.31939
11
6.11003
21
-3.31701
0
LINE
8
CYAN2
6
CONTINUOUS
10
6.11003
20
-3.31701
11
6.11479
21
-3.31463
0
LINE
8
CYAN2
6
CONTINUOUS
10
6.18146
20
-3.36463
11
6.16479
21
-3.34082
0
LINE
8
CYAN2
6
CONTINUOUS
10
6.15289
20
-3.36463
11
6.15289
21
-3.31463
0
LINE
8
CYAN2
6
CONTINUOUS
10
6.15289
20
-3.31463
11
6.17193
21
-3.31463
0
LINE
8
CYAN2
6
CONTINUOUS
10
6.17193
20
-3.31463
11
6.1767
21
-3.31701
0
LINE
8
CYAN2
6
CONTINUOUS
10
6.1767
20
-3.31701
11
6.17908
21
-3.31939
0
LINE
8
CYAN2
6
CONTINUOUS
10
6.17908
20
-3.31939
11
6.18146
21
-3.32415
0
LINE
8
CYAN2
6
CONTINUOUS
10
6.18146
20
-3.32415
11
6.18146
21
-3.3313
0
LINE
8
CYAN2
6
CONTINUOUS
10
6.18146
20
-3.3313
11
6.17908
21
-3.33606
0
LINE
8
CYAN2
6
CONTINUOUS
10
6.17908
20
-3.33606
11
6.1767
21
-3.33844
0
LINE
8
CYAN2
6
CONTINUOUS
10
6.1767
20
-3.33844
11
6.17193
21
-3.34082
0
LINE
8
CYAN2
6
CONTINUOUS
10
6.17193
20
-3.34082
11
6.15289
21
-3.34082
0
LINE
8
LYELLOW
6
CONTINUOUS
10
5.2
20
-3.325
11
5.2
21
-3.525
0
LINE
8
LYELLOW
6
CONTINUOUS
10
5.2
20
-3.525
11
5.1
21
-3.525
0
LINE
8
LYELLOW
6
CONTINUOUS
10
5.1
20
-3.525
11
5.1
21
-3.325
0
LINE
8
LYELLOW
6
CONTINUOUS
10
5.1
20
-3.325
11
5.2
21
-3.325
0
LINE
8
RED2
6
CONTINUOUS
10
5.2
20
-3.325
11
5.2
21
-3.525
0
LINE
8
RED2
6
CONTINUOUS
10
5.2
20
-3.525
11
5.1
21
-3.525
0
LINE
8
RED2
6
CONTINUOUS
10
5.1
20
-3.525
11
5.1
21
-3.325
0
LINE
8
RED2
6
CONTINUOUS
10
5.1
20
-3.325
11
5.2
21
-3.325
0
LINE
8
RED2
6
CONTINUOUS
10
5.2
20
-3.325
11
5.2
21
-3.525
0
LINE
8
RED2
6
CONTINUOUS
10
5.2
20
-3.525
11
5.1
21
-3.525
0
LINE
8
RED2
6
CONTINUOUS
10
5.1
20
-3.525
11
5.1
21
-3.325
0
LINE
8
RED2
6
CONTINUOUS
10
5.1
20
-3.325
11
5.2
21
-3.325
0
CIRCLE
8
RED2
10
5.15
20
-3.475
40
0.025
0
LINE
8
RED2
6
CONTINUOUS
10
5.171
20
-3.462
11
5.137
21
-3.495
0
LINE
8
RED2
6
CONTINUOUS
10
5.171
20
-3.362
11
5.137
21
-3.395
0
LINE
8
RED2
6
CONTINUOUS
10
5.164
20
-3.455
11
5.13
21
-3.488
0
LINE
8
RED2
6
CONTINUOUS
10
5.164
20
-3.355
11
5.13
21
-3.388
0
CIRCLE
8
RED2
10
5.15
20
-3.375
40
0.025
0
LINE
8
RED2
6
CONTINUOUS
10
5.2
20
-3.375
11
5.35
21
-3.375
0
LINE
8
RED3
6
CONTINUOUS
10
5.28928
20
-3.36862
11
5.26071
21
-3.36862
0
LINE
8
RED3
6
CONTINUOUS
10
5.275
20
-3.36862
11
5.275
21
-3.31862
0
LINE
8
RED3
6
CONTINUOUS
10
5.275
20
-3.31862
11
5.27024
21
-3.32576
0
LINE
8
RED3
6
CONTINUOUS
10
5.27024
20
-3.32576
11
5.26547
21
-3.33052
0
LINE
8
RED3
6
CONTINUOUS
10
5.26547
20
-3.33052
11
5.26071
21
-3.3329
0
LINE
8
RED2
6
CONTINUOUS
10
5.2
20
-3.475
11
5.35
21
-3.475
0
LINE
8
RED3
6
CONTINUOUS
10
5.26071
20
-3.42338
11
5.26309
21
-3.421
0
LINE
8
RED3
6
CONTINUOUS
10
5.26309
20
-3.421
11
5.26785
21
-3.41862
0
LINE
8
RED3
6
CONTINUOUS
10
5.26785
20
-3.41862
11
5.27976
21
-3.41862
0
LINE
8
RED3
6
CONTINUOUS
10
5.27976
20
-3.41862
11
5.28452
21
-3.421
0
LINE
8
RED3
6
CONTINUOUS
10
5.28452
20
-3.421
11
5.2869
21
-3.42338
0
LINE
8
RED3
6
CONTINUOUS
10
5.2869
20
-3.42338
11
5.28928
21
-3.42814
0
LINE
8
RED3
6
CONTINUOUS
10
5.28928
20
-3.42814
11
5.28928
21
-3.4329
0
LINE
8
RED3
6
CONTINUOUS
10
5.28928
20
-3.4329
11
5.2869
21
-3.44005
0
LINE
8
RED3
6
CONTINUOUS
10
5.2869
20
-3.44005
11
5.25833
21
-3.46862
0
LINE
8
RED3
6
CONTINUOUS
10
5.25833
20
-3.46862
11
5.28928
21
-3.46862
0
LINE
8
CYAN2
6
CONTINUOUS
10
5.13333
20
-3.15195
11
5.13333
21
-3.18767
0
LINE
8
CYAN2
6
CONTINUOUS
10
5.13333
20
-3.18767
11
5.13094
21
-3.19481
0
LINE
8
CYAN2
6
CONTINUOUS
10
5.13094
20
-3.19481
11
5.12619
21
-3.19957
0
LINE
8
CYAN2
6
CONTINUOUS
10
5.12619
20
-3.19957
11
5.11904
21
-3.20195
0
LINE
8
CYAN2
6
CONTINUOUS
10
5.11904
20
-3.20195
11
5.11428
21
-3.20195
0
LINE
8
CYAN2
6
CONTINUOUS
10
5.18333
20
-3.20195
11
5.15476
21
-3.20195
0
LINE
8
CYAN2
6
CONTINUOUS
10
5.16904
20
-3.20195
11
5.16904
21
-3.15195
0
LINE
8
CYAN2
6
CONTINUOUS
10
5.16904
20
-3.15195
11
5.16428
21
-3.15909
0
LINE
8
CYAN2
6
CONTINUOUS
10
5.16428
20
-3.15909
11
5.15952
21
-3.16386
0
LINE
8
CYAN2
6
CONTINUOUS
10
5.15952
20
-3.16386
11
5.15476
21
-3.16624
0
LINE
8
CYAN2
6
CONTINUOUS
10
5.06785
20
-3.30183
11
5.06785
21
-3.25183
0
LINE
8
CYAN2
6
CONTINUOUS
10
5.09167
20
-3.2685
11
5.09167
21
-3.30183
0
LINE
8
CYAN2
6
CONTINUOUS
10
5.09167
20
-3.27326
11
5.09405
21
-3.27088
0
LINE
8
CYAN2
6
CONTINUOUS
10
5.09405
20
-3.27088
11
5.09881
21
-3.2685
0
LINE
8
CYAN2
6
CONTINUOUS
10
5.09881
20
-3.2685
11
5.10595
21
-3.2685
0
LINE
8
CYAN2
6
CONTINUOUS
10
5.10595
20
-3.2685
11
5.11071
21
-3.27088
0
LINE
8
CYAN2
6
CONTINUOUS
10
5.11071
20
-3.27088
11
5.11309
21
-3.27564
0
LINE
8
CYAN2
6
CONTINUOUS
10
5.11309
20
-3.27564
11
5.11309
21
-3.30183
0
LINE
8
CYAN2
6
CONTINUOUS
10
5.1369
20
-3.2685
11
5.1369
21
-3.3185
0
LINE
8
CYAN2
6
CONTINUOUS
10
5.1369
20
-3.27088
11
5.14167
21
-3.2685
0
LINE
8
CYAN2
6
CONTINUOUS
10
5.14167
20
-3.2685
11
5.15119
21
-3.2685
0
LINE
8
CYAN2
6
CONTINUOUS
10
5.15119
20
-3.2685
11
5.15595
21
-3.27088
0
LINE
8
CYAN2
6
CONTINUOUS
10
5.15595
20
-3.27088
11
5.15833
21
-3.27326
0
LINE
8
CYAN2
6
CONTINUOUS
10
5.15833
20
-3.27326
11
5.16071
21
-3.27802
0
LINE
8
CYAN2
6
CONTINUOUS
10
5.16071
20
-3.27802
11
5.16071
21
-3.29231
0
LINE
8
CYAN2
6
CONTINUOUS
10
5.16071
20
-3.29231
11
5.15833
21
-3.29707
0
LINE
8
CYAN2
6
CONTINUOUS
10
5.15833
20
-3.29707
11
5.15595
21
-3.29945
0
LINE
8
CYAN2
6
CONTINUOUS
10
5.15595
20
-3.29945
11
5.15119
21
-3.30183
0
LINE
8
CYAN2
6
CONTINUOUS
10
5.15119
20
-3.30183
11
5.14167
21
-3.30183
0
LINE
8
CYAN2
6
CONTINUOUS
10
5.14167
20
-3.30183
11
5.1369
21
-3.29945
0
LINE
8
CYAN2
6
CONTINUOUS
10
5.20357
20
-3.2685
11
5.20357
21
-3.30183
0
LINE
8
CYAN2
6
CONTINUOUS
10
5.18214
20
-3.2685
11
5.18214
21
-3.29469
0
LINE
8
CYAN2
6
CONTINUOUS
10
5.18214
20
-3.29469
11
5.18452
21
-3.29945
0
LINE
8
CYAN2
6
CONTINUOUS
10
5.18452
20
-3.29945
11
5.18928
21
-3.30183
0
LINE
8
CYAN2
6
CONTINUOUS
10
5.18928
20
-3.30183
11
5.19643
21
-3.30183
0
LINE
8
CYAN2
6
CONTINUOUS
10
5.19643
20
-3.30183
11
5.20119
21
-3.29945
0
LINE
8
CYAN2
6
CONTINUOUS
10
5.20119
20
-3.29945
11
5.20357
21
-3.29707
0
LINE
8
CYAN2
6
CONTINUOUS
10
5.22024
20
-3.2685
11
5.23928
21
-3.2685
0
LINE
8
CYAN2
6
CONTINUOUS
10
5.22738
20
-3.25183
11
5.22738
21
-3.29469
0
LINE
8
CYAN2
6
CONTINUOUS
10
5.22738
20
-3.29469
11
5.22976
21
-3.29945
0
LINE
8
CYAN2
6
CONTINUOUS
10
5.22976
20
-3.29945
11
5.23452
21
-3.30183
0
LINE
8
CYAN2
6
CONTINUOUS
10
5.23452
20
-3.30183
11
5.23928
21
-3.30183
0
LINE
8
RED2
6
CONTINUOUS
10
5.975
20
-3.625
11
5.875
21
-3.625
0
LINE
8
RED2
6
CONTINUOUS
10
5.925
20
-3.625
11
5.925
21
-3.525
0
LINE
8
RED2
6
CONTINUOUS
10
5.975
20
-3.525
11
5.875
21
-3.525
0
LINE
8
RED2
6
CONTINUOUS
10
5.875
20
-3.525
11
5.925
21
-3.625
0
LINE
8
RED2
6
CONTINUOUS
10
5.925
20
-3.625
11
5.975
21
-3.525
0
LINE
8
RED2
6
CONTINUOUS
10
5.955
20
-3.695
11
6.015
21
-3.755
0
LINE
8
RED2
6
CONTINUOUS
10
6.015
20
-3.755
11
6.015
21
-3.725
0
LINE
8
RED2
6
CONTINUOUS
10
6.015
20
-3.725
11
6.015
21
-3.755
0
LINE
8
RED2
6
CONTINUOUS
10
6.015
20
-3.755
11
5.985
21
-3.755
0
LINE
8
RED2
6
CONTINUOUS
10
5.955
20
-3.645
11
6.015
21
-3.705
0
LINE
8
RED2
6
CONTINUOUS
10
6.015
20
-3.705
11
6.015
21
-3.675
0
LINE
8
RED2
6
CONTINUOUS
10
6.015
20
-3.675
11
6.015
21
-3.705
0
LINE
8
RED2
6
CONTINUOUS
10
6.015
20
-3.705
11
5.985
21
-3.705
0
LINE
8
RED2
6
CONTINUOUS
10
5.925
20
-3.625
11
5.925
21
-3.725
0
LINE
8
RED2
6
CONTINUOUS
10
5.925
20
-3.525
11
5.925
21
-3.425
0
LINE
8
CYAN2
6
CONTINUOUS
10
6.05503
20
-3.62726
11
6.05503
21
-3.57726
0
LINE
8
CYAN2
6
CONTINUOUS
10
6.05503
20
-3.57726
11
6.06693
21
-3.57726
0
LINE
8
CYAN2
6
CONTINUOUS
10
6.06693
20
-3.57726
11
6.07407
21
-3.57964
0
LINE
8
CYAN2
6
CONTINUOUS
10
6.07407
20
-3.57964
11
6.07883
21
-3.5844
0
LINE
8
CYAN2
6
CONTINUOUS
10
6.07883
20
-3.5844
11
6.08122
21
-3.58916
0
LINE
8
CYAN2
6
CONTINUOUS
10
6.08122
20
-3.58916
11
6.0836
21
-3.59869
0
LINE
8
CYAN2
6
CONTINUOUS
10
6.0836
20
-3.59869
11
6.0836
21
-3.60583
0
LINE
8
CYAN2
6
CONTINUOUS
10
6.0836
20
-3.60583
11
6.08122
21
-3.61535
0
LINE
8
CYAN2
6
CONTINUOUS
10
6.08122
20
-3.61535
11
6.07883
21
-3.62011
0
LINE
8
CYAN2
6
CONTINUOUS
10
6.07883
20
-3.62011
11
6.07407
21
-3.62487
0
LINE
8
CYAN2
6
CONTINUOUS
10
6.07407
20
-3.62487
11
6.06693
21
-3.62726
0
LINE
8
CYAN2
6
CONTINUOUS
10
6.06693
20
-3.62726
11
6.05503
21
-3.62726
0
LINE
8
CYAN2
6
CONTINUOUS
10
6.13122
20
-3.62726
11
6.10265
21
-3.62726
0
LINE
8
CYAN2
6
CONTINUOUS
10
6.11693
20
-3.62726
11
6.11693
21
-3.57726
0
LINE
8
CYAN2
6
CONTINUOUS
10
6.11693
20
-3.57726
11
6.11217
21
-3.5844
0
LINE
8
CYAN2
6
CONTINUOUS
10
6.11217
20
-3.5844
11
6.10741
21
-3.58916
0
LINE
8
CYAN2
6
CONTINUOUS
10
6.10741
20
-3.58916
11
6.10265
21
-3.59154
0
LINE
8
CYAN2
6
CONTINUOUS
10
6.0836
20
-3.72713
11
6.06693
21
-3.70332
0
LINE
8
CYAN2
6
CONTINUOUS
10
6.05503
20
-3.72713
11
6.05503
21
-3.67713
0
LINE
8
CYAN2
6
CONTINUOUS
10
6.05503
20
-3.67713
11
6.07407
21
-3.67713
0
LINE
8
CYAN2
6
CONTINUOUS
10
6.07407
20
-3.67713
11
6.07884
21
-3.67952
0
LINE
8
CYAN2
6
CONTINUOUS
10
6.07884
20
-3.67952
11
6.08122
21
-3.68189
0
LINE
8
CYAN2
6
CONTINUOUS
10
6.08122
20
-3.68189
11
6.0836
21
-3.68666
0
LINE
8
CYAN2
6
CONTINUOUS
10
6.0836
20
-3.68666
11
6.0836
21
-3.6938
0
LINE
8
CYAN2
6
CONTINUOUS
10
6.0836
20
-3.6938
11
6.08122
21
-3.69856
0
LINE
8
CYAN2
6
CONTINUOUS
10
6.08122
20
-3.69856
11
6.07884
21
-3.70094
0
LINE
8
CYAN2
6
CONTINUOUS
10
6.07884
20
-3.70094
11
6.07407
21
-3.70332
0
LINE
8
CYAN2
6
CONTINUOUS
10
6.07407
20
-3.70332
11
6.05503
21
-3.70332
0
LINE
8
CYAN2
6
CONTINUOUS
10
6.10503
20
-3.70094
11
6.12169
21
-3.70094
0
LINE
8
CYAN2
6
CONTINUOUS
10
6.12884
20
-3.72713
11
6.10503
21
-3.72713
0
LINE
8
CYAN2
6
CONTINUOUS
10
6.10503
20
-3.72713
11
6.10503
21
-3.67713
0
LINE
8
CYAN2
6
CONTINUOUS
10
6.10503
20
-3.67713
11
6.12884
21
-3.67713
0
LINE
8
CYAN2
6
CONTINUOUS
10
6.15027
20
-3.72713
11
6.15027
21
-3.67713
0
LINE
8
CYAN2
6
CONTINUOUS
10
6.15027
20
-3.67713
11
6.16217
21
-3.67713
0
LINE
8
CYAN2
6
CONTINUOUS
10
6.16217
20
-3.67713
11
6.16931
21
-3.67952
0
LINE
8
CYAN2
6
CONTINUOUS
10
6.16931
20
-3.67952
11
6.17407
21
-3.68428
0
LINE
8
CYAN2
6
CONTINUOUS
10
6.17407
20
-3.68428
11
6.17646
21
-3.68904
0
LINE
8
CYAN2
6
CONTINUOUS
10
6.17646
20
-3.68904
11
6.17884
21
-3.69856
0
LINE
8
CYAN2
6
CONTINUOUS
10
6.17884
20
-3.69856
11
6.17884
21
-3.7057
0
LINE
8
CYAN2
6
CONTINUOUS
10
6.17884
20
-3.7057
11
6.17646
21
-3.71523
0
LINE
8
CYAN2
6
CONTINUOUS
10
6.17646
20
-3.71523
11
6.17407
21
-3.71999
0
LINE
8
CYAN2
6
CONTINUOUS
10
6.17407
20
-3.71999
11
6.16931
21
-3.72475
0
LINE
8
CYAN2
6
CONTINUOUS
10
6.16931
20
-3.72475
11
6.16217
21
-3.72713
0
LINE
8
CYAN2
6
CONTINUOUS
10
6.16217
20
-3.72713
11
6.15027
21
-3.72713
0
CIRCLE
8
RED2
10
5.5
20
-4.525
40
0.05
0
LINE
8
CYAN2
6
CONTINUOUS
10
5.61503
20
-4.51475
11
5.61503
21
-4.46475
0
LINE
8
CYAN2
6
CONTINUOUS
10
5.61503
20
-4.48856
11
5.6436
21
-4.48856
0
LINE
8
CYAN2
6
CONTINUOUS
10
5.6436
20
-4.51475
11
5.6436
21
-4.46475
0
LINE
8
CYAN2
6
CONTINUOUS
10
5.6936
20
-4.51475
11
5.66503
21
-4.51475
0
LINE
8
CYAN2
6
CONTINUOUS
10
5.67931
20
-4.51475
11
5.67931
21
-4.46475
0
LINE
8
CYAN2
6
CONTINUOUS
10
5.67931
20
-4.46475
11
5.67455
21
-4.47189
0
LINE
8
CYAN2
6
CONTINUOUS
10
5.67455
20
-4.47189
11
5.66979
21
-4.47666
0
LINE
8
CYAN2
6
CONTINUOUS
10
5.66979
20
-4.47666
11
5.66503
21
-4.47904
0
LINE
8
CYAN2
6
CONTINUOUS
10
5.61503
20
-4.61463
11
5.61503
21
-4.56463
0
LINE
8
CYAN2
6
CONTINUOUS
10
5.61503
20
-4.56463
11
5.6317
21
-4.60034
0
LINE
8
CYAN2
6
CONTINUOUS
10
5.6317
20
-4.60034
11
5.64836
21
-4.56463
0
LINE
8
CYAN2
6
CONTINUOUS
10
5.64836
20
-4.56463
11
5.64836
21
-4.61463
0
LINE
8
CYAN2
6
CONTINUOUS
10
5.66979
20
-4.56939
11
5.67217
21
-4.56701
0
LINE
8
CYAN2
6
CONTINUOUS
10
5.67217
20
-4.56701
11
5.67693
21
-4.56463
0
LINE
8
CYAN2
6
CONTINUOUS
10
5.67693
20
-4.56463
11
5.68884
21
-4.56463
0
LINE
8
CYAN2
6
CONTINUOUS
10
5.68884
20
-4.56463
11
5.6936
21
-4.56701
0
LINE
8
CYAN2
6
CONTINUOUS
10
5.6936
20
-4.56701
11
5.69598
21
-4.56939
0
LINE
8
CYAN2
6
CONTINUOUS
10
5.69598
20
-4.56939
11
5.69836
21
-4.57415
0
LINE
8
CYAN2
6
CONTINUOUS
10
5.69836
20
-4.57415
11
5.69836
21
-4.57891
0
LINE
8
CYAN2
6
CONTINUOUS
10
5.69836
20
-4.57891
11
5.69598
21
-4.58606
0
LINE
8
CYAN2
6
CONTINUOUS
10
5.69598
20
-4.58606
11
5.66741
21
-4.61463
0
LINE
8
CYAN2
6
CONTINUOUS
10
5.66741
20
-4.61463
11
5.69836
21
-4.61463
0
CIRCLE
8
RED2
10
5.825
20
-4.525
40
0.05
0
LINE
8
CYAN2
6
CONTINUOUS
10
5.94003
20
-4.51475
11
5.94003
21
-4.46475
0
LINE
8
CYAN2
6
CONTINUOUS
10
5.94003
20
-4.48856
11
5.9686
21
-4.48856
0
LINE
8
CYAN2
6
CONTINUOUS
10
5.9686
20
-4.51475
11
5.9686
21
-4.46475
0
LINE
8
CYAN2
6
CONTINUOUS
10
5.98765
20
-4.46475
11
6.0186
21
-4.46475
0
LINE
8
CYAN2
6
CONTINUOUS
10
6.0186
20
-4.46475
11
6.00193
21
-4.4838
0
LINE
8
CYAN2
6
CONTINUOUS
10
6.00193
20
-4.4838
11
6.00907
21
-4.4838
0
LINE
8
CYAN2
6
CONTINUOUS
10
6.00907
20
-4.4838
11
6.01384
21
-4.48618
0
LINE
8
CYAN2
6
CONTINUOUS
10
6.01384
20
-4.48618
11
6.01622
21
-4.48856
0
LINE
8
CYAN2
6
CONTINUOUS
10
6.01622
20
-4.48856
11
6.0186
21
-4.49332
0
LINE
8
CYAN2
6
CONTINUOUS
10
6.0186
20
-4.49332
11
6.0186
21
-4.50523
0
LINE
8
CYAN2
6
CONTINUOUS
10
6.0186
20
-4.50523
11
6.01622
21
-4.50999
0
LINE
8
CYAN2
6
CONTINUOUS
10
6.01622
20
-4.50999
11
6.01384
21
-4.51237
0
LINE
8
CYAN2
6
CONTINUOUS
10
6.01384
20
-4.51237
11
6.00907
21
-4.51475
0
LINE
8
CYAN2
6
CONTINUOUS
10
6.00907
20
-4.51475
11
5.99479
21
-4.51475
0
LINE
8
CYAN2
6
CONTINUOUS
10
5.99479
20
-4.51475
11
5.99003
21
-4.51237
0
LINE
8
CYAN2
6
CONTINUOUS
10
5.99003
20
-4.51237
11
5.98765
21
-4.50999
0
LINE
8
CYAN2
6
CONTINUOUS
10
5.94003
20
-4.61463
11
5.94003
21
-4.56463
0
LINE
8
CYAN2
6
CONTINUOUS
10
5.94003
20
-4.56463
11
5.9567
21
-4.60034
0
LINE
8
CYAN2
6
CONTINUOUS
10
5.9567
20
-4.60034
11
5.97336
21
-4.56463
0
LINE
8
CYAN2
6
CONTINUOUS
10
5.97336
20
-4.56463
11
5.97336
21
-4.61463
0
LINE
8
CYAN2
6
CONTINUOUS
10
5.99479
20
-4.56939
11
5.99717
21
-4.56701
0
LINE
8
CYAN2
6
CONTINUOUS
10
5.99717
20
-4.56701
11
6.00193
21
-4.56463
0
LINE
8
CYAN2
6
CONTINUOUS
10
6.00193
20
-4.56463
11
6.01384
21
-4.56463
0
LINE
8
CYAN2
6
CONTINUOUS
10
6.01384
20
-4.56463
11
6.0186
21
-4.56701
0
LINE
8
CYAN2
6
CONTINUOUS
10
6.0186
20
-4.56701
11
6.02098
21
-4.56939
0
LINE
8
CYAN2
6
CONTINUOUS
10
6.02098
20
-4.56939
11
6.02336
21
-4.57415
0
LINE
8
CYAN2
6
CONTINUOUS
10
6.02336
20
-4.57415
11
6.02336
21
-4.57891
0
LINE
8
CYAN2
6
CONTINUOUS
10
6.02336
20
-4.57891
11
6.02098
21
-4.58606
0
LINE
8
CYAN2
6
CONTINUOUS
10
6.02098
20
-4.58606
11
5.99241
21
-4.61463
0
LINE
8
CYAN2
6
CONTINUOUS
10
5.99241
20
-4.61463
11
6.02336
21
-4.61463
0
CIRCLE
8
RED2
10
5.825
20
-4.8
40
0.05
0
LINE
8
CYAN2
6
CONTINUOUS
10
5.94003
20
-4.78975
11
5.94003
21
-4.73975
0
LINE
8
CYAN2
6
CONTINUOUS
10
5.94003
20
-4.76356
11
5.9686
21
-4.76356
0
LINE
8
CYAN2
6
CONTINUOUS
10
5.9686
20
-4.78975
11
5.9686
21
-4.73975
0
LINE
8
CYAN2
6
CONTINUOUS
10
6.01384
20
-4.75642
11
6.01384
21
-4.78975
0
LINE
8
CYAN2
6
CONTINUOUS
10
6.00193
20
-4.73737
11
5.99003
21
-4.77308
0
LINE
8
CYAN2
6
CONTINUOUS
10
5.99003
20
-4.77308
11
6.02098
21
-4.77308
0
LINE
8
CYAN2
6
CONTINUOUS
10
5.94003
20
-4.88963
11
5.94003
21
-4.83963
0
LINE
8
CYAN2
6
CONTINUOUS
10
5.94003
20
-4.83963
11
5.9567
21
-4.87534
0
LINE
8
CYAN2
6
CONTINUOUS
10
5.9567
20
-4.87534
11
5.97336
21
-4.83963
0
LINE
8
CYAN2
6
CONTINUOUS
10
5.97336
20
-4.83963
11
5.97336
21
-4.88963
0
LINE
8
CYAN2
6
CONTINUOUS
10
5.99479
20
-4.84439
11
5.99717
21
-4.84201
0
LINE
8
CYAN2
6
CONTINUOUS
10
5.99717
20
-4.84201
11
6.00193
21
-4.83963
0
LINE
8
CYAN2
6
CONTINUOUS
10
6.00193
20
-4.83963
11
6.01384
21
-4.83963
0
LINE
8
CYAN2
6
CONTINUOUS
10
6.01384
20
-4.83963
11
6.0186
21
-4.84201
0
LINE
8
CYAN2
6
CONTINUOUS
10
6.0186
20
-4.84201
11
6.02098
21
-4.84439
0
LINE
8
CYAN2
6
CONTINUOUS
10
6.02098
20
-4.84439
11
6.02336
21
-4.84915
0
LINE
8
CYAN2
6
CONTINUOUS
10
6.02336
20
-4.84915
11
6.02336
21
-4.85391
0
LINE
8
CYAN2
6
CONTINUOUS
10
6.02336
20
-4.85391
11
6.02098
21
-4.86106
0
LINE
8
CYAN2
6
CONTINUOUS
10
6.02098
20
-4.86106
11
5.99241
21
-4.88963
0
LINE
8
CYAN2
6
CONTINUOUS
10
5.99241
20
-4.88963
11
6.02336
21
-4.88963
0
CIRCLE
8
RED2
10
5.5
20
-4.8
40
0.05
0
LINE
8
CYAN2
6
CONTINUOUS
10
5.61503
20
-4.78975
11
5.61503
21
-4.73975
0
LINE
8
CYAN2
6
CONTINUOUS
10
5.61503
20
-4.76356
11
5.6436
21
-4.76356
0
LINE
8
CYAN2
6
CONTINUOUS
10
5.6436
20
-4.78975
11
5.6436
21
-4.73975
0
LINE
8
CYAN2
6
CONTINUOUS
10
5.66503
20
-4.74451
11
5.66741
21
-4.74213
0
LINE
8
CYAN2
6
CONTINUOUS
10
5.66741
20
-4.74213
11
5.67217
21
-4.73975
0
LINE
8
CYAN2
6
CONTINUOUS
10
5.67217
20
-4.73975
11
5.68407
21
-4.73975
0
LINE
8
CYAN2
6
CONTINUOUS
10
5.68407
20
-4.73975
11
5.68884
21
-4.74213
0
LINE
8
CYAN2
6
CONTINUOUS
10
5.68884
20
-4.74213
11
5.69122
21
-4.74451
0
LINE
8
CYAN2
6
CONTINUOUS
10
5.69122
20
-4.74451
11
5.6936
21
-4.74928
0
LINE
8
CYAN2
6
CONTINUOUS
10
5.6936
20
-4.74928
11
5.6936
21
-4.75404
0
LINE
8
CYAN2
6
CONTINUOUS
10
5.6936
20
-4.75404
11
5.69122
21
-4.76118
0
LINE
8
CYAN2
6
CONTINUOUS
10
5.69122
20
-4.76118
11
5.66265
21
-4.78975
0
LINE
8
CYAN2
6
CONTINUOUS
10
5.66265
20
-4.78975
11
5.6936
21
-4.78975
0
LINE
8
CYAN2
6
CONTINUOUS
10
5.61503
20
-4.88963
11
5.61503
21
-4.83963
0
LINE
8
CYAN2
6
CONTINUOUS
10
5.61503
20
-4.83963
11
5.6317
21
-4.87534
0
LINE
8
CYAN2
6
CONTINUOUS
10
5.6317
20
-4.87534
11
5.64836
21
-4.83963
0
LINE
8
CYAN2
6
CONTINUOUS
10
5.64836
20
-4.83963
11
5.64836
21
-4.88963
0
LINE
8
CYAN2
6
CONTINUOUS
10
5.66979
20
-4.84439
11
5.67217
21
-4.84201
0
LINE
8
CYAN2
6
CONTINUOUS
10
5.67217
20
-4.84201
11
5.67693
21
-4.83963
0
LINE
8
CYAN2
6
CONTINUOUS
10
5.67693
20
-4.83963
11
5.68884
21
-4.83963
0
LINE
8
CYAN2
6
CONTINUOUS
10
5.68884
20
-4.83963
11
5.6936
21
-4.84201
0
LINE
8
CYAN2
6
CONTINUOUS
10
5.6936
20
-4.84201
11
5.69598
21
-4.84439
0
LINE
8
CYAN2
6
CONTINUOUS
10
5.69598
20
-4.84439
11
5.69836
21
-4.84915
0
LINE
8
CYAN2
6
CONTINUOUS
10
5.69836
20
-4.84915
11
5.69836
21
-4.85391
0
LINE
8
CYAN2
6
CONTINUOUS
10
5.69836
20
-4.85391
11
5.69598
21
-4.86106
0
LINE
8
CYAN2
6
CONTINUOUS
10
5.69598
20
-4.86106
11
5.66741
21
-4.88963
0
LINE
8
CYAN2
6
CONTINUOUS
10
5.66741
20
-4.88963
11
5.69836
21
-4.88963
0
LINE
8
BLUE3
6
CONTINUOUS
10
5.2567
20
-2.90767
11
5.26384
21
-2.91006
0
LINE
8
BLUE3
6
CONTINUOUS
10
5.26384
20
-2.91006
11
5.26622
21
-2.91244
0
LINE
8
BLUE3
6
CONTINUOUS
10
5.26622
20
-2.91244
11
5.2686
21
-2.9172
0
LINE
8
BLUE3
6
CONTINUOUS
10
5.2686
20
-2.9172
11
5.2686
21
-2.92434
0
LINE
8
BLUE3
6
CONTINUOUS
10
5.2686
20
-2.92434
11
5.26622
21
-2.9291
0
LINE
8
BLUE3
6
CONTINUOUS
10
5.26622
20
-2.9291
11
5.26384
21
-2.93148
0
LINE
8
BLUE3
6
CONTINUOUS
10
5.26384
20
-2.93148
11
5.25907
21
-2.93387
0
LINE
8
BLUE3
6
CONTINUOUS
10
5.25907
20
-2.93387
11
5.24003
21
-2.93387
0
LINE
8
BLUE3
6
CONTINUOUS
10
5.24003
20
-2.93387
11
5.24003
21
-2.88387
0
LINE
8
BLUE3
6
CONTINUOUS
10
5.24003
20
-2.88387
11
5.2567
21
-2.88387
0
LINE
8
BLUE3
6
CONTINUOUS
10
5.2567
20
-2.88387
11
5.26146
21
-2.88625
0
LINE
8
BLUE3
6
CONTINUOUS
10
5.26146
20
-2.88625
11
5.26384
21
-2.88863
0
LINE
8
BLUE3
6
CONTINUOUS
10
5.26384
20
-2.88863
11
5.26622
21
-2.89339
0
LINE
8
BLUE3
6
CONTINUOUS
10
5.26622
20
-2.89339
11
5.26622
21
-2.89815
0
LINE
8
BLUE3
6
CONTINUOUS
10
5.26622
20
-2.89815
11
5.26384
21
-2.90291
0
LINE
8
BLUE3
6
CONTINUOUS
10
5.26384
20
-2.90291
11
5.26146
21
-2.9053
0
LINE
8
BLUE3
6
CONTINUOUS
10
5.26146
20
-2.9053
11
5.2567
21
-2.90767
0
LINE
8
BLUE3
6
CONTINUOUS
10
5.2567
20
-2.90767
11
5.24003
21
-2.90767
0
LINE
8
BLUE3
6
CONTINUOUS
10
5.31146
20
-2.93387
11
5.31146
21
-2.90767
0
LINE
8
BLUE3
6
CONTINUOUS
10
5.31146
20
-2.90767
11
5.30907
21
-2.90291
0
LINE
8
BLUE3
6
CONTINUOUS
10
5.30907
20
-2.90291
11
5.30431
21
-2.90053
0
LINE
8
BLUE3
6
CONTINUOUS
10
5.30431
20
-2.90053
11
5.29479
21
-2.90053
0
LINE
8
BLUE3
6
CONTINUOUS
10
5.29479
20
-2.90053
11
5.29003
21
-2.90291
0
LINE
8
BLUE3
6
CONTINUOUS
10
5.31146
20
-2.93148
11
5.3067
21
-2.93387
0
LINE
8
BLUE3
6
CONTINUOUS
10
5.3067
20
-2.93387
11
5.29479
21
-2.93387
0
LINE
8
BLUE3
6
CONTINUOUS
10
5.29479
20
-2.93387
11
5.29003
21
-2.93148
0
LINE
8
BLUE3
6
CONTINUOUS
10
5.29003
20
-2.93148
11
5.28765
21
-2.92672
0
LINE
8
BLUE3
6
CONTINUOUS
10
5.28765
20
-2.92672
11
5.28765
21
-2.92196
0
LINE
8
BLUE3
6
CONTINUOUS
10
5.28765
20
-2.92196
11
5.29003
21
-2.9172
0
LINE
8
BLUE3
6
CONTINUOUS
10
5.29003
20
-2.9172
11
5.29479
21
-2.91482
0
LINE
8
BLUE3
6
CONTINUOUS
10
5.29479
20
-2.91482
11
5.3067
21
-2.91482
0
LINE
8
BLUE3
6
CONTINUOUS
10
5.3067
20
-2.91482
11
5.31146
21
-2.91244
0
LINE
8
BLUE3
6
CONTINUOUS
10
5.33289
20
-2.93148
11
5.33765
21
-2.93387
0
LINE
8
BLUE3
6
CONTINUOUS
10
5.33765
20
-2.93387
11
5.34717
21
-2.93387
0
LINE
8
BLUE3
6
CONTINUOUS
10
5.34717
20
-2.93387
11
5.35193
21
-2.93148
0
LINE
8
BLUE3
6
CONTINUOUS
10
5.35193
20
-2.93148
11
5.35431
21
-2.92672
0
LINE
8
BLUE3
6
CONTINUOUS
10
5.35431
20
-2.92672
11
5.35431
21
-2.92434
0
LINE
8
BLUE3
6
CONTINUOUS
10
5.35431
20
-2.92434
11
5.35193
21
-2.91958
0
LINE
8
BLUE3
6
CONTINUOUS
10
5.35193
20
-2.91958
11
5.34717
21
-2.9172
0
LINE
8
BLUE3
6
CONTINUOUS
10
5.34717
20
-2.9172
11
5.34003
21
-2.9172
0
LINE
8
BLUE3
6
CONTINUOUS
10
5.34003
20
-2.9172
11
5.33527
21
-2.91482
0
LINE
8
BLUE3
6
CONTINUOUS
10
5.33527
20
-2.91482
11
5.33289
21
-2.91006
0
LINE
8
BLUE3
6
CONTINUOUS
10
5.33289
20
-2.91006
11
5.33289
21
-2.90767
0
LINE
8
BLUE3
6
CONTINUOUS
10
5.33289
20
-2.90767
11
5.33527
21
-2.90291
0
LINE
8
BLUE3
6
CONTINUOUS
10
5.33527
20
-2.90291
11
5.34003
21
-2.90053
0
LINE
8
BLUE3
6
CONTINUOUS
10
5.34003
20
-2.90053
11
5.34717
21
-2.90053
0
LINE
8
BLUE3
6
CONTINUOUS
10
5.34717
20
-2.90053
11
5.35193
21
-2.90291
0
LINE
8
BLUE3
6
CONTINUOUS
10
5.37574
20
-2.93387
11
5.37574
21
-2.90053
0
LINE
8
BLUE3
6
CONTINUOUS
10
5.37574
20
-2.88387
11
5.37336
21
-2.88625
0
LINE
8
BLUE3
6
CONTINUOUS
10
5.37336
20
-2.88625
11
5.37574
21
-2.88863
0
LINE
8
BLUE3
6
CONTINUOUS
10
5.37574
20
-2.88863
11
5.37813
21
-2.88625
0
LINE
8
BLUE3
6
CONTINUOUS
10
5.37813
20
-2.88625
11
5.37574
21
-2.88387
0
LINE
8
BLUE3
6
CONTINUOUS
10
5.37574
20
-2.88387
11
5.37574
21
-2.88863
0
LINE
8
BLUE3
6
CONTINUOUS
10
5.42098
20
-2.93148
11
5.41622
21
-2.93387
0
LINE
8
BLUE3
6
CONTINUOUS
10
5.41622
20
-2.93387
11
5.4067
21
-2.93387
0
LINE
8
BLUE3
6
CONTINUOUS
10
5.4067
20
-2.93387
11
5.40193
21
-2.93148
0
LINE
8
BLUE3
6
CONTINUOUS
10
5.40193
20
-2.93148
11
5.39955
21
-2.9291
0
LINE
8
BLUE3
6
CONTINUOUS
10
5.39955
20
-2.9291
11
5.39717
21
-2.92434
0
LINE
8
BLUE3
6
CONTINUOUS
10
5.39717
20
-2.92434
11
5.39717
21
-2.91006
0
LINE
8
BLUE3
6
CONTINUOUS
10
5.39717
20
-2.91006
11
5.39955
21
-2.9053
0
LINE
8
BLUE3
6
CONTINUOUS
10
5.39955
20
-2.9053
11
5.40193
21
-2.90291
0
LINE
8
BLUE3
6
CONTINUOUS
10
5.40193
20
-2.90291
11
5.4067
21
-2.90053
0
LINE
8
BLUE3
6
CONTINUOUS
10
5.4067
20
-2.90053
11
5.41622
21
-2.90053
0
LINE
8
BLUE3
6
CONTINUOUS
10
5.41622
20
-2.90053
11
5.42098
21
-2.90291
0
LINE
8
BLUE3
6
CONTINUOUS
10
5.50431
20
-2.93387
11
5.4805
21
-2.93387
0
LINE
8
BLUE3
6
CONTINUOUS
10
5.4805
20
-2.93387
11
5.4805
21
-2.88387
0
LINE
8
BLUE3
6
CONTINUOUS
10
5.52098
20
-2.90767
11
5.53765
21
-2.90767
0
LINE
8
BLUE3
6
CONTINUOUS
10
5.54479
20
-2.93387
11
5.52098
21
-2.93387
0
LINE
8
BLUE3
6
CONTINUOUS
10
5.52098
20
-2.93387
11
5.52098
21
-2.88387
0
LINE
8
BLUE3
6
CONTINUOUS
10
5.52098
20
-2.88387
11
5.54479
21
-2.88387
0
LINE
8
BLUE3
6
CONTINUOUS
10
5.56622
20
-2.93387
11
5.56622
21
-2.88387
0
LINE
8
BLUE3
6
CONTINUOUS
10
5.56622
20
-2.88387
11
5.57813
21
-2.88387
0
LINE
8
BLUE3
6
CONTINUOUS
10
5.57813
20
-2.88387
11
5.58527
21
-2.88625
0
LINE
8
BLUE3
6
CONTINUOUS
10
5.58527
20
-2.88625
11
5.59003
21
-2.89101
0
LINE
8
BLUE3
6
CONTINUOUS
10
5.59003
20
-2.89101
11
5.59241
21
-2.89577
0
LINE
8
BLUE3
6
CONTINUOUS
10
5.59241
20
-2.89577
11
5.59479
21
-2.9053
0
LINE
8
BLUE3
6
CONTINUOUS
10
5.59479
20
-2.9053
11
5.59479
21
-2.91244
0
LINE
8
BLUE3
6
CONTINUOUS
10
5.59479
20
-2.91244
11
5.59241
21
-2.92196
0
LINE
8
BLUE3
6
CONTINUOUS
10
5.59241
20
-2.92196
11
5.59003
21
-2.92672
0
LINE
8
BLUE3
6
CONTINUOUS
10
5.59003
20
-2.92672
11
5.58527
21
-2.93148
0
LINE
8
BLUE3
6
CONTINUOUS
10
5.58527
20
-2.93148
11
5.57813
21
-2.93387
0
LINE
8
BLUE3
6
CONTINUOUS
10
5.57813
20
-2.93387
11
5.56622
21
-2.93387
0
LINE
8
BLUE3
6
CONTINUOUS
10
5.65431
20
-2.93387
11
5.65431
21
-2.88387
0
LINE
8
BLUE3
6
CONTINUOUS
10
5.65431
20
-2.88387
11
5.66622
21
-2.88387
0
LINE
8
BLUE3
6
CONTINUOUS
10
5.66622
20
-2.88387
11
5.67336
21
-2.88625
0
LINE
8
BLUE3
6
CONTINUOUS
10
5.67336
20
-2.88625
11
5.67813
21
-2.89101
0
LINE
8
BLUE3
6
CONTINUOUS
10
5.67813
20
-2.89101
11
5.6805
21
-2.89577
0
LINE
8
BLUE3
6
CONTINUOUS
10
5.6805
20
-2.89577
11
5.68289
21
-2.9053
0
LINE
8
BLUE3
6
CONTINUOUS
10
5.68289
20
-2.9053
11
5.68289
21
-2.91244
0
LINE
8
BLUE3
6
CONTINUOUS
10
5.68289
20
-2.91244
11
5.6805
21
-2.92196
0
LINE
8
BLUE3
6
CONTINUOUS
10
5.6805
20
-2.92196
11
5.67813
21
-2.92672
0
LINE
8
BLUE3
6
CONTINUOUS
10
5.67813
20
-2.92672
11
5.67336
21
-2.93148
0
LINE
8
BLUE3
6
CONTINUOUS
10
5.67336
20
-2.93148
11
5.66622
21
-2.93387
0
LINE
8
BLUE3
6
CONTINUOUS
10
5.66622
20
-2.93387
11
5.65431
21
-2.93387
0
LINE
8
BLUE3
6
CONTINUOUS
10
5.70431
20
-2.93387
11
5.70431
21
-2.90053
0
LINE
8
BLUE3
6
CONTINUOUS
10
5.70431
20
-2.91006
11
5.7067
21
-2.9053
0
LINE
8
BLUE3
6
CONTINUOUS
10
5.7067
20
-2.9053
11
5.70907
21
-2.90291
0
LINE
8
BLUE3
6
CONTINUOUS
10
5.70907
20
-2.90291
11
5.71384
21
-2.90053
0
LINE
8
BLUE3
6
CONTINUOUS
10
5.71384
20
-2.90053
11
5.7186
21
-2.90053
0
LINE
8
BLUE3
6
CONTINUOUS
10
5.73527
20
-2.93387
11
5.73527
21
-2.90053
0
LINE
8
BLUE3
6
CONTINUOUS
10
5.73527
20
-2.88387
11
5.73289
21
-2.88625
0
LINE
8
BLUE3
6
CONTINUOUS
10
5.73289
20
-2.88625
11
5.73527
21
-2.88863
0
LINE
8
BLUE3
6
CONTINUOUS
10
5.73527
20
-2.88863
11
5.73765
21
-2.88625
0
LINE
8
BLUE3
6
CONTINUOUS
10
5.73765
20
-2.88625
11
5.73527
21
-2.88387
0
LINE
8
BLUE3
6
CONTINUOUS
10
5.73527
20
-2.88387
11
5.73527
21
-2.88863
0
LINE
8
BLUE3
6
CONTINUOUS
10
5.75431
20
-2.90053
11
5.76622
21
-2.93387
0
LINE
8
BLUE3
6
CONTINUOUS
10
5.76622
20
-2.93387
11
5.77813
21
-2.90053
0
LINE
8
BLUE3
6
CONTINUOUS
10
5.81622
20
-2.93148
11
5.81146
21
-2.93387
0
LINE
8
BLUE3
6
CONTINUOUS
10
5.81146
20
-2.93387
11
5.80193
21
-2.93387
0
LINE
8
BLUE3
6
CONTINUOUS
10
5.80193
20
-2.93387
11
5.79717
21
-2.93148
0
LINE
8
BLUE3
6
CONTINUOUS
10
5.79717
20
-2.93148
11
5.79479
21
-2.92672
0
LINE
8
BLUE3
6
CONTINUOUS
10
5.79479
20
-2.92672
11
5.79479
21
-2.90767
0
LINE
8
BLUE3
6
CONTINUOUS
10
5.79479
20
-2.90767
11
5.79717
21
-2.90291
0
LINE
8
BLUE3
6
CONTINUOUS
10
5.79717
20
-2.90291
11
5.80193
21
-2.90053
0
LINE
8
BLUE3
6
CONTINUOUS
10
5.80193
20
-2.90053
11
5.81146
21
-2.90053
0
LINE
8
BLUE3
6
CONTINUOUS
10
5.81146
20
-2.90053
11
5.81622
21
-2.90291
0
LINE
8
BLUE3
6
CONTINUOUS
10
5.81622
20
-2.90291
11
5.8186
21
-2.90767
0
LINE
8
BLUE3
6
CONTINUOUS
10
5.8186
20
-2.90767
11
5.8186
21
-2.91244
0
LINE
8
BLUE3
6
CONTINUOUS
10
5.8186
20
-2.91244
11
5.79479
21
-2.9172
0
LINE
8
BLUE3
6
CONTINUOUS
10
5.84003
20
-2.93387
11
5.84003
21
-2.90053
0
LINE
8
BLUE3
6
CONTINUOUS
10
5.84003
20
-2.91006
11
5.84241
21
-2.9053
0
LINE
8
BLUE3
6
CONTINUOUS
10
5.84241
20
-2.9053
11
5.84479
21
-2.90291
0
LINE
8
BLUE3
6
CONTINUOUS
10
5.84479
20
-2.90291
11
5.84955
21
-2.90053
0
LINE
8
BLUE3
6
CONTINUOUS
10
5.84955
20
-2.90053
11
5.85431
21
-2.90053
0
LINE
8
GREEN3
6
CONTINUOUS
10
5.675
20
-3.475
11
5.35
21
-3.475
0
LINE
8
GREEN3
6
CONTINUOUS
10
5.35
20
-3.375
11
5.675
21
-3.375
0
LINE
8
GREEN3
6
CONTINUOUS
10
5.675
20
-3.375
11
5.675
21
-3.125
0
LINE
8
GREEN3
6
CONTINUOUS
10
5.675
20
-3.125
11
5.925
21
-3.125
0
LINE
8
GREEN3
6
CONTINUOUS
10
5.925
20
-3.725
11
5.675
21
-3.725
0
LINE
8
GREEN3
6
CONTINUOUS
10
5.675
20
-3.725
11
5.675
21
-3.475
0
LINE
8
CYAN2
6
CONTINUOUS
10
6.0386
20
-3.26475
11
6.02193
21
-3.24094
0
LINE
8
CYAN2
6
CONTINUOUS
10
6.01003
20
-3.26475
11
6.01003
21
-3.21475
0
LINE
8
CYAN2
6
CONTINUOUS
10
6.01003
20
-3.21475
11
6.02907
21
-3.21475
0
LINE
8
CYAN2
6
CONTINUOUS
10
6.02907
20
-3.21475
11
6.03383
21
-3.21713
0
LINE
8
CYAN2
6
CONTINUOUS
10
6.03383
20
-3.21713
11
6.03622
21
-3.21951
0
LINE
8
CYAN2
6
CONTINUOUS
10
6.03622
20
-3.21951
11
6.0386
21
-3.22428
0
LINE
8
CYAN2
6
CONTINUOUS
10
6.0386
20
-3.22428
11
6.0386
21
-3.23142
0
LINE
8
CYAN2
6
CONTINUOUS
10
6.0386
20
-3.23142
11
6.03622
21
-3.23618
0
LINE
8
CYAN2
6
CONTINUOUS
10
6.03622
20
-3.23618
11
6.03383
21
-3.23856
0
LINE
8
CYAN2
6
CONTINUOUS
10
6.03383
20
-3.23856
11
6.02907
21
-3.24094
0
LINE
8
CYAN2
6
CONTINUOUS
10
6.02907
20
-3.24094
11
6.01003
21
-3.24094
0
LINE
8
CYAN2
6
CONTINUOUS
10
6.08622
20
-3.26475
11
6.05765
21
-3.26475
0
LINE
8
CYAN2
6
CONTINUOUS
10
6.07193
20
-3.26475
11
6.07193
21
-3.21475
0
LINE
8
CYAN2
6
CONTINUOUS
10
6.07193
20
-3.21475
11
6.06717
21
-3.22189
0
LINE
8
CYAN2
6
CONTINUOUS
10
6.06717
20
-3.22189
11
6.06241
21
-3.22666
0
LINE
8
CYAN2
6
CONTINUOUS
10
6.06241
20
-3.22666
11
6.05765
21
-3.22904
0
LINE
8
CYAN2
6
CONTINUOUS
10
6.03622
20
-3.36463
11
6.00765
21
-3.36463
0
LINE
8
CYAN2
6
CONTINUOUS
10
6.02193
20
-3.36463
11
6.02193
21
-3.31463
0
LINE
8
CYAN2
6
CONTINUOUS
10
6.02193
20
-3.31463
11
6.01717
21
-3.32177
0
LINE
8
CYAN2
6
CONTINUOUS
10
6.01717
20
-3.32177
11
6.01241
21
-3.32654
0
LINE
8
CYAN2
6
CONTINUOUS
10
6.01241
20
-3.32654
11
6.00765
21
-3.32891
0
LINE
8
CYAN2
6
CONTINUOUS
10
6.05527
20
-3.31939
11
6.05765
21
-3.31701
0
LINE
8
CYAN2
6
CONTINUOUS
10
6.05765
20
-3.31701
11
6.06241
21
-3.31463
0
LINE
8
CYAN2
6
CONTINUOUS
10
6.06241
20
-3.31463
11
6.07431
21
-3.31463
0
LINE
8
CYAN2
6
CONTINUOUS
10
6.07431
20
-3.31463
11
6.07908
21
-3.31701
0
LINE
8
CYAN2
6
CONTINUOUS
10
6.07908
20
-3.31701
11
6.08146
21
-3.31939
0
LINE
8
CYAN2
6
CONTINUOUS
10
6.08146
20
-3.31939
11
6.08384
21
-3.32415
0
LINE
8
CYAN2
6
CONTINUOUS
10
6.08384
20
-3.32415
11
6.08384
21
-3.32891
0
LINE
8
CYAN2
6
CONTINUOUS
10
6.08384
20
-3.32891
11
6.08146
21
-3.33606
0
LINE
8
CYAN2
6
CONTINUOUS
10
6.08146
20
-3.33606
11
6.05289
21
-3.36463
0
LINE
8
CYAN2
6
CONTINUOUS
10
6.05289
20
-3.36463
11
6.08384
21
-3.36463
0
LINE
8
CYAN2
6
CONTINUOUS
10
6.11479
20
-3.31463
11
6.11956
21
-3.31463
0
LINE
8
CYAN2
6
CONTINUOUS
10
6.11956
20
-3.31463
11
6.12431
21
-3.31701
0
LINE
8
CYAN2
6
CONTINUOUS
10
6.12431
20
-3.31701
11
6.1267
21
-3.31939
0
LINE
8
CYAN2
6
CONTINUOUS
10
6.1267
20
-3.31939
11
6.12908
21
-3.32415
0
LINE
8
CYAN2
6
CONTINUOUS
10
6.12908
20
-3.32415
11
6.13146
21
-3.33368
0
LINE
8
CYAN2
6
CONTINUOUS
10
6.13146
20
-3.33368
11
6.13146
21
-3.34558
0
LINE
8
CYAN2
6
CONTINUOUS
10
6.13146
20
-3.34558
11
6.12908
21
-3.35511
0
LINE
8
CYAN2
6
CONTINUOUS
10
6.12908
20
-3.35511
11
6.1267
21
-3.35987
0
LINE
8
CYAN2
6
CONTINUOUS
10
6.1267
20
-3.35987
11
6.12431
21
-3.36225
0
LINE
8
CYAN2
6
CONTINUOUS
10
6.12431
20
-3.36225
11
6.11956
21
-3.36463
0
LINE
8
CYAN2
6
CONTINUOUS
10
6.11956
20
-3.36463
11
6.11479
21
-3.36463
0
LINE
8
CYAN2
6
CONTINUOUS
10
6.11479
20
-3.36463
11
6.11003
21
-3.36225
0
LINE
8
CYAN2
6
CONTINUOUS
10
6.11003
20
-3.36225
11
6.10765
21
-3.35987
0
LINE
8
CYAN2
6
CONTINUOUS
10
6.10765
20
-3.35987
11
6.10527
21
-3.35511
0
LINE
8
CYAN2
6
CONTINUOUS
10
6.10527
20
-3.35511
11
6.10289
21
-3.34558
0
LINE
8
CYAN2
6
CONTINUOUS
10
6.10289
20
-3.34558
11
6.10289
21
-3.33368
0
LINE
8
CYAN2
6
CONTINUOUS
10
6.10289
20
-3.33368
11
6.10527
21
-3.32415
0
LINE
8
CYAN2
6
CONTINUOUS
10
6.10527
20
-3.32415
11
6.10765
21
-3.31939
0
LINE
8
CYAN2
6
CONTINUOUS
10
6.10765
20
-3.31939
11
6.11003
21
-3.31701
0
LINE
8
CYAN2
6
CONTINUOUS
10
6.11003
20
-3.31701
11
6.11479
21
-3.31463
0
LINE
8
CYAN2
6
CONTINUOUS
10
6.18146
20
-3.36463
11
6.16479
21
-3.34082
0
LINE
8
CYAN2
6
CONTINUOUS
10
6.15289
20
-3.36463
11
6.15289
21
-3.31463
0
LINE
8
CYAN2
6
CONTINUOUS
10
6.15289
20
-3.31463
11
6.17193
21
-3.31463
0
LINE
8
CYAN2
6
CONTINUOUS
10
6.17193
20
-3.31463
11
6.1767
21
-3.31701
0
LINE
8
CYAN2
6
CONTINUOUS
10
6.1767
20
-3.31701
11
6.17908
21
-3.31939
0
LINE
8
CYAN2
6
CONTINUOUS
10
6.17908
20
-3.31939
11
6.18146
21
-3.32415
0
LINE
8
CYAN2
6
CONTINUOUS
10
6.18146
20
-3.32415
11
6.18146
21
-3.3313
0
LINE
8
CYAN2
6
CONTINUOUS
10
6.18146
20
-3.3313
11
6.17908
21
-3.33606
0
LINE
8
CYAN2
6
CONTINUOUS
10
6.17908
20
-3.33606
11
6.1767
21
-3.33844
0
LINE
8
CYAN2
6
CONTINUOUS
10
6.1767
20
-3.33844
11
6.17193
21
-3.34082
0
LINE
8
CYAN2
6
CONTINUOUS
10
6.17193
20
-3.34082
11
6.15289
21
-3.34082
0
LINE
8
RED2
6
CONTINUOUS
10
5.925
20
-3.175
11
5.925
21
-3.125
0
LINE
8
RED2
6
CONTINUOUS
10
5.925
20
-3.375
11
5.925
21
-3.425
0
LINE
8
CYAN2
6
CONTINUOUS
10
6.05503
20
-3.62726
11
6.05503
21
-3.57726
0
LINE
8
CYAN2
6
CONTINUOUS
10
6.05503
20
-3.57726
11
6.06693
21
-3.57726
0
LINE
8
CYAN2
6
CONTINUOUS
10
6.06693
20
-3.57726
11
6.07407
21
-3.57964
0
LINE
8
CYAN2
6
CONTINUOUS
10
6.07407
20
-3.57964
11
6.07883
21
-3.5844
0
LINE
8
CYAN2
6
CONTINUOUS
10
6.07883
20
-3.5844
11
6.08122
21
-3.58916
0
LINE
8
CYAN2
6
CONTINUOUS
10
6.08122
20
-3.58916
11
6.0836
21
-3.59869
0
LINE
8
CYAN2
6
CONTINUOUS
10
6.0836
20
-3.59869
11
6.0836
21
-3.60583
0
LINE
8
CYAN2
6
CONTINUOUS
10
6.0836
20
-3.60583
11
6.08122
21
-3.61535
0
LINE
8
CYAN2
6
CONTINUOUS
10
6.08122
20
-3.61535
11
6.07883
21
-3.62011
0
LINE
8
CYAN2
6
CONTINUOUS
10
6.07883
20
-3.62011
11
6.07407
21
-3.62487
0
LINE
8
CYAN2
6
CONTINUOUS
10
6.07407
20
-3.62487
11
6.06693
21
-3.62726
0
LINE
8
CYAN2
6
CONTINUOUS
10
6.06693
20
-3.62726
11
6.05503
21
-3.62726
0
LINE
8
CYAN2
6
CONTINUOUS
10
6.13122
20
-3.62726
11
6.10265
21
-3.62726
0
LINE
8
CYAN2
6
CONTINUOUS
10
6.11693
20
-3.62726
11
6.11693
21
-3.57726
0
LINE
8
CYAN2
6
CONTINUOUS
10
6.11693
20
-3.57726
11
6.11217
21
-3.5844
0
LINE
8
CYAN2
6
CONTINUOUS
10
6.11217
20
-3.5844
11
6.10741
21
-3.58916
0
LINE
8
CYAN2
6
CONTINUOUS
10
6.10741
20
-3.58916
11
6.10265
21
-3.59154
0
LINE
8
CYAN2
6
CONTINUOUS
10
6.0836
20
-3.72713
11
6.06693
21
-3.70332
0
LINE
8
CYAN2
6
CONTINUOUS
10
6.05503
20
-3.72713
11
6.05503
21
-3.67713
0
LINE
8
CYAN2
6
CONTINUOUS
10
6.05503
20
-3.67713
11
6.07407
21
-3.67713
0
LINE
8
CYAN2
6
CONTINUOUS
10
6.07407
20
-3.67713
11
6.07884
21
-3.67952
0
LINE
8
CYAN2
6
CONTINUOUS
10
6.07884
20
-3.67952
11
6.08122
21
-3.68189
0
LINE
8
CYAN2
6
CONTINUOUS
10
6.08122
20
-3.68189
11
6.0836
21
-3.68666
0
LINE
8
CYAN2
6
CONTINUOUS
10
6.0836
20
-3.68666
11
6.0836
21
-3.6938
0
LINE
8
CYAN2
6
CONTINUOUS
10
6.0836
20
-3.6938
11
6.08122
21
-3.69856
0
LINE
8
CYAN2
6
CONTINUOUS
10
6.08122
20
-3.69856
11
6.07884
21
-3.70094
0
LINE
8
CYAN2
6
CONTINUOUS
10
6.07884
20
-3.70094
11
6.07407
21
-3.70332
0
LINE
8
CYAN2
6
CONTINUOUS
10
6.07407
20
-3.70332
11
6.05503
21
-3.70332
0
LINE
8
CYAN2
6
CONTINUOUS
10
6.10503
20
-3.70094
11
6.12169
21
-3.70094
0
LINE
8
CYAN2
6
CONTINUOUS
10
6.12884
20
-3.72713
11
6.10503
21
-3.72713
0
LINE
8
CYAN2
6
CONTINUOUS
10
6.10503
20
-3.72713
11
6.10503
21
-3.67713
0
LINE
8
CYAN2
6
CONTINUOUS
10
6.10503
20
-3.67713
11
6.12884
21
-3.67713
0
LINE
8
CYAN2
6
CONTINUOUS
10
6.15027
20
-3.72713
11
6.15027
21
-3.67713
0
LINE
8
CYAN2
6
CONTINUOUS
10
6.15027
20
-3.67713
11
6.16217
21
-3.67713
0
LINE
8
CYAN2
6
CONTINUOUS
10
6.16217
20
-3.67713
11
6.16931
21
-3.67952
0
LINE
8
CYAN2
6
CONTINUOUS
10
6.16931
20
-3.67952
11
6.17407
21
-3.68428
0
LINE
8
CYAN2
6
CONTINUOUS
10
6.17407
20
-3.68428
11
6.17646
21
-3.68904
0
LINE
8
CYAN2
6
CONTINUOUS
10
6.17646
20
-3.68904
11
6.17884
21
-3.69856
0
LINE
8
CYAN2
6
CONTINUOUS
10
6.17884
20
-3.69856
11
6.17884
21
-3.7057
0
LINE
8
CYAN2
6
CONTINUOUS
10
6.17884
20
-3.7057
11
6.17646
21
-3.71523
0
LINE
8
CYAN2
6
CONTINUOUS
10
6.17646
20
-3.71523
11
6.17407
21
-3.71999
0
LINE
8
CYAN2
6
CONTINUOUS
10
6.17407
20
-3.71999
11
6.16931
21
-3.72475
0
LINE
8
CYAN2
6
CONTINUOUS
10
6.16931
20
-3.72475
11
6.16217
21
-3.72713
0
LINE
8
CYAN2
6
CONTINUOUS
10
6.16217
20
-3.72713
11
6.15027
21
-3.72713
0
LINE
8
RED2
6
CONTINUOUS
10
5.925
20
-3.625
11
5.925
21
-3.725
0
LINE
8
RED2
6
CONTINUOUS
10
5.925
20
-3.525
11
5.925
21
-3.425
  0
ENDSEC
  0
EOF
