G04 #@! TF.GenerationSoftware,KiCad,Pcbnew,6.0.10+dfsg-1~bpo11+1*
G04 #@! TF.CreationDate,2023-02-10T23:49:39+00:00*
G04 #@! TF.ProjectId,kicad-automation-test,6b696361-642d-4617-9574-6f6d6174696f,rev?*
G04 #@! TF.SameCoordinates,Original*
G04 #@! TF.FileFunction,Soldermask,Top*
G04 #@! TF.FilePolarity,Negative*
%FSLAX46Y46*%
G04 Gerber Fmt 4.6, Leading zero omitted, Abs format (unit mm)*
G04 Created by KiCad (PCBNEW 6.0.10+dfsg-1~bpo11+1) date 2023-02-10 23:49:39*
%MOMM*%
%LPD*%
G01*
G04 APERTURE LIST*
%ADD10R,2.400000X2.400000*%
%ADD11C,2.400000*%
%ADD12C,2.200000*%
G04 APERTURE END LIST*
D10*
X136000000Y-88250000D03*
D11*
X136000000Y-91750000D03*
G36*
G01*
X142456250Y-93275000D02*
X141543750Y-93275000D01*
G75*
G02*
X141300000Y-93031250I0J243750D01*
G01*
X141300000Y-92543750D01*
G75*
G02*
X141543750Y-92300000I243750J0D01*
G01*
X142456250Y-92300000D01*
G75*
G02*
X142700000Y-92543750I0J-243750D01*
G01*
X142700000Y-93031250D01*
G75*
G02*
X142456250Y-93275000I-243750J0D01*
G01*
G37*
G36*
G01*
X142456250Y-91400000D02*
X141543750Y-91400000D01*
G75*
G02*
X141300000Y-91156250I0J243750D01*
G01*
X141300000Y-90668750D01*
G75*
G02*
X141543750Y-90425000I243750J0D01*
G01*
X142456250Y-90425000D01*
G75*
G02*
X142700000Y-90668750I0J-243750D01*
G01*
X142700000Y-91156250D01*
G75*
G02*
X142456250Y-91400000I-243750J0D01*
G01*
G37*
G36*
G01*
X141550000Y-86575000D02*
X142450000Y-86575000D01*
G75*
G02*
X142700000Y-86825000I0J-250000D01*
G01*
X142700000Y-87350000D01*
G75*
G02*
X142450000Y-87600000I-250000J0D01*
G01*
X141550000Y-87600000D01*
G75*
G02*
X141300000Y-87350000I0J250000D01*
G01*
X141300000Y-86825000D01*
G75*
G02*
X141550000Y-86575000I250000J0D01*
G01*
G37*
G36*
G01*
X141550000Y-88400000D02*
X142450000Y-88400000D01*
G75*
G02*
X142700000Y-88650000I0J-250000D01*
G01*
X142700000Y-89175000D01*
G75*
G02*
X142450000Y-89425000I-250000J0D01*
G01*
X141550000Y-89425000D01*
G75*
G02*
X141300000Y-89175000I0J250000D01*
G01*
X141300000Y-88650000D01*
G75*
G02*
X141550000Y-88400000I250000J0D01*
G01*
G37*
D12*
X148000000Y-83000000D03*
X148000000Y-97000000D03*
X134000000Y-83000000D03*
X134000000Y-97000000D03*
M02*
