%TF.GenerationSoftware,KiCad,Pcbnew,6.0.10+dfsg-1~bpo11+1*%
%TF.CreationDate,2023-02-10T23:25:59+00:00*%
%TF.ProjectId,kicad-automation-test,6b696361-642d-4617-9574-6f6d6174696f,rev?*%
%TF.SameCoordinates,Original*%
%TF.FileFunction,AssemblyDrawing,Top*%
%FSLAX46Y46*%
G04 Gerber Fmt 4.6, Leading zero omitted, Abs format (unit mm)*
G04 Created by KiCad (PCBNEW 6.0.10+dfsg-1~bpo11+1) date 2023-02-10 23:25:59*
%MOMM*%
%LPD*%
G01*
G04 APERTURE LIST*
%ADD10C,0.150000*%
%ADD11C,0.080000*%
%ADD12C,0.100000*%
G04 APERTURE END LIST*
D10*
%TO.C,J1*%
X130892380Y-91642857D02*
X129892380Y-91642857D01*
X130225714Y-91166666D02*
X130892380Y-91166666D01*
X130320952Y-91166666D02*
X130273333Y-91119047D01*
X130225714Y-91023809D01*
X130225714Y-90880952D01*
X130273333Y-90785714D01*
X130368571Y-90738095D01*
X130892380Y-90738095D01*
X130225714Y-90261904D02*
X131225714Y-90261904D01*
X130273333Y-90261904D02*
X130225714Y-90166666D01*
X130225714Y-89976190D01*
X130273333Y-89880952D01*
X130320952Y-89833333D01*
X130416190Y-89785714D01*
X130701904Y-89785714D01*
X130797142Y-89833333D01*
X130844761Y-89880952D01*
X130892380Y-89976190D01*
X130892380Y-90166666D01*
X130844761Y-90261904D01*
X130225714Y-88928571D02*
X130892380Y-88928571D01*
X130225714Y-89357142D02*
X130749523Y-89357142D01*
X130844761Y-89309523D01*
X130892380Y-89214285D01*
X130892380Y-89071428D01*
X130844761Y-88976190D01*
X130797142Y-88928571D01*
X130225714Y-88595238D02*
X130225714Y-88214285D01*
X129892380Y-88452380D02*
X130749523Y-88452380D01*
X130844761Y-88404761D01*
X130892380Y-88309523D01*
X130892380Y-88214285D01*
X133052380Y-90333333D02*
X133766666Y-90333333D01*
X133909523Y-90380952D01*
X134004761Y-90476190D01*
X134052380Y-90619047D01*
X134052380Y-90714285D01*
X134052380Y-89333333D02*
X134052380Y-89904761D01*
X134052380Y-89619047D02*
X133052380Y-89619047D01*
X133195238Y-89714285D01*
X133290476Y-89809523D01*
X133338095Y-89904761D01*
%TO.C,D1*%
X144102380Y-92492857D02*
X143626190Y-92826190D01*
X144102380Y-93064285D02*
X143102380Y-93064285D01*
X143102380Y-92683333D01*
X143150000Y-92588095D01*
X143197619Y-92540476D01*
X143292857Y-92492857D01*
X143435714Y-92492857D01*
X143530952Y-92540476D01*
X143578571Y-92588095D01*
X143626190Y-92683333D01*
X143626190Y-93064285D01*
X143578571Y-92064285D02*
X143578571Y-91730952D01*
X144102380Y-91588095D02*
X144102380Y-92064285D01*
X143102380Y-92064285D01*
X143102380Y-91588095D01*
X144102380Y-91159523D02*
X143102380Y-91159523D01*
X143102380Y-90921428D01*
X143150000Y-90778571D01*
X143245238Y-90683333D01*
X143340476Y-90635714D01*
X143530952Y-90588095D01*
X143673809Y-90588095D01*
X143864285Y-90635714D01*
X143959523Y-90683333D01*
X144054761Y-90778571D01*
X144102380Y-90921428D01*
X144102380Y-91159523D01*
D11*
X142226190Y-92219047D02*
X141726190Y-92219047D01*
X141726190Y-92100000D01*
X141750000Y-92028571D01*
X141797619Y-91980952D01*
X141845238Y-91957142D01*
X141940476Y-91933333D01*
X142011904Y-91933333D01*
X142107142Y-91957142D01*
X142154761Y-91980952D01*
X142202380Y-92028571D01*
X142226190Y-92100000D01*
X142226190Y-92219047D01*
X142226190Y-91457142D02*
X142226190Y-91742857D01*
X142226190Y-91600000D02*
X141726190Y-91600000D01*
X141797619Y-91647619D01*
X141845238Y-91695238D01*
X141869047Y-91742857D01*
D10*
%TO.C,R1*%
X140802380Y-89166666D02*
X140802380Y-89738095D01*
X140802380Y-89452380D02*
X139802380Y-89452380D01*
X139945238Y-89547619D01*
X140040476Y-89642857D01*
X140088095Y-89738095D01*
X139897619Y-88785714D02*
X139850000Y-88738095D01*
X139802380Y-88642857D01*
X139802380Y-88404761D01*
X139850000Y-88309523D01*
X139897619Y-88261904D01*
X139992857Y-88214285D01*
X140088095Y-88214285D01*
X140230952Y-88261904D01*
X140802380Y-88833333D01*
X140802380Y-88214285D01*
X139802380Y-87595238D02*
X139802380Y-87500000D01*
X139850000Y-87404761D01*
X139897619Y-87357142D01*
X139992857Y-87309523D01*
X140183333Y-87261904D01*
X140421428Y-87261904D01*
X140611904Y-87309523D01*
X140707142Y-87357142D01*
X140754761Y-87404761D01*
X140802380Y-87500000D01*
X140802380Y-87595238D01*
X140754761Y-87690476D01*
X140707142Y-87738095D01*
X140611904Y-87785714D01*
X140421428Y-87833333D01*
X140183333Y-87833333D01*
X139992857Y-87785714D01*
X139897619Y-87738095D01*
X139850000Y-87690476D01*
X139802380Y-87595238D01*
X140802380Y-86261904D02*
X140326190Y-86595238D01*
X140802380Y-86833333D02*
X139802380Y-86833333D01*
X139802380Y-86452380D01*
X139850000Y-86357142D01*
X139897619Y-86309523D01*
X139992857Y-86261904D01*
X140135714Y-86261904D01*
X140230952Y-86309523D01*
X140278571Y-86357142D01*
X140326190Y-86452380D01*
X140326190Y-86833333D01*
D11*
X142226190Y-88083333D02*
X141988095Y-88250000D01*
X142226190Y-88369047D02*
X141726190Y-88369047D01*
X141726190Y-88178571D01*
X141750000Y-88130952D01*
X141773809Y-88107142D01*
X141821428Y-88083333D01*
X141892857Y-88083333D01*
X141940476Y-88107142D01*
X141964285Y-88130952D01*
X141988095Y-88178571D01*
X141988095Y-88369047D01*
X142226190Y-87607142D02*
X142226190Y-87892857D01*
X142226190Y-87750000D02*
X141726190Y-87750000D01*
X141797619Y-87797619D01*
X141845238Y-87845238D01*
X141869047Y-87892857D01*
D10*
%TO.C,H1*%
X147190476Y-86652380D02*
X147190476Y-85652380D01*
X147523809Y-86366666D01*
X147857142Y-85652380D01*
X147857142Y-86652380D01*
X148285714Y-85747619D02*
X148333333Y-85700000D01*
X148428571Y-85652380D01*
X148666666Y-85652380D01*
X148761904Y-85700000D01*
X148809523Y-85747619D01*
X148857142Y-85842857D01*
X148857142Y-85938095D01*
X148809523Y-86080952D01*
X148238095Y-86652380D01*
X148857142Y-86652380D01*
X147238095Y-83452380D02*
X147238095Y-82452380D01*
X147238095Y-82928571D02*
X147809523Y-82928571D01*
X147809523Y-83452380D02*
X147809523Y-82452380D01*
X148809523Y-83452380D02*
X148238095Y-83452380D01*
X148523809Y-83452380D02*
X148523809Y-82452380D01*
X148428571Y-82595238D01*
X148333333Y-82690476D01*
X148238095Y-82738095D01*
%TO.C,H2*%
X147190476Y-100652380D02*
X147190476Y-99652380D01*
X147523809Y-100366666D01*
X147857142Y-99652380D01*
X147857142Y-100652380D01*
X148285714Y-99747619D02*
X148333333Y-99700000D01*
X148428571Y-99652380D01*
X148666666Y-99652380D01*
X148761904Y-99700000D01*
X148809523Y-99747619D01*
X148857142Y-99842857D01*
X148857142Y-99938095D01*
X148809523Y-100080952D01*
X148238095Y-100652380D01*
X148857142Y-100652380D01*
X147238095Y-97452380D02*
X147238095Y-96452380D01*
X147238095Y-96928571D02*
X147809523Y-96928571D01*
X147809523Y-97452380D02*
X147809523Y-96452380D01*
X148238095Y-96547619D02*
X148285714Y-96500000D01*
X148380952Y-96452380D01*
X148619047Y-96452380D01*
X148714285Y-96500000D01*
X148761904Y-96547619D01*
X148809523Y-96642857D01*
X148809523Y-96738095D01*
X148761904Y-96880952D01*
X148190476Y-97452380D01*
X148809523Y-97452380D01*
%TO.C,H3*%
X133190476Y-86652380D02*
X133190476Y-85652380D01*
X133523809Y-86366666D01*
X133857142Y-85652380D01*
X133857142Y-86652380D01*
X134285714Y-85747619D02*
X134333333Y-85700000D01*
X134428571Y-85652380D01*
X134666666Y-85652380D01*
X134761904Y-85700000D01*
X134809523Y-85747619D01*
X134857142Y-85842857D01*
X134857142Y-85938095D01*
X134809523Y-86080952D01*
X134238095Y-86652380D01*
X134857142Y-86652380D01*
X133238095Y-83452380D02*
X133238095Y-82452380D01*
X133238095Y-82928571D02*
X133809523Y-82928571D01*
X133809523Y-83452380D02*
X133809523Y-82452380D01*
X134190476Y-82452380D02*
X134809523Y-82452380D01*
X134476190Y-82833333D01*
X134619047Y-82833333D01*
X134714285Y-82880952D01*
X134761904Y-82928571D01*
X134809523Y-83023809D01*
X134809523Y-83261904D01*
X134761904Y-83357142D01*
X134714285Y-83404761D01*
X134619047Y-83452380D01*
X134333333Y-83452380D01*
X134238095Y-83404761D01*
X134190476Y-83357142D01*
%TO.C,H4*%
X133190476Y-100652380D02*
X133190476Y-99652380D01*
X133523809Y-100366666D01*
X133857142Y-99652380D01*
X133857142Y-100652380D01*
X134285714Y-99747619D02*
X134333333Y-99700000D01*
X134428571Y-99652380D01*
X134666666Y-99652380D01*
X134761904Y-99700000D01*
X134809523Y-99747619D01*
X134857142Y-99842857D01*
X134857142Y-99938095D01*
X134809523Y-100080952D01*
X134238095Y-100652380D01*
X134857142Y-100652380D01*
X133238095Y-97452380D02*
X133238095Y-96452380D01*
X133238095Y-96928571D02*
X133809523Y-96928571D01*
X133809523Y-97452380D02*
X133809523Y-96452380D01*
X134714285Y-96785714D02*
X134714285Y-97452380D01*
X134476190Y-96404761D02*
X134238095Y-97119047D01*
X134857142Y-97119047D01*
D12*
%TO.C,J1*%
X136955000Y-89388000D02*
X134862000Y-87295000D01*
X139100000Y-86500000D02*
X139100000Y-93500000D01*
X137138000Y-89205000D02*
X135045000Y-87112000D01*
X131900000Y-86500000D02*
X131900000Y-93500000D01*
X139100000Y-93500000D02*
X131500000Y-93500000D01*
X137138000Y-92705000D02*
X135045000Y-90613000D01*
X136955000Y-92888000D02*
X134862000Y-90796000D01*
X131500000Y-93500000D02*
X131500000Y-86900000D01*
X131500000Y-86900000D02*
X131900000Y-86500000D01*
X131900000Y-86500000D02*
X139100000Y-86500000D01*
X133000000Y-86500000D02*
X133000000Y-93500000D01*
X137500000Y-91750000D02*
G75*
G03*
X137500000Y-91750000I-1500000J0D01*
G01*
X137500000Y-88250000D02*
G75*
G03*
X137500000Y-88250000I-1500000J0D01*
G01*
%TO.C,D1*%
X142600000Y-90850000D02*
X141400000Y-90850000D01*
X141400000Y-90850000D02*
X141400000Y-92550000D01*
X141700000Y-92850000D02*
X142600000Y-92850000D01*
X142600000Y-92850000D02*
X142600000Y-90850000D01*
X141400000Y-92550000D02*
X141700000Y-92850000D01*
%TO.C,R1*%
X141375000Y-87000000D02*
X142625000Y-87000000D01*
X142625000Y-87000000D02*
X142625000Y-89000000D01*
X142625000Y-89000000D02*
X141375000Y-89000000D01*
X141375000Y-89000000D02*
X141375000Y-87000000D01*
%TD*%
M02*
