%TF.GenerationSoftware,KiCad,Pcbnew,6.0.10+dfsg-1~bpo11+1*%
%TF.CreationDate,2023-02-10T23:25:59+00:00*%
%TF.ProjectId,kicad-automation-test,6b696361-642d-4617-9574-6f6d6174696f,rev?*%
%TF.SameCoordinates,Original*%
%TF.FileFunction,OtherDrawing,Comment*%
%FSLAX46Y46*%
G04 Gerber Fmt 4.6, Leading zero omitted, Abs format (unit mm)*
G04 Created by KiCad (PCBNEW 6.0.10+dfsg-1~bpo11+1) date 2023-02-10 23:25:59*
%MOMM*%
%LPD*%
G01*
G04 APERTURE LIST*
%ADD10C,0.150000*%
G04 APERTURE END LIST*
D10*
X124302380Y-93261904D02*
X124302380Y-93166666D01*
X124350000Y-93071428D01*
X124397619Y-93023809D01*
X124492857Y-92976190D01*
X124683333Y-92928571D01*
X124921428Y-92928571D01*
X125111904Y-92976190D01*
X125207142Y-93023809D01*
X125254761Y-93071428D01*
X125302380Y-93166666D01*
X125302380Y-93261904D01*
X125254761Y-93357142D01*
X125207142Y-93404761D01*
X125111904Y-93452380D01*
X124921428Y-93500000D01*
X124683333Y-93500000D01*
X124492857Y-93452380D01*
X124397619Y-93404761D01*
X124350000Y-93357142D01*
X124302380Y-93261904D01*
X125207142Y-92500000D02*
X125254761Y-92452380D01*
X125302380Y-92500000D01*
X125254761Y-92547619D01*
X125207142Y-92500000D01*
X125302380Y-92500000D01*
X124302380Y-92119047D02*
X124302380Y-91452380D01*
X125302380Y-91880952D01*
X124730952Y-90928571D02*
X124683333Y-91023809D01*
X124635714Y-91071428D01*
X124540476Y-91119047D01*
X124492857Y-91119047D01*
X124397619Y-91071428D01*
X124350000Y-91023809D01*
X124302380Y-90928571D01*
X124302380Y-90738095D01*
X124350000Y-90642857D01*
X124397619Y-90595238D01*
X124492857Y-90547619D01*
X124540476Y-90547619D01*
X124635714Y-90595238D01*
X124683333Y-90642857D01*
X124730952Y-90738095D01*
X124730952Y-90928571D01*
X124778571Y-91023809D01*
X124826190Y-91071428D01*
X124921428Y-91119047D01*
X125111904Y-91119047D01*
X125207142Y-91071428D01*
X125254761Y-91023809D01*
X125302380Y-90928571D01*
X125302380Y-90738095D01*
X125254761Y-90642857D01*
X125207142Y-90595238D01*
X125111904Y-90547619D01*
X124921428Y-90547619D01*
X124826190Y-90595238D01*
X124778571Y-90642857D01*
X124730952Y-90738095D01*
X124302380Y-90214285D02*
X124302380Y-89547619D01*
X125302380Y-89976190D01*
X124635714Y-88738095D02*
X125302380Y-88738095D01*
X124254761Y-88976190D02*
X124969047Y-89214285D01*
X124969047Y-88595238D01*
X125302380Y-87452380D02*
X124635714Y-87452380D01*
X124302380Y-87452380D02*
X124350000Y-87500000D01*
X124397619Y-87452380D01*
X124350000Y-87404761D01*
X124302380Y-87452380D01*
X124397619Y-87452380D01*
X124635714Y-86976190D02*
X125302380Y-86976190D01*
X124730952Y-86976190D02*
X124683333Y-86928571D01*
X124635714Y-86833333D01*
X124635714Y-86690476D01*
X124683333Y-86595238D01*
X124778571Y-86547619D01*
X125302380Y-86547619D01*
X133500000Y-100000000D02*
X125413580Y-100000000D01*
X133500000Y-80000000D02*
X125413580Y-80000000D01*
X126000000Y-100000000D02*
X126000000Y-80000000D01*
X126000000Y-100000000D02*
X126000000Y-80000000D01*
X126000000Y-100000000D02*
X126586421Y-98873496D01*
X126000000Y-100000000D02*
X125413579Y-98873496D01*
X126000000Y-80000000D02*
X125413579Y-81126504D01*
X126000000Y-80000000D02*
X126586421Y-81126504D01*
X137738095Y-74302380D02*
X137833333Y-74302380D01*
X137928571Y-74350000D01*
X137976190Y-74397619D01*
X138023809Y-74492857D01*
X138071428Y-74683333D01*
X138071428Y-74921428D01*
X138023809Y-75111904D01*
X137976190Y-75207142D01*
X137928571Y-75254761D01*
X137833333Y-75302380D01*
X137738095Y-75302380D01*
X137642857Y-75254761D01*
X137595238Y-75207142D01*
X137547619Y-75111904D01*
X137500000Y-74921428D01*
X137500000Y-74683333D01*
X137547619Y-74492857D01*
X137595238Y-74397619D01*
X137642857Y-74350000D01*
X137738095Y-74302380D01*
X138500000Y-75207142D02*
X138547619Y-75254761D01*
X138500000Y-75302380D01*
X138452380Y-75254761D01*
X138500000Y-75207142D01*
X138500000Y-75302380D01*
X138880952Y-74302380D02*
X139547619Y-74302380D01*
X139119047Y-75302380D01*
X140071428Y-74730952D02*
X139976190Y-74683333D01*
X139928571Y-74635714D01*
X139880952Y-74540476D01*
X139880952Y-74492857D01*
X139928571Y-74397619D01*
X139976190Y-74350000D01*
X140071428Y-74302380D01*
X140261904Y-74302380D01*
X140357142Y-74350000D01*
X140404761Y-74397619D01*
X140452380Y-74492857D01*
X140452380Y-74540476D01*
X140404761Y-74635714D01*
X140357142Y-74683333D01*
X140261904Y-74730952D01*
X140071428Y-74730952D01*
X139976190Y-74778571D01*
X139928571Y-74826190D01*
X139880952Y-74921428D01*
X139880952Y-75111904D01*
X139928571Y-75207142D01*
X139976190Y-75254761D01*
X140071428Y-75302380D01*
X140261904Y-75302380D01*
X140357142Y-75254761D01*
X140404761Y-75207142D01*
X140452380Y-75111904D01*
X140452380Y-74921428D01*
X140404761Y-74826190D01*
X140357142Y-74778571D01*
X140261904Y-74730952D01*
X140785714Y-74302380D02*
X141452380Y-74302380D01*
X141023809Y-75302380D01*
X142261904Y-74635714D02*
X142261904Y-75302380D01*
X142023809Y-74254761D02*
X141785714Y-74969047D01*
X142404761Y-74969047D01*
X143547619Y-75302380D02*
X143547619Y-74635714D01*
X143547619Y-74302380D02*
X143500000Y-74350000D01*
X143547619Y-74397619D01*
X143595238Y-74350000D01*
X143547619Y-74302380D01*
X143547619Y-74397619D01*
X144023809Y-74635714D02*
X144023809Y-75302380D01*
X144023809Y-74730952D02*
X144071428Y-74683333D01*
X144166666Y-74635714D01*
X144309523Y-74635714D01*
X144404761Y-74683333D01*
X144452380Y-74778571D01*
X144452380Y-75302380D01*
X131000000Y-82500000D02*
X131000000Y-75413580D01*
X151000000Y-82500000D02*
X151000000Y-75413580D01*
X131000000Y-76000000D02*
X151000000Y-76000000D01*
X131000000Y-76000000D02*
X151000000Y-76000000D01*
X131000000Y-76000000D02*
X132126504Y-76586421D01*
X131000000Y-76000000D02*
X132126504Y-75413579D01*
X151000000Y-76000000D02*
X149873496Y-75413579D01*
X151000000Y-76000000D02*
X149873496Y-76586421D01*
M02*
