G04 #@! TF.GenerationSoftware,KiCad,Pcbnew,6.0.10+dfsg-1~bpo11+1*
G04 #@! TF.CreationDate,2023-02-10T23:29:04+00:00*
G04 #@! TF.ProjectId,stencil,7374656e-6369-46c2-9e6b-696361645f70,rev?*
G04 #@! TF.SameCoordinates,Original*
G04 #@! TF.FileFunction,Paste,Top*
G04 #@! TF.FilePolarity,Positive*
%FSLAX46Y46*%
G04 Gerber Fmt 4.6, Leading zero omitted, Abs format (unit mm)*
G04 Created by KiCad (PCBNEW 6.0.10+dfsg-1~bpo11+1) date 2023-02-10 23:29:04*
%MOMM*%
%LPD*%
G01*
G04 APERTURE LIST*
G04 Aperture macros list*
%AMRoundRect*
0 Rectangle with rounded corners*
0 $1 Rounding radius*
0 $2 $3 $4 $5 $6 $7 $8 $9 X,Y pos of 4 corners*
0 Add a 4 corners polygon primitive as box body*
4,1,4,$2,$3,$4,$5,$6,$7,$8,$9,$2,$3,0*
0 Add four circle primitives for the rounded corners*
1,1,$1+$1,$2,$3*
1,1,$1+$1,$4,$5*
1,1,$1+$1,$6,$7*
1,1,$1+$1,$8,$9*
0 Add four rect primitives between the rounded corners*
20,1,$1+$1,$2,$3,$4,$5,0*
20,1,$1+$1,$4,$5,$6,$7,0*
20,1,$1+$1,$6,$7,$8,$9,0*
20,1,$1+$1,$8,$9,$2,$3,0*%
G04 Aperture macros list end*
%ADD10C,0.500000*%
%ADD11C,1.050000*%
%ADD12C,1.000000*%
%ADD13RoundRect,0.243750X0.456250X-0.243750X0.456250X0.243750X-0.456250X0.243750X-0.456250X-0.243750X0*%
%ADD14RoundRect,0.250000X-0.450000X0.262500X-0.450000X-0.262500X0.450000X-0.262500X0.450000X0.262500X0*%
G04 APERTURE END LIST*
D10*
X154400000Y-152000000D02*
X164800000Y-152000000D01*
X203000000Y-140600000D02*
X203000000Y-151000000D01*
X79000000Y-53800000D02*
X79000000Y-64200000D01*
X179200000Y-28000000D02*
X189600000Y-28000000D01*
D11*
X82775000Y-148750000D02*
G75*
G03*
X82775000Y-148750000I-525000J0D01*
G01*
D10*
X166800000Y-152000000D02*
X177200000Y-152000000D01*
X79500000Y-115300000D02*
G75*
G03*
X79000000Y-115800000I0J-500000D01*
G01*
X79000000Y-113800000D02*
G75*
G03*
X79500000Y-114300000I500000J0D01*
G01*
X203000000Y-66200000D02*
X203000000Y-76600000D01*
X79000000Y-140600000D02*
X79000000Y-151000000D01*
X202500000Y-52300000D02*
G75*
G03*
X203000000Y-51800000I0J500000D01*
G01*
D12*
X112125000Y-148750000D02*
G75*
G03*
X112125000Y-148750000I-500000J0D01*
G01*
D10*
X202500000Y-64700000D02*
G75*
G03*
X203000000Y-64200000I0J500000D01*
G01*
X179200000Y-152000000D02*
X189600000Y-152000000D01*
X166300000Y-151500000D02*
G75*
G03*
X166800000Y-152000000I500000J0D01*
G01*
X115700000Y-28500000D02*
G75*
G03*
X115200000Y-28000000I-500000J0D01*
G01*
X153900000Y-151500000D02*
G75*
G03*
X154400000Y-152000000I500000J0D01*
G01*
X117200000Y-28000000D02*
X127600000Y-28000000D01*
X203000000Y-41400000D02*
X203000000Y-51800000D01*
X142000000Y-28000000D02*
G75*
G03*
X141500000Y-28500000I0J-500000D01*
G01*
X202500000Y-89500000D02*
G75*
G03*
X203000000Y-89000000I0J500000D01*
G01*
D12*
X170875000Y-31250000D02*
G75*
G03*
X170875000Y-31250000I-500000J0D01*
G01*
D10*
X79000000Y-128200000D02*
X79000000Y-138600000D01*
X166800000Y-28000000D02*
X177200000Y-28000000D01*
X203000000Y-91000000D02*
G75*
G03*
X202500000Y-90500000I-500000J0D01*
G01*
X92400000Y-28000000D02*
G75*
G03*
X91900000Y-28500000I0J-500000D01*
G01*
X154400000Y-28000000D02*
G75*
G03*
X153900000Y-28500000I0J-500000D01*
G01*
X203000000Y-41400000D02*
G75*
G03*
X202500000Y-40900000I-500000J0D01*
G01*
X79000000Y-91000000D02*
X79000000Y-101400000D01*
D12*
X170875000Y-148750000D02*
G75*
G03*
X170875000Y-148750000I-500000J0D01*
G01*
D10*
X202000000Y-152000000D02*
G75*
G03*
X203000000Y-151000000I0J1000000D01*
G01*
X140000000Y-152000000D02*
G75*
G03*
X140500000Y-151500000I0J500000D01*
G01*
X104300000Y-151500000D02*
G75*
G03*
X104800000Y-152000000I500000J0D01*
G01*
X79000000Y-151000000D02*
G75*
G03*
X80000000Y-152000000I1000000J0D01*
G01*
X203000000Y-103400000D02*
X203000000Y-113800000D01*
X177700000Y-28500000D02*
G75*
G03*
X177200000Y-28000000I-500000J0D01*
G01*
X203000000Y-29000000D02*
X203000000Y-39400000D01*
X79000000Y-126200000D02*
G75*
G03*
X79500000Y-126700000I500000J0D01*
G01*
X191100000Y-151500000D02*
G75*
G03*
X191600000Y-152000000I500000J0D01*
G01*
X140500000Y-28500000D02*
G75*
G03*
X140000000Y-28000000I-500000J0D01*
G01*
X203000000Y-103400000D02*
G75*
G03*
X202500000Y-102900000I-500000J0D01*
G01*
X203000000Y-29000000D02*
G75*
G03*
X202000000Y-28000000I-1000000J0D01*
G01*
X116700000Y-151500000D02*
G75*
G03*
X117200000Y-152000000I500000J0D01*
G01*
X92400000Y-152000000D02*
X102800000Y-152000000D01*
X80000000Y-152000000D02*
X90400000Y-152000000D01*
D12*
X82750000Y-60625000D02*
G75*
G03*
X82750000Y-60625000I-500000J0D01*
G01*
D10*
X203000000Y-53800000D02*
X203000000Y-64200000D01*
X203000000Y-140600000D02*
G75*
G03*
X202500000Y-140100000I-500000J0D01*
G01*
X79000000Y-115800000D02*
X79000000Y-126200000D01*
X203000000Y-128200000D02*
G75*
G03*
X202500000Y-127700000I-500000J0D01*
G01*
X202500000Y-114300000D02*
G75*
G03*
X203000000Y-113800000I0J500000D01*
G01*
X79000000Y-76600000D02*
G75*
G03*
X79500000Y-77100000I500000J0D01*
G01*
X79500000Y-90500000D02*
G75*
G03*
X79000000Y-91000000I0J-500000D01*
G01*
X203000000Y-78600000D02*
G75*
G03*
X202500000Y-78100000I-500000J0D01*
G01*
X129600000Y-152000000D02*
X140000000Y-152000000D01*
X203000000Y-115800000D02*
X203000000Y-126200000D01*
X117200000Y-152000000D02*
X127600000Y-152000000D01*
X202500000Y-126700000D02*
G75*
G03*
X203000000Y-126200000I0J500000D01*
G01*
X178700000Y-151500000D02*
G75*
G03*
X179200000Y-152000000I500000J0D01*
G01*
X152900000Y-28500000D02*
G75*
G03*
X152400000Y-28000000I-500000J0D01*
G01*
D12*
X200250000Y-60625000D02*
G75*
G03*
X200250000Y-60625000I-500000J0D01*
G01*
X82750000Y-90000000D02*
G75*
G03*
X82750000Y-90000000I-500000J0D01*
G01*
D10*
X203000000Y-78600000D02*
X203000000Y-89000000D01*
X202500000Y-39900000D02*
G75*
G03*
X203000000Y-39400000I0J500000D01*
G01*
D12*
X112125000Y-31250000D02*
G75*
G03*
X112125000Y-31250000I-500000J0D01*
G01*
D10*
X141500000Y-151500000D02*
G75*
G03*
X142000000Y-152000000I500000J0D01*
G01*
X202500000Y-77100000D02*
G75*
G03*
X203000000Y-76600000I0J500000D01*
G01*
X79000000Y-66200000D02*
X79000000Y-76600000D01*
X142000000Y-28000000D02*
X152400000Y-28000000D01*
X79000000Y-138600000D02*
G75*
G03*
X79500000Y-139100000I500000J0D01*
G01*
X127600000Y-152000000D02*
G75*
G03*
X128100000Y-151500000I0J500000D01*
G01*
X165300000Y-28500000D02*
G75*
G03*
X164800000Y-28000000I-500000J0D01*
G01*
X202500000Y-101900000D02*
G75*
G03*
X203000000Y-101400000I0J500000D01*
G01*
X203000000Y-53800000D02*
G75*
G03*
X202500000Y-53300000I-500000J0D01*
G01*
X79500000Y-140100000D02*
G75*
G03*
X79000000Y-140600000I0J-500000D01*
G01*
D12*
X200250000Y-119375000D02*
G75*
G03*
X200250000Y-119375000I-500000J0D01*
G01*
D10*
X79000000Y-41400000D02*
X79000000Y-51800000D01*
X79000000Y-103400000D02*
X79000000Y-113800000D01*
X191600000Y-28000000D02*
X202000000Y-28000000D01*
X79500000Y-65700000D02*
G75*
G03*
X79000000Y-66200000I0J-500000D01*
G01*
X102800000Y-152000000D02*
G75*
G03*
X103300000Y-151500000I0J500000D01*
G01*
X129600000Y-28000000D02*
X140000000Y-28000000D01*
X190100000Y-28500000D02*
G75*
G03*
X189600000Y-28000000I-500000J0D01*
G01*
X203000000Y-128200000D02*
X203000000Y-138600000D01*
X128100000Y-28500000D02*
G75*
G03*
X127600000Y-28000000I-500000J0D01*
G01*
X164800000Y-152000000D02*
G75*
G03*
X165300000Y-151500000I0J500000D01*
G01*
D11*
X82775000Y-31250000D02*
G75*
G03*
X82775000Y-31250000I-525000J0D01*
G01*
D10*
X191600000Y-152000000D02*
X202000000Y-152000000D01*
D12*
X141500000Y-148750000D02*
G75*
G03*
X141500000Y-148750000I-500000J0D01*
G01*
D10*
X79000000Y-29000000D02*
X79000000Y-39400000D01*
X203000000Y-66200000D02*
G75*
G03*
X202500000Y-65700000I-500000J0D01*
G01*
X203000000Y-91000000D02*
X203000000Y-101400000D01*
X179200000Y-28000000D02*
G75*
G03*
X178700000Y-28500000I0J-500000D01*
G01*
X154400000Y-28000000D02*
X164800000Y-28000000D01*
X129100000Y-151500000D02*
G75*
G03*
X129600000Y-152000000I500000J0D01*
G01*
X92400000Y-28000000D02*
X102800000Y-28000000D01*
X191600000Y-28000000D02*
G75*
G03*
X191100000Y-28500000I0J-500000D01*
G01*
X80000000Y-28000000D02*
X90400000Y-28000000D01*
D12*
X82750000Y-119375000D02*
G75*
G03*
X82750000Y-119375000I-500000J0D01*
G01*
D10*
X189600000Y-152000000D02*
G75*
G03*
X190100000Y-151500000I0J500000D01*
G01*
X129600000Y-28000000D02*
G75*
G03*
X129100000Y-28500000I0J-500000D01*
G01*
X115200000Y-152000000D02*
G75*
G03*
X115700000Y-151500000I0J500000D01*
G01*
X79500000Y-78100000D02*
G75*
G03*
X79000000Y-78600000I0J-500000D01*
G01*
X79500000Y-127700000D02*
G75*
G03*
X79000000Y-128200000I0J-500000D01*
G01*
X79500000Y-102900000D02*
G75*
G03*
X79000000Y-103400000I0J-500000D01*
G01*
X142000000Y-152000000D02*
X152400000Y-152000000D01*
X79000000Y-51800000D02*
G75*
G03*
X79500000Y-52300000I500000J0D01*
G01*
X90400000Y-152000000D02*
G75*
G03*
X90900000Y-151500000I0J500000D01*
G01*
D12*
X141500000Y-31250000D02*
G75*
G03*
X141500000Y-31250000I-500000J0D01*
G01*
D10*
X79500000Y-53300000D02*
G75*
G03*
X79000000Y-53800000I0J-500000D01*
G01*
X79000000Y-64200000D02*
G75*
G03*
X79500000Y-64700000I500000J0D01*
G01*
X104800000Y-28000000D02*
G75*
G03*
X104300000Y-28500000I0J-500000D01*
G01*
X79000000Y-101400000D02*
G75*
G03*
X79500000Y-101900000I500000J0D01*
G01*
X79000000Y-89000000D02*
G75*
G03*
X79500000Y-89500000I500000J0D01*
G01*
X166800000Y-28000000D02*
G75*
G03*
X166300000Y-28500000I0J-500000D01*
G01*
X152400000Y-152000000D02*
G75*
G03*
X152900000Y-151500000I0J500000D01*
G01*
X79000000Y-39400000D02*
G75*
G03*
X79500000Y-39900000I500000J0D01*
G01*
X203000000Y-115800000D02*
G75*
G03*
X202500000Y-115300000I-500000J0D01*
G01*
X91900000Y-151500000D02*
G75*
G03*
X92400000Y-152000000I500000J0D01*
G01*
X90900000Y-28500000D02*
G75*
G03*
X90400000Y-28000000I-500000J0D01*
G01*
X117200000Y-28000000D02*
G75*
G03*
X116700000Y-28500000I0J-500000D01*
G01*
X80000000Y-28000000D02*
G75*
G03*
X79000000Y-29000000I0J-1000000D01*
G01*
X177200000Y-152000000D02*
G75*
G03*
X177700000Y-151500000I0J500000D01*
G01*
X79500000Y-40900000D02*
G75*
G03*
X79000000Y-41400000I0J-500000D01*
G01*
X79000000Y-78600000D02*
X79000000Y-89000000D01*
X104800000Y-152000000D02*
X115200000Y-152000000D01*
X104800000Y-28000000D02*
X115200000Y-28000000D01*
X202500000Y-139100000D02*
G75*
G03*
X203000000Y-138600000I0J500000D01*
G01*
D11*
X200275000Y-31250000D02*
G75*
G03*
X200275000Y-31250000I-525000J0D01*
G01*
D12*
X200250000Y-90000000D02*
G75*
G03*
X200250000Y-90000000I-500000J0D01*
G01*
D10*
X103300000Y-28500000D02*
G75*
G03*
X102800000Y-28000000I-500000J0D01*
G01*
D11*
X200275000Y-148750000D02*
G75*
G03*
X200275000Y-148750000I-525000J0D01*
G01*
D13*
G04 #@! TO.C,D1*
X142000000Y-92787500D03*
X142000000Y-90912500D03*
G04 #@! TD*
D14*
G04 #@! TO.C,R1*
X142000000Y-87087500D03*
X142000000Y-88912500D03*
G04 #@! TD*
M02*
