  0
SECTION
  2
HEADER
  9
$ANGBASE
  50
0.0
  9
$ANGDIR
  70
1
  9
$MEASUREMENT
  70
1
  0
ENDSEC
  0
SECTION
  2
TABLES
  0
TABLE
  2
LTYPE
  70
4
  0
LTYPE
  5
40F
  2
CONTINUOUS
  70
0
  3
Solid line
  72
65
  73
0
  40
0.0
  0
LTYPE
  5
410
  2
DASHDOT
 70
0
  3
Dash Dot ____ _ ____ _
 72
65
 73
4
 40
2.0
 49
1.25
 49
-0.25
 49
0.25
 49
-0.25
  0
LTYPE
  5
411
  2
DASHED
 70
0
  3
Dashed __ __ __ __ __
 72
65
 73
2
 40
0.75
 49
0.5
 49
-0.25
  0
LTYPE
  5
43B
  2
DOTTED
 70
0
  3
Dotted .  .  .  .
 72
65
 73
2
 40
0.2
 49
0.0
 49
-0.2
  0
ENDTAB
  0
TABLE
  2
STYLE
  70
4
  0
STYLE
  2
KICAD
  70
0
  40
0
  41
1
  42
1
  50
0
  71
0
  3
isocp.shx
  0
STYLE
  2
KICADB
  70
0
  40
0
  41
1
  42
1
  50
0
  71
0
  3
isocp.shx
  0
STYLE
  2
KICADI
  70
0
  40
0
  41
1
  42
1
  50
15
  71
0
  3
isocp.shx
  0
STYLE
  2
KICADBI
  70
0
  40
0
  41
1
  42
1
  50
15
  71
0
  3
isocp.shx
  0
ENDTAB
  0
TABLE
  2
LAYER
  70
1
  0
LAYER
  2
BLACK
  70
0
  62
7
  6
CONTINUOUS
  0
ENDTAB
  0
ENDSEC
  0
SECTION
  2
ENTITIES
0
LINE
8
BLACK
6
CONTINUOUS
10
142.55
20
-92.3186
11
142.629
21
-92.3714
0
LINE
8
BLACK
6
CONTINUOUS
10
142.629
20
-92.3714
11
142.681
21
-92.4505
0
LINE
8
BLACK
6
CONTINUOUS
10
142.681
20
-92.4505
11
142.7
21
-92.5438
0
LINE
8
BLACK
6
CONTINUOUS
10
142.7
20
-92.5438
11
142.7
21
-93.0312
0
LINE
8
BLACK
6
CONTINUOUS
10
142.7
20
-93.0312
11
142.681
21
-93.1245
0
LINE
8
BLACK
6
CONTINUOUS
10
142.681
20
-93.1245
11
142.629
21
-93.2036
0
LINE
8
BLACK
6
CONTINUOUS
10
142.629
20
-93.2036
11
142.55
21
-93.2564
0
LINE
8
BLACK
6
CONTINUOUS
10
142.55
20
-93.2564
11
142.456
21
-93.275
0
LINE
8
BLACK
6
CONTINUOUS
10
142.456
20
-93.275
11
141.544
21
-93.275
0
LINE
8
BLACK
6
CONTINUOUS
10
141.544
20
-93.275
11
141.45
21
-93.2564
0
LINE
8
BLACK
6
CONTINUOUS
10
141.45
20
-93.2564
11
141.371
21
-93.2036
0
LINE
8
BLACK
6
CONTINUOUS
10
141.371
20
-93.2036
11
141.319
21
-93.1245
0
LINE
8
BLACK
6
CONTINUOUS
10
141.319
20
-93.1245
11
141.3
21
-93.0312
0
LINE
8
BLACK
6
CONTINUOUS
10
141.3
20
-93.0312
11
141.3
21
-92.5438
0
LINE
8
BLACK
6
CONTINUOUS
10
141.3
20
-92.5438
11
141.319
21
-92.4505
0
LINE
8
BLACK
6
CONTINUOUS
10
141.319
20
-92.4505
11
141.371
21
-92.3714
0
LINE
8
BLACK
6
CONTINUOUS
10
141.371
20
-92.3714
11
141.45
21
-92.3186
0
LINE
8
BLACK
6
CONTINUOUS
10
141.45
20
-92.3186
11
141.544
21
-92.3
0
LINE
8
BLACK
6
CONTINUOUS
10
141.544
20
-92.3
11
142.456
21
-92.3
0
LINE
8
BLACK
6
CONTINUOUS
10
142.456
20
-92.3
11
142.55
21
-92.3186
0
LINE
8
BLACK
6
CONTINUOUS
10
142.55
20
-90.4436
11
142.629
21
-90.4964
0
LINE
8
BLACK
6
CONTINUOUS
10
142.629
20
-90.4964
11
142.681
21
-90.5755
0
LINE
8
BLACK
6
CONTINUOUS
10
142.681
20
-90.5755
11
142.7
21
-90.6688
0
LINE
8
BLACK
6
CONTINUOUS
10
142.7
20
-90.6688
11
142.7
21
-91.1562
0
LINE
8
BLACK
6
CONTINUOUS
10
142.7
20
-91.1562
11
142.681
21
-91.2495
0
LINE
8
BLACK
6
CONTINUOUS
10
142.681
20
-91.2495
11
142.629
21
-91.3286
0
LINE
8
BLACK
6
CONTINUOUS
10
142.629
20
-91.3286
11
142.55
21
-91.3814
0
LINE
8
BLACK
6
CONTINUOUS
10
142.55
20
-91.3814
11
142.456
21
-91.4
0
LINE
8
BLACK
6
CONTINUOUS
10
142.456
20
-91.4
11
141.544
21
-91.4
0
LINE
8
BLACK
6
CONTINUOUS
10
141.544
20
-91.4
11
141.45
21
-91.3814
0
LINE
8
BLACK
6
CONTINUOUS
10
141.45
20
-91.3814
11
141.371
21
-91.3286
0
LINE
8
BLACK
6
CONTINUOUS
10
141.371
20
-91.3286
11
141.319
21
-91.2495
0
LINE
8
BLACK
6
CONTINUOUS
10
141.319
20
-91.2495
11
141.3
21
-91.1562
0
LINE
8
BLACK
6
CONTINUOUS
10
141.3
20
-91.1562
11
141.3
21
-90.6688
0
LINE
8
BLACK
6
CONTINUOUS
10
141.3
20
-90.6688
11
141.319
21
-90.5755
0
LINE
8
BLACK
6
CONTINUOUS
10
141.319
20
-90.5755
11
141.371
21
-90.4964
0
LINE
8
BLACK
6
CONTINUOUS
10
141.371
20
-90.4964
11
141.45
21
-90.4436
0
LINE
8
BLACK
6
CONTINUOUS
10
141.45
20
-90.4436
11
141.544
21
-90.425
0
LINE
8
BLACK
6
CONTINUOUS
10
141.544
20
-90.425
11
142.456
21
-90.425
0
LINE
8
BLACK
6
CONTINUOUS
10
142.456
20
-90.425
11
142.55
21
-90.4436
0
LINE
8
BLACK
6
CONTINUOUS
10
142.546
20
-88.419
11
142.627
21
-88.4732
0
LINE
8
BLACK
6
CONTINUOUS
10
142.627
20
-88.4732
11
142.681
21
-88.5543
0
LINE
8
BLACK
6
CONTINUOUS
10
142.681
20
-88.5543
11
142.7
21
-88.65
0
LINE
8
BLACK
6
CONTINUOUS
10
142.7
20
-88.65
11
142.7
21
-89.175
0
LINE
8
BLACK
6
CONTINUOUS
10
142.7
20
-89.175
11
142.681
21
-89.2707
0
LINE
8
BLACK
6
CONTINUOUS
10
142.681
20
-89.2707
11
142.627
21
-89.3518
0
LINE
8
BLACK
6
CONTINUOUS
10
142.627
20
-89.3518
11
142.546
21
-89.406
0
LINE
8
BLACK
6
CONTINUOUS
10
142.546
20
-89.406
11
142.45
21
-89.425
0
LINE
8
BLACK
6
CONTINUOUS
10
142.45
20
-89.425
11
141.55
21
-89.425
0
LINE
8
BLACK
6
CONTINUOUS
10
141.55
20
-89.425
11
141.454
21
-89.406
0
LINE
8
BLACK
6
CONTINUOUS
10
141.454
20
-89.406
11
141.373
21
-89.3518
0
LINE
8
BLACK
6
CONTINUOUS
10
141.373
20
-89.3518
11
141.319
21
-89.2707
0
LINE
8
BLACK
6
CONTINUOUS
10
141.319
20
-89.2707
11
141.3
21
-89.175
0
LINE
8
BLACK
6
CONTINUOUS
10
141.3
20
-89.175
11
141.3
21
-88.65
0
LINE
8
BLACK
6
CONTINUOUS
10
141.3
20
-88.65
11
141.319
21
-88.5543
0
LINE
8
BLACK
6
CONTINUOUS
10
141.319
20
-88.5543
11
141.373
21
-88.4732
0
LINE
8
BLACK
6
CONTINUOUS
10
141.373
20
-88.4732
11
141.454
21
-88.419
0
LINE
8
BLACK
6
CONTINUOUS
10
141.454
20
-88.419
11
141.55
21
-88.4
0
LINE
8
BLACK
6
CONTINUOUS
10
141.55
20
-88.4
11
142.45
21
-88.4
0
LINE
8
BLACK
6
CONTINUOUS
10
142.45
20
-88.4
11
142.546
21
-88.419
0
LINE
8
BLACK
6
CONTINUOUS
10
142.546
20
-86.594
11
142.627
21
-86.6482
0
LINE
8
BLACK
6
CONTINUOUS
10
142.627
20
-86.6482
11
142.681
21
-86.7293
0
LINE
8
BLACK
6
CONTINUOUS
10
142.681
20
-86.7293
11
142.7
21
-86.825
0
LINE
8
BLACK
6
CONTINUOUS
10
142.7
20
-86.825
11
142.7
21
-87.35
0
LINE
8
BLACK
6
CONTINUOUS
10
142.7
20
-87.35
11
142.681
21
-87.4457
0
LINE
8
BLACK
6
CONTINUOUS
10
142.681
20
-87.4457
11
142.627
21
-87.5268
0
LINE
8
BLACK
6
CONTINUOUS
10
142.627
20
-87.5268
11
142.546
21
-87.581
0
LINE
8
BLACK
6
CONTINUOUS
10
142.546
20
-87.581
11
142.45
21
-87.6
0
LINE
8
BLACK
6
CONTINUOUS
10
142.45
20
-87.6
11
141.55
21
-87.6
0
LINE
8
BLACK
6
CONTINUOUS
10
141.55
20
-87.6
11
141.454
21
-87.581
0
LINE
8
BLACK
6
CONTINUOUS
10
141.454
20
-87.581
11
141.373
21
-87.5268
0
LINE
8
BLACK
6
CONTINUOUS
10
141.373
20
-87.5268
11
141.319
21
-87.4457
0
LINE
8
BLACK
6
CONTINUOUS
10
141.319
20
-87.4457
11
141.3
21
-87.35
0
LINE
8
BLACK
6
CONTINUOUS
10
141.3
20
-87.35
11
141.3
21
-86.825
0
LINE
8
BLACK
6
CONTINUOUS
10
141.3
20
-86.825
11
141.319
21
-86.7293
0
LINE
8
BLACK
6
CONTINUOUS
10
141.319
20
-86.7293
11
141.373
21
-86.6482
0
LINE
8
BLACK
6
CONTINUOUS
10
141.373
20
-86.6482
11
141.454
21
-86.594
0
LINE
8
BLACK
6
CONTINUOUS
10
141.454
20
-86.594
11
141.55
21
-86.575
0
LINE
8
BLACK
6
CONTINUOUS
10
141.55
20
-86.575
11
142.45
21
-86.575
0
LINE
8
BLACK
6
CONTINUOUS
10
142.45
20
-86.575
11
142.546
21
-86.594
  0
ENDSEC
  0
EOF
