%TF.GenerationSoftware,KiCad,Pcbnew,6.0.10+dfsg-1~bpo11+1*%
%TF.CreationDate,2023-02-10T23:25:59+00:00*%
%TF.ProjectId,kicad-automation-test,6b696361-642d-4617-9574-6f6d6174696f,rev?*%
%TF.SameCoordinates,Original*%
%TF.FileFunction,Drillmap*%
%TF.FilePolarity,Positive*%
%FSLAX45Y45*%
G04 Gerber Fmt 4.5, Leading zero omitted, Abs format (unit mm)*
G04 Created by KiCad (PCBNEW 6.0.10+dfsg-1~bpo11+1) date 2023-02-10 23:25:59*
%MOMM*%
%LPD*%
G01*
G04 APERTURE LIST*
%ADD10C,0.100000*%
%ADD11C,0.200000*%
%ADD12C,0.220000*%
G04 APERTURE END LIST*
D10*
X13100000Y-9700000D02*
X13100000Y-8300000D01*
X15100000Y-8300000D02*
X15100000Y-9700000D01*
X13400000Y-8000000D02*
X14800000Y-8000000D01*
X13400000Y-8000000D02*
G75*
G03*
X13100000Y-8300000I0J-300000D01*
G01*
X13100000Y-9700000D02*
G75*
G03*
X13400000Y-10000000I300000J0D01*
G01*
X15100000Y-8300000D02*
G75*
G03*
X14800000Y-8000000I-300000J0D01*
G01*
X14800000Y-10000000D02*
G75*
G03*
X15100000Y-9700000I0J300000D01*
G01*
X14800000Y-10000000D02*
X13400000Y-10000000D01*
D11*
D12*
X13290000Y-8190000D02*
X13510000Y-8410000D01*
X13510000Y-8190000D02*
X13290000Y-8410000D01*
X13290000Y-9590000D02*
X13510000Y-9810000D01*
X13510000Y-9590000D02*
X13290000Y-9810000D01*
X14690000Y-8190000D02*
X14910000Y-8410000D01*
X14910000Y-8190000D02*
X14690000Y-8410000D01*
X14690000Y-9590000D02*
X14910000Y-9810000D01*
X14910000Y-9590000D02*
X14690000Y-9810000D01*
D11*
X13352619Y-10315476D02*
X13352619Y-10115476D01*
X13400238Y-10115476D01*
X13428809Y-10125000D01*
X13447857Y-10144048D01*
X13457381Y-10163095D01*
X13466905Y-10201190D01*
X13466905Y-10229762D01*
X13457381Y-10267857D01*
X13447857Y-10286905D01*
X13428809Y-10305952D01*
X13400238Y-10315476D01*
X13352619Y-10315476D01*
X13552619Y-10315476D02*
X13552619Y-10182143D01*
X13552619Y-10220238D02*
X13562143Y-10201190D01*
X13571667Y-10191667D01*
X13590714Y-10182143D01*
X13609762Y-10182143D01*
X13676428Y-10315476D02*
X13676428Y-10182143D01*
X13676428Y-10115476D02*
X13666905Y-10125000D01*
X13676428Y-10134524D01*
X13685952Y-10125000D01*
X13676428Y-10115476D01*
X13676428Y-10134524D01*
X13800238Y-10315476D02*
X13781190Y-10305952D01*
X13771667Y-10286905D01*
X13771667Y-10115476D01*
X13905000Y-10315476D02*
X13885952Y-10305952D01*
X13876428Y-10286905D01*
X13876428Y-10115476D01*
X14133571Y-10315476D02*
X14133571Y-10115476D01*
X14200238Y-10258333D01*
X14266905Y-10115476D01*
X14266905Y-10315476D01*
X14447857Y-10315476D02*
X14447857Y-10210714D01*
X14438333Y-10191667D01*
X14419286Y-10182143D01*
X14381190Y-10182143D01*
X14362143Y-10191667D01*
X14447857Y-10305952D02*
X14428809Y-10315476D01*
X14381190Y-10315476D01*
X14362143Y-10305952D01*
X14352619Y-10286905D01*
X14352619Y-10267857D01*
X14362143Y-10248810D01*
X14381190Y-10239286D01*
X14428809Y-10239286D01*
X14447857Y-10229762D01*
X14543095Y-10182143D02*
X14543095Y-10382143D01*
X14543095Y-10191667D02*
X14562143Y-10182143D01*
X14600238Y-10182143D01*
X14619286Y-10191667D01*
X14628809Y-10201190D01*
X14638333Y-10220238D01*
X14638333Y-10277381D01*
X14628809Y-10296429D01*
X14619286Y-10305952D01*
X14600238Y-10315476D01*
X14562143Y-10315476D01*
X14543095Y-10305952D01*
X14724048Y-10296429D02*
X14733571Y-10305952D01*
X14724048Y-10315476D01*
X14714524Y-10305952D01*
X14724048Y-10296429D01*
X14724048Y-10315476D01*
X14724048Y-10191667D02*
X14733571Y-10201190D01*
X14724048Y-10210714D01*
X14714524Y-10201190D01*
X14724048Y-10191667D01*
X14724048Y-10210714D01*
X12895000Y-10545000D02*
X13095000Y-10745000D01*
X13095000Y-10545000D02*
X12895000Y-10745000D01*
X13343095Y-10554524D02*
X13352619Y-10545000D01*
X13371667Y-10535476D01*
X13419286Y-10535476D01*
X13438333Y-10545000D01*
X13447857Y-10554524D01*
X13457381Y-10573571D01*
X13457381Y-10592619D01*
X13447857Y-10621190D01*
X13333571Y-10735476D01*
X13457381Y-10735476D01*
X13543095Y-10716429D02*
X13552619Y-10725952D01*
X13543095Y-10735476D01*
X13533571Y-10725952D01*
X13543095Y-10716429D01*
X13543095Y-10735476D01*
X13628809Y-10554524D02*
X13638333Y-10545000D01*
X13657381Y-10535476D01*
X13705000Y-10535476D01*
X13724048Y-10545000D01*
X13733571Y-10554524D01*
X13743095Y-10573571D01*
X13743095Y-10592619D01*
X13733571Y-10621190D01*
X13619286Y-10735476D01*
X13743095Y-10735476D01*
X13866905Y-10535476D02*
X13885952Y-10535476D01*
X13905000Y-10545000D01*
X13914524Y-10554524D01*
X13924048Y-10573571D01*
X13933571Y-10611667D01*
X13933571Y-10659286D01*
X13924048Y-10697381D01*
X13914524Y-10716429D01*
X13905000Y-10725952D01*
X13885952Y-10735476D01*
X13866905Y-10735476D01*
X13847857Y-10725952D01*
X13838333Y-10716429D01*
X13828809Y-10697381D01*
X13819286Y-10659286D01*
X13819286Y-10611667D01*
X13828809Y-10573571D01*
X13838333Y-10554524D01*
X13847857Y-10545000D01*
X13866905Y-10535476D01*
X14057381Y-10535476D02*
X14076428Y-10535476D01*
X14095476Y-10545000D01*
X14105000Y-10554524D01*
X14114524Y-10573571D01*
X14124048Y-10611667D01*
X14124048Y-10659286D01*
X14114524Y-10697381D01*
X14105000Y-10716429D01*
X14095476Y-10725952D01*
X14076428Y-10735476D01*
X14057381Y-10735476D01*
X14038333Y-10725952D01*
X14028809Y-10716429D01*
X14019286Y-10697381D01*
X14009762Y-10659286D01*
X14009762Y-10611667D01*
X14019286Y-10573571D01*
X14028809Y-10554524D01*
X14038333Y-10545000D01*
X14057381Y-10535476D01*
X14209762Y-10735476D02*
X14209762Y-10602143D01*
X14209762Y-10621190D02*
X14219286Y-10611667D01*
X14238333Y-10602143D01*
X14266905Y-10602143D01*
X14285952Y-10611667D01*
X14295476Y-10630714D01*
X14295476Y-10735476D01*
X14295476Y-10630714D02*
X14305000Y-10611667D01*
X14324048Y-10602143D01*
X14352619Y-10602143D01*
X14371667Y-10611667D01*
X14381190Y-10630714D01*
X14381190Y-10735476D01*
X14476428Y-10735476D02*
X14476428Y-10602143D01*
X14476428Y-10621190D02*
X14485952Y-10611667D01*
X14505000Y-10602143D01*
X14533571Y-10602143D01*
X14552619Y-10611667D01*
X14562143Y-10630714D01*
X14562143Y-10735476D01*
X14562143Y-10630714D02*
X14571667Y-10611667D01*
X14590714Y-10602143D01*
X14619286Y-10602143D01*
X14638333Y-10611667D01*
X14647857Y-10630714D01*
X14647857Y-10735476D01*
X15038333Y-10525952D02*
X14866905Y-10783095D01*
X15295476Y-10535476D02*
X15314524Y-10535476D01*
X15333571Y-10545000D01*
X15343095Y-10554524D01*
X15352619Y-10573571D01*
X15362143Y-10611667D01*
X15362143Y-10659286D01*
X15352619Y-10697381D01*
X15343095Y-10716429D01*
X15333571Y-10725952D01*
X15314524Y-10735476D01*
X15295476Y-10735476D01*
X15276428Y-10725952D01*
X15266905Y-10716429D01*
X15257381Y-10697381D01*
X15247857Y-10659286D01*
X15247857Y-10611667D01*
X15257381Y-10573571D01*
X15266905Y-10554524D01*
X15276428Y-10545000D01*
X15295476Y-10535476D01*
X15447857Y-10716429D02*
X15457381Y-10725952D01*
X15447857Y-10735476D01*
X15438333Y-10725952D01*
X15447857Y-10716429D01*
X15447857Y-10735476D01*
X15581190Y-10535476D02*
X15600238Y-10535476D01*
X15619286Y-10545000D01*
X15628809Y-10554524D01*
X15638333Y-10573571D01*
X15647857Y-10611667D01*
X15647857Y-10659286D01*
X15638333Y-10697381D01*
X15628809Y-10716429D01*
X15619286Y-10725952D01*
X15600238Y-10735476D01*
X15581190Y-10735476D01*
X15562143Y-10725952D01*
X15552619Y-10716429D01*
X15543095Y-10697381D01*
X15533571Y-10659286D01*
X15533571Y-10611667D01*
X15543095Y-10573571D01*
X15552619Y-10554524D01*
X15562143Y-10545000D01*
X15581190Y-10535476D01*
X15762143Y-10621190D02*
X15743095Y-10611667D01*
X15733571Y-10602143D01*
X15724048Y-10583095D01*
X15724048Y-10573571D01*
X15733571Y-10554524D01*
X15743095Y-10545000D01*
X15762143Y-10535476D01*
X15800238Y-10535476D01*
X15819286Y-10545000D01*
X15828809Y-10554524D01*
X15838333Y-10573571D01*
X15838333Y-10583095D01*
X15828809Y-10602143D01*
X15819286Y-10611667D01*
X15800238Y-10621190D01*
X15762143Y-10621190D01*
X15743095Y-10630714D01*
X15733571Y-10640238D01*
X15724048Y-10659286D01*
X15724048Y-10697381D01*
X15733571Y-10716429D01*
X15743095Y-10725952D01*
X15762143Y-10735476D01*
X15800238Y-10735476D01*
X15819286Y-10725952D01*
X15828809Y-10716429D01*
X15838333Y-10697381D01*
X15838333Y-10659286D01*
X15828809Y-10640238D01*
X15819286Y-10630714D01*
X15800238Y-10621190D01*
X16009762Y-10535476D02*
X15971667Y-10535476D01*
X15952619Y-10545000D01*
X15943095Y-10554524D01*
X15924048Y-10583095D01*
X15914524Y-10621190D01*
X15914524Y-10697381D01*
X15924048Y-10716429D01*
X15933571Y-10725952D01*
X15952619Y-10735476D01*
X15990714Y-10735476D01*
X16009762Y-10725952D01*
X16019286Y-10716429D01*
X16028809Y-10697381D01*
X16028809Y-10649762D01*
X16019286Y-10630714D01*
X16009762Y-10621190D01*
X15990714Y-10611667D01*
X15952619Y-10611667D01*
X15933571Y-10621190D01*
X15924048Y-10630714D01*
X15914524Y-10649762D01*
X16200238Y-10535476D02*
X16162143Y-10535476D01*
X16143095Y-10545000D01*
X16133571Y-10554524D01*
X16114524Y-10583095D01*
X16105000Y-10621190D01*
X16105000Y-10697381D01*
X16114524Y-10716429D01*
X16124048Y-10725952D01*
X16143095Y-10735476D01*
X16181190Y-10735476D01*
X16200238Y-10725952D01*
X16209762Y-10716429D01*
X16219286Y-10697381D01*
X16219286Y-10649762D01*
X16209762Y-10630714D01*
X16200238Y-10621190D01*
X16181190Y-10611667D01*
X16143095Y-10611667D01*
X16124048Y-10621190D01*
X16114524Y-10630714D01*
X16105000Y-10649762D01*
X16295476Y-10535476D02*
X16295476Y-10573571D01*
X16371667Y-10535476D02*
X16371667Y-10573571D01*
X16666905Y-10811667D02*
X16657381Y-10802143D01*
X16638333Y-10773571D01*
X16628809Y-10754524D01*
X16619286Y-10725952D01*
X16609762Y-10678333D01*
X16609762Y-10640238D01*
X16619286Y-10592619D01*
X16628809Y-10564048D01*
X16638333Y-10545000D01*
X16657381Y-10516429D01*
X16666905Y-10506905D01*
X16828810Y-10602143D02*
X16828810Y-10735476D01*
X16781190Y-10525952D02*
X16733571Y-10668810D01*
X16857381Y-10668810D01*
X17085952Y-10735476D02*
X17085952Y-10535476D01*
X17171667Y-10735476D02*
X17171667Y-10630714D01*
X17162143Y-10611667D01*
X17143095Y-10602143D01*
X17114524Y-10602143D01*
X17095476Y-10611667D01*
X17085952Y-10621190D01*
X17295476Y-10735476D02*
X17276429Y-10725952D01*
X17266905Y-10716429D01*
X17257381Y-10697381D01*
X17257381Y-10640238D01*
X17266905Y-10621190D01*
X17276429Y-10611667D01*
X17295476Y-10602143D01*
X17324048Y-10602143D01*
X17343095Y-10611667D01*
X17352619Y-10621190D01*
X17362143Y-10640238D01*
X17362143Y-10697381D01*
X17352619Y-10716429D01*
X17343095Y-10725952D01*
X17324048Y-10735476D01*
X17295476Y-10735476D01*
X17476429Y-10735476D02*
X17457381Y-10725952D01*
X17447857Y-10706905D01*
X17447857Y-10535476D01*
X17628810Y-10725952D02*
X17609762Y-10735476D01*
X17571667Y-10735476D01*
X17552619Y-10725952D01*
X17543095Y-10706905D01*
X17543095Y-10630714D01*
X17552619Y-10611667D01*
X17571667Y-10602143D01*
X17609762Y-10602143D01*
X17628810Y-10611667D01*
X17638333Y-10630714D01*
X17638333Y-10649762D01*
X17543095Y-10668810D01*
X17714524Y-10725952D02*
X17733571Y-10735476D01*
X17771667Y-10735476D01*
X17790714Y-10725952D01*
X17800238Y-10706905D01*
X17800238Y-10697381D01*
X17790714Y-10678333D01*
X17771667Y-10668810D01*
X17743095Y-10668810D01*
X17724048Y-10659286D01*
X17714524Y-10640238D01*
X17714524Y-10630714D01*
X17724048Y-10611667D01*
X17743095Y-10602143D01*
X17771667Y-10602143D01*
X17790714Y-10611667D01*
X17866905Y-10811667D02*
X17876429Y-10802143D01*
X17895476Y-10773571D01*
X17905000Y-10754524D01*
X17914524Y-10725952D01*
X17924048Y-10678333D01*
X17924048Y-10640238D01*
X17914524Y-10592619D01*
X17905000Y-10564048D01*
X17895476Y-10545000D01*
X17876429Y-10516429D01*
X17866905Y-10506905D01*
X18228810Y-10811667D02*
X18219286Y-10802143D01*
X18200238Y-10773571D01*
X18190714Y-10754524D01*
X18181190Y-10725952D01*
X18171667Y-10678333D01*
X18171667Y-10640238D01*
X18181190Y-10592619D01*
X18190714Y-10564048D01*
X18200238Y-10545000D01*
X18219286Y-10516429D01*
X18228810Y-10506905D01*
X18305000Y-10602143D02*
X18305000Y-10735476D01*
X18305000Y-10621190D02*
X18314524Y-10611667D01*
X18333571Y-10602143D01*
X18362143Y-10602143D01*
X18381190Y-10611667D01*
X18390714Y-10630714D01*
X18390714Y-10735476D01*
X18514524Y-10735476D02*
X18495476Y-10725952D01*
X18485952Y-10716429D01*
X18476429Y-10697381D01*
X18476429Y-10640238D01*
X18485952Y-10621190D01*
X18495476Y-10611667D01*
X18514524Y-10602143D01*
X18543095Y-10602143D01*
X18562143Y-10611667D01*
X18571667Y-10621190D01*
X18581190Y-10640238D01*
X18581190Y-10697381D01*
X18571667Y-10716429D01*
X18562143Y-10725952D01*
X18543095Y-10735476D01*
X18514524Y-10735476D01*
X18638333Y-10602143D02*
X18714524Y-10602143D01*
X18666905Y-10535476D02*
X18666905Y-10706905D01*
X18676429Y-10725952D01*
X18695476Y-10735476D01*
X18714524Y-10735476D01*
X18933571Y-10602143D02*
X18933571Y-10802143D01*
X18933571Y-10611667D02*
X18952619Y-10602143D01*
X18990714Y-10602143D01*
X19009762Y-10611667D01*
X19019286Y-10621190D01*
X19028810Y-10640238D01*
X19028810Y-10697381D01*
X19019286Y-10716429D01*
X19009762Y-10725952D01*
X18990714Y-10735476D01*
X18952619Y-10735476D01*
X18933571Y-10725952D01*
X19143095Y-10735476D02*
X19124048Y-10725952D01*
X19114524Y-10706905D01*
X19114524Y-10535476D01*
X19305000Y-10735476D02*
X19305000Y-10630714D01*
X19295476Y-10611667D01*
X19276429Y-10602143D01*
X19238333Y-10602143D01*
X19219286Y-10611667D01*
X19305000Y-10725952D02*
X19285952Y-10735476D01*
X19238333Y-10735476D01*
X19219286Y-10725952D01*
X19209762Y-10706905D01*
X19209762Y-10687857D01*
X19219286Y-10668810D01*
X19238333Y-10659286D01*
X19285952Y-10659286D01*
X19305000Y-10649762D01*
X19371667Y-10602143D02*
X19447857Y-10602143D01*
X19400238Y-10535476D02*
X19400238Y-10706905D01*
X19409762Y-10725952D01*
X19428810Y-10735476D01*
X19447857Y-10735476D01*
X19590714Y-10725952D02*
X19571667Y-10735476D01*
X19533571Y-10735476D01*
X19514524Y-10725952D01*
X19505000Y-10706905D01*
X19505000Y-10630714D01*
X19514524Y-10611667D01*
X19533571Y-10602143D01*
X19571667Y-10602143D01*
X19590714Y-10611667D01*
X19600238Y-10630714D01*
X19600238Y-10649762D01*
X19505000Y-10668810D01*
X19771667Y-10735476D02*
X19771667Y-10535476D01*
X19771667Y-10725952D02*
X19752619Y-10735476D01*
X19714524Y-10735476D01*
X19695476Y-10725952D01*
X19685952Y-10716429D01*
X19676429Y-10697381D01*
X19676429Y-10640238D01*
X19685952Y-10621190D01*
X19695476Y-10611667D01*
X19714524Y-10602143D01*
X19752619Y-10602143D01*
X19771667Y-10611667D01*
X19847857Y-10811667D02*
X19857381Y-10802143D01*
X19876429Y-10773571D01*
X19885952Y-10754524D01*
X19895476Y-10725952D01*
X19905000Y-10678333D01*
X19905000Y-10640238D01*
X19895476Y-10592619D01*
X19885952Y-10564048D01*
X19876429Y-10545000D01*
X19857381Y-10516429D01*
X19847857Y-10506905D01*
M02*
